<?xml version="1.0" standalone="no"?>
 <!DOCTYPE svg PUBLIC "-//W3C//DTD SVG 1.1//EN" 
 "http://www.w3.org/Graphics/SVG/1.1/DTD/svg11.dtd"> 
<svg
  xmlns:svg="http://www.w3.org/2000/svg"
  xmlns="http://www.w3.org/2000/svg"
  xmlns:xlink="http://www.w3.org/1999/xlink"
  version="1.1"
  width="29.700220cm" height="21.000720cm" viewBox="0 0 116930 82680">
<title>SVG Picture created as sim-B_SilkS.svg date 2020/10/19 12:16:52 </title>
  <desc>Picture generated by PCBNEW </desc>
<g style="fill:#000000; fill-opacity:1;stroke:#000000; stroke-opacity:1;
stroke-linecap:round; stroke-linejoin:round;"
 transform="translate(0 0) scale(1 1)">
</g>
<g style="fill:#000000; fill-opacity:0.0; 
stroke:#000000; stroke-width:-0.000393701; stroke-opacity:1; 
stroke-linecap:round; stroke-linejoin:round;">
</g>
<g style="fill:#000000; fill-opacity:0.0; 
stroke:#000000; stroke-width:59.0551; stroke-opacity:1; 
stroke-linecap:round; stroke-linejoin:round;">
<text x="41750" y="29446.9"
textLength="298.181" font-size="524.934" lengthAdjust="spacingAndGlyphs"
text-anchor="middle" opacity="0">1</text>
<path d="M41637 29428
L41862 29428
" />
<path d="M41750 29428
L41750 29034
L41787 29090
L41824 29128
L41862 29146
" />
<text x="25000" y="26696.9"
textLength="1273.06" font-size="524.934" lengthAdjust="spacingAndGlyphs"
text-anchor="middle" opacity="0">ICSP</text>
<path d="M25581 26678
L25581 26284
" />
<path d="M25168 26640
L25187 26659
L25243 26678
L25281 26678
L25337 26659
L25374 26621
L25393 26584
L25412 26509
L25412 26453
L25393 26378
L25374 26340
L25337 26303
L25281 26284
L25243 26284
L25187 26303
L25168 26321
" />
<path d="M25018 26659
L24962 26678
L24868 26678
L24831 26659
L24812 26640
L24793 26603
L24793 26565
L24812 26528
L24831 26509
L24868 26490
L24943 26471
L24981 26453
L25000 26434
L25018 26396
L25018 26359
L25000 26321
L24981 26303
L24943 26284
L24850 26284
L24793 26303
" />
<path d="M24625 26678
L24625 26284
L24475 26284
L24437 26303
L24418 26321
L24400 26359
L24400 26415
L24418 26453
L24437 26471
L24475 26490
L24625 26490
" />
<text x="67000" y="23696.9"
textLength="598.144" font-size="524.934" lengthAdjust="spacingAndGlyphs"
text-anchor="middle" opacity="0">TX</text>
<path d="M67299 23284
L67074 23284
" />
<path d="M67187 23678
L67187 23284
" />
<path d="M66981 23284
L66718 23678
" />
<path d="M66718 23284
L66981 23678
" />
<text x="67000" y="21446.9"
textLength="691.882" font-size="524.934" lengthAdjust="spacingAndGlyphs"
text-anchor="middle" opacity="0">RX</text>
<path d="M67065 21428
L67196 21240
" />
<path d="M67290 21428
L67290 21034
L67140 21034
L67103 21053
L67084 21071
L67065 21109
L67065 21165
L67084 21203
L67103 21221
L67140 21240
L67290 21240
" />
<path d="M66934 21034
L66671 21428
" />
<path d="M66671 21034
L66934 21428
" />
<text x="65000" y="33946.9"
textLength="1704.26" font-size="524.934" lengthAdjust="spacingAndGlyphs"
text-anchor="middle" opacity="0">RESET</text>
<path d="M65571 33928
L65703 33740
" />
<path d="M65796 33928
L65796 33534
L65646 33534
L65609 33553
L65590 33571
L65571 33609
L65571 33665
L65590 33703
L65609 33721
L65646 33740
L65796 33740
" />
<path d="M65403 33721
L65271 33721
" />
<path d="M65215 33928
L65403 33928
L65403 33534
L65215 33534
" />
<path d="M65065 33909
L65009 33928
L64915 33928
L64878 33909
L64859 33890
L64840 33853
L64840 33815
L64859 33778
L64878 33759
L64915 33740
L64990 33721
L65028 33703
L65046 33684
L65065 33646
L65065 33609
L65046 33571
L65028 33553
L64990 33534
L64896 33534
L64840 33553
" />
<path d="M64671 33721
L64540 33721
" />
<path d="M64484 33928
L64671 33928
L64671 33534
L64484 33534
" />
<path d="M64371 33534
L64146 33534
" />
<path d="M64259 33928
L64259 33534
" />
<text x="26500" y="25696.9"
textLength="1123.08" font-size="524.934" lengthAdjust="spacingAndGlyphs"
text-anchor="middle" opacity="0">GND</text>
<path d="M26799 25303
L26837 25284
L26893 25284
L26949 25303
L26987 25340
L27006 25378
L27024 25453
L27024 25509
L27006 25584
L26987 25621
L26949 25659
L26893 25678
L26856 25678
L26799 25659
L26781 25640
L26781 25509
L26856 25509
" />
<path d="M26612 25678
L26612 25284
L26387 25678
L26387 25284
" />
<path d="M26200 25678
L26200 25284
L26106 25284
L26050 25303
L26012 25340
L25993 25378
L25975 25453
L25975 25509
L25993 25584
L26012 25621
L26050 25659
L26106 25678
L26200 25678
" />
<text x="26750" y="22696.9"
textLength="1348.05" font-size="524.934" lengthAdjust="spacingAndGlyphs"
text-anchor="middle" opacity="0">MISO</text>
<path d="M27368 22678
L27368 22284
L27237 22565
L27106 22284
L27106 22678
" />
<path d="M26918 22678
L26918 22284
" />
<path d="M26750 22659
L26693 22678
L26600 22678
L26562 22659
L26543 22640
L26525 22603
L26525 22565
L26543 22528
L26562 22509
L26600 22490
L26675 22471
L26712 22453
L26731 22434
L26750 22396
L26750 22359
L26731 22321
L26712 22303
L26675 22284
L26581 22284
L26525 22303
" />
<path d="M26281 22284
L26206 22284
L26168 22303
L26131 22340
L26112 22415
L26112 22546
L26131 22621
L26168 22659
L26206 22678
L26281 22678
L26318 22659
L26356 22621
L26375 22546
L26375 22415
L26356 22340
L26318 22303
L26281 22284
" />
<text x="26750" y="23696.9"
textLength="1348.05" font-size="524.934" lengthAdjust="spacingAndGlyphs"
text-anchor="middle" opacity="0">MOSI</text>
<path d="M27368 23678
L27368 23284
L27237 23565
L27106 23284
L27106 23678
" />
<path d="M26843 23284
L26768 23284
L26731 23303
L26693 23340
L26675 23415
L26675 23546
L26693 23621
L26731 23659
L26768 23678
L26843 23678
L26881 23659
L26918 23621
L26937 23546
L26937 23415
L26918 23340
L26881 23303
L26843 23284
" />
<path d="M26525 23659
L26468 23678
L26375 23678
L26337 23659
L26318 23640
L26300 23603
L26300 23565
L26318 23528
L26337 23509
L26375 23490
L26450 23471
L26487 23453
L26506 23434
L26525 23396
L26525 23359
L26506 23321
L26487 23303
L26450 23284
L26356 23284
L26300 23303
" />
<path d="M26131 23678
L26131 23284
" />
<text x="26500" y="24696.9"
textLength="1085.58" font-size="524.934" lengthAdjust="spacingAndGlyphs"
text-anchor="middle" opacity="0">SCK</text>
<path d="M27006 24659
L26949 24678
L26856 24678
L26818 24659
L26799 24640
L26781 24603
L26781 24565
L26799 24528
L26818 24509
L26856 24490
L26931 24471
L26968 24453
L26987 24434
L27006 24396
L27006 24359
L26987 24321
L26968 24303
L26931 24284
L26837 24284
L26781 24303
" />
<path d="M26387 24640
L26406 24659
L26462 24678
L26500 24678
L26556 24659
L26593 24621
L26612 24584
L26631 24509
L26631 24453
L26612 24378
L26593 24340
L26556 24303
L26500 24284
L26462 24284
L26406 24303
L26387 24321
" />
<path d="M26218 24678
L26218 24284
" />
<path d="M25993 24678
L26162 24453
" />
<path d="M25993 24284
L26218 24509
" />
<text x="26750" y="21696.9"
textLength="1704.26" font-size="524.934" lengthAdjust="spacingAndGlyphs"
text-anchor="middle" opacity="0">RESET</text>
<path d="M27321 21678
L27453 21490
" />
<path d="M27546 21678
L27546 21284
L27396 21284
L27359 21303
L27340 21321
L27321 21359
L27321 21415
L27340 21453
L27359 21471
L27396 21490
L27546 21490
" />
<path d="M27153 21471
L27021 21471
" />
<path d="M26965 21678
L27153 21678
L27153 21284
L26965 21284
" />
<path d="M26815 21659
L26759 21678
L26665 21678
L26628 21659
L26609 21640
L26590 21603
L26590 21565
L26609 21528
L26628 21509
L26665 21490
L26740 21471
L26778 21453
L26796 21434
L26815 21396
L26815 21359
L26796 21321
L26778 21303
L26740 21284
L26646 21284
L26590 21303
" />
<path d="M26421 21471
L26290 21471
" />
<path d="M26234 21678
L26421 21678
L26421 21284
L26234 21284
" />
<path d="M26121 21284
L25896 21284
" />
<path d="M26009 21678
L26009 21284
" />
<text x="26250" y="20696.9"
textLength="635.639" font-size="524.934" lengthAdjust="spacingAndGlyphs"
text-anchor="middle" opacity="0">5V</text>
<path d="M26324 20284
L26512 20284
L26531 20471
L26512 20453
L26474 20434
L26381 20434
L26343 20453
L26324 20471
L26306 20509
L26306 20603
L26324 20640
L26343 20659
L26381 20678
L26474 20678
L26512 20659
L26531 20640
" />
<path d="M26193 20284
L26062 20678
L25931 20284
" />
</g>
<g style="fill:#000000; fill-opacity:0.0; 
stroke:#000000; stroke-width:47.2441; stroke-opacity:1; 
stroke-linecap:round; stroke-linejoin:round;">
<path d="M66257 31891
L66257 30836
" />
<path d="M63801 30836
L63801 31891
" />
<path d="M63860 32592
L66198 32592
" />
<path d="M63860 30135
L66198 30135
" />
<circle cx="65029.5" cy="31364.2" r="556.777" /> 
<path d="M40874 21956
L40874 20169
" />
<path d="M40031 21956
L40031 20169
" />
<path d="M40874 21956
L40868 21956
" />
<path d="M40037 21956
L40031 21956
" />
<path d="M40874 20169
L40868 20169
" />
<path d="M40037 20169
L40031 20169
" />
</g>
<g style="fill:#000000; fill-opacity:0.0; 
stroke:#000000; stroke-width:59.0551; stroke-opacity:1; 
stroke-linecap:round; stroke-linejoin:round;">
<path d="M42844 29596
L42844 29370
" />
<path d="M46919 29596
L46919 29330
" />
<path d="M46919 25521
L46919 25787
" />
<path d="M42844 25521
L42844 25787
" />
<path d="M42844 29596
L43110 29596
" />
<path d="M42844 25521
L43110 25521
" />
<path d="M46919 25521
L46653 25521
" />
<path d="M46919 29596
L46653 29596
" />
<path d="M42844 29370
L42342 29370
" />
</g>
<g style="fill:#000000; fill-opacity:0.0; 
stroke:#000000; stroke-width:47.2441; stroke-opacity:1; 
stroke-linecap:round; stroke-linejoin:round;">
<path d="M46069 20805
L43609 20805
" />
<path d="M46069 22794
L43609 22794
" />
<path d="M46069.7 22794.1 A994.094 994.094 0.0 0 0 46069.7 20805.9" />
<path d="M43609.1 20805.9 A994.094 994.094 0.0 0 0 43609.1 22794.1" />
<path d="M70043 36472
L69409 36472
" />
<path d="M67751 39511
L67751 38700
" />
<path d="M68425 39511
L67751 39511
" />
<path d="M67751 36472
L67751 37283
" />
<path d="M68425 36472
L67751 36472
" />
<path d="M70043 36472
L70043 39511
" />
<path d="M70043 39511
L69409 39511
" />
<path d="M67751 37283
L67519 37283
" />
<path d="M25326 32523
L24279 32523
" />
<path d="M25326 29500
L25326 32523
" />
<path d="M24279 29500
L24279 32523
" />
<path d="M25326 29500
L24279 29500
" />
<path d="M25326 29000
L25326 28476
" />
<path d="M25326 28476
L24803 28476
" />
<path d="M25523 26023
L24476 26023
" />
<path d="M25523 21000
L25523 26023
" />
<path d="M24476 21000
L24476 26023
" />
<path d="M25523 21000
L24476 21000
" />
<path d="M25523 20500
L25523 19976
" />
<path d="M25523 19976
L25000 19976
" />
<path d="M48840 25303
L48846 25303
" />
<path d="M48003 25303
L48009 25303
" />
<path d="M48840 23515
L48846 23515
" />
<path d="M48003 23515
L48009 23515
" />
<path d="M48846 23515
L48846 25303
" />
<path d="M48003 23515
L48003 25303
" />
<path d="M66114 21675
L66114 21736
" />
<path d="M66114 20763
L66114 20824
" />
<path d="M65090.1 21675.1 A590.551 590.551 0.0 0 0 65909.8 21675.2" />
<path d="M65909.8 20824.8 A590.551 590.551 0.0 0 0 65090.1 20824.9" />
<path d="M64841.6 21674.6 A783.465 783.465 0.0 0 0 66114.2 21736.4" />
<path d="M66114.2 20763.6 A783.465 783.465 0.0 0 0 64841.6 20825.4" />
<path d="M66114 23013
L66114 23074
" />
<path d="M66114 23925
L66114 23986
" />
<path d="M66114.2 23013.6 A783.465 783.465 0.0 0 0 64841.6 23075.4" />
<path d="M64841.6 23924.6 A783.465 783.465 0.0 0 0 66114.2 23986.4" />
<path d="M65909.8 23074.8 A590.551 590.551 0.0 0 0 65090.1 23074.9" />
<path d="M65090.1 23925.1 A590.551 590.551 0.0 0 0 65909.8 23925.2" />
<path d="M62318 39106
L63830 39106
" />
<path d="M62318 39830
L63830 39830
" />
<path d="M62318 38354
L63830 38354
" />
<path d="M62318 37629
L63830 37629
" />
<path d="M34204 30283
L32692 30283
" />
<path d="M34204 29559
L32692 29559
" />
<path d="M61744 21612
L63255 21612
" />
<path d="M61744 20887
L63255 20887
" />
<path d="M61744 23862
L63255 23862
" />
<path d="M61744 23137
L63255 23137
" />
<path d="M32785 25175
L32982 25175
" />
<path d="M32883 25076
L32883 25273
" />
<path d="M33352 27205
L33576 27205
" />
<path d="M33260 27189
L33668 27189
" />
<path d="M33198 27173
L33731 27173
" />
<path d="M33147 27157
L33781 27157
" />
<path d="M33104 27142
L33824 27142
" />
<path d="M33066 27126
L33862 27126
" />
<path d="M33032 27110
L33896 27110
" />
<path d="M33000 27094
L33928 27094
" />
<path d="M33874 27079
L33957 27079
" />
<path d="M32972 27079
L33055 27079
" />
<path d="M33874 27063
L33983 27063
" />
<path d="M32945 27063
L33055 27063
" />
<path d="M33874 27047
L34009 27047
" />
<path d="M32920 27047
L33055 27047
" />
<path d="M33874 27031
L34032 27031
" />
<path d="M32896 27031
L33055 27031
" />
<path d="M33874 27016
L34055 27016
" />
<path d="M32874 27016
L33055 27016
" />
<path d="M33874 27000
L34076 27000
" />
<path d="M32852 27000
L33055 27000
" />
<path d="M33874 26984
L34096 26984
" />
<path d="M32832 26984
L33055 26984
" />
<path d="M33874 26968
L34115 26968
" />
<path d="M32813 26968
L33055 26968
" />
<path d="M33874 26953
L34133 26953
" />
<path d="M32795 26953
L33055 26953
" />
<path d="M33874 26937
L34150 26937
" />
<path d="M32778 26937
L33055 26937
" />
<path d="M33874 26921
L34167 26921
" />
<path d="M32761 26921
L33055 26921
" />
<path d="M33874 26905
L34183 26905
" />
<path d="M32745 26905
L33055 26905
" />
<path d="M33874 26890
L34198 26890
" />
<path d="M32730 26890
L33055 26890
" />
<path d="M33874 26874
L34212 26874
" />
<path d="M32716 26874
L33055 26874
" />
<path d="M33874 26858
L34227 26858
" />
<path d="M32701 26858
L33055 26858
" />
<path d="M33874 26842
L34240 26842
" />
<path d="M32688 26842
L33055 26842
" />
<path d="M33874 26827
L34253 26827
" />
<path d="M32675 26827
L33055 26827
" />
<path d="M33874 26811
L34265 26811
" />
<path d="M32663 26811
L33055 26811
" />
<path d="M33874 26795
L34277 26795
" />
<path d="M32651 26795
L33055 26795
" />
<path d="M33874 26779
L34289 26779
" />
<path d="M32639 26779
L33055 26779
" />
<path d="M33874 26764
L34300 26764
" />
<path d="M32629 26764
L33055 26764
" />
<path d="M33874 26748
L34310 26748
" />
<path d="M32618 26748
L33055 26748
" />
<path d="M33874 26732
L34320 26732
" />
<path d="M32608 26732
L33055 26732
" />
<path d="M33874 26716
L34330 26716
" />
<path d="M32598 26716
L33055 26716
" />
<path d="M33874 26701
L34340 26701
" />
<path d="M32588 26701
L33055 26701
" />
<path d="M33874 26685
L34349 26685
" />
<path d="M32579 26685
L33055 26685
" />
<path d="M33874 26669
L34357 26669
" />
<path d="M32571 26669
L33055 26669
" />
<path d="M33874 26653
L34366 26653
" />
<path d="M32562 26653
L33055 26653
" />
<path d="M33874 26638
L34374 26638
" />
<path d="M32555 26638
L33055 26638
" />
<path d="M33874 26622
L34381 26622
" />
<path d="M32547 26622
L33055 26622
" />
<path d="M33874 26606
L34388 26606
" />
<path d="M32540 26606
L33055 26606
" />
<path d="M33874 26590
L34395 26590
" />
<path d="M32533 26590
L33055 26590
" />
<path d="M33874 26575
L34402 26575
" />
<path d="M32526 26575
L33055 26575
" />
<path d="M33874 26559
L34408 26559
" />
<path d="M32520 26559
L33055 26559
" />
<path d="M33874 26543
L34414 26543
" />
<path d="M32514 26543
L33055 26543
" />
<path d="M33874 26527
L34420 26527
" />
<path d="M32508 26527
L33055 26527
" />
<path d="M33874 26512
L34425 26512
" />
<path d="M32503 26512
L33055 26512
" />
<path d="M33874 26496
L34431 26496
" />
<path d="M32498 26496
L33055 26496
" />
<path d="M33874 26480
L34436 26480
" />
<path d="M32492 26480
L33055 26480
" />
<path d="M33874 26464
L34440 26464
" />
<path d="M32488 26464
L33055 26464
" />
<path d="M33874 26448
L34445 26448
" />
<path d="M32483 26448
L33055 26448
" />
<path d="M33874 26433
L34449 26433
" />
<path d="M32479 26433
L33055 26433
" />
<path d="M33874 26417
L34453 26417
" />
<path d="M32475 26417
L33055 26417
" />
<path d="M33874 26401
L34456 26401
" />
<path d="M32472 26401
L33055 26401
" />
<path d="M33874 26385
L34459 26385
" />
<path d="M32469 26385
L33055 26385
" />
<path d="M33874 26370
L34462 26370
" />
<path d="M32466 26370
L33055 26370
" />
<path d="M33874 26354
L34465 26354
" />
<path d="M32463 26354
L33055 26354
" />
<path d="M33874 26338
L34468 26338
" />
<path d="M32460 26338
L33055 26338
" />
<path d="M33874 26322
L34470 26322
" />
<path d="M32458 26322
L33055 26322
" />
<path d="M33874 26307
L34472 26307
" />
<path d="M32456 26307
L33055 26307
" />
<path d="M33874 26291
L34474 26291
" />
<path d="M32454 26291
L33055 26291
" />
<path d="M33874 26275
L34475 26275
" />
<path d="M32453 26275
L33055 26275
" />
<path d="M32451 26259
L34477 26259
" />
<path d="M32450 26244
L34478 26244
" />
<path d="M32449 26228
L34479 26228
" />
<path d="M32449 26212
L34479 26212
" />
<path d="M32448 26196
L34480 26196
" />
<path d="M32448 26181
L34480 26181
" />
<circle cx="33464.6" cy="26181.1" r="1031.5" /> 
<g >
</g>
<g >
</g>
<g >
</g>
<g >
</g>
<g >
</g>
<g >
</g>
<g >
</g>
<g >
</g>
<g >
</g>
<g >
</g>
<g >
</g>
<g >
</g>
<g >
</g>
<g >
</g>
<g >
</g>
<g >
</g>
<g >
</g>
<g >
</g>
<g >
</g>
<g >
</g>
<g >
</g>
<g >
</g>
<g >
</g>
<g >
</g>
<g >
</g>
<g >
</g>
<g >
</g>
<g >
</g>
<g >
</g>
</g> 
</svg>
