<?xml version="1.0" standalone="no"?>
 <!DOCTYPE svg PUBLIC "-//W3C//DTD SVG 1.1//EN" 
 "http://www.w3.org/Graphics/SVG/1.1/DTD/svg11.dtd"> 
<svg
  xmlns:svg="http://www.w3.org/2000/svg"
  xmlns="http://www.w3.org/2000/svg"
  xmlns:xlink="http://www.w3.org/1999/xlink"
  version="1.1"
  width="29.700220cm" height="21.000720cm" viewBox="0 0 116930 82680">
<title>SVG Picture created as sim-B_Cu.svg date 2020/10/19 12:16:52 </title>
  <desc>Picture generated by PCBNEW </desc>
<g style="fill:#000000; fill-opacity:1;stroke:#000000; stroke-opacity:1;
stroke-linecap:round; stroke-linejoin:round;"
 transform="translate(0 0) scale(1 1)">
</g>
<g style="fill:#000000; fill-opacity:0.0; 
stroke:#000000; stroke-width:-0.000393701; stroke-opacity:1; 
stroke-linecap:round; stroke-linejoin:round;">
</g>
<g style="fill:#000000; fill-opacity:0.0; 
stroke:#000000; stroke-width:118.11; stroke-opacity:1; 
stroke-linecap:round; stroke-linejoin:round;">
<text x="58750" y="42840.6"
textLength="13232.3" font-size="1574.8" lengthAdjust="spacingAndGlyphs"
text-anchor="middle" opacity="0">2020 Jaytronic</text>
<path d="M65217 41715
L65161 41659
L65049 41603
L64767 41603
L64655 41659
L64599 41715
L64543 41828
L64543 41940
L64599 42109
L65274 42784
L64543 42784
" />
<path d="M63811 41603
L63699 41603
L63586 41659
L63530 41715
L63474 41828
L63418 42053
L63418 42334
L63474 42559
L63530 42671
L63586 42728
L63699 42784
L63811 42784
L63924 42728
L63980 42671
L64036 42559
L64093 42334
L64093 42053
L64036 41828
L63980 41715
L63924 41659
L63811 41603
" />
<path d="M62968 41715
L62911 41659
L62799 41603
L62518 41603
L62405 41659
L62349 41715
L62293 41828
L62293 41940
L62349 42109
L63024 42784
L62293 42784
" />
<path d="M61562 41603
L61449 41603
L61337 41659
L61280 41715
L61224 41828
L61168 42053
L61168 42334
L61224 42559
L61280 42671
L61337 42728
L61449 42784
L61562 42784
L61674 42728
L61730 42671
L61787 42559
L61843 42334
L61843 42053
L61787 41828
L61730 41715
L61674 41659
L61562 41603
" />
<path d="M59424 41603
L59424 42446
L59481 42615
L59593 42728
L59762 42784
L59874 42784
" />
<path d="M58356 42784
L58356 42165
L58412 42053
L58525 41996
L58750 41996
L58862 42053
" />
<path d="M58356 42728
L58468 42784
L58750 42784
L58862 42728
L58918 42615
L58918 42503
L58862 42390
L58750 42334
L58468 42334
L58356 42278
" />
<path d="M57906 41996
L57625 42784
" />
<path d="M57343 41996
L57625 42784
L57737 43065
L57793 43121
L57906 43178
" />
<path d="M57062 41996
L56612 41996
" />
<path d="M56893 41603
L56893 42615
L56837 42728
L56725 42784
L56612 42784
" />
<path d="M56219 42784
L56219 41996
" />
<path d="M56219 42221
L56162 42109
L56106 42053
L55994 41996
L55881 41996
" />
<path d="M55319 42784
L55431 42728
L55487 42671
L55544 42559
L55544 42221
L55487 42109
L55431 42053
L55319 41996
L55150 41996
L55037 42053
L54981 42109
L54925 42221
L54925 42559
L54981 42671
L55037 42728
L55150 42784
L55319 42784
" />
<path d="M54419 41996
L54419 42784
" />
<path d="M54419 42109
L54363 42053
L54250 41996
L54081 41996
L53969 42053
L53913 42165
L53913 42784
" />
<path d="M53350 42784
L53350 41996
" />
<path d="M53350 41603
L53406 41659
L53350 41715
L53294 41659
L53350 41603
L53350 41715
" />
<path d="M52282 42728
L52394 42784
L52619 42784
L52732 42728
L52788 42671
L52844 42559
L52844 42221
L52788 42109
L52732 42053
L52619 41996
L52394 41996
L52282 42053
" />
<g >
</g>
<g style="fill:#000000; fill-opacity:1.0; 
stroke:#000000; stroke-width:0; stroke-opacity:1; 
stroke-linecap:round; stroke-linejoin:round;">
<circle cx="63750" cy="32250" r="334.646" /> 
</g>
<g style="fill:#000000; fill-opacity:1.0; 
stroke:#000000; stroke-width:39.3701; stroke-opacity:1; 
stroke-linecap:round; stroke-linejoin:round;">
</g>
<g style="fill:#000000; fill-opacity:1.0; 
stroke:#000000; stroke-width:0; stroke-opacity:1; 
stroke-linecap:round; stroke-linejoin:round;">
<circle cx="66309.1" cy="32250" r="334.646" /> 
</g>
<g style="fill:#000000; fill-opacity:1.0; 
stroke:#000000; stroke-width:39.3701; stroke-opacity:1; 
stroke-linecap:round; stroke-linejoin:round;">
</g>
<g style="fill:#000000; fill-opacity:1.0; 
stroke:#000000; stroke-width:0; stroke-opacity:1; 
stroke-linecap:round; stroke-linejoin:round;">
<circle cx="63750" cy="30478.3" r="334.646" /> 
</g>
<g style="fill:#000000; fill-opacity:1.0; 
stroke:#000000; stroke-width:39.3701; stroke-opacity:1; 
stroke-linecap:round; stroke-linejoin:round;">
</g>
<g style="fill:#000000; fill-opacity:1.0; 
stroke:#000000; stroke-width:0; stroke-opacity:1; 
stroke-linecap:round; stroke-linejoin:round;">
<circle cx="66309.1" cy="30478.3" r="334.646" /> 
</g>
<g style="fill:#000000; fill-opacity:1.0; 
stroke:#000000; stroke-width:39.3701; stroke-opacity:1; 
stroke-linecap:round; stroke-linejoin:round;">
</g>
<g >
</g>
<g style="fill:#000000; fill-opacity:1.0; 
stroke:#000000; stroke-width:39.3701; stroke-opacity:1; 
stroke-linecap:round; stroke-linejoin:round;">
</g>
<g style="fill:#000000; fill-opacity:1.0; 
stroke:#000000; stroke-width:0; stroke-opacity:1; 
stroke-linecap:round; stroke-linejoin:round;">
<circle cx="40452.8" cy="22047.2" r="314.961" /> 
</g>
<g style="fill:#000000; fill-opacity:1.0; 
stroke:#000000; stroke-width:39.3701; stroke-opacity:1; 
stroke-linecap:round; stroke-linejoin:round;">
</g>
<g style="fill:#000000; fill-opacity:1.0; 
stroke:#000000; stroke-width:0; stroke-opacity:1; 
stroke-linecap:round; stroke-linejoin:round;">
<circle cx="40452.8" cy="20078.7" r="314.961" /> 
</g>
<g style="fill:#000000; fill-opacity:1.0; 
stroke:#000000; stroke-width:39.3701; stroke-opacity:1; 
stroke-linecap:round; stroke-linejoin:round;">
</g>
<g >
</g>
<g >
</g>
<g >
</g>
<g >
</g>
<g >
</g>
<g >
</g>
<g >
</g>
<g >
</g>
<g >
</g>
<g >
</g>
<g >
</g>
<g >
</g>
<g style="fill:#000000; fill-opacity:1.0; 
stroke:#000000; stroke-width:39.3701; stroke-opacity:1; 
stroke-linecap:round; stroke-linejoin:round;">
</g>
<g style="fill:#000000; fill-opacity:1.0; 
stroke:#000000; stroke-width:0; stroke-opacity:1; 
stroke-linecap:round; stroke-linejoin:round;">
<path style="fill:#000000; fill-opacity:1.0; 
stroke:#000000; stroke-width:0; stroke-opacity:1; 
stroke-linecap:round; stroke-linejoin:round;fill-rule:evenodd;"
d="M 42342.5,29242.1
42342.5,29025.6
42933.1,29025.6
42933.1,29242.1
Z" /> 
<path style="fill:#000000; fill-opacity:1.0; 
stroke:#000000; stroke-width:0; stroke-opacity:1; 
stroke-linecap:round; stroke-linejoin:round;fill-rule:evenodd;"
d="M 42342.5,28927.2
42342.5,28710.6
42933.1,28710.6
42933.1,28927.2
Z" /> 
<path style="fill:#000000; fill-opacity:1.0; 
stroke:#000000; stroke-width:0; stroke-opacity:1; 
stroke-linecap:round; stroke-linejoin:round;fill-rule:evenodd;"
d="M 42342.5,28612.2
42342.5,28395.7
42933.1,28395.7
42933.1,28612.2
Z" /> 
<path style="fill:#000000; fill-opacity:1.0; 
stroke:#000000; stroke-width:0; stroke-opacity:1; 
stroke-linecap:round; stroke-linejoin:round;fill-rule:evenodd;"
d="M 42342.5,28297.2
42342.5,28080.7
42933.1,28080.7
42933.1,28297.2
Z" /> 
<path style="fill:#000000; fill-opacity:1.0; 
stroke:#000000; stroke-width:0; stroke-opacity:1; 
stroke-linecap:round; stroke-linejoin:round;fill-rule:evenodd;"
d="M 42342.5,27982.3
42342.5,27765.7
42933.1,27765.7
42933.1,27982.3
Z" /> 
<path style="fill:#000000; fill-opacity:1.0; 
stroke:#000000; stroke-width:0; stroke-opacity:1; 
stroke-linecap:round; stroke-linejoin:round;fill-rule:evenodd;"
d="M 42342.5,27667.3
42342.5,27450.8
42933.1,27450.8
42933.1,27667.3
Z" /> 
<path style="fill:#000000; fill-opacity:1.0; 
stroke:#000000; stroke-width:0; stroke-opacity:1; 
stroke-linecap:round; stroke-linejoin:round;fill-rule:evenodd;"
d="M 42342.5,27352.4
42342.5,27135.8
42933.1,27135.8
42933.1,27352.4
Z" /> 
<path style="fill:#000000; fill-opacity:1.0; 
stroke:#000000; stroke-width:0; stroke-opacity:1; 
stroke-linecap:round; stroke-linejoin:round;fill-rule:evenodd;"
d="M 42342.5,27037.4
42342.5,26820.9
42933.1,26820.9
42933.1,27037.4
Z" /> 
<path style="fill:#000000; fill-opacity:1.0; 
stroke:#000000; stroke-width:0; stroke-opacity:1; 
stroke-linecap:round; stroke-linejoin:round;fill-rule:evenodd;"
d="M 42342.5,26722.4
42342.5,26505.9
42933.1,26505.9
42933.1,26722.4
Z" /> 
<path style="fill:#000000; fill-opacity:1.0; 
stroke:#000000; stroke-width:0; stroke-opacity:1; 
stroke-linecap:round; stroke-linejoin:round;fill-rule:evenodd;"
d="M 42342.5,26407.5
42342.5,26190.9
42933.1,26190.9
42933.1,26407.5
Z" /> 
<path style="fill:#000000; fill-opacity:1.0; 
stroke:#000000; stroke-width:0; stroke-opacity:1; 
stroke-linecap:round; stroke-linejoin:round;fill-rule:evenodd;"
d="M 42342.5,26092.5
42342.5,25876
42933.1,25876
42933.1,26092.5
Z" /> 
<path style="fill:#000000; fill-opacity:1.0; 
stroke:#000000; stroke-width:0; stroke-opacity:1; 
stroke-linecap:round; stroke-linejoin:round;fill-rule:evenodd;"
d="M 43198.8,25019.7
43415.4,25019.7
43415.4,25610.2
43198.8,25610.2
Z" /> 
<path style="fill:#000000; fill-opacity:1.0; 
stroke:#000000; stroke-width:0; stroke-opacity:1; 
stroke-linecap:round; stroke-linejoin:round;fill-rule:evenodd;"
d="M 43513.8,25019.7
43730.3,25019.7
43730.3,25610.2
43513.8,25610.2
Z" /> 
<path style="fill:#000000; fill-opacity:1.0; 
stroke:#000000; stroke-width:0; stroke-opacity:1; 
stroke-linecap:round; stroke-linejoin:round;fill-rule:evenodd;"
d="M 43828.7,25019.7
44045.3,25019.7
44045.3,25610.2
43828.7,25610.2
Z" /> 
<path style="fill:#000000; fill-opacity:1.0; 
stroke:#000000; stroke-width:0; stroke-opacity:1; 
stroke-linecap:round; stroke-linejoin:round;fill-rule:evenodd;"
d="M 44143.7,25019.7
44360.2,25019.7
44360.2,25610.2
44143.7,25610.2
Z" /> 
<path style="fill:#000000; fill-opacity:1.0; 
stroke:#000000; stroke-width:0; stroke-opacity:1; 
stroke-linecap:round; stroke-linejoin:round;fill-rule:evenodd;"
d="M 44458.7,25019.7
44675.2,25019.7
44675.2,25610.2
44458.7,25610.2
Z" /> 
<path style="fill:#000000; fill-opacity:1.0; 
stroke:#000000; stroke-width:0; stroke-opacity:1; 
stroke-linecap:round; stroke-linejoin:round;fill-rule:evenodd;"
d="M 44773.6,25019.7
44990.2,25019.7
44990.2,25610.2
44773.6,25610.2
Z" /> 
<path style="fill:#000000; fill-opacity:1.0; 
stroke:#000000; stroke-width:0; stroke-opacity:1; 
stroke-linecap:round; stroke-linejoin:round;fill-rule:evenodd;"
d="M 45088.6,25019.7
45305.1,25019.7
45305.1,25610.2
45088.6,25610.2
Z" /> 
<path style="fill:#000000; fill-opacity:1.0; 
stroke:#000000; stroke-width:0; stroke-opacity:1; 
stroke-linecap:round; stroke-linejoin:round;fill-rule:evenodd;"
d="M 45403.5,25019.7
45620.1,25019.7
45620.1,25610.2
45403.5,25610.2
Z" /> 
<path style="fill:#000000; fill-opacity:1.0; 
stroke:#000000; stroke-width:0; stroke-opacity:1; 
stroke-linecap:round; stroke-linejoin:round;fill-rule:evenodd;"
d="M 45718.5,25019.7
45935,25019.7
45935,25610.2
45718.5,25610.2
Z" /> 
<path style="fill:#000000; fill-opacity:1.0; 
stroke:#000000; stroke-width:0; stroke-opacity:1; 
stroke-linecap:round; stroke-linejoin:round;fill-rule:evenodd;"
d="M 46033.5,25019.7
46250,25019.7
46250,25610.2
46033.5,25610.2
Z" /> 
<path style="fill:#000000; fill-opacity:1.0; 
stroke:#000000; stroke-width:0; stroke-opacity:1; 
stroke-linecap:round; stroke-linejoin:round;fill-rule:evenodd;"
d="M 46348.4,25019.7
46565,25019.7
46565,25610.2
46348.4,25610.2
Z" /> 
<path style="fill:#000000; fill-opacity:1.0; 
stroke:#000000; stroke-width:0; stroke-opacity:1; 
stroke-linecap:round; stroke-linejoin:round;fill-rule:evenodd;"
d="M 46830.7,26092.5
46830.7,25876
47421.3,25876
47421.3,26092.5
Z" /> 
<path style="fill:#000000; fill-opacity:1.0; 
stroke:#000000; stroke-width:0; stroke-opacity:1; 
stroke-linecap:round; stroke-linejoin:round;fill-rule:evenodd;"
d="M 46830.7,26407.5
46830.7,26190.9
47421.3,26190.9
47421.3,26407.5
Z" /> 
<path style="fill:#000000; fill-opacity:1.0; 
stroke:#000000; stroke-width:0; stroke-opacity:1; 
stroke-linecap:round; stroke-linejoin:round;fill-rule:evenodd;"
d="M 46830.7,26722.4
46830.7,26505.9
47421.3,26505.9
47421.3,26722.4
Z" /> 
<path style="fill:#000000; fill-opacity:1.0; 
stroke:#000000; stroke-width:0; stroke-opacity:1; 
stroke-linecap:round; stroke-linejoin:round;fill-rule:evenodd;"
d="M 46830.7,27037.4
46830.7,26820.9
47421.3,26820.9
47421.3,27037.4
Z" /> 
<path style="fill:#000000; fill-opacity:1.0; 
stroke:#000000; stroke-width:0; stroke-opacity:1; 
stroke-linecap:round; stroke-linejoin:round;fill-rule:evenodd;"
d="M 46830.7,27352.4
46830.7,27135.8
47421.3,27135.8
47421.3,27352.4
Z" /> 
<path style="fill:#000000; fill-opacity:1.0; 
stroke:#000000; stroke-width:0; stroke-opacity:1; 
stroke-linecap:round; stroke-linejoin:round;fill-rule:evenodd;"
d="M 46830.7,27667.3
46830.7,27450.8
47421.3,27450.8
47421.3,27667.3
Z" /> 
<path style="fill:#000000; fill-opacity:1.0; 
stroke:#000000; stroke-width:0; stroke-opacity:1; 
stroke-linecap:round; stroke-linejoin:round;fill-rule:evenodd;"
d="M 46830.7,27982.3
46830.7,27765.7
47421.3,27765.7
47421.3,27982.3
Z" /> 
<path style="fill:#000000; fill-opacity:1.0; 
stroke:#000000; stroke-width:0; stroke-opacity:1; 
stroke-linecap:round; stroke-linejoin:round;fill-rule:evenodd;"
d="M 46830.7,28297.2
46830.7,28080.7
47421.3,28080.7
47421.3,28297.2
Z" /> 
<path style="fill:#000000; fill-opacity:1.0; 
stroke:#000000; stroke-width:0; stroke-opacity:1; 
stroke-linecap:round; stroke-linejoin:round;fill-rule:evenodd;"
d="M 46830.7,28612.2
46830.7,28395.7
47421.3,28395.7
47421.3,28612.2
Z" /> 
<path style="fill:#000000; fill-opacity:1.0; 
stroke:#000000; stroke-width:0; stroke-opacity:1; 
stroke-linecap:round; stroke-linejoin:round;fill-rule:evenodd;"
d="M 46830.7,28927.2
46830.7,28710.6
47421.3,28710.6
47421.3,28927.2
Z" /> 
<path style="fill:#000000; fill-opacity:1.0; 
stroke:#000000; stroke-width:0; stroke-opacity:1; 
stroke-linecap:round; stroke-linejoin:round;fill-rule:evenodd;"
d="M 46830.7,29242.1
46830.7,29025.6
47421.3,29025.6
47421.3,29242.1
Z" /> 
<path style="fill:#000000; fill-opacity:1.0; 
stroke:#000000; stroke-width:0; stroke-opacity:1; 
stroke-linecap:round; stroke-linejoin:round;fill-rule:evenodd;"
d="M 46348.4,29507.9
46565,29507.9
46565,30098.4
46348.4,30098.4
Z" /> 
<path style="fill:#000000; fill-opacity:1.0; 
stroke:#000000; stroke-width:0; stroke-opacity:1; 
stroke-linecap:round; stroke-linejoin:round;fill-rule:evenodd;"
d="M 46033.5,29507.9
46250,29507.9
46250,30098.4
46033.5,30098.4
Z" /> 
<path style="fill:#000000; fill-opacity:1.0; 
stroke:#000000; stroke-width:0; stroke-opacity:1; 
stroke-linecap:round; stroke-linejoin:round;fill-rule:evenodd;"
d="M 45718.5,29507.9
45935,29507.9
45935,30098.4
45718.5,30098.4
Z" /> 
<path style="fill:#000000; fill-opacity:1.0; 
stroke:#000000; stroke-width:0; stroke-opacity:1; 
stroke-linecap:round; stroke-linejoin:round;fill-rule:evenodd;"
d="M 45403.5,29507.9
45620.1,29507.9
45620.1,30098.4
45403.5,30098.4
Z" /> 
<path style="fill:#000000; fill-opacity:1.0; 
stroke:#000000; stroke-width:0; stroke-opacity:1; 
stroke-linecap:round; stroke-linejoin:round;fill-rule:evenodd;"
d="M 45088.6,29507.9
45305.1,29507.9
45305.1,30098.4
45088.6,30098.4
Z" /> 
<path style="fill:#000000; fill-opacity:1.0; 
stroke:#000000; stroke-width:0; stroke-opacity:1; 
stroke-linecap:round; stroke-linejoin:round;fill-rule:evenodd;"
d="M 44773.6,29507.9
44990.2,29507.9
44990.2,30098.4
44773.6,30098.4
Z" /> 
<path style="fill:#000000; fill-opacity:1.0; 
stroke:#000000; stroke-width:0; stroke-opacity:1; 
stroke-linecap:round; stroke-linejoin:round;fill-rule:evenodd;"
d="M 44458.7,29507.9
44675.2,29507.9
44675.2,30098.4
44458.7,30098.4
Z" /> 
<path style="fill:#000000; fill-opacity:1.0; 
stroke:#000000; stroke-width:0; stroke-opacity:1; 
stroke-linecap:round; stroke-linejoin:round;fill-rule:evenodd;"
d="M 44143.7,29507.9
44360.2,29507.9
44360.2,30098.4
44143.7,30098.4
Z" /> 
<path style="fill:#000000; fill-opacity:1.0; 
stroke:#000000; stroke-width:0; stroke-opacity:1; 
stroke-linecap:round; stroke-linejoin:round;fill-rule:evenodd;"
d="M 43828.7,29507.9
44045.3,29507.9
44045.3,30098.4
43828.7,30098.4
Z" /> 
<path style="fill:#000000; fill-opacity:1.0; 
stroke:#000000; stroke-width:0; stroke-opacity:1; 
stroke-linecap:round; stroke-linejoin:round;fill-rule:evenodd;"
d="M 43513.8,29507.9
43730.3,29507.9
43730.3,30098.4
43513.8,30098.4
Z" /> 
<path style="fill:#000000; fill-opacity:1.0; 
stroke:#000000; stroke-width:0; stroke-opacity:1; 
stroke-linecap:round; stroke-linejoin:round;fill-rule:evenodd;"
d="M 43198.8,29507.9
43415.4,29507.9
43415.4,30098.4
43198.8,30098.4
Z" /> 
</g>
<g >
</g>
<g style="fill:#000000; fill-opacity:1.0; 
stroke:#000000; stroke-width:0; stroke-opacity:1; 
stroke-linecap:round; stroke-linejoin:round;">
<circle cx="45800" cy="21800" r="295.276" /> 
</g>
<g style="fill:#000000; fill-opacity:1.0; 
stroke:#000000; stroke-width:39.3701; stroke-opacity:1; 
stroke-linecap:round; stroke-linejoin:round;">
</g>
<g style="fill:#000000; fill-opacity:1.0; 
stroke:#000000; stroke-width:0; stroke-opacity:1; 
stroke-linecap:round; stroke-linejoin:round;">
<circle cx="43878.7" cy="21800" r="295.276" /> 
</g>
<g style="fill:#000000; fill-opacity:1.0; 
stroke:#000000; stroke-width:39.3701; stroke-opacity:1; 
stroke-linecap:round; stroke-linejoin:round;">
</g>
<g >
</g>
<g >
</g>
<g style="fill:#000000; fill-opacity:1.0; 
stroke:#000000; stroke-width:39.3701; stroke-opacity:1; 
stroke-linecap:round; stroke-linejoin:round;">
</g>
<g style="fill:#000000; fill-opacity:1.0; 
stroke:#000000; stroke-width:0; stroke-opacity:1; 
stroke-linecap:round; stroke-linejoin:round;">
<path style="fill:#000000; fill-opacity:1.0; 
stroke:#000000; stroke-width:0; stroke-opacity:1; 
stroke-linecap:round; stroke-linejoin:round;fill-rule:evenodd;"
d="M 68543.3,38090.6
69291.3,38090.6
69291.3,38799.2
68543.3,38799.2
Z" /> 
<path style="fill:#000000; fill-opacity:1.0; 
stroke:#000000; stroke-width:0; stroke-opacity:1; 
stroke-linecap:round; stroke-linejoin:round;fill-rule:evenodd;"
d="M 68543.3,37185
69291.3,37185
69291.3,37893.7
68543.3,37893.7
Z" /> 
<path style="fill:#000000; fill-opacity:1.0; 
stroke:#000000; stroke-width:0; stroke-opacity:1; 
stroke-linecap:round; stroke-linejoin:round;fill-rule:evenodd;"
d="M 68543.3,39015.7
69291.3,39015.7
69291.3,39921.3
68543.3,39921.3
Z" /> 
<path style="fill:#000000; fill-opacity:1.0; 
stroke:#000000; stroke-width:0; stroke-opacity:1; 
stroke-linecap:round; stroke-linejoin:round;fill-rule:evenodd;"
d="M 68543.3,36063
69291.3,36063
69291.3,36968.5
68543.3,36968.5
Z" /> 
<path style="fill:#000000; fill-opacity:1.0; 
stroke:#000000; stroke-width:0; stroke-opacity:1; 
stroke-linecap:round; stroke-linejoin:round;fill-rule:evenodd;"
d="M 67519.7,38425.2
68070.9,38425.2
68070.9,38582.7
67519.7,38582.7
Z" /> 
<path style="fill:#000000; fill-opacity:1.0; 
stroke:#000000; stroke-width:0; stroke-opacity:1; 
stroke-linecap:round; stroke-linejoin:round;fill-rule:evenodd;"
d="M 67519.7,38169.3
68070.9,38169.3
68070.9,38326.8
67519.7,38326.8
Z" /> 
<path style="fill:#000000; fill-opacity:1.0; 
stroke:#000000; stroke-width:0; stroke-opacity:1; 
stroke-linecap:round; stroke-linejoin:round;fill-rule:evenodd;"
d="M 67519.7,37913.4
68070.9,37913.4
68070.9,38070.9
67519.7,38070.9
Z" /> 
<path style="fill:#000000; fill-opacity:1.0; 
stroke:#000000; stroke-width:0; stroke-opacity:1; 
stroke-linecap:round; stroke-linejoin:round;fill-rule:evenodd;"
d="M 67519.7,37657.5
68070.9,37657.5
68070.9,37815
67519.7,37815
Z" /> 
<path style="fill:#000000; fill-opacity:1.0; 
stroke:#000000; stroke-width:0; stroke-opacity:1; 
stroke-linecap:round; stroke-linejoin:round;fill-rule:evenodd;"
d="M 67519.7,37401.6
68070.9,37401.6
68070.9,37559.1
67519.7,37559.1
Z" /> 
</g>
<g >
</g>
<g style="fill:#000000; fill-opacity:1.0; 
stroke:#000000; stroke-width:0; stroke-opacity:1; 
stroke-linecap:round; stroke-linejoin:round;">
<path style="fill:#000000; fill-opacity:1.0; 
stroke:#000000; stroke-width:0; stroke-opacity:1; 
stroke-linecap:round; stroke-linejoin:round;fill-rule:evenodd;"
d="M 25196.9,28606.3
25196.9,29393.7
24409.4,29393.7
24409.4,28606.3
Z" /> 
</g>
<g style="fill:#000000; fill-opacity:1.0; 
stroke:#000000; stroke-width:787.402; stroke-opacity:1; 
stroke-linecap:round; stroke-linejoin:round;">
</g>
<g style="fill:#000000; fill-opacity:0.0; 
stroke:#000000; stroke-width:787.402; stroke-opacity:1; 
stroke-linecap:round; stroke-linejoin:round;">
<path d="M24803 30000
L24803 30000
" />
<path d="M24803 31000
L24803 31000
" />
<path d="M24803 32000
L24803 32000
" />
</g>
<g >
</g>
<g style="fill:#000000; fill-opacity:0.0; 
stroke:#000000; stroke-width:787.402; stroke-opacity:1; 
stroke-linecap:round; stroke-linejoin:round;">
</g>
<g style="fill:#000000; fill-opacity:0.0; 
stroke:#000000; stroke-width:0; stroke-opacity:1; 
stroke-linecap:round; stroke-linejoin:round;">
</g>
<g style="fill:#000000; fill-opacity:1.0; 
stroke:#000000; stroke-width:0; stroke-opacity:1; 
stroke-linecap:round; stroke-linejoin:round;">
<path style="fill:#000000; fill-opacity:1.0; 
stroke:#000000; stroke-width:0; stroke-opacity:1; 
stroke-linecap:round; stroke-linejoin:round;fill-rule:evenodd;"
d="M 25393.7,20106.3
25393.7,20893.7
24606.3,20893.7
24606.3,20106.3
Z" /> 
</g>
<g style="fill:#000000; fill-opacity:1.0; 
stroke:#000000; stroke-width:787.402; stroke-opacity:1; 
stroke-linecap:round; stroke-linejoin:round;">
</g>
<g style="fill:#000000; fill-opacity:0.0; 
stroke:#000000; stroke-width:787.402; stroke-opacity:1; 
stroke-linecap:round; stroke-linejoin:round;">
<path d="M25000 21500
L25000 21500
" />
<path d="M25000 22500
L25000 22500
" />
<path d="M25000 23500
L25000 23500
" />
<path d="M25000 24500
L25000 24500
" />
<path d="M25000 25500
L25000 25500
" />
</g>
<g >
</g>
<g style="fill:#000000; fill-opacity:0.0; 
stroke:#000000; stroke-width:787.402; stroke-opacity:1; 
stroke-linecap:round; stroke-linejoin:round;">
</g>
<g style="fill:#000000; fill-opacity:1.0; 
stroke:#000000; stroke-width:0; stroke-opacity:1; 
stroke-linecap:round; stroke-linejoin:round;">
<circle cx="48425.2" cy="25393.7" r="314.961" /> 
</g>
<g style="fill:#000000; fill-opacity:1.0; 
stroke:#000000; stroke-width:39.3701; stroke-opacity:1; 
stroke-linecap:round; stroke-linejoin:round;">
</g>
<g style="fill:#000000; fill-opacity:1.0; 
stroke:#000000; stroke-width:0; stroke-opacity:1; 
stroke-linecap:round; stroke-linejoin:round;">
<circle cx="48425.2" cy="23425.2" r="314.961" /> 
</g>
<g style="fill:#000000; fill-opacity:1.0; 
stroke:#000000; stroke-width:39.3701; stroke-opacity:1; 
stroke-linecap:round; stroke-linejoin:round;">
</g>
<g >
</g>
<g style="fill:#000000; fill-opacity:1.0; 
stroke:#000000; stroke-width:39.3701; stroke-opacity:1; 
stroke-linecap:round; stroke-linejoin:round;">
</g>
<g style="fill:#000000; fill-opacity:1.0; 
stroke:#000000; stroke-width:0; stroke-opacity:1; 
stroke-linecap:round; stroke-linejoin:round;">
<circle cx="65000" cy="21250" r="354.331" /> 
</g>
<g style="fill:#000000; fill-opacity:1.0; 
stroke:#000000; stroke-width:39.3701; stroke-opacity:1; 
stroke-linecap:round; stroke-linejoin:round;">
</g>
<g style="fill:#000000; fill-opacity:1.0; 
stroke:#000000; stroke-width:0; stroke-opacity:1; 
stroke-linecap:round; stroke-linejoin:round;">
<path style="fill:#000000; fill-opacity:1.0; 
stroke:#000000; stroke-width:0; stroke-opacity:1; 
stroke-linecap:round; stroke-linejoin:round;fill-rule:evenodd;"
d="M 66354.3,20895.7
66354.3,21604.3
65645.7,21604.3
65645.7,20895.7
Z" /> 
</g>
<g >
</g>
<g style="fill:#000000; fill-opacity:1.0; 
stroke:#000000; stroke-width:0; stroke-opacity:1; 
stroke-linecap:round; stroke-linejoin:round;">
<path style="fill:#000000; fill-opacity:1.0; 
stroke:#000000; stroke-width:0; stroke-opacity:1; 
stroke-linecap:round; stroke-linejoin:round;fill-rule:evenodd;"
d="M 66354.3,23145.7
66354.3,23854.3
65645.7,23854.3
65645.7,23145.7
Z" /> 
<circle cx="65000" cy="23500" r="354.331" /> 
</g>
<g style="fill:#000000; fill-opacity:1.0; 
stroke:#000000; stroke-width:39.3701; stroke-opacity:1; 
stroke-linecap:round; stroke-linejoin:round;">
</g>
<g >
</g>
<g style="fill:#000000; fill-opacity:1.0; 
stroke:#000000; stroke-width:39.3701; stroke-opacity:1; 
stroke-linecap:round; stroke-linejoin:round;">
</g>
<g style="fill:#000000; fill-opacity:1.0; 
stroke:#000000; stroke-width:551.181; stroke-opacity:1; 
stroke-linecap:round; stroke-linejoin:round;">
</g>
<g style="fill:#000000; fill-opacity:0.0; 
stroke:#000000; stroke-width:551.181; stroke-opacity:1; 
stroke-linecap:round; stroke-linejoin:round;">
<path d="M64074 39468
L64074 39468
" />
</g>
<g style="fill:#000000; fill-opacity:1.0; 
stroke:#000000; stroke-width:0; stroke-opacity:1; 
stroke-linecap:round; stroke-linejoin:round;">
<circle cx="62074.8" cy="39468.5" r="275.591" /> 
</g>
<g style="fill:#000000; fill-opacity:1.0; 
stroke:#000000; stroke-width:39.3701; stroke-opacity:1; 
stroke-linecap:round; stroke-linejoin:round;">
</g>
<g >
</g>
<g style="fill:#000000; fill-opacity:1.0; 
stroke:#000000; stroke-width:39.3701; stroke-opacity:1; 
stroke-linecap:round; stroke-linejoin:round;">
</g>
<g style="fill:#000000; fill-opacity:1.0; 
stroke:#000000; stroke-width:0; stroke-opacity:1; 
stroke-linecap:round; stroke-linejoin:round;">
<circle cx="62074.8" cy="37992.1" r="275.591" /> 
</g>
<g style="fill:#000000; fill-opacity:1.0; 
stroke:#000000; stroke-width:39.3701; stroke-opacity:1; 
stroke-linecap:round; stroke-linejoin:round;">
</g>
<g style="fill:#000000; fill-opacity:1.0; 
stroke:#000000; stroke-width:551.181; stroke-opacity:1; 
stroke-linecap:round; stroke-linejoin:round;">
</g>
<g style="fill:#000000; fill-opacity:0.0; 
stroke:#000000; stroke-width:551.181; stroke-opacity:1; 
stroke-linecap:round; stroke-linejoin:round;">
<path d="M64074 37992
L64074 37992
" />
</g>
<g >
</g>
<g style="fill:#000000; fill-opacity:0.0; 
stroke:#000000; stroke-width:551.181; stroke-opacity:1; 
stroke-linecap:round; stroke-linejoin:round;">
<path d="M32448 29921
L32448 29921
" />
</g>
<g style="fill:#000000; fill-opacity:1.0; 
stroke:#000000; stroke-width:0; stroke-opacity:1; 
stroke-linecap:round; stroke-linejoin:round;">
<circle cx="34448.8" cy="29921.3" r="275.591" /> 
</g>
<g style="fill:#000000; fill-opacity:1.0; 
stroke:#000000; stroke-width:39.3701; stroke-opacity:1; 
stroke-linecap:round; stroke-linejoin:round;">
</g>
<g >
</g>
<g style="fill:#000000; fill-opacity:1.0; 
stroke:#000000; stroke-width:39.3701; stroke-opacity:1; 
stroke-linecap:round; stroke-linejoin:round;">
</g>
<g style="fill:#000000; fill-opacity:1.0; 
stroke:#000000; stroke-width:0; stroke-opacity:1; 
stroke-linecap:round; stroke-linejoin:round;">
<circle cx="61500" cy="21250" r="275.591" /> 
</g>
<g style="fill:#000000; fill-opacity:1.0; 
stroke:#000000; stroke-width:39.3701; stroke-opacity:1; 
stroke-linecap:round; stroke-linejoin:round;">
</g>
<g style="fill:#000000; fill-opacity:1.0; 
stroke:#000000; stroke-width:551.181; stroke-opacity:1; 
stroke-linecap:round; stroke-linejoin:round;">
</g>
<g style="fill:#000000; fill-opacity:0.0; 
stroke:#000000; stroke-width:551.181; stroke-opacity:1; 
stroke-linecap:round; stroke-linejoin:round;">
<path d="M63500 21250
L63500 21250
" />
</g>
<g >
</g>
<g style="fill:#000000; fill-opacity:0.0; 
stroke:#000000; stroke-width:551.181; stroke-opacity:1; 
stroke-linecap:round; stroke-linejoin:round;">
</g>
<g style="fill:#000000; fill-opacity:1.0; 
stroke:#000000; stroke-width:0; stroke-opacity:1; 
stroke-linecap:round; stroke-linejoin:round;">
<circle cx="61500" cy="23500" r="275.591" /> 
</g>
<g style="fill:#000000; fill-opacity:1.0; 
stroke:#000000; stroke-width:39.3701; stroke-opacity:1; 
stroke-linecap:round; stroke-linejoin:round;">
</g>
<g style="fill:#000000; fill-opacity:1.0; 
stroke:#000000; stroke-width:551.181; stroke-opacity:1; 
stroke-linecap:round; stroke-linejoin:round;">
</g>
<g style="fill:#000000; fill-opacity:0.0; 
stroke:#000000; stroke-width:551.181; stroke-opacity:1; 
stroke-linecap:round; stroke-linejoin:round;">
<path d="M63500 23500
L63500 23500
" />
</g>
<g >
</g>
<g style="fill:#000000; fill-opacity:0.0; 
stroke:#000000; stroke-width:551.181; stroke-opacity:1; 
stroke-linecap:round; stroke-linejoin:round;">
</g>
<g style="fill:#000000; fill-opacity:0.0; 
stroke:#000000; stroke-width:0; stroke-opacity:1; 
stroke-linecap:round; stroke-linejoin:round;">
</g>
<g style="fill:#000000; fill-opacity:1.0; 
stroke:#000000; stroke-width:0; stroke-opacity:1; 
stroke-linecap:round; stroke-linejoin:round;">
<path style="fill:#000000; fill-opacity:1.0; 
stroke:#000000; stroke-width:0; stroke-opacity:1; 
stroke-linecap:round; stroke-linejoin:round;fill-rule:evenodd;"
d="M 33149.6,25374
33779.5,25374
33779.5,26003.9
33149.6,26003.9
Z" /> 
<circle cx="33464.6" cy="26673.2" r="314.961" /> 
</g>
<g style="fill:#000000; fill-opacity:1.0; 
stroke:#000000; stroke-width:39.3701; stroke-opacity:1; 
stroke-linecap:round; stroke-linejoin:round;">
</g>
<g >
</g>
<g style="fill:#000000; fill-opacity:1.0; 
stroke:#000000; stroke-width:39.3701; stroke-opacity:1; 
stroke-linecap:round; stroke-linejoin:round;">
</g>
<g style="fill:#000000; fill-opacity:1.0; 
stroke:#000000; stroke-width:0; stroke-opacity:1; 
stroke-linecap:round; stroke-linejoin:round;">
<circle cx="43917.3" cy="27244.1" r="157.48" /> 
</g>
<g style="fill:#000000; fill-opacity:1.0; 
stroke:#000000; stroke-width:39.3701; stroke-opacity:1; 
stroke-linecap:round; stroke-linejoin:round;">
</g>
<g style="fill:#000000; fill-opacity:1.0; 
stroke:#000000; stroke-width:0; stroke-opacity:1; 
stroke-linecap:round; stroke-linejoin:round;">
<circle cx="46456.7" cy="27293.3" r="157.48" /> 
</g>
<g style="fill:#000000; fill-opacity:1.0; 
stroke:#000000; stroke-width:39.3701; stroke-opacity:1; 
stroke-linecap:round; stroke-linejoin:round;">
</g>
<g style="fill:#000000; fill-opacity:1.0; 
stroke:#000000; stroke-width:0; stroke-opacity:1; 
stroke-linecap:round; stroke-linejoin:round;">
<circle cx="21134.6" cy="19389.8" r="157.48" /> 
</g>
<g style="fill:#000000; fill-opacity:1.0; 
stroke:#000000; stroke-width:39.3701; stroke-opacity:1; 
stroke-linecap:round; stroke-linejoin:round;">
</g>
<g style="fill:#000000; fill-opacity:1.0; 
stroke:#000000; stroke-width:0; stroke-opacity:1; 
stroke-linecap:round; stroke-linejoin:round;">
<circle cx="43500" cy="26752" r="157.48" /> 
</g>
<g style="fill:#000000; fill-opacity:1.0; 
stroke:#000000; stroke-width:39.3701; stroke-opacity:1; 
stroke-linecap:round; stroke-linejoin:round;">
</g>
<g style="fill:#000000; fill-opacity:1.0; 
stroke:#000000; stroke-width:0; stroke-opacity:1; 
stroke-linecap:round; stroke-linejoin:round;">
<circle cx="46161.4" cy="26082.7" r="157.48" /> 
</g>
<g style="fill:#000000; fill-opacity:1.0; 
stroke:#000000; stroke-width:39.3701; stroke-opacity:1; 
stroke-linecap:round; stroke-linejoin:round;">
</g>
<g style="fill:#000000; fill-opacity:1.0; 
stroke:#000000; stroke-width:0; stroke-opacity:1; 
stroke-linecap:round; stroke-linejoin:round;">
<circle cx="45767.7" cy="26082.7" r="157.48" /> 
</g>
<g style="fill:#000000; fill-opacity:1.0; 
stroke:#000000; stroke-width:39.3701; stroke-opacity:1; 
stroke-linecap:round; stroke-linejoin:round;">
</g>
<g style="fill:#000000; fill-opacity:1.0; 
stroke:#000000; stroke-width:0; stroke-opacity:1; 
stroke-linecap:round; stroke-linejoin:round;">
<circle cx="41338.6" cy="28543.3" r="157.48" /> 
</g>
<g style="fill:#000000; fill-opacity:1.0; 
stroke:#000000; stroke-width:39.3701; stroke-opacity:1; 
stroke-linecap:round; stroke-linejoin:round;">
</g>
<g style="fill:#000000; fill-opacity:1.0; 
stroke:#000000; stroke-width:0; stroke-opacity:1; 
stroke-linecap:round; stroke-linejoin:round;">
<circle cx="42618.1" cy="31692.9" r="157.48" /> 
</g>
<g style="fill:#000000; fill-opacity:1.0; 
stroke:#000000; stroke-width:39.3701; stroke-opacity:1; 
stroke-linecap:round; stroke-linejoin:round;">
</g>
<g style="fill:#000000; fill-opacity:1.0; 
stroke:#000000; stroke-width:0; stroke-opacity:1; 
stroke-linecap:round; stroke-linejoin:round;">
<circle cx="42618.1" cy="31240.2" r="157.48" /> 
</g>
<g style="fill:#000000; fill-opacity:1.0; 
stroke:#000000; stroke-width:39.3701; stroke-opacity:1; 
stroke-linecap:round; stroke-linejoin:round;">
</g>
<g style="fill:#000000; fill-opacity:1.0; 
stroke:#000000; stroke-width:0; stroke-opacity:1; 
stroke-linecap:round; stroke-linejoin:round;">
<circle cx="41929.1" cy="28543.3" r="157.48" /> 
</g>
<g style="fill:#000000; fill-opacity:1.0; 
stroke:#000000; stroke-width:39.3701; stroke-opacity:1; 
stroke-linecap:round; stroke-linejoin:round;">
</g>
<g >
</g>
<g style="fill:#000000; fill-opacity:1.0; 
stroke:#000000; stroke-width:39.3701; stroke-opacity:1; 
stroke-linecap:round; stroke-linejoin:round;">
</g>
<g style="fill:#000000; fill-opacity:1.0; 
stroke:#000000; stroke-width:196.85; stroke-opacity:1; 
stroke-linecap:round; stroke-linejoin:round;">
</g>
<g style="fill:#000000; fill-opacity:0.0; 
stroke:#000000; stroke-width:196.85; stroke-opacity:1; 
stroke-linecap:round; stroke-linejoin:round;">
<path d="M48425 22244
L48425 23425
" />
<path d="M45800 21800
L47981 21800
" />
<path d="M47981 21800
L48425 22244
" />
<path d="M45129 21800
L45800 21800
" />
<path d="M44881 25314
L44881 22047
" />
<path d="M44881 22047
L45129 21800
" />
<path d="M43622 29177
L43622 29803
" />
</g>
<g style="fill:#000000; fill-opacity:0.0; 
stroke:#000000; stroke-width:98.4252; stroke-opacity:1; 
stroke-linecap:round; stroke-linejoin:round;">
<path d="M68917 39468
L68917 38444
" />
<path d="M68917 38444
L68917 37539
" />
<path d="M68917 37539
L68917 36515
" />
</g>
<g style="fill:#000000; fill-opacity:0.0; 
stroke:#000000; stroke-width:196.85; stroke-opacity:1; 
stroke-linecap:round; stroke-linejoin:round;">
<path d="M47834 25984
L48425 25393
" />
<path d="M47125 25984
L47834 25984
" />
<path d="M40475 20055
L40452 20078
" />
<path d="M44251 25314
L44251 23779
" />
<path d="M44251 23779
L43307 22834
" />
<path d="M43307 22834
L40157 22834
" />
<path d="M40157 22834
L39468 22145
" />
<path d="M39468 22145
L39468 20275
" />
<path d="M39665 20078
L40452 20078
" />
<path d="M39468 20275
L39665 20078
" />
<path d="M68858 38503
L68917 38444
" />
<path d="M67795 38503
L68858 38503
" />
<path d="M68917 39468
L68917 36515
" />
<path d="M44251 27498
L44251 25314
" />
<path d="M43875 27874
L44251 27498
" />
<path d="M43622 27877
L43625 27874
" />
<path d="M42637 27874
L43625 27874
" />
<path d="M43625 27874
L43875 27874
" />
<path d="M46141 29803
L46141 29141
" />
<path d="M45877 28877
L43622 28877
" />
<path d="M46141 29141
L45877 28877
" />
<path d="M43622 29177
L43622 28877
" />
<path d="M43622 28877
L43622 27877
" />
<path d="M33464 26673
L35830 26673
" />
<path d="M37031 27874
L42637 27874
" />
<path d="M35830 26673
L37031 27874
" />
<path d="M25000 25500
L30750 25500
" />
<path d="M31923 26673
L33464 26673
" />
<path d="M30750 25500
L31923 26673
" />
<path d="M48425 25393
L61393 25393
" />
<path d="M61393 25393
L62750 26750
" />
<path d="M62750 26750
L62750 32000
" />
<path d="M63000 32250
L63750 32250
" />
<path d="M62750 32000
L63000 32250
" />
<path d="M63750 32250
L64250 32750
" />
<path d="M65151 32750
L68917 36515
" />
<path d="M64250 32750
L65151 32750
" />
<path d="M40452 22047
L41830 22047
" />
<path d="M42077 21800
L43878 21800
" />
<path d="M41830 22047
L42077 21800
" />
<path d="M44566 25275
L44586 25255
" />
<path d="M44566 25314
L44566 25275
" />
<path d="M44586 25255
L44586 21948
" />
<path d="M44437 21800
L43878 21800
" />
<path d="M44586 21948
L44437 21800
" />
<path d="M33464 25688
L35236 25688
" />
<path d="M37106 27559
L42637 27559
" />
<path d="M35236 25688
L37106 27559
" />
<path d="M24803 32000
L24000 32000
" />
<path d="M24000 32000
L23400 31400
" />
<path d="M23400 31400
L23400 21400
" />
<path d="M24300 20500
L25000 20500
" />
<path d="M23400 21400
L24300 20500
" />
<path d="M25000 20500
L25000 20600
" />
<path d="M42637 27244
L43955 27244
" />
<path d="M43307 30589
L43296 30600
" />
<path d="M43307 29803
L43307 30589
" />
<path d="M43307 29803
L43307 28937
" />
<path d="M43188 28818
L42637 28818
" />
<path d="M43307 28937
L43188 28818
" />
<path d="M38385 29921
L34448 29921
" />
<path d="M43296 30600
L39064 30600
" />
<path d="M39064 30600
L38385 29921
" />
<path d="M47125 26299
L46437 26299
" />
<path d="M46456 26318
L46437 26299
" />
<path d="M47125 26299
L48299 26299
" />
<path d="M48760 26760
L48299 26299
" />
<path d="M48760 33800
L48760 26760
" />
<path d="M53641 38681
L48760 33800
" />
<path d="M67519 37007
L61909 37007
" />
<path d="M67795 37283
L67519 37007
" />
<path d="M67795 37480
L67795 37283
" />
<path d="M61909 37007
L60236 38681
" />
<path d="M60236 38681
L53641 38681
" />
<path d="M43955 25353
L43955 27244
" />
<path d="M43937 25334
L43955 25353
" />
<path d="M43937 25314
L43937 25334
" />
<path d="M46456 29803
L46456 28740
" />
<path d="M33740 30629
L26870 30629
" />
<path d="M34448 29921
L33740 30629
" />
<path d="M25500 32000
L24803 32000
" />
<path d="M26870 30629
L25500 32000
" />
<path d="M43955 27244
L43917 27244
" />
<path d="M46456 28740
L46456 27293
" />
<path d="M46456 27293
L46456 26318
" />
<path d="M43296 30600
L46150 30600
" />
<path d="M46456 30293
L46456 29803
" />
<path d="M46150 30600
L46456 30293
" />
<path d="M21134 19389
L21134 19855
" />
<path d="M21134 19855
L23031 21751
" />
<path d="M23031 21751
L23031 31692
" />
<path d="M23031 31692
L24114 32775
" />
<path d="M24114 32775
L25787 32775
" />
<path d="M25787 32775
L27657 30905
" />
<path d="M27657 30905
L46948 30905
" />
<path d="M46948 30905
L48129 29724
" />
<path d="M48129 29724
L48129 27559
" />
<path d="M47814 27244
L47125 27244
" />
<path d="M48129 27559
L47814 27244
" />
<path d="M42637 26929
L43322 26929
" />
<path d="M43322 26929
L43500 26751
" />
<path d="M46456 25314
L46456 24793
" />
<path d="M46456 24793
L46750 24500
" />
<path d="M46750 24500
L65500 24500
" />
<path d="M66000 24000
L66000 23500
" />
<path d="M65500 24500
L66000 24000
" />
</g>
<g style="fill:#000000; fill-opacity:0.0; 
stroke:#000000; stroke-width:157.48; stroke-opacity:1; 
stroke-linecap:round; stroke-linejoin:round;">
<path d="M67795 37736
L65019 37736
" />
<path d="M64763 37992
L64074 37992
" />
<path d="M65019 37736
L64763 37992
" />
<path d="M64074 39468
L64763 39468
" />
<path d="M66240 37992
L67795 37992
" />
<path d="M64763 39468
L66240 37992
" />
</g>
<g style="fill:#000000; fill-opacity:0.0; 
stroke:#000000; stroke-width:196.85; stroke-opacity:1; 
stroke-linecap:round; stroke-linejoin:round;">
<path d="M46161 25334
L46141 25314
" />
<path d="M46161 26082
L46161 25334
" />
<path d="M45826 26023
L45826 25314
" />
<path d="M45767 26082
L45826 26023
" />
<path d="M32448 29921
L28149 29921
" />
<path d="M28149 29921
L25492 27263
" />
<path d="M25492 27263
L24311 27263
" />
<path d="M23917 26870
L23917 21850
" />
<path d="M24311 27263
L23917 26870
" />
<path d="M24267 21500
L25000 21500
" />
<path d="M23917 21850
L24267 21500
" />
<path d="M43622 25314
L43622 24724
" />
<path d="M39000 22250
L40000 23250
" />
<path d="M40000 23250
L43000 23250
" />
<path d="M43622 23872
L43622 24724
" />
<path d="M43000 23250
L43622 23872
" />
<path d="M25556 21500
L39000 21500
" />
<path d="M25000 21500
L25556 21500
" />
<path d="M39000 21500
L39000 22250
" />
<path d="M39000 19923
L39000 21500
" />
<path d="M63750 30478
L63750 29500
" />
<path d="M63750 29500
L67500 25750
" />
<path d="M67500 20750
L66336 19586
" />
<path d="M66336 19586
L39336 19586
" />
<path d="M39336 19586
L39000 19923
" />
<path d="M67500 25750
L67500 20750
" />
<path d="M33216 22500
L25000 22500
" />
<path d="M36700 25984
L33216 22500
" />
<path d="M42637 25984
L36700 25984
" />
<path d="M33826 23500
L25000 23500
" />
<path d="M36625 26299
L33826 23500
" />
<path d="M42637 26299
L36625 26299
" />
<path d="M34436 24500
L25000 24500
" />
<path d="M36551 26614
L34436 24500
" />
<path d="M42637 26614
L36551 26614
" />
<path d="M42637 28188
L41692 28188
" />
<path d="M41692 28188
L41338 28543
" />
<path d="M42618 31692
L47637 31692
" />
<path d="M47637 31692
L48129 32185
" />
<path d="M48129 32185
L48129 34055
" />
<path d="M53543 39468
L62074 39468
" />
<path d="M48129 34055
L53543 39468
" />
<path d="M62074 37992
L60992 39074
" />
<path d="M53645 39074
L48425 33854
" />
<path d="M60992 39074
L53645 39074
" />
<path d="M48425 33854
L48425 31791
" />
<path d="M48425 31791
L47814 31181
" />
<path d="M47814 31181
L42677 31181
" />
<path d="M42677 31181
L42618 31240
" />
<path d="M41968 28503
L42637 28503
" />
<path d="M41929 28543
L41968 28503
" />
</g>
<g >
</g>
<g style="fill:#000000; fill-opacity:0.0; 
stroke:#000000; stroke-width:196.85; stroke-opacity:1; 
stroke-linecap:round; stroke-linejoin:round;">
</g>
<g style="fill:#000000; fill-opacity:1.0; 
stroke:#000000; stroke-width:100; stroke-opacity:1; 
stroke-linecap:round; stroke-linejoin:round;">
<path style="fill:#000000; fill-opacity:1.0; 
stroke:#000000; stroke-width:100; stroke-opacity:1; 
stroke-linecap:round; stroke-linejoin:round;fill-rule:evenodd;"
d="M 69240.2,35812
69029.8,35813
68967.3,35875.5
68967.3,36465.7
68975.2,36465.7
68975.2,36565.7
68967.3,36565.7
68967.3,37489.4
68975.2,37489.4
68975.2,37589.4
68967.3,37589.4
68967.3,38394.9
68975.2,38394.9
68975.2,38494.9
68967.3,38494.9
68967.3,39418.5
68975.2,39418.5
68975.2,39518.5
68967.3,39518.5
68967.3,40108.8
69029.8,40171.3
69240.2,40172.2
69240.2,44240.1
20732.3,44228.4
20732.3,43140.4
21724.8,43140.4
21724.8,43316.3
21759.1,43488.9
21826.5,43651.5
21924.2,43797.8
22048.7,43922.2
22195,44020
22357.5,44087.3
22530.1,44121.7
22706.1,44121.7
22878.7,44087.3
23041.3,44020
23187.6,43922.2
23312,43797.8
23409.8,43651.5
23477.1,43488.9
23511.4,43316.3
23511.4,43140.4
23477.1,42967.8
23409.8,42805.2
23312,42658.9
23187.6,42534.5
23041.3,42436.7
22878.7,42369.4
22706.1,42335
22530.1,42335
22357.5,42369.4
22195,42436.7
22048.7,42534.5
21924.2,42658.9
21826.5,42805.2
21759.1,42967.8
21724.8,43140.4
20732.3,43140.4
20732.3,41120.1
51748,41120.1
51748,43509.8
65752,43509.8
65752,43140.4
66449.2,43140.4
66449.2,43316.3
66483.5,43488.9
66550.9,43651.5
66648.6,43797.8
66773.1,43922.2
66919.4,44020
67081.9,44087.3
67254.5,44121.7
67430.5,44121.7
67603.1,44087.3
67765.7,44020
67912,43922.2
68036.4,43797.8
68134.2,43651.5
68201.5,43488.9
68235.8,43316.3
68235.8,43140.4
68201.5,42967.8
68134.2,42805.2
68036.4,42658.9
67912,42534.5
67765.7,42436.7
67603.1,42369.4
67430.5,42335
67254.5,42335
67081.9,42369.4
66919.4,42436.7
66773.1,42534.5
66648.6,42658.9
66550.9,42805.2
66483.5,42967.8
66449.2,43140.4
65752,43140.4
65752,41120.1
51748,41120.1
20732.3,41120.1
20732.3,19455.6
20742.8,19508.6
20773.5,19582.8
20786.2,19601.8
20786.2,19838
20784.5,19855.1
20791.3,19923.4
20811.2,19989.1
20843.5,20049.6
20876.2,20089.4
20876.2,20089.4
20887.1,20102.7
20900.4,20113.6
22683.1,21896.3
22683.1,31675.8
22681.4,31692.9
22688.1,31761.2
22708,31826.9
22740.4,31887.4
22773,31927.2
22773,31927.2
22783.9,31940.5
22797.2,31951.4
23855.7,33009.9
23866.6,33023.2
23879.9,33034.1
23879.9,33034.1
23908.1,33057.2
23919.7,33066.7
23980.2,33099.1
24045.9,33119
24097.1,33124
24097.1,33124
24114.2,33125.7
24131.3,33124
25770.3,33124
25787.4,33125.7
25804.5,33124
25804.5,33124
25855.7,33119
25921.4,33099.1
25981.9,33066.7
26035,33023.2
26045.9,33009.9
27801.8,31253.9
42210.6,31253.9
42210.6,31280.3
42226.3,31359
42257,31433.2
42279.3,31466.5
42257,31499.9
42226.3,31574.1
42210.6,31652.8
42210.6,31733
42226.3,31811.8
42257,31885.9
42301.6,31952.7
42358.4,32009.4
42425.1,32054
42499.3,32084.7
42578,32100.4
42658.2,32100.4
42737,32084.7
42811.1,32054
42830.1,32041.3
47493.5,32041.3
47781.5,32329.4
47781.5,34038
47779.8,34055.1
47786.5,34123.4
47806.5,34189.1
47838.8,34249.6
47871.4,34289.4
47871.4,34289.4
47882.4,34302.7
47895.7,34313.6
53284.8,39702.8
53295.7,39716.1
53309,39727
53309,39727
53328.8,39743.2
53348.8,39759.6
53409.3,39792
53475,39811.9
53526.2,39816.9
53526.2,39816.9
53543.3,39818.6
53560.4,39816.9
61679.9,39816.9
61739.8,39876.8
61825.8,39934.3
61921.5,39973.9
62023,39994.1
62126.6,39994.1
62228.1,39973.9
62323.8,39934.3
62409.8,39876.8
62483.1,39803.5
62540.6,39717.5
62580.2,39621.8
62600.4,39520.3
62600.4,39416.7
62580.2,39315.2
62540.6,39219.5
62483.1,39133.5
62409.8,39060.3
62323.8,39002.7
62228.1,38963.1
62126.6,38942.9
62023,38942.9
61921.5,38963.1
61825.8,39002.7
61739.8,39060.3
61679.9,39120.1
61439.6,39120.1
62042,38517.7
62126.6,38517.7
62228.1,38497.5
62323.8,38457.9
62409.8,38400.4
62483.1,38327.2
62540.6,38241.1
62580.2,38145.4
62600.4,38043.9
62600.4,37940.4
62580.2,37838.8
62540.6,37743.2
62483.1,37657.1
62409.8,37583.9
62323.8,37526.4
62228.1,37486.7
62126.6,37466.5
62023,37466.5
61923.8,37486.3
62053.8,37356.3
67272.9,37356.3
67268.5,37401.6
67268.5,37407.5
65035.8,37407.5
65019.7,37405.9
64955.2,37412.2
64893.3,37431
64836.2,37461.6
64802.3,37489.4
64786.1,37502.6
64775.8,37515.2
64627.6,37663.4
64487.3,37663.4
64483.1,37657.1
64409.8,37583.9
64323.8,37526.4
64228.1,37486.7
64126.6,37466.5
64023,37466.5
63921.5,37486.7
63825.8,37526.4
63739.8,37583.9
63666.6,37657.1
63609,37743.2
63569.4,37838.8
63549.2,37940.4
63549.2,38043.9
63569.4,38145.4
63609,38241.1
63666.6,38327.2
63739.8,38400.4
63825.8,38457.9
63921.5,38497.5
64023,38517.7
64126.6,38517.7
64228.1,38497.5
64323.8,38457.9
64409.8,38400.4
64483.1,38327.2
64487.3,38320.9
64747.6,38320.9
64763.8,38322.5
64779.9,38320.9
64779.9,38320.9
64828.2,38316.1
64890.2,38297.3
64947.3,38266.8
64997.4,38225.7
65007.7,38213.2
65155.9,38065
65702.4,38065
64627.6,39139.8
64487.3,39139.8
64483.1,39133.5
64409.8,39060.3
64323.8,39002.7
64228.1,38963.1
64126.6,38942.9
64023,38942.9
63921.5,38963.1
63825.8,39002.7
63739.8,39060.3
63666.6,39133.5
63609,39219.5
63569.4,39315.2
63549.2,39416.7
63549.2,39520.3
63569.4,39621.8
63609,39717.5
63666.6,39803.5
63739.8,39876.8
63825.8,39934.3
63921.5,39973.9
64023,39994.1
64126.6,39994.1
64228.1,39973.9
64323.8,39934.3
64343.2,39921.3
68292.1,39921.3
68296.9,39970.3
68311.2,40017.4
68334.4,40060.8
68365.7,40098.9
68403.7,40130.1
68447.2,40153.3
68494.3,40167.6
68543.3,40172.5
68804.8,40171.3
68867.3,40108.8
68867.3,39518.5
68355.8,39518.5
68293.3,39581
68292.1,39921.3
64343.2,39921.3
64409.8,39876.8
64483.1,39803.5
64487.3,39797.2
64747.6,39797.2
64763.8,39798.8
64779.9,39797.2
64779.9,39797.2
64828.2,39792.5
64890.2,39773.7
64947.3,39743.2
64997.4,39702.1
65007.7,39689.5
66376.3,38320.9
67268.5,38320.9
67268.5,38326.8
67273.3,38375.8
67273.6,38376.8
67269.7,38412.7
67296.4,38439.5
67310.8,38466.3
67342.1,38504.4
67376.5,38532.7
67332.2,38532.7
67269.7,38595.2
67274.1,38635.5
67289.1,38682.4
67313,38725.5
67344.8,38763.1
67383.4,38793.7
67427.2,38816.2
67474.5,38829.8
67523.6,38833.9
67682.8,38832.7
67745.3,38770.2
67745.3,38578
67845.3,38578
67845.3,38770.2
67907.8,38832.7
68066.9,38833.9
68116,38829.8
68163.4,38816.2
68207.2,38793.7
68245.7,38763.1
68277.5,38725.5
68292.6,38698.3
68292.1,38799.2
68296.9,38848.2
68311.2,38895.3
68317.7,38907.5
68311.2,38919.6
68296.9,38966.7
68292.1,39015.7
68293.3,39356
68355.8,39418.5
68867.3,39418.5
68867.3,38494.9
68355.8,38494.9
68293.3,38557.4
68293.3,38567.6
68258.4,38532.7
68214,38532.7
68248.5,38504.4
68279.7,38466.3
68294.1,38439.5
68320.9,38412.7
68316.9,38376.8
68317.2,38375.8
68319,38358.1
68355.8,38394.9
68867.3,38394.9
68867.3,37589.4
68859.4,37589.4
68859.4,37489.4
68867.3,37489.4
68867.3,36565.7
68355.8,36565.7
68293.3,36628.2
68292.1,36968.5
68296.9,37017.5
68311.2,37064.6
68317.7,37076.8
68311.2,37088.9
68296.9,37136
68292.1,37185
68292.6,37286.1
68279.7,37262
68248.5,37223.9
68210.4,37192.7
68167,37169.5
68120.5,37155.4
68118.7,37149.5
68086.4,37089
68042.8,37035.9
68029.5,37025
67778.2,36773.6
67767.3,36760.3
67714.2,36716.8
67653.7,36684.4
67588,36664.5
67536.8,36659.4
67536.8,36659.4
67519.7,36657.8
67502.6,36659.4
61926.6,36659.4
61909.4,36657.8
61892.3,36659.4
61892.3,36659.4
61841.1,36664.5
61775.5,36684.4
61714.9,36716.8
61675.2,36749.4
61675.2,36749.4
61661.9,36760.3
61651,36773.6
60091.9,38332.7
53786.1,38332.7
51516.4,36063
68292.1,36063
68293.3,36403.2
68355.8,36465.7
68867.3,36465.7
68867.3,35875.5
68804.8,35813
68543.3,35811.8
68494.3,35816.6
68447.2,35830.9
68403.7,35854.1
68365.7,35885.4
68334.4,35923.4
68311.2,35966.9
68296.9,36014
68292.1,36063
51516.4,36063
49109.1,33655.7
49109.1,32654.9
63415.8,32654.9
63446.4,32752.9
63550.3,32802.5
63662,32830.8
63777,32836.9
63891,32820.3
63999.5,32781.9
64053.6,32752.9
64084.2,32654.9
63750,32320.7
63415.8,32654.9
49109.1,32654.9
49109.1,32277
63163.1,32277
63179.7,32391
63218.1,32499.5
63247.1,32553.6
63345.1,32584.2
63679.3,32250
63820.7,32250
64154.9,32584.2
64252.9,32553.6
64302.5,32449.7
64330.8,32338
64336.9,32223
64332.4,32192.4
65724.4,32192.4
65724.4,32307.6
65746.9,32420.5
65790.9,32526.9
65854.9,32622.7
65936.4,32704.1
66032.1,32768.1
66138.5,32812.2
66251.5,32834.6
66366.6,32834.6
66479.6,32812.2
66586,32768.1
66681.7,32704.1
66763.2,32622.7
66827.2,32526.9
66871.2,32420.5
66893.7,32307.6
66893.7,32192.4
66871.2,32079.5
66827.2,31973.1
66763.2,31877.3
66681.7,31795.9
66586,31731.9
66479.6,31687.8
66366.6,31665.4
66251.5,31665.4
66138.5,31687.8
66032.1,31731.9
65936.4,31795.9
65854.9,31877.3
65790.9,31973.1
65746.9,32079.5
65724.4,32192.4
64332.4,32192.4
64320.3,32109
64281.9,32000.5
64252.9,31946.4
64154.9,31915.8
63820.7,32250
63679.3,32250
63345.1,31915.8
63247.1,31946.4
63197.5,32050.3
63169.2,32162
63163.1,32277
49109.1,32277
49109.1,31845.1
63415.8,31845.1
63750,32179.3
64084.2,31845.1
64053.6,31747.1
63949.7,31697.5
63838,31669.2
63723,31663.1
63609,31679.7
63500.5,31718.1
63446.4,31747.1
63415.8,31845.1
49109.1,31845.1
49109.1,26777.7
49110.7,26760.6
49109.1,26743.5
49109.1,26743.5
49104,26692.3
49084.1,26626.6
49051.7,26566.1
49044.6,26557.5
49019.1,26526.4
49019.1,26526.4
49008.2,26513.1
48994.9,26502.2
48557.7,26064.9
48546.8,26051.6
48493.7,26008.1
48433.2,25975.8
48370.2,25956.6
48453,25960.7
48563,25944.4
48667.8,25906.9
48717.1,25880.6
48745.3,25784.5
48425.2,25464.4
48105.1,25784.5
48133.3,25880.6
48233.9,25928.2
48329.1,25952
48316.3,25950.8
48316.3,25950.8
48299.2,25949.1
48282.1,25950.8
47671.3,25950.8
47671.3,25934.3
47608.8,25934.3
47671.3,25871.8
47667.4,25825.7
47652.9,25778.7
47629.4,25735.4
47598,25697.5
47559.8,25666.4
47516.2,25643.4
47469,25629.4
47420,25624.8
47238.5,25626
47176,25688.5
47176,25934.3
47183.9,25934.3
47183.9,25939.7
47068.1,25939.7
47068.1,25934.3
47076,25934.3
47076,25688.5
47013.5,25626
46832,25624.8
46814.6,25626.4
46816.2,25610.2
46816.2,25421.5
47858.2,25421.5
47874.5,25531.5
47912,25636.3
47938.3,25685.6
48034.4,25713.8
48354.5,25393.7
48495.9,25393.7
48816,25713.8
48912.1,25685.6
48959.7,25585
48986.7,25477.1
48992.2,25365.9
48975.9,25255.9
48938.4,25151.1
48912.1,25101.8
48816,25073.6
48495.9,25393.7
48354.5,25393.7
48034.4,25073.6
47938.3,25101.8
47890.7,25202.4
47863.7,25310.3
47858.2,25421.5
46816.2,25421.5
46816.2,25019.7
46811.3,24970.7
46805.1,24950.2
46805.1,24937.6
46894.3,24848.4
48272.2,24848.4
48182.6,24880.5
48133.3,24906.8
48105.1,25002.9
48425.2,25323
48745.3,25002.9
48717.1,24906.8
48616.5,24859.2
48573.5,24848.4
65482.9,24848.4
65500,24850.1
65517.1,24848.4
65517.1,24848.4
65568.3,24843.4
65634,24823.5
65694.5,24791.1
65747.6,24747.6
65758.5,24734.3
66234.3,24258.5
66247.6,24247.6
66291.1,24194.5
66323.5,24134
66332.1,24105.5
66354.3,24105.5
66403.3,24100.7
66450.5,24086.4
66493.9,24063.2
66532,24032
66563.2,23993.9
66586.4,23950.5
66600.7,23903.3
66605.5,23854.3
66605.5,23145.7
66600.7,23096.7
66586.4,23049.5
66563.2,23006.1
66532,22968
66493.9,22936.8
66450.5,22913.6
66403.3,22899.3
66354.3,22894.5
65645.7,22894.5
65596.7,22899.3
65549.5,22913.6
65506.1,22936.8
65468,22968
65436.8,23006.1
65413.6,23049.5
65411.4,23056.7
65385.2,23030.6
65286.3,22964.4
65176.3,22918.9
65059.5,22895.7
64940.5,22895.7
64823.7,22918.9
64713.7,22964.4
64614.8,23030.6
64530.6,23114.8
64464.4,23213.7
64418.9,23323.7
64395.7,23440.5
64395.7,23559.5
64418.9,23676.3
64464.4,23786.3
64530.6,23885.2
64614.8,23969.4
64713.7,24035.6
64823.7,24081.1
64940.5,24104.3
65059.5,24104.3
65176.3,24081.1
65286.3,24035.6
65385.2,23969.4
65411.4,23943.3
65413.6,23950.5
65436.8,23993.9
65468,24032
65472,24035.2
65355.7,24151.6
46767.1,24151.6
46750,24149.9
46732.9,24151.6
46732.9,24151.6
46681.7,24156.6
46616,24176.5
46555.5,24208.9
46555.5,24208.9
46555.5,24208.9
46515.7,24241.5
46515.7,24241.5
46502.4,24252.4
46491.5,24265.7
46222.4,24534.8
46209.1,24545.7
46198.2,24559
46198.2,24559
46165.6,24598.8
46133.2,24659.3
46113.3,24725
46109,24768.5
46033.5,24768.5
45984.5,24773.3
45984.3,24773.4
45984,24773.3
45935,24768.5
45718.5,24768.5
45669.5,24773.3
45669.3,24773.4
45669.1,24773.3
45620.1,24768.5
45403.5,24768.5
45354.5,24773.3
45354.3,24773.4
45354.1,24773.3
45305.1,24768.5
45230.3,24768.5
45230.3,22191.6
45273.5,22148.4
45377.3,22148.4
45452.4,22223.5
45541.7,22283.2
45640.9,22324.3
45746.3,22345.3
45853.7,22345.3
45959.1,22324.3
46058.3,22283.2
46147.6,22223.5
46222.7,22148.4
47836.8,22148.4
48076.8,22388.4
48076.8,22978.5
48065.1,22986.4
47986.4,23065.1
47924.5,23157.6
47881.9,23260.4
47860.2,23369.6
47860.2,23480.8
47881.9,23590
47924.5,23692.8
47986.4,23785.3
48065.1,23864
48157.6,23925.9
48260.4,23968.4
48369.6,23990.2
48480.8,23990.2
48590,23968.4
48692.8,23925.9
48785.3,23864
48864,23785.3
48925.9,23692.8
48968.4,23590
48990.2,23480.8
48990.2,23448.2
60974.4,23448.2
60974.4,23551.8
60994.6,23653.3
61034.2,23749
61091.7,23835
61165,23908.3
61251,23965.8
61346.7,24005.4
61448.2,24025.6
61551.8,24025.6
61653.3,24005.4
61749,23965.8
61835,23908.3
61908.3,23835
61965.8,23749
62005.4,23653.3
62025.6,23551.8
62025.6,23448.2
62974.4,23448.2
62974.4,23551.8
62994.6,23653.3
63034.2,23749
63091.7,23835
63165,23908.3
63251,23965.8
63346.7,24005.4
63448.2,24025.6
63551.8,24025.6
63653.3,24005.4
63749,23965.8
63835,23908.3
63908.3,23835
63965.8,23749
64005.4,23653.3
64025.6,23551.8
64025.6,23448.2
64005.4,23346.7
63965.8,23251
63908.3,23165
63835,23091.7
63749,23034.2
63653.3,22994.6
63551.8,22974.4
63448.2,22974.4
63346.7,22994.6
63251,23034.2
63165,23091.7
63091.7,23165
63034.2,23251
62994.6,23346.7
62974.4,23448.2
62025.6,23448.2
62005.4,23346.7
61965.8,23251
61908.3,23165
61835,23091.7
61749,23034.2
61653.3,22994.6
61551.8,22974.4
61448.2,22974.4
61346.7,22994.6
61251,23034.2
61165,23091.7
61091.7,23165
61034.2,23251
60994.6,23346.7
60974.4,23448.2
48990.2,23448.2
48990.2,23369.6
48968.4,23260.4
48925.9,23157.6
48864,23065.1
48785.3,22986.4
48773.6,22978.5
48773.6,22261.2
48775.3,22244.1
48773.6,22227
48773.6,22227
48768.6,22175.8
48748.7,22110.1
48716.3,22049.6
48703.7,22034.3
48683.7,22009.8
48683.7,22009.8
48672.8,21996.5
48659.5,21985.6
48239.6,21565.7
48228.7,21552.4
48175.6,21508.9
48115.1,21476.5
48049.4,21456.6
47998.2,21451.6
47998.2,21451.6
47981.1,21449.9
47964,21451.6
46222.7,21451.6
46147.6,21376.5
46058.3,21316.8
45959.1,21275.7
45853.7,21254.7
45746.3,21254.7
45640.9,21275.7
45541.7,21316.8
45452.4,21376.5
45377.3,21451.6
45146.2,21451.6
45129.1,21449.9
45112,21451.6
45112,21451.6
45060.8,21456.6
44995.2,21476.5
44934.6,21508.9
44934.6,21508.9
44934.6,21508.9
44894.9,21541.5
44894.9,21541.5
44881.6,21552.4
44870.7,21565.7
44783.5,21652.9
44696.3,21565.7
44685.4,21552.4
44632.3,21508.9
44571.8,21476.5
44506.1,21456.6
44454.9,21451.6
44454.9,21451.6
44437.8,21449.9
44420.7,21451.6
44301.5,21451.6
44226.3,21376.5
44137,21316.8
44037.8,21275.7
43932.4,21254.7
43825,21254.7
43719.7,21275.7
43620.5,21316.8
43531.1,21376.5
43456,21451.6
42095.1,21451.6
42078,21449.9
42060.8,21451.6
42060.8,21451.6
42009.6,21456.6
41944,21476.5
41883.4,21508.9
41883.4,21508.9
41883.4,21508.9
41843.7,21541.5
41843.7,21541.5
41830.4,21552.4
41819.5,21565.7
41686.4,21698.8
40899.4,21698.8
40891.6,21687.1
40812.9,21608.4
40720.4,21546.6
40617.5,21504
40508.4,21482.3
40397.1,21482.3
40288,21504
40185.1,21546.6
40092.6,21608.4
40013.9,21687.1
39952.1,21779.6
39909.5,21882.5
39887.8,21991.6
39887.8,22102.9
39909.5,22212
39952.1,22314.9
40013.9,22407.4
40092.6,22486.1
40185.1,22547.9
40288,22590.5
40397.1,22612.2
40508.4,22612.2
40617.5,22590.5
40720.4,22547.9
40812.9,22486.1
40891.6,22407.4
40899.4,22395.7
41813.6,22395.7
41830.7,22397.4
41847.8,22395.7
41847.8,22395.7
41899,22390.6
41964.7,22370.7
42025.2,22338.4
42078.3,22294.8
42089.2,22281.5
42222.3,22148.4
43456,22148.4
43531.1,22223.5
43620.5,22283.2
43719.7,22324.3
43825,22345.3
43932.4,22345.3
44037.8,22324.3
44137,22283.2
44226.3,22223.5
44238.2,22211.7
44238.2,24769.7
44202,24769.7
44202,24824.9
44184.8,24810.8
44175.7,24805.9
44139.5,24769.7
44094.7,24773.4
44094.3,24773.3
44045.3,24768.5
43970.5,24768.5
43970.5,23889.2
43972.2,23872
43970.5,23854.9
43970.5,23854.9
43965.4,23803.7
43945.5,23738.1
43913.2,23677.5
43869.6,23624.5
43856.3,23613.6
43258.5,23015.7
43247.6,23002.4
43194.5,22958.9
43134,22926.5
43068.3,22906.6
43017.1,22901.6
43017.1,22901.6
43000,22899.9
42982.9,22901.6
40144.3,22901.6
39348.4,22105.7
39348.4,21517.1
39350.1,21500
39348.4,21482.9
39348.4,21198.2
60974.4,21198.2
60974.4,21301.8
60994.6,21403.3
61034.2,21499
61091.7,21585
61165,21658.3
61251,21715.8
61346.7,21755.4
61448.2,21775.6
61551.8,21775.6
61653.3,21755.4
61749,21715.8
61835,21658.3
61908.3,21585
61965.8,21499
62005.4,21403.3
62025.6,21301.8
62025.6,21198.2
62974.4,21198.2
62974.4,21301.8
62994.6,21403.3
63034.2,21499
63091.7,21585
63165,21658.3
63251,21715.8
63346.7,21755.4
63448.2,21775.6
63551.8,21775.6
63653.3,21755.4
63749,21715.8
63835,21658.3
63908.3,21585
63965.8,21499
64005.4,21403.3
64025.6,21301.8
64025.6,21198.2
64024,21190.5
64395.7,21190.5
64395.7,21309.5
64418.9,21426.3
64464.4,21536.3
64530.6,21635.2
64614.8,21719.4
64713.7,21785.6
64823.7,21831.1
64940.5,21854.3
65059.5,21854.3
65176.3,21831.1
65286.3,21785.6
65385.2,21719.4
65411.4,21693.3
65413.6,21700.5
65436.8,21743.9
65468,21782
65506.1,21813.2
65549.5,21836.4
65596.7,21850.7
65645.7,21855.5
66354.3,21855.5
66403.3,21850.7
66450.5,21836.4
66493.9,21813.2
66532,21782
66563.2,21743.9
66586.4,21700.5
66600.7,21653.3
66605.5,21604.3
66605.5,20895.7
66600.7,20846.7
66586.4,20799.5
66563.2,20756.1
66532,20718
66493.9,20686.8
66450.5,20663.6
66403.3,20649.3
66354.3,20644.5
65645.7,20644.5
65596.7,20649.3
65549.5,20663.6
65506.1,20686.8
65468,20718
65436.8,20756.1
65413.6,20799.5
65411.4,20806.7
65385.2,20780.6
65286.3,20714.4
65176.3,20668.9
65059.5,20645.7
64940.5,20645.7
64823.7,20668.9
64713.7,20714.4
64614.8,20780.6
64530.6,20864.8
64464.4,20963.7
64418.9,21073.7
64395.7,21190.5
64024,21190.5
64005.4,21096.7
63965.8,21001
63908.3,20915
63835,20841.7
63749,20784.2
63653.3,20744.6
63551.8,20724.4
63448.2,20724.4
63346.7,20744.6
63251,20784.2
63165,20841.7
63091.7,20915
63034.2,21001
62994.6,21096.7
62974.4,21198.2
62025.6,21198.2
62005.4,21096.7
61965.8,21001
61908.3,20915
61835,20841.7
61749,20784.2
61653.3,20744.6
61551.8,20724.4
61448.2,20724.4
61346.7,20744.6
61251,20784.2
61165,20841.7
61091.7,20915
61034.2,21001
60994.6,21096.7
60974.4,21198.2
39348.4,21198.2
39348.4,20469.6
40132.6,20469.6
40160.8,20565.6
40261.4,20613.2
40369.4,20640.3
40480.5,20645.8
40590.6,20629.4
40695.4,20592
40744.7,20565.6
40772.9,20469.6
40452.8,20149.5
40132.6,20469.6
39348.4,20469.6
39348.4,20067.5
39480.9,19935
39906.3,19935
39891.2,19995.3
39885.7,20106.5
39902.1,20216.6
39939.5,20321.4
39965.9,20370.7
40061.9,20398.9
40382,20078.7
40376.5,20073.2
40447.2,20002.5
40452.8,20008
40458.3,20002.5
40529,20073.2
40523.5,20078.7
40843.6,20398.9
40939.6,20370.7
40987.2,20270.1
41014.3,20162.1
41019.8,20051
41003.5,19940.9
41001.4,19935
66192.3,19935
67151.6,20894.3
67151.6,25605.7
63515.7,29241.5
63502.4,29252.4
63491.5,29265.7
63491.5,29265.7
63458.9,29305.5
63426.5,29366
63406.6,29431.7
63399.9,29500
63401.6,29517.1
63401.6,30008
63377.3,30024.2
63295.9,30105.7
63231.9,30201.4
63187.8,30307.8
63165.4,30420.8
63165.4,30535.9
63187.8,30648.9
63231.9,30755.3
63295.9,30851
63377.3,30932.5
63473.1,30996.5
63579.5,31040.5
63692.4,31063
63807.6,31063
63920.5,31040.5
64026.9,30996.5
64122.7,30932.5
64204.1,30851
64268.1,30755.3
64312.2,30648.9
64334.6,30535.9
64334.6,30420.8
65724.4,30420.8
65724.4,30535.9
65746.9,30648.9
65790.9,30755.3
65854.9,30851
65936.4,30932.5
66032.1,30996.5
66138.5,31040.5
66251.5,31063
66366.6,31063
66479.6,31040.5
66586,30996.5
66681.7,30932.5
66763.2,30851
66827.2,30755.3
66871.2,30648.9
66893.7,30535.9
66893.7,30420.8
66871.2,30307.8
66827.2,30201.4
66763.2,30105.7
66681.7,30024.2
66586,29960.2
66479.6,29916.2
66366.6,29893.7
66251.5,29893.7
66138.5,29916.2
66032.1,29960.2
65936.4,30024.2
65854.9,30105.7
65790.9,30201.4
65746.9,30307.8
65724.4,30420.8
64334.6,30420.8
64312.2,30307.8
64268.1,30201.4
64204.1,30105.7
64122.7,30024.2
64098.4,30008
64098.4,29644.3
67734.3,26008.5
67747.6,25997.6
67758.5,25984.3
67791.1,25944.5
67791.1,25944.5
67823.5,25884
67843.4,25818.3
67848.4,25767.1
67848.4,25767.1
67850.1,25750
67848.4,25732.9
67848.4,20767.1
67850.1,20750
67848.4,20732.9
67848.4,20732.9
67843.4,20681.7
67823.5,20616
67791.1,20555.5
67747.6,20502.4
67734.3,20491.5
66595.1,19352.3
66584.2,19339
66531.1,19295.5
66470.6,19263.2
66404.9,19243.2
66353.7,19238.2
66353.7,19238.2
66336.6,19236.5
66319.5,19238.2
39353.7,19238.2
39336.6,19236.5
39319.5,19238.2
39319.5,19238.2
39268.3,19243.2
39202.6,19263.2
39142.1,19295.5
39142.1,19295.5
39142.1,19295.5
39102.3,19328.1
39102.3,19328.1
39089,19339
39078.1,19352.3
38765.7,19664.7
38752.4,19675.7
38708.9,19728.7
38676.5,19789.2
38662.7,19835
38662.3,19836.1
38656.6,19854.9
38651.6,19906.1
38651.6,19906.1
38649.9,19923.2
38651.6,19940.3
38651.6,21151.6
25541.4,21151.6
25515.1,21112.3
25533.3,21102.6
25571.3,21071.3
25602.6,21033.3
25625.8,20989.8
25640.1,20942.7
25644.9,20893.7
25644.9,20106.3
25640.1,20057.3
25625.8,20010.2
25602.6,19966.7
25571.3,19928.7
25533.3,19897.4
25489.8,19874.2
25442.7,19859.9
25393.7,19855.1
24606.3,19855.1
24557.3,19859.9
24510.2,19874.2
24466.7,19897.4
24428.7,19928.7
24397.4,19966.7
24374.2,20010.2
24359.9,20057.3
24355.1,20106.3
24355.1,20151.6
24317.1,20151.6
24300,20149.9
24282.9,20151.6
24282.9,20151.6
24231.7,20156.6
24166,20176.5
24105.5,20208.9
24105.5,20208.9
24105.5,20208.9
24065.7,20241.5
24065.7,20241.5
24052.4,20252.4
24041.5,20265.7
23165.7,21141.5
23152.4,21152.4
23141.5,21165.7
23141.5,21165.7
23108.9,21205.5
23076.5,21266
23067.6,21295.4
21483.1,19710.8
21483.1,19601.8
21495.8,19582.8
21526.5,19508.6
21542.1,19429.9
21542.1,19349.6
21526.5,19270.9
21495.8,19196.7
21451.2,19130
21394.4,19073.3
21327.7,19028.7
21253.5,18997.9
21174.8,18982.3
21094.5,18982.3
21015.8,18997.9
20941.6,19028.7
20874.9,19073.3
20818.1,19130
20773.5,19196.7
20742.8,19270.9
20732.3,19323.9
20732.3,16526.2
21724.8,16526.2
21724.8,16702.2
21759.1,16874.7
21826.5,17037.3
21924.2,17183.6
22048.7,17308.1
22195,17405.8
22357.5,17473.2
22530.1,17507.5
22706.1,17507.5
22878.7,17473.2
23041.3,17405.8
23187.6,17308.1
23312,17183.6
23409.8,17037.3
23477.1,16874.7
23511.4,16702.2
23511.4,16526.2
66449.2,16526.2
66449.2,16702.2
66483.5,16874.7
66550.9,17037.3
66648.6,17183.6
66773.1,17308.1
66919.4,17405.8
67081.9,17473.2
67254.5,17507.5
67430.5,17507.5
67603.1,17473.2
67765.7,17405.8
67912,17308.1
68036.4,17183.6
68134.2,17037.3
68201.5,16874.7
68235.8,16702.2
68235.8,16526.2
68201.5,16353.6
68134.2,16191
68036.4,16044.7
67912,15920.3
67765.7,15822.5
67603.1,15755.2
67430.5,15720.9
67254.5,15720.9
67081.9,15755.2
66919.4,15822.5
66773.1,15920.3
66648.6,16044.7
66550.9,16191
66483.5,16353.6
66449.2,16526.2
23511.4,16526.2
23477.1,16353.6
23409.8,16191
23312,16044.7
23187.6,15920.3
23041.3,15822.5
22878.7,15755.2
22706.1,15720.9
22530.1,15720.9
22357.5,15755.2
22195,15822.5
22048.7,15920.3
21924.2,16044.7
21826.5,16191
21759.1,16353.6
21724.8,16526.2
20732.3,16526.2
20732.3,11259.8
69240.2,11259.8
Z" /> 
<path style="fill:#000000; fill-opacity:1.0; 
stroke:#000000; stroke-width:100; stroke-opacity:1; 
stroke-linecap:round; stroke-linejoin:round;fill-rule:evenodd;"
d="M 24052.5,27498.1
24063.5,27511.3
24076.8,27522.3
24076.8,27522.3
24116.5,27554.9
24177,27587.2
24230.9,27603.6
24242.7,27607.2
24293.9,27612.2
24293.9,27612.2
24311,27613.9
24328.1,27612.2
25347.8,27612.2
27891.1,30155.5
27902,30168.8
27915.3,30179.7
27915.3,30179.7
27955.1,30212.4
28015.6,30244.7
28038.2,30251.6
28081.3,30264.6
28132.5,30269.7
28132.5,30269.7
28149.6,30271.4
28166.7,30269.7
32053.9,30269.7
32065.8,30281.5
26887.2,30281.5
26870.1,30279.8
26853,30281.5
26853,30281.5
26801.8,30286.5
26736.1,30306.5
26675.6,30338.8
26668.3,30344.8
26635.8,30371.4
26635.8,30371.4
26622.5,30382.4
26611.6,30395.6
25355.7,31651.6
25344.5,31651.6
25303.1,31589.7
25213.5,31500
25213.5,31500
25213.5,31500
25303.1,31410.3
25373.6,31304.9
25422.1,31187.8
25446.9,31063.4
25446.9,30936.6
25422.1,30812.2
25373.6,30695.1
25303.1,30589.7
25213.5,30500
25213.5,30500
25213.5,30500
25303.1,30410.3
25373.6,30304.9
25422.1,30187.8
25446.9,30063.4
25446.9,29936.6
25422.1,29812.2
25373.6,29695.1
25318.3,29612.3
25336.4,29602.6
25374.5,29571.3
25405.7,29533.3
25428.9,29489.8
25443.2,29442.7
25448.1,29393.7
25446.9,29112.5
25384.4,29050
24853.1,29050
24853.1,29057.9
24753.1,29057.9
24753.1,29050
24221.9,29050
24159.4,29112.5
24158.2,29393.7
24163.1,29442.7
24177.4,29489.8
24200.6,29533.3
24231.8,29571.3
24269.9,29602.6
24288,29612.3
24232.7,29695.1
24184.2,29812.2
24159.4,29936.6
24159.4,30063.4
24184.2,30187.8
24232.7,30304.9
24303.2,30410.3
24392.8,30500
24392.8,30500
24392.8,30500
24303.2,30589.7
24232.7,30695.1
24184.2,30812.2
24159.4,30936.6
24159.4,31063.4
24184.2,31187.8
24232.7,31304.9
24303.2,31410.3
24392.8,31500
24392.8,31500
24392.8,31500
24303.2,31589.7
24261.8,31651.6
24144.3,31651.6
23748.4,31255.7
23748.4,28606.3
24158.2,28606.3
24159.4,28887.5
24221.9,28950
24753.1,28950
24753.1,28418.8
24853.1,28418.8
24853.1,28950
25384.4,28950
25446.9,28887.5
25448.1,28606.3
25443.2,28557.3
25428.9,28510.2
25405.7,28466.7
25374.5,28428.7
25336.4,28397.4
25293,28374.2
25245.9,28359.9
25196.9,28355.1
24915.6,28356.3
24853.1,28418.8
24753.1,28418.8
24690.6,28356.3
24409.4,28355.1
24360.4,28359.9
24313.3,28374.2
24269.9,28397.4
24231.8,28428.7
24200.6,28466.7
24177.4,28510.2
24163.1,28557.3
24158.2,28606.3
23748.4,28606.3
23748.4,27193.9
Z" /> 
<path style="fill:#000000; fill-opacity:1.0; 
stroke:#000000; stroke-width:100; stroke-opacity:1; 
stroke-linecap:round; stroke-linejoin:round;fill-rule:evenodd;"
d="M 24500,21910.3
24589.7,22000
24589.7,22000
24589.7,22000
24500,22089.7
24429.6,22195.1
24381,22312.2
24356.3,22436.6
24356.3,22563.4
24381,22687.8
24429.6,22804.9
24500,22910.3
24589.7,23000
24589.7,23000
24589.7,23000
24500,23089.7
24429.6,23195.1
24381,23312.2
24356.3,23436.6
24356.3,23563.4
24381,23687.8
24429.6,23804.9
24500,23910.3
24589.7,24000
24589.7,24000
24589.7,24000
24500,24089.7
24429.6,24195.1
24381,24312.2
24356.3,24436.6
24356.3,24563.4
24381,24687.8
24429.6,24804.9
24500,24910.3
24589.7,25000
24594.6,25003.3
24527.7,25062.7
24451.4,25163.2
24396.3,25276.7
24374,25350.2
24421,25450
24950,25450
24950,25442.1
25050,25442.1
25050,25450
25579,25450
25626,25350.2
25603.7,25276.7
25548.6,25163.2
25472.3,25062.7
25405.4,25003.3
25410.3,25000
25500,24910.3
25541.4,24848.4
34292.7,24848.4
34784.8,25340.6
34027.4,25340.6
34025.9,25325
34011.6,25277.9
33988.4,25234.5
33957.2,25196.4
33919.1,25165.1
33875.7,25141.9
33828.5,25127.6
33779.5,25122.8
33149.6,25122.8
33100.6,25127.6
33053.5,25141.9
33010,25165.1
32972,25196.4
32940.7,25234.5
32917.5,25277.9
32903.2,25325
32898.4,25374
32898.4,26003.9
32903.2,26052.9
32917.5,26100.1
32940.7,26143.5
32972,26181.6
33010,26212.8
33053.5,26236
33100.6,26250.3
33149.6,26255.1
33152.4,26255.1
33144.4,26282.4
33464.6,26602.5
33784.7,26282.4
33776.7,26255.1
33779.5,26255.1
33828.5,26250.3
33875.7,26236
33919.1,26212.8
33957.2,26181.6
33988.4,26143.5
34011.6,26100.1
34025.9,26052.9
34027.4,26037.4
35091.9,26037.4
36847.8,27793.3
36858.7,27806.6
36872,27817.5
36872,27817.5
36898,27838.9
36911.8,27850.2
36972.3,27882.5
37038,27902.4
37089.2,27907.5
37089.2,27907.5
37106.3,27909.2
37123.4,27907.5
41486.7,27907.5
41458.6,27930.5
41458.6,27930.5
41445.3,27941.4
41434.4,27954.7
41242.1,28147
41219.7,28151.5
41145.6,28182.2
41078.8,28226.8
41022.1,28283.6
40977.5,28350.3
40946.8,28424.4
40931.1,28503.2
40931.1,28583.4
40946.8,28662.2
40977.5,28736.3
41022.1,28803.1
41078.8,28859.8
41145.6,28904.4
41219.7,28935.1
41298.4,28950.8
41378.7,28950.8
41457.4,28935.1
41531.6,28904.4
41598.3,28859.8
41633.9,28824.3
41669.4,28859.8
41736.1,28904.4
41810.3,28935.1
41889,28950.8
41969.3,28950.8
42048,28935.1
42091.3,28917.2
42091.3,28927.2
42096.1,28976.2
42096.2,28976.4
42096.1,28976.6
42091.3,29025.6
42091.3,29242.1
42096.1,29291.1
42110.4,29338.3
42133.6,29381.7
42164.9,29419.8
42203,29451
42246.4,29474.2
42293.5,29488.5
42342.5,29493.3
42933.1,29493.3
42949.2,29491.7
42947.6,29507.9
42947.6,30098.4
42952.4,30147.4
42958.7,30168
42958.7,30251.6
39208.9,30251.6
38644.3,29687
38633.4,29673.7
38580.3,29630.2
38519.8,29597.8
38454.1,29577.9
38402.9,29572.8
38402.9,29572.8
38385.8,29571.1
38368.7,29572.8
34843.7,29572.8
34783.9,29513
34697.8,29455.5
34602.1,29415.9
34500.6,29395.7
34397.1,29395.7
34295.5,29415.9
34199.9,29455.5
34113.8,29513
34040.6,29586.2
33983,29672.3
33943.4,29768
33923.2,29869.5
33923.2,29954.1
33595.8,30281.5
32831.9,30281.5
32857.1,30256.3
32914.6,30170.2
32954.2,30074.6
32974.4,29973
32974.4,29869.5
32954.2,29768
32914.6,29672.3
32857.1,29586.2
32783.9,29513
32697.8,29455.5
32602.1,29415.9
32500.6,29395.7
32397.1,29395.7
32295.5,29415.9
32199.9,29455.5
32113.8,29513
32053.9,29572.8
28293.9,29572.8
25785.2,27064.1
33144.4,27064.1
33172.6,27160.1
33273.2,27207.7
33381.2,27234.8
33492.3,27240.2
33602.4,27223.9
33707.2,27186.5
33756.5,27160.1
33784.7,27064.1
33464.6,26743.9
33144.4,27064.1
25785.2,27064.1
25750.6,27029.5
25739.7,27016.2
25686.6,26972.7
25626.1,26940.3
25560.4,26920.4
25509.2,26915.4
25509.2,26915.4
25492.1,26913.7
25475,26915.4
24455.3,26915.4
24265.7,26725.8
24265.7,26701
32897.6,26701
32913.9,26811.1
32951.3,26915.9
32977.7,26965.2
33073.7,26993.3
33393.9,26673.2
33535.3,26673.2
33855.4,26993.3
33951.4,26965.2
33999,26864.6
34026.1,26756.6
34031.6,26645.5
34015.3,26535.4
33977.8,26430.6
33951.4,26381.3
33855.4,26353.1
33535.3,26673.2
33393.9,26673.2
33073.7,26353.1
32977.7,26381.3
32930.1,26481.9
32903,26589.8
32897.6,26701
24265.7,26701
24265.7,25649.8
24374,25649.8
24396.3,25723.3
24451.4,25836.8
24527.7,25937.3
24622.1,26021.1
24731,26084.8
24850.2,26126
24950,26079.3
24950,25550
25050,25550
25050,26079.3
25149.8,26126
25269,26084.8
25377.9,26021.1
25472.3,25937.3
25548.6,25836.8
25603.7,25723.3
25626,25649.8
25579,25550
25050,25550
24950,25550
24421,25550
24374,25649.8
24265.7,25649.8
24265.7,21994.7
24412,21848.4
24458.6,21848.4
Z" /> 
<path style="fill:#000000; fill-opacity:1.0; 
stroke:#000000; stroke-width:100; stroke-opacity:1; 
stroke-linecap:round; stroke-linejoin:round;fill-rule:evenodd;"
d="M 44319.1,25819.1
44328.2,25824
44364.5,25860.2
44409.2,25856.5
44409.7,25856.6
44458.7,25861.4
44675.2,25861.4
44724.2,25856.6
44724.4,25856.6
44724.6,25856.6
44773.6,25861.4
44990.2,25861.4
45039.2,25856.6
45039.4,25856.6
45039.6,25856.6
45088.6,25861.4
45305.1,25861.4
45354.1,25856.6
45354.3,25856.6
45354.5,25856.6
45403.5,25861.4
45425.5,25861.4
45406.6,25889.7
45375.9,25963.8
45360.2,26042.5
45360.2,26122.8
45375.9,26201.5
45406.6,26275.7
45451.2,26342.4
45508,26399.2
45574.7,26443.8
45648.9,26474.5
45727.6,26490.2
45807.8,26490.2
45886.6,26474.5
45960.7,26443.8
45964.6,26441.2
45968.4,26443.8
46042.6,26474.5
46108.3,26487.6
46108.3,27081.3
46095.6,27100.3
46064.9,27174.4
46049.2,27253.2
46049.2,27333.4
46064.9,27412.2
46095.6,27486.3
46108.3,27505.3
46108.3,28757.3
46108.3,28757.3
46108.3,29257.9
46091.7,29257.9
46091.7,29313.1
46074.6,29299
46065.5,29294.1
46029.2,29257.9
45984.5,29261.6
45984,29261.5
45935,29256.7
45718.5,29256.7
45669.5,29261.5
45669.3,29261.6
45669.1,29261.5
45620.1,29256.7
45403.5,29256.7
45354.5,29261.5
45354.3,29261.6
45354.1,29261.5
45305.1,29256.7
45088.6,29256.7
45039.6,29261.5
45039.4,29261.6
45039.2,29261.5
44990.2,29256.7
44773.6,29256.7
44724.6,29261.5
44724.4,29261.6
44724.2,29261.5
44675.2,29256.7
44458.7,29256.7
44409.7,29261.5
44409.4,29261.6
44409.2,29261.5
44360.2,29256.7
44143.7,29256.7
44094.7,29261.5
44094.5,29261.6
44094.3,29261.5
44045.3,29256.7
43828.7,29256.7
43779.7,29261.5
43779.3,29261.6
43734.5,29257.9
43698.3,29294.1
43689.2,29299
43672,29313.1
43672,29257.9
43655.5,29257.9
43655.5,28954.1
43657.2,28937
43655.5,28919.9
43655.5,28919.9
43650.5,28868.7
43630.5,28803
43598.2,28742.5
43554.7,28689.4
43541.4,28678.5
43447.5,28584.6
43436.5,28571.3
43383.5,28527.8
43323,28495.4
43257.3,28475.5
43206.1,28470.5
43206.1,28470.5
43189,28468.8
43184.3,28469.2
43184.3,28395.7
43179.5,28346.7
43179.4,28346.5
43179.5,28346.3
43184.3,28297.2
43184.3,28080.7
43179.5,28031.7
43179.3,28031.2
43183.1,27986.5
43146.8,27950.3
43141.9,27941.1
43110.7,27903.1
43075.3,27874
43110.7,27845
43141.9,27806.9
43146.8,27797.8
43183.1,27761.5
43179.3,27716.8
43179.5,27716.3
43184.3,27667.3
43184.3,27592.5
43705.3,27592.5
43724.3,27605.2
43798.5,27635.9
43877.2,27651.6
43957.5,27651.6
44036.2,27635.9
44110.3,27605.2
44177.1,27560.6
44233.8,27503.8
44278.4,27437.1
44309.1,27363
44324.8,27284.2
44324.8,27204
44309.1,27125.2
44304.3,27113.6
44304.3,25807
Z" /> 
</g>
</g> 
</svg>
