%TF.GenerationSoftware,KiCad,Pcbnew,(5.1.6)-1*%
%TF.CreationDate,2020-10-19T15:42:45+08:00*%
%TF.ProjectId,sim,73696d2e-6b69-4636-9164-5f7063625858,rev?*%
%TF.SameCoordinates,Original*%
%TF.FileFunction,Other,Fab,Top*%
%FSLAX46Y46*%
G04 Gerber Fmt 4.6, Leading zero omitted, Abs format (unit mm)*
G04 Created by KiCad (PCBNEW (5.1.6)-1) date 2020-10-19 15:42:45*
%MOMM*%
%LPD*%
G01*
G04 APERTURE LIST*
%ADD10C,0.100000*%
G04 APERTURE END LIST*
D10*
%TO.C,D1*%
X60420000Y-33020000D02*
G75*
G03*
X60420000Y-33020000I-2000000J0D01*
G01*
X60920000Y-30520000D02*
X55920000Y-30520000D01*
X60920000Y-35520000D02*
X60920000Y-30520000D01*
X55920000Y-35520000D02*
X60920000Y-35520000D01*
X55920000Y-30520000D02*
X55920000Y-35520000D01*
X60920000Y-34520000D02*
X59920000Y-35520000D01*
%TO.C,D2*%
X142200000Y-34520000D02*
X141200000Y-35520000D01*
X137200000Y-30520000D02*
X137200000Y-35520000D01*
X137200000Y-35520000D02*
X142200000Y-35520000D01*
X142200000Y-35520000D02*
X142200000Y-30520000D01*
X142200000Y-30520000D02*
X137200000Y-30520000D01*
X141700000Y-33020000D02*
G75*
G03*
X141700000Y-33020000I-2000000J0D01*
G01*
%TO.C,D3*%
X70580000Y-33020000D02*
G75*
G03*
X70580000Y-33020000I-2000000J0D01*
G01*
X71080000Y-30520000D02*
X66080000Y-30520000D01*
X71080000Y-35520000D02*
X71080000Y-30520000D01*
X66080000Y-35520000D02*
X71080000Y-35520000D01*
X66080000Y-30520000D02*
X66080000Y-35520000D01*
X71080000Y-34520000D02*
X70080000Y-35520000D01*
%TO.C,D4*%
X151860000Y-33020000D02*
G75*
G03*
X151860000Y-33020000I-2000000J0D01*
G01*
X152360000Y-30520000D02*
X147360000Y-30520000D01*
X152360000Y-35520000D02*
X152360000Y-30520000D01*
X147360000Y-35520000D02*
X152360000Y-35520000D01*
X147360000Y-30520000D02*
X147360000Y-35520000D01*
X152360000Y-34520000D02*
X151360000Y-35520000D01*
%TO.C,D5*%
X81240000Y-34520000D02*
X80240000Y-35520000D01*
X76240000Y-30520000D02*
X76240000Y-35520000D01*
X76240000Y-35520000D02*
X81240000Y-35520000D01*
X81240000Y-35520000D02*
X81240000Y-30520000D01*
X81240000Y-30520000D02*
X76240000Y-30520000D01*
X80740000Y-33020000D02*
G75*
G03*
X80740000Y-33020000I-2000000J0D01*
G01*
%TO.C,D6*%
X162520000Y-34520000D02*
X161520000Y-35520000D01*
X157520000Y-30520000D02*
X157520000Y-35520000D01*
X157520000Y-35520000D02*
X162520000Y-35520000D01*
X162520000Y-35520000D02*
X162520000Y-30520000D01*
X162520000Y-30520000D02*
X157520000Y-30520000D01*
X162020000Y-33020000D02*
G75*
G03*
X162020000Y-33020000I-2000000J0D01*
G01*
%TO.C,D7*%
X90900000Y-33020000D02*
G75*
G03*
X90900000Y-33020000I-2000000J0D01*
G01*
X91400000Y-30520000D02*
X86400000Y-30520000D01*
X91400000Y-35520000D02*
X91400000Y-30520000D01*
X86400000Y-35520000D02*
X91400000Y-35520000D01*
X86400000Y-30520000D02*
X86400000Y-35520000D01*
X91400000Y-34520000D02*
X90400000Y-35520000D01*
%TO.C,D9*%
X101500000Y-34520000D02*
X100500000Y-35520000D01*
X96500000Y-30520000D02*
X96500000Y-35520000D01*
X96500000Y-35520000D02*
X101500000Y-35520000D01*
X101500000Y-35520000D02*
X101500000Y-30520000D01*
X101500000Y-30520000D02*
X96500000Y-30520000D01*
X101000000Y-33020000D02*
G75*
G03*
X101000000Y-33020000I-2000000J0D01*
G01*
%TO.C,D11*%
X111220000Y-33020000D02*
G75*
G03*
X111220000Y-33020000I-2000000J0D01*
G01*
X111720000Y-30520000D02*
X106720000Y-30520000D01*
X111720000Y-35520000D02*
X111720000Y-30520000D01*
X106720000Y-35520000D02*
X111720000Y-35520000D01*
X106720000Y-30520000D02*
X106720000Y-35520000D01*
X111720000Y-34520000D02*
X110720000Y-35520000D01*
%TO.C,D13*%
X121880000Y-34520000D02*
X120880000Y-35520000D01*
X116880000Y-30520000D02*
X116880000Y-35520000D01*
X116880000Y-35520000D02*
X121880000Y-35520000D01*
X121880000Y-35520000D02*
X121880000Y-30520000D01*
X121880000Y-30520000D02*
X116880000Y-30520000D01*
X121380000Y-33020000D02*
G75*
G03*
X121380000Y-33020000I-2000000J0D01*
G01*
%TO.C,D17*%
X132040000Y-34520000D02*
X131040000Y-35520000D01*
X127040000Y-30520000D02*
X127040000Y-35520000D01*
X127040000Y-35520000D02*
X132040000Y-35520000D01*
X132040000Y-35520000D02*
X132040000Y-30520000D01*
X132040000Y-30520000D02*
X127040000Y-30520000D01*
X131540000Y-33020000D02*
G75*
G03*
X131540000Y-33020000I-2000000J0D01*
G01*
%TO.C,D8*%
X172680000Y-34520000D02*
X171680000Y-35520000D01*
X167680000Y-30520000D02*
X167680000Y-35520000D01*
X167680000Y-35520000D02*
X172680000Y-35520000D01*
X172680000Y-35520000D02*
X172680000Y-30520000D01*
X172680000Y-30520000D02*
X167680000Y-30520000D01*
X172180000Y-33020000D02*
G75*
G03*
X172180000Y-33020000I-2000000J0D01*
G01*
%TD*%
M02*
