%TF.GenerationSoftware,KiCad,Pcbnew,(5.1.6)-1*%
%TF.CreationDate,2020-10-19T15:42:45+08:00*%
%TF.ProjectId,sim,73696d2e-6b69-4636-9164-5f7063625858,rev?*%
%TF.SameCoordinates,Original*%
%TF.FileFunction,Legend,Bot*%
%TF.FilePolarity,Positive*%
%FSLAX46Y46*%
G04 Gerber Fmt 4.6, Leading zero omitted, Abs format (unit mm)*
G04 Created by KiCad (PCBNEW (5.1.6)-1) date 2020-10-19 15:42:45*
%MOMM*%
%LPD*%
G01*
G04 APERTURE LIST*
%ADD10C,0.150000*%
%ADD11C,0.120000*%
G04 APERTURE END LIST*
D10*
X105759285Y-74747380D02*
X106330714Y-74747380D01*
X106045000Y-74747380D02*
X106045000Y-73747380D01*
X106140238Y-73890238D01*
X106235476Y-73985476D01*
X106330714Y-74033095D01*
X64976190Y-67762380D02*
X64976190Y-66762380D01*
X63928571Y-67667142D02*
X63976190Y-67714761D01*
X64119047Y-67762380D01*
X64214285Y-67762380D01*
X64357142Y-67714761D01*
X64452380Y-67619523D01*
X64500000Y-67524285D01*
X64547619Y-67333809D01*
X64547619Y-67190952D01*
X64500000Y-67000476D01*
X64452380Y-66905238D01*
X64357142Y-66810000D01*
X64214285Y-66762380D01*
X64119047Y-66762380D01*
X63976190Y-66810000D01*
X63928571Y-66857619D01*
X63547619Y-67714761D02*
X63404761Y-67762380D01*
X63166666Y-67762380D01*
X63071428Y-67714761D01*
X63023809Y-67667142D01*
X62976190Y-67571904D01*
X62976190Y-67476666D01*
X63023809Y-67381428D01*
X63071428Y-67333809D01*
X63166666Y-67286190D01*
X63357142Y-67238571D01*
X63452380Y-67190952D01*
X63500000Y-67143333D01*
X63547619Y-67048095D01*
X63547619Y-66952857D01*
X63500000Y-66857619D01*
X63452380Y-66810000D01*
X63357142Y-66762380D01*
X63119047Y-66762380D01*
X62976190Y-66810000D01*
X62547619Y-67762380D02*
X62547619Y-66762380D01*
X62166666Y-66762380D01*
X62071428Y-66810000D01*
X62023809Y-66857619D01*
X61976190Y-66952857D01*
X61976190Y-67095714D01*
X62023809Y-67190952D01*
X62071428Y-67238571D01*
X62166666Y-67286190D01*
X62547619Y-67286190D01*
X170941904Y-59142380D02*
X170370476Y-59142380D01*
X170656190Y-60142380D02*
X170656190Y-59142380D01*
X170132380Y-59142380D02*
X169465714Y-60142380D01*
X169465714Y-59142380D02*
X170132380Y-60142380D01*
X170346666Y-54427380D02*
X170680000Y-53951190D01*
X170918095Y-54427380D02*
X170918095Y-53427380D01*
X170537142Y-53427380D01*
X170441904Y-53475000D01*
X170394285Y-53522619D01*
X170346666Y-53617857D01*
X170346666Y-53760714D01*
X170394285Y-53855952D01*
X170441904Y-53903571D01*
X170537142Y-53951190D01*
X170918095Y-53951190D01*
X170013333Y-53427380D02*
X169346666Y-54427380D01*
X169346666Y-53427380D02*
X170013333Y-54427380D01*
X166552380Y-86177380D02*
X166885714Y-85701190D01*
X167123809Y-86177380D02*
X167123809Y-85177380D01*
X166742857Y-85177380D01*
X166647619Y-85225000D01*
X166600000Y-85272619D01*
X166552380Y-85367857D01*
X166552380Y-85510714D01*
X166600000Y-85605952D01*
X166647619Y-85653571D01*
X166742857Y-85701190D01*
X167123809Y-85701190D01*
X166123809Y-85653571D02*
X165790476Y-85653571D01*
X165647619Y-86177380D02*
X166123809Y-86177380D01*
X166123809Y-85177380D01*
X165647619Y-85177380D01*
X165266666Y-86129761D02*
X165123809Y-86177380D01*
X164885714Y-86177380D01*
X164790476Y-86129761D01*
X164742857Y-86082142D01*
X164695238Y-85986904D01*
X164695238Y-85891666D01*
X164742857Y-85796428D01*
X164790476Y-85748809D01*
X164885714Y-85701190D01*
X165076190Y-85653571D01*
X165171428Y-85605952D01*
X165219047Y-85558333D01*
X165266666Y-85463095D01*
X165266666Y-85367857D01*
X165219047Y-85272619D01*
X165171428Y-85225000D01*
X165076190Y-85177380D01*
X164838095Y-85177380D01*
X164695238Y-85225000D01*
X164266666Y-85653571D02*
X163933333Y-85653571D01*
X163790476Y-86177380D02*
X164266666Y-86177380D01*
X164266666Y-85177380D01*
X163790476Y-85177380D01*
X163504761Y-85177380D02*
X162933333Y-85177380D01*
X163219047Y-86177380D02*
X163219047Y-85177380D01*
X68071904Y-64270000D02*
X68167142Y-64222380D01*
X68310000Y-64222380D01*
X68452857Y-64270000D01*
X68548095Y-64365238D01*
X68595714Y-64460476D01*
X68643333Y-64650952D01*
X68643333Y-64793809D01*
X68595714Y-64984285D01*
X68548095Y-65079523D01*
X68452857Y-65174761D01*
X68310000Y-65222380D01*
X68214761Y-65222380D01*
X68071904Y-65174761D01*
X68024285Y-65127142D01*
X68024285Y-64793809D01*
X68214761Y-64793809D01*
X67595714Y-65222380D02*
X67595714Y-64222380D01*
X67024285Y-65222380D01*
X67024285Y-64222380D01*
X66548095Y-65222380D02*
X66548095Y-64222380D01*
X66310000Y-64222380D01*
X66167142Y-64270000D01*
X66071904Y-64365238D01*
X66024285Y-64460476D01*
X65976666Y-64650952D01*
X65976666Y-64793809D01*
X66024285Y-64984285D01*
X66071904Y-65079523D01*
X66167142Y-65174761D01*
X66310000Y-65222380D01*
X66548095Y-65222380D01*
X69516428Y-57602380D02*
X69516428Y-56602380D01*
X69183095Y-57316666D01*
X68849761Y-56602380D01*
X68849761Y-57602380D01*
X68373571Y-57602380D02*
X68373571Y-56602380D01*
X67945000Y-57554761D02*
X67802142Y-57602380D01*
X67564047Y-57602380D01*
X67468809Y-57554761D01*
X67421190Y-57507142D01*
X67373571Y-57411904D01*
X67373571Y-57316666D01*
X67421190Y-57221428D01*
X67468809Y-57173809D01*
X67564047Y-57126190D01*
X67754523Y-57078571D01*
X67849761Y-57030952D01*
X67897380Y-56983333D01*
X67945000Y-56888095D01*
X67945000Y-56792857D01*
X67897380Y-56697619D01*
X67849761Y-56650000D01*
X67754523Y-56602380D01*
X67516428Y-56602380D01*
X67373571Y-56650000D01*
X66754523Y-56602380D02*
X66564047Y-56602380D01*
X66468809Y-56650000D01*
X66373571Y-56745238D01*
X66325952Y-56935714D01*
X66325952Y-57269047D01*
X66373571Y-57459523D01*
X66468809Y-57554761D01*
X66564047Y-57602380D01*
X66754523Y-57602380D01*
X66849761Y-57554761D01*
X66945000Y-57459523D01*
X66992619Y-57269047D01*
X66992619Y-56935714D01*
X66945000Y-56745238D01*
X66849761Y-56650000D01*
X66754523Y-56602380D01*
X69516428Y-60142380D02*
X69516428Y-59142380D01*
X69183095Y-59856666D01*
X68849761Y-59142380D01*
X68849761Y-60142380D01*
X68183095Y-59142380D02*
X67992619Y-59142380D01*
X67897380Y-59190000D01*
X67802142Y-59285238D01*
X67754523Y-59475714D01*
X67754523Y-59809047D01*
X67802142Y-59999523D01*
X67897380Y-60094761D01*
X67992619Y-60142380D01*
X68183095Y-60142380D01*
X68278333Y-60094761D01*
X68373571Y-59999523D01*
X68421190Y-59809047D01*
X68421190Y-59475714D01*
X68373571Y-59285238D01*
X68278333Y-59190000D01*
X68183095Y-59142380D01*
X67373571Y-60094761D02*
X67230714Y-60142380D01*
X66992619Y-60142380D01*
X66897380Y-60094761D01*
X66849761Y-60047142D01*
X66802142Y-59951904D01*
X66802142Y-59856666D01*
X66849761Y-59761428D01*
X66897380Y-59713809D01*
X66992619Y-59666190D01*
X67183095Y-59618571D01*
X67278333Y-59570952D01*
X67325952Y-59523333D01*
X67373571Y-59428095D01*
X67373571Y-59332857D01*
X67325952Y-59237619D01*
X67278333Y-59190000D01*
X67183095Y-59142380D01*
X66945000Y-59142380D01*
X66802142Y-59190000D01*
X66373571Y-60142380D02*
X66373571Y-59142380D01*
X68595714Y-62634761D02*
X68452857Y-62682380D01*
X68214761Y-62682380D01*
X68119523Y-62634761D01*
X68071904Y-62587142D01*
X68024285Y-62491904D01*
X68024285Y-62396666D01*
X68071904Y-62301428D01*
X68119523Y-62253809D01*
X68214761Y-62206190D01*
X68405238Y-62158571D01*
X68500476Y-62110952D01*
X68548095Y-62063333D01*
X68595714Y-61968095D01*
X68595714Y-61872857D01*
X68548095Y-61777619D01*
X68500476Y-61730000D01*
X68405238Y-61682380D01*
X68167142Y-61682380D01*
X68024285Y-61730000D01*
X67024285Y-62587142D02*
X67071904Y-62634761D01*
X67214761Y-62682380D01*
X67310000Y-62682380D01*
X67452857Y-62634761D01*
X67548095Y-62539523D01*
X67595714Y-62444285D01*
X67643333Y-62253809D01*
X67643333Y-62110952D01*
X67595714Y-61920476D01*
X67548095Y-61825238D01*
X67452857Y-61730000D01*
X67310000Y-61682380D01*
X67214761Y-61682380D01*
X67071904Y-61730000D01*
X67024285Y-61777619D01*
X66595714Y-62682380D02*
X66595714Y-61682380D01*
X66024285Y-62682380D02*
X66452857Y-62110952D01*
X66024285Y-61682380D02*
X66595714Y-62253809D01*
X69397380Y-55062380D02*
X69730714Y-54586190D01*
X69968809Y-55062380D02*
X69968809Y-54062380D01*
X69587857Y-54062380D01*
X69492619Y-54110000D01*
X69445000Y-54157619D01*
X69397380Y-54252857D01*
X69397380Y-54395714D01*
X69445000Y-54490952D01*
X69492619Y-54538571D01*
X69587857Y-54586190D01*
X69968809Y-54586190D01*
X68968809Y-54538571D02*
X68635476Y-54538571D01*
X68492619Y-55062380D02*
X68968809Y-55062380D01*
X68968809Y-54062380D01*
X68492619Y-54062380D01*
X68111666Y-55014761D02*
X67968809Y-55062380D01*
X67730714Y-55062380D01*
X67635476Y-55014761D01*
X67587857Y-54967142D01*
X67540238Y-54871904D01*
X67540238Y-54776666D01*
X67587857Y-54681428D01*
X67635476Y-54633809D01*
X67730714Y-54586190D01*
X67921190Y-54538571D01*
X68016428Y-54490952D01*
X68064047Y-54443333D01*
X68111666Y-54348095D01*
X68111666Y-54252857D01*
X68064047Y-54157619D01*
X68016428Y-54110000D01*
X67921190Y-54062380D01*
X67683095Y-54062380D01*
X67540238Y-54110000D01*
X67111666Y-54538571D02*
X66778333Y-54538571D01*
X66635476Y-55062380D02*
X67111666Y-55062380D01*
X67111666Y-54062380D01*
X66635476Y-54062380D01*
X66349761Y-54062380D02*
X65778333Y-54062380D01*
X66064047Y-55062380D02*
X66064047Y-54062380D01*
X66865476Y-51522380D02*
X67341666Y-51522380D01*
X67389285Y-51998571D01*
X67341666Y-51950952D01*
X67246428Y-51903333D01*
X67008333Y-51903333D01*
X66913095Y-51950952D01*
X66865476Y-51998571D01*
X66817857Y-52093809D01*
X66817857Y-52331904D01*
X66865476Y-52427142D01*
X66913095Y-52474761D01*
X67008333Y-52522380D01*
X67246428Y-52522380D01*
X67341666Y-52474761D01*
X67389285Y-52427142D01*
X66532142Y-51522380D02*
X66198809Y-52522380D01*
X65865476Y-51522380D01*
D11*
%TO.C,SW1*%
X168295000Y-81005000D02*
X168295000Y-78325000D01*
X162055000Y-78325000D02*
X162055000Y-81005000D01*
X162205000Y-82785000D02*
X168145000Y-82785000D01*
X162205000Y-76545000D02*
X168145000Y-76545000D01*
X166589214Y-79665000D02*
G75*
G03*
X166589214Y-79665000I-1414214J0D01*
G01*
%TO.C,C2*%
X103820000Y-55770000D02*
X103820000Y-51230000D01*
X101680000Y-55770000D02*
X101680000Y-51230000D01*
X103820000Y-55770000D02*
X103805000Y-55770000D01*
X101695000Y-55770000D02*
X101680000Y-55770000D01*
X103820000Y-51230000D02*
X103805000Y-51230000D01*
X101695000Y-51230000D02*
X101680000Y-51230000D01*
D10*
%TO.C,U1*%
X108825000Y-75175000D02*
X108825000Y-74600000D01*
X119175000Y-75175000D02*
X119175000Y-74500000D01*
X119175000Y-64825000D02*
X119175000Y-65500000D01*
X108825000Y-64825000D02*
X108825000Y-65500000D01*
X108825000Y-75175000D02*
X109500000Y-75175000D01*
X108825000Y-64825000D02*
X109500000Y-64825000D01*
X119175000Y-64825000D02*
X118500000Y-64825000D01*
X119175000Y-75175000D02*
X118500000Y-75175000D01*
X108825000Y-74600000D02*
X107550000Y-74600000D01*
D11*
%TO.C,Y1*%
X117017000Y-52847000D02*
X110767000Y-52847000D01*
X117017000Y-57897000D02*
X110767000Y-57897000D01*
X117017000Y-57897000D02*
G75*
G03*
X117017000Y-52847000I0J2525000D01*
G01*
X110767000Y-57897000D02*
G75*
G02*
X110767000Y-52847000I0J2525000D01*
G01*
%TO.C,J1*%
X177910000Y-92640000D02*
X176300000Y-92640000D01*
X172090000Y-100360000D02*
X172090000Y-98300000D01*
X173800000Y-100360000D02*
X172090000Y-100360000D01*
X172090000Y-92640000D02*
X172090000Y-94700000D01*
X173800000Y-92640000D02*
X172090000Y-92640000D01*
X177910000Y-92640000D02*
X177910000Y-100360000D01*
X177910000Y-100360000D02*
X176300000Y-100360000D01*
X172090000Y-94700000D02*
X171500000Y-94700000D01*
%TO.C,J2*%
X64330000Y-82610000D02*
X61670000Y-82610000D01*
X64330000Y-74930000D02*
X64330000Y-82610000D01*
X61670000Y-74930000D02*
X61670000Y-82610000D01*
X64330000Y-74930000D02*
X61670000Y-74930000D01*
X64330000Y-73660000D02*
X64330000Y-72330000D01*
X64330000Y-72330000D02*
X63000000Y-72330000D01*
%TO.C,J3*%
X64830000Y-66100000D02*
X62170000Y-66100000D01*
X64830000Y-53340000D02*
X64830000Y-66100000D01*
X62170000Y-53340000D02*
X62170000Y-66100000D01*
X64830000Y-53340000D02*
X62170000Y-53340000D01*
X64830000Y-52070000D02*
X64830000Y-50740000D01*
X64830000Y-50740000D02*
X63500000Y-50740000D01*
%TO.C,C1*%
X121930000Y-59730000D02*
X121930000Y-64270000D01*
X124070000Y-59730000D02*
X124070000Y-64270000D01*
X121930000Y-59730000D02*
X121945000Y-59730000D01*
X124055000Y-59730000D02*
X124070000Y-59730000D01*
X121930000Y-64270000D02*
X121945000Y-64270000D01*
X124055000Y-64270000D02*
X124070000Y-64270000D01*
%TO.C,D15*%
X167930000Y-55055000D02*
X167930000Y-55211000D01*
X167930000Y-52739000D02*
X167930000Y-52895000D01*
X165328870Y-55054837D02*
G75*
G03*
X167410961Y-55055000I1041130J1079837D01*
G01*
X165328870Y-52895163D02*
G75*
G02*
X167410961Y-52895000I1041130J-1079837D01*
G01*
X164697665Y-55053608D02*
G75*
G03*
X167930000Y-55210516I1672335J1078608D01*
G01*
X164697665Y-52896392D02*
G75*
G02*
X167930000Y-52739484I1672335J-1078608D01*
G01*
%TO.C,D16*%
X167930000Y-58454000D02*
X167930000Y-58610000D01*
X167930000Y-60770000D02*
X167930000Y-60926000D01*
X164697665Y-58611392D02*
G75*
G02*
X167930000Y-58454484I1672335J-1078608D01*
G01*
X164697665Y-60768608D02*
G75*
G03*
X167930000Y-60925516I1672335J1078608D01*
G01*
X165328870Y-58610163D02*
G75*
G02*
X167410961Y-58610000I1041130J-1079837D01*
G01*
X165328870Y-60769837D02*
G75*
G03*
X167410961Y-60770000I1041130J1079837D01*
G01*
%TO.C,C3*%
X82095000Y-64775225D02*
X82595000Y-64775225D01*
X82345000Y-64525225D02*
X82345000Y-65025225D01*
X83536000Y-69931000D02*
X84104000Y-69931000D01*
X83302000Y-69891000D02*
X84338000Y-69891000D01*
X83143000Y-69851000D02*
X84497000Y-69851000D01*
X83015000Y-69811000D02*
X84625000Y-69811000D01*
X82905000Y-69771000D02*
X84735000Y-69771000D01*
X82809000Y-69731000D02*
X84831000Y-69731000D01*
X82722000Y-69691000D02*
X84918000Y-69691000D01*
X82642000Y-69651000D02*
X84998000Y-69651000D01*
X84860000Y-69611000D02*
X85071000Y-69611000D01*
X82569000Y-69611000D02*
X82780000Y-69611000D01*
X84860000Y-69571000D02*
X85139000Y-69571000D01*
X82501000Y-69571000D02*
X82780000Y-69571000D01*
X84860000Y-69531000D02*
X85203000Y-69531000D01*
X82437000Y-69531000D02*
X82780000Y-69531000D01*
X84860000Y-69491000D02*
X85263000Y-69491000D01*
X82377000Y-69491000D02*
X82780000Y-69491000D01*
X84860000Y-69451000D02*
X85320000Y-69451000D01*
X82320000Y-69451000D02*
X82780000Y-69451000D01*
X84860000Y-69411000D02*
X85374000Y-69411000D01*
X82266000Y-69411000D02*
X82780000Y-69411000D01*
X84860000Y-69371000D02*
X85425000Y-69371000D01*
X82215000Y-69371000D02*
X82780000Y-69371000D01*
X84860000Y-69331000D02*
X85473000Y-69331000D01*
X82167000Y-69331000D02*
X82780000Y-69331000D01*
X84860000Y-69291000D02*
X85519000Y-69291000D01*
X82121000Y-69291000D02*
X82780000Y-69291000D01*
X84860000Y-69251000D02*
X85563000Y-69251000D01*
X82077000Y-69251000D02*
X82780000Y-69251000D01*
X84860000Y-69211000D02*
X85605000Y-69211000D01*
X82035000Y-69211000D02*
X82780000Y-69211000D01*
X84860000Y-69171000D02*
X85646000Y-69171000D01*
X81994000Y-69171000D02*
X82780000Y-69171000D01*
X84860000Y-69131000D02*
X85684000Y-69131000D01*
X81956000Y-69131000D02*
X82780000Y-69131000D01*
X84860000Y-69091000D02*
X85721000Y-69091000D01*
X81919000Y-69091000D02*
X82780000Y-69091000D01*
X84860000Y-69051000D02*
X85757000Y-69051000D01*
X81883000Y-69051000D02*
X82780000Y-69051000D01*
X84860000Y-69011000D02*
X85791000Y-69011000D01*
X81849000Y-69011000D02*
X82780000Y-69011000D01*
X84860000Y-68971000D02*
X85824000Y-68971000D01*
X81816000Y-68971000D02*
X82780000Y-68971000D01*
X84860000Y-68931000D02*
X85855000Y-68931000D01*
X81785000Y-68931000D02*
X82780000Y-68931000D01*
X84860000Y-68891000D02*
X85885000Y-68891000D01*
X81755000Y-68891000D02*
X82780000Y-68891000D01*
X84860000Y-68851000D02*
X85915000Y-68851000D01*
X81725000Y-68851000D02*
X82780000Y-68851000D01*
X84860000Y-68811000D02*
X85942000Y-68811000D01*
X81698000Y-68811000D02*
X82780000Y-68811000D01*
X84860000Y-68771000D02*
X85969000Y-68771000D01*
X81671000Y-68771000D02*
X82780000Y-68771000D01*
X84860000Y-68731000D02*
X85995000Y-68731000D01*
X81645000Y-68731000D02*
X82780000Y-68731000D01*
X84860000Y-68691000D02*
X86020000Y-68691000D01*
X81620000Y-68691000D02*
X82780000Y-68691000D01*
X84860000Y-68651000D02*
X86044000Y-68651000D01*
X81596000Y-68651000D02*
X82780000Y-68651000D01*
X84860000Y-68611000D02*
X86067000Y-68611000D01*
X81573000Y-68611000D02*
X82780000Y-68611000D01*
X84860000Y-68571000D02*
X86088000Y-68571000D01*
X81552000Y-68571000D02*
X82780000Y-68571000D01*
X84860000Y-68531000D02*
X86110000Y-68531000D01*
X81530000Y-68531000D02*
X82780000Y-68531000D01*
X84860000Y-68491000D02*
X86130000Y-68491000D01*
X81510000Y-68491000D02*
X82780000Y-68491000D01*
X84860000Y-68451000D02*
X86149000Y-68451000D01*
X81491000Y-68451000D02*
X82780000Y-68451000D01*
X84860000Y-68411000D02*
X86168000Y-68411000D01*
X81472000Y-68411000D02*
X82780000Y-68411000D01*
X84860000Y-68371000D02*
X86185000Y-68371000D01*
X81455000Y-68371000D02*
X82780000Y-68371000D01*
X84860000Y-68331000D02*
X86202000Y-68331000D01*
X81438000Y-68331000D02*
X82780000Y-68331000D01*
X84860000Y-68291000D02*
X86218000Y-68291000D01*
X81422000Y-68291000D02*
X82780000Y-68291000D01*
X84860000Y-68251000D02*
X86234000Y-68251000D01*
X81406000Y-68251000D02*
X82780000Y-68251000D01*
X84860000Y-68211000D02*
X86248000Y-68211000D01*
X81392000Y-68211000D02*
X82780000Y-68211000D01*
X84860000Y-68171000D02*
X86262000Y-68171000D01*
X81378000Y-68171000D02*
X82780000Y-68171000D01*
X84860000Y-68131000D02*
X86275000Y-68131000D01*
X81365000Y-68131000D02*
X82780000Y-68131000D01*
X84860000Y-68091000D02*
X86288000Y-68091000D01*
X81352000Y-68091000D02*
X82780000Y-68091000D01*
X84860000Y-68051000D02*
X86300000Y-68051000D01*
X81340000Y-68051000D02*
X82780000Y-68051000D01*
X84860000Y-68010000D02*
X86311000Y-68010000D01*
X81329000Y-68010000D02*
X82780000Y-68010000D01*
X84860000Y-67970000D02*
X86321000Y-67970000D01*
X81319000Y-67970000D02*
X82780000Y-67970000D01*
X84860000Y-67930000D02*
X86331000Y-67930000D01*
X81309000Y-67930000D02*
X82780000Y-67930000D01*
X84860000Y-67890000D02*
X86340000Y-67890000D01*
X81300000Y-67890000D02*
X82780000Y-67890000D01*
X84860000Y-67850000D02*
X86348000Y-67850000D01*
X81292000Y-67850000D02*
X82780000Y-67850000D01*
X84860000Y-67810000D02*
X86356000Y-67810000D01*
X81284000Y-67810000D02*
X82780000Y-67810000D01*
X84860000Y-67770000D02*
X86363000Y-67770000D01*
X81277000Y-67770000D02*
X82780000Y-67770000D01*
X84860000Y-67730000D02*
X86370000Y-67730000D01*
X81270000Y-67730000D02*
X82780000Y-67730000D01*
X84860000Y-67690000D02*
X86376000Y-67690000D01*
X81264000Y-67690000D02*
X82780000Y-67690000D01*
X84860000Y-67650000D02*
X86381000Y-67650000D01*
X81259000Y-67650000D02*
X82780000Y-67650000D01*
X84860000Y-67610000D02*
X86385000Y-67610000D01*
X81255000Y-67610000D02*
X82780000Y-67610000D01*
X84860000Y-67570000D02*
X86389000Y-67570000D01*
X81251000Y-67570000D02*
X82780000Y-67570000D01*
X81247000Y-67530000D02*
X86393000Y-67530000D01*
X81244000Y-67490000D02*
X86396000Y-67490000D01*
X81242000Y-67450000D02*
X86398000Y-67450000D01*
X81241000Y-67410000D02*
X86399000Y-67410000D01*
X81240000Y-67370000D02*
X86400000Y-67370000D01*
X81240000Y-67330000D02*
X86400000Y-67330000D01*
X86440000Y-67330000D02*
G75*
G03*
X86440000Y-67330000I-2620000J0D01*
G01*
%TO.C,C4*%
X91875000Y-73430000D02*
X91875000Y-68890000D01*
X89735000Y-73430000D02*
X89735000Y-68890000D01*
X91875000Y-73430000D02*
X91860000Y-73430000D01*
X89750000Y-73430000D02*
X89735000Y-73430000D01*
X91875000Y-68890000D02*
X91860000Y-68890000D01*
X89750000Y-68890000D02*
X89735000Y-68890000D01*
%TO.C,C5*%
X125945000Y-64826000D02*
X125930000Y-64826000D01*
X128070000Y-64826000D02*
X128055000Y-64826000D01*
X125945000Y-69366000D02*
X125930000Y-69366000D01*
X128070000Y-69366000D02*
X128055000Y-69366000D01*
X125930000Y-69366000D02*
X125930000Y-64826000D01*
X128070000Y-69366000D02*
X128070000Y-64826000D01*
%TO.C,R1*%
X164750000Y-98880000D02*
X164750000Y-99210000D01*
X158210000Y-98880000D02*
X164750000Y-98880000D01*
X158210000Y-99210000D02*
X158210000Y-98880000D01*
X164750000Y-101620000D02*
X164750000Y-101290000D01*
X158210000Y-101620000D02*
X164750000Y-101620000D01*
X158210000Y-101290000D02*
X158210000Y-101620000D01*
%TO.C,R2*%
X158210000Y-97540000D02*
X158210000Y-97870000D01*
X158210000Y-97870000D02*
X164750000Y-97870000D01*
X164750000Y-97870000D02*
X164750000Y-97540000D01*
X158210000Y-95460000D02*
X158210000Y-95130000D01*
X158210000Y-95130000D02*
X164750000Y-95130000D01*
X164750000Y-95130000D02*
X164750000Y-95460000D01*
%TO.C,R3*%
X80420000Y-75030000D02*
X80420000Y-74700000D01*
X86960000Y-75030000D02*
X80420000Y-75030000D01*
X86960000Y-74700000D02*
X86960000Y-75030000D01*
X80420000Y-72290000D02*
X80420000Y-72620000D01*
X86960000Y-72290000D02*
X80420000Y-72290000D01*
X86960000Y-72620000D02*
X86960000Y-72290000D01*
%TO.C,R4*%
X152940000Y-55015000D02*
X152940000Y-55345000D01*
X152940000Y-55345000D02*
X159480000Y-55345000D01*
X159480000Y-55345000D02*
X159480000Y-55015000D01*
X152940000Y-52935000D02*
X152940000Y-52605000D01*
X152940000Y-52605000D02*
X159480000Y-52605000D01*
X159480000Y-52605000D02*
X159480000Y-52935000D01*
%TO.C,R5*%
X159480000Y-58320000D02*
X159480000Y-58650000D01*
X152940000Y-58320000D02*
X159480000Y-58320000D01*
X152940000Y-58650000D02*
X152940000Y-58320000D01*
X159480000Y-61060000D02*
X159480000Y-60730000D01*
X152940000Y-61060000D02*
X159480000Y-61060000D01*
X152940000Y-60730000D02*
X152940000Y-61060000D01*
%TD*%
M02*
