%TF.GenerationSoftware,KiCad,Pcbnew,(5.1.6)-1*%
%TF.CreationDate,2020-10-19T12:16:10+08:00*%
%TF.ProjectId,sim,73696d2e-6b69-4636-9164-5f7063625858,rev?*%
%TF.SameCoordinates,Original*%
%TF.FileFunction,Other,Fab,Bot*%
%FSLAX46Y46*%
G04 Gerber Fmt 4.6, Leading zero omitted, Abs format (unit mm)*
G04 Created by KiCad (PCBNEW (5.1.6)-1) date 2020-10-19 12:16:10*
%MOMM*%
%LPD*%
G01*
G04 APERTURE LIST*
%ADD10C,0.100000*%
%ADD11C,0.150000*%
G04 APERTURE END LIST*
D10*
%TO.C,SW1*%
X162175000Y-76665000D02*
X168175000Y-76665000D01*
X162175000Y-82665000D02*
X168175000Y-82665000D01*
X168175000Y-82665000D02*
X168175000Y-76665000D01*
X162175000Y-82665000D02*
X162175000Y-76665000D01*
%TO.C,C2*%
X103700000Y-55650000D02*
X101800000Y-55650000D01*
X101800000Y-55650000D02*
X101800000Y-51350000D01*
X101800000Y-51350000D02*
X103700000Y-51350000D01*
X103700000Y-51350000D02*
X103700000Y-55650000D01*
D11*
%TO.C,U1*%
X110000000Y-75000000D02*
X119000000Y-75000000D01*
X119000000Y-75000000D02*
X119000000Y-65000000D01*
X119000000Y-65000000D02*
X109000000Y-65000000D01*
X109000000Y-65000000D02*
X109000000Y-74000000D01*
X109000000Y-74000000D02*
X110000000Y-75000000D01*
D10*
%TO.C,Y1*%
X117017000Y-53047000D02*
X110767000Y-53047000D01*
X117017000Y-57697000D02*
X110767000Y-57697000D01*
X116892000Y-53372000D02*
X110892000Y-53372000D01*
X116892000Y-57372000D02*
X110892000Y-57372000D01*
X117017000Y-57697000D02*
G75*
G03*
X117017000Y-53047000I0J2325000D01*
G01*
X110767000Y-57697000D02*
G75*
G02*
X110767000Y-53047000I0J2325000D01*
G01*
X116892000Y-57372000D02*
G75*
G03*
X116892000Y-53372000I0J2000000D01*
G01*
X110892000Y-57372000D02*
G75*
G02*
X110892000Y-53372000I0J2000000D01*
G01*
%TO.C,J1*%
X171900000Y-95200000D02*
X171500000Y-95600000D01*
X171500000Y-95600000D02*
X171500000Y-94800000D01*
X171500000Y-94800000D02*
X171900000Y-95200000D01*
X177800000Y-92750000D02*
X172200000Y-92750000D01*
X177800000Y-100250000D02*
X177800000Y-92750000D01*
X172200000Y-100250000D02*
X177800000Y-100250000D01*
X172200000Y-92750000D02*
X172200000Y-100250000D01*
X176500000Y-93900000D02*
X176500000Y-99100000D01*
%TO.C,J2*%
X63635000Y-72390000D02*
X61730000Y-72390000D01*
X61730000Y-72390000D02*
X61730000Y-82550000D01*
X61730000Y-82550000D02*
X64270000Y-82550000D01*
X64270000Y-82550000D02*
X64270000Y-73025000D01*
X64270000Y-73025000D02*
X63635000Y-72390000D01*
%TO.C,J3*%
X64135000Y-50800000D02*
X62230000Y-50800000D01*
X62230000Y-50800000D02*
X62230000Y-66040000D01*
X62230000Y-66040000D02*
X64770000Y-66040000D01*
X64770000Y-66040000D02*
X64770000Y-51435000D01*
X64770000Y-51435000D02*
X64135000Y-50800000D01*
%TO.C,C1*%
X122050000Y-64150000D02*
X122050000Y-59850000D01*
X123950000Y-64150000D02*
X122050000Y-64150000D01*
X123950000Y-59850000D02*
X123950000Y-64150000D01*
X122050000Y-59850000D02*
X123950000Y-59850000D01*
%TO.C,D15*%
X167870000Y-53975000D02*
G75*
G03*
X167870000Y-53975000I-1500000J0D01*
G01*
X167870000Y-52808810D02*
X167870000Y-55141190D01*
X167870555Y-55140476D02*
G75*
G02*
X167870000Y-52808810I-1500555J1165476D01*
G01*
%TO.C,D16*%
X167870000Y-58523810D02*
X167870000Y-60856190D01*
X167870000Y-59690000D02*
G75*
G03*
X167870000Y-59690000I-1500000J0D01*
G01*
X167870555Y-60855476D02*
G75*
G02*
X167870000Y-58523810I-1500555J1165476D01*
G01*
%TO.C,R1*%
X162750000Y-100250000D02*
X162010000Y-100250000D01*
X157670000Y-100250000D02*
X158410000Y-100250000D01*
X162010000Y-101050000D02*
X158410000Y-101050000D01*
X162010000Y-99450000D02*
X162010000Y-101050000D01*
X158410000Y-99450000D02*
X162010000Y-99450000D01*
X158410000Y-101050000D02*
X158410000Y-99450000D01*
%TO.C,R2*%
X158410000Y-97300000D02*
X158410000Y-95700000D01*
X158410000Y-95700000D02*
X162010000Y-95700000D01*
X162010000Y-95700000D02*
X162010000Y-97300000D01*
X162010000Y-97300000D02*
X158410000Y-97300000D01*
X157670000Y-96500000D02*
X158410000Y-96500000D01*
X162750000Y-96500000D02*
X162010000Y-96500000D01*
%TO.C,R3*%
X82420000Y-76000000D02*
X83160000Y-76000000D01*
X87500000Y-76000000D02*
X86760000Y-76000000D01*
X83160000Y-75200000D02*
X86760000Y-75200000D01*
X83160000Y-76800000D02*
X83160000Y-75200000D01*
X86760000Y-76800000D02*
X83160000Y-76800000D01*
X86760000Y-75200000D02*
X86760000Y-76800000D01*
%TO.C,R4*%
X156950000Y-54775000D02*
X156950000Y-53175000D01*
X156950000Y-53175000D02*
X160550000Y-53175000D01*
X160550000Y-53175000D02*
X160550000Y-54775000D01*
X160550000Y-54775000D02*
X156950000Y-54775000D01*
X156210000Y-53975000D02*
X156950000Y-53975000D01*
X161290000Y-53975000D02*
X160550000Y-53975000D01*
%TO.C,R5*%
X156950000Y-60490000D02*
X156950000Y-58890000D01*
X156950000Y-58890000D02*
X160550000Y-58890000D01*
X160550000Y-58890000D02*
X160550000Y-60490000D01*
X160550000Y-60490000D02*
X156950000Y-60490000D01*
X156210000Y-59690000D02*
X156950000Y-59690000D01*
X161290000Y-59690000D02*
X160550000Y-59690000D01*
%TO.C,C3*%
X83662500Y-64616395D02*
X84162500Y-64616395D01*
X83912500Y-64366395D02*
X83912500Y-64866395D01*
X87500000Y-66500000D02*
G75*
G03*
X87500000Y-66500000I-2500000J0D01*
G01*
%TD*%
M02*
