%TF.GenerationSoftware,KiCad,Pcbnew,(5.1.6)-1*%
%TF.CreationDate,2020-10-19T15:42:46+08:00*%
%TF.ProjectId,sim,73696d2e-6b69-4636-9164-5f7063625858,rev?*%
%TF.SameCoordinates,Original*%
%TF.FileFunction,Other,Fab,Bot*%
%FSLAX46Y46*%
G04 Gerber Fmt 4.6, Leading zero omitted, Abs format (unit mm)*
G04 Created by KiCad (PCBNEW (5.1.6)-1) date 2020-10-19 15:42:46*
%MOMM*%
%LPD*%
G01*
G04 APERTURE LIST*
%ADD10C,0.100000*%
%ADD11C,0.150000*%
G04 APERTURE END LIST*
D10*
%TO.C,SW1*%
X162175000Y-76665000D02*
X168175000Y-76665000D01*
X162175000Y-82665000D02*
X168175000Y-82665000D01*
X168175000Y-82665000D02*
X168175000Y-76665000D01*
X162175000Y-82665000D02*
X162175000Y-76665000D01*
%TO.C,C2*%
X103700000Y-55650000D02*
X101800000Y-55650000D01*
X101800000Y-55650000D02*
X101800000Y-51350000D01*
X101800000Y-51350000D02*
X103700000Y-51350000D01*
X103700000Y-51350000D02*
X103700000Y-55650000D01*
D11*
%TO.C,U1*%
X110000000Y-75000000D02*
X119000000Y-75000000D01*
X119000000Y-75000000D02*
X119000000Y-65000000D01*
X119000000Y-65000000D02*
X109000000Y-65000000D01*
X109000000Y-65000000D02*
X109000000Y-74000000D01*
X109000000Y-74000000D02*
X110000000Y-75000000D01*
D10*
%TO.C,Y1*%
X117017000Y-53047000D02*
X110767000Y-53047000D01*
X117017000Y-57697000D02*
X110767000Y-57697000D01*
X116892000Y-53372000D02*
X110892000Y-53372000D01*
X116892000Y-57372000D02*
X110892000Y-57372000D01*
X117017000Y-57697000D02*
G75*
G03*
X117017000Y-53047000I0J2325000D01*
G01*
X110767000Y-57697000D02*
G75*
G02*
X110767000Y-53047000I0J2325000D01*
G01*
X116892000Y-57372000D02*
G75*
G03*
X116892000Y-53372000I0J2000000D01*
G01*
X110892000Y-57372000D02*
G75*
G02*
X110892000Y-53372000I0J2000000D01*
G01*
%TO.C,J1*%
X171900000Y-95200000D02*
X171500000Y-95600000D01*
X171500000Y-95600000D02*
X171500000Y-94800000D01*
X171500000Y-94800000D02*
X171900000Y-95200000D01*
X177800000Y-92750000D02*
X172200000Y-92750000D01*
X177800000Y-100250000D02*
X177800000Y-92750000D01*
X172200000Y-100250000D02*
X177800000Y-100250000D01*
X172200000Y-92750000D02*
X172200000Y-100250000D01*
X176500000Y-93900000D02*
X176500000Y-99100000D01*
%TO.C,J2*%
X63635000Y-72390000D02*
X61730000Y-72390000D01*
X61730000Y-72390000D02*
X61730000Y-82550000D01*
X61730000Y-82550000D02*
X64270000Y-82550000D01*
X64270000Y-82550000D02*
X64270000Y-73025000D01*
X64270000Y-73025000D02*
X63635000Y-72390000D01*
%TO.C,J3*%
X64135000Y-50800000D02*
X62230000Y-50800000D01*
X62230000Y-50800000D02*
X62230000Y-66040000D01*
X62230000Y-66040000D02*
X64770000Y-66040000D01*
X64770000Y-66040000D02*
X64770000Y-51435000D01*
X64770000Y-51435000D02*
X64135000Y-50800000D01*
%TO.C,C1*%
X122050000Y-59850000D02*
X123950000Y-59850000D01*
X123950000Y-59850000D02*
X123950000Y-64150000D01*
X123950000Y-64150000D02*
X122050000Y-64150000D01*
X122050000Y-64150000D02*
X122050000Y-59850000D01*
%TO.C,D15*%
X167870000Y-53975000D02*
G75*
G03*
X167870000Y-53975000I-1500000J0D01*
G01*
X167870000Y-52808810D02*
X167870000Y-55141190D01*
X167870555Y-55140476D02*
G75*
G02*
X167870000Y-52808810I-1500555J1165476D01*
G01*
%TO.C,D16*%
X167870000Y-58523810D02*
X167870000Y-60856190D01*
X167870000Y-59690000D02*
G75*
G03*
X167870000Y-59690000I-1500000J0D01*
G01*
X167870555Y-60855476D02*
G75*
G02*
X167870000Y-58523810I-1500555J1165476D01*
G01*
%TO.C,C3*%
X82482500Y-65446395D02*
X82982500Y-65446395D01*
X82732500Y-65196395D02*
X82732500Y-65696395D01*
X86320000Y-67330000D02*
G75*
G03*
X86320000Y-67330000I-2500000J0D01*
G01*
%TO.C,C4*%
X91755000Y-73310000D02*
X89855000Y-73310000D01*
X89855000Y-73310000D02*
X89855000Y-69010000D01*
X89855000Y-69010000D02*
X91755000Y-69010000D01*
X91755000Y-69010000D02*
X91755000Y-73310000D01*
%TO.C,C5*%
X127950000Y-64946000D02*
X127950000Y-69246000D01*
X126050000Y-64946000D02*
X127950000Y-64946000D01*
X126050000Y-69246000D02*
X126050000Y-64946000D01*
X127950000Y-69246000D02*
X126050000Y-69246000D01*
%TO.C,R1*%
X165290000Y-100250000D02*
X164630000Y-100250000D01*
X157670000Y-100250000D02*
X158330000Y-100250000D01*
X164630000Y-101500000D02*
X158330000Y-101500000D01*
X164630000Y-99000000D02*
X164630000Y-101500000D01*
X158330000Y-99000000D02*
X164630000Y-99000000D01*
X158330000Y-101500000D02*
X158330000Y-99000000D01*
%TO.C,R2*%
X158330000Y-97750000D02*
X158330000Y-95250000D01*
X158330000Y-95250000D02*
X164630000Y-95250000D01*
X164630000Y-95250000D02*
X164630000Y-97750000D01*
X164630000Y-97750000D02*
X158330000Y-97750000D01*
X157670000Y-96500000D02*
X158330000Y-96500000D01*
X165290000Y-96500000D02*
X164630000Y-96500000D01*
%TO.C,R3*%
X79880000Y-73660000D02*
X80540000Y-73660000D01*
X87500000Y-73660000D02*
X86840000Y-73660000D01*
X80540000Y-72410000D02*
X86840000Y-72410000D01*
X80540000Y-74910000D02*
X80540000Y-72410000D01*
X86840000Y-74910000D02*
X80540000Y-74910000D01*
X86840000Y-72410000D02*
X86840000Y-74910000D01*
%TO.C,R4*%
X153060000Y-55225000D02*
X153060000Y-52725000D01*
X153060000Y-52725000D02*
X159360000Y-52725000D01*
X159360000Y-52725000D02*
X159360000Y-55225000D01*
X159360000Y-55225000D02*
X153060000Y-55225000D01*
X152400000Y-53975000D02*
X153060000Y-53975000D01*
X160020000Y-53975000D02*
X159360000Y-53975000D01*
%TO.C,R5*%
X160020000Y-59690000D02*
X159360000Y-59690000D01*
X152400000Y-59690000D02*
X153060000Y-59690000D01*
X159360000Y-60940000D02*
X153060000Y-60940000D01*
X159360000Y-58440000D02*
X159360000Y-60940000D01*
X153060000Y-58440000D02*
X159360000Y-58440000D01*
X153060000Y-60940000D02*
X153060000Y-58440000D01*
%TD*%
M02*
