%TF.GenerationSoftware,KiCad,Pcbnew,(5.1.6)-1*%
%TF.CreationDate,2020-10-19T15:42:45+08:00*%
%TF.ProjectId,sim,73696d2e-6b69-4636-9164-5f7063625858,rev?*%
%TF.SameCoordinates,Original*%
%TF.FileFunction,Copper,L1,Top*%
%TF.FilePolarity,Positive*%
%FSLAX46Y46*%
G04 Gerber Fmt 4.6, Leading zero omitted, Abs format (unit mm)*
G04 Created by KiCad (PCBNEW (5.1.6)-1) date 2020-10-19 15:42:45*
%MOMM*%
%LPD*%
G01*
G04 APERTURE LIST*
%TA.AperFunction,NonConductor*%
%ADD10C,0.300000*%
%TD*%
%TA.AperFunction,ComponentPad*%
%ADD11C,1.700000*%
%TD*%
%TA.AperFunction,ComponentPad*%
%ADD12C,1.600000*%
%TD*%
%TA.AperFunction,SMDPad,CuDef*%
%ADD13R,1.500000X1.000000*%
%TD*%
%TA.AperFunction,ComponentPad*%
%ADD14C,1.500000*%
%TD*%
%TA.AperFunction,ComponentPad*%
%ADD15R,2.000000X2.000000*%
%TD*%
%TA.AperFunction,ComponentPad*%
%ADD16O,2.000000X2.000000*%
%TD*%
%TA.AperFunction,ComponentPad*%
%ADD17C,1.800000*%
%TD*%
%TA.AperFunction,ComponentPad*%
%ADD18R,1.800000X1.800000*%
%TD*%
%TA.AperFunction,ComponentPad*%
%ADD19R,1.600000X1.600000*%
%TD*%
%TA.AperFunction,ComponentPad*%
%ADD20O,1.600000X1.600000*%
%TD*%
%TA.AperFunction,ViaPad*%
%ADD21C,0.800000*%
%TD*%
%TA.AperFunction,Conductor*%
%ADD22C,0.250000*%
%TD*%
%TA.AperFunction,Conductor*%
%ADD23C,0.500000*%
%TD*%
%TA.AperFunction,Conductor*%
%ADD24C,0.254000*%
%TD*%
G04 APERTURE END LIST*
D10*
X132796428Y-105957857D02*
X132939285Y-105815000D01*
X133225000Y-105672142D01*
X133939285Y-105672142D01*
X134225000Y-105815000D01*
X134367857Y-105957857D01*
X134510714Y-106243571D01*
X134510714Y-106529285D01*
X134367857Y-106957857D01*
X132653571Y-108672142D01*
X134510714Y-108672142D01*
X136367857Y-105672142D02*
X136653571Y-105672142D01*
X136939285Y-105815000D01*
X137082142Y-105957857D01*
X137225000Y-106243571D01*
X137367857Y-106815000D01*
X137367857Y-107529285D01*
X137225000Y-108100714D01*
X137082142Y-108386428D01*
X136939285Y-108529285D01*
X136653571Y-108672142D01*
X136367857Y-108672142D01*
X136082142Y-108529285D01*
X135939285Y-108386428D01*
X135796428Y-108100714D01*
X135653571Y-107529285D01*
X135653571Y-106815000D01*
X135796428Y-106243571D01*
X135939285Y-105957857D01*
X136082142Y-105815000D01*
X136367857Y-105672142D01*
X138510714Y-105957857D02*
X138653571Y-105815000D01*
X138939285Y-105672142D01*
X139653571Y-105672142D01*
X139939285Y-105815000D01*
X140082142Y-105957857D01*
X140225000Y-106243571D01*
X140225000Y-106529285D01*
X140082142Y-106957857D01*
X138367857Y-108672142D01*
X140225000Y-108672142D01*
X142082142Y-105672142D02*
X142367857Y-105672142D01*
X142653571Y-105815000D01*
X142796428Y-105957857D01*
X142939285Y-106243571D01*
X143082142Y-106815000D01*
X143082142Y-107529285D01*
X142939285Y-108100714D01*
X142796428Y-108386428D01*
X142653571Y-108529285D01*
X142367857Y-108672142D01*
X142082142Y-108672142D01*
X141796428Y-108529285D01*
X141653571Y-108386428D01*
X141510714Y-108100714D01*
X141367857Y-107529285D01*
X141367857Y-106815000D01*
X141510714Y-106243571D01*
X141653571Y-105957857D01*
X141796428Y-105815000D01*
X142082142Y-105672142D01*
X147510714Y-105672142D02*
X147510714Y-107815000D01*
X147367857Y-108243571D01*
X147082142Y-108529285D01*
X146653571Y-108672142D01*
X146367857Y-108672142D01*
X150225000Y-108672142D02*
X150225000Y-107100714D01*
X150082142Y-106815000D01*
X149796428Y-106672142D01*
X149225000Y-106672142D01*
X148939285Y-106815000D01*
X150225000Y-108529285D02*
X149939285Y-108672142D01*
X149225000Y-108672142D01*
X148939285Y-108529285D01*
X148796428Y-108243571D01*
X148796428Y-107957857D01*
X148939285Y-107672142D01*
X149225000Y-107529285D01*
X149939285Y-107529285D01*
X150225000Y-107386428D01*
X151367857Y-106672142D02*
X152082142Y-108672142D01*
X152796428Y-106672142D02*
X152082142Y-108672142D01*
X151796428Y-109386428D01*
X151653571Y-109529285D01*
X151367857Y-109672142D01*
X153510714Y-106672142D02*
X154653571Y-106672142D01*
X153939285Y-105672142D02*
X153939285Y-108243571D01*
X154082142Y-108529285D01*
X154367857Y-108672142D01*
X154653571Y-108672142D01*
X155653571Y-108672142D02*
X155653571Y-106672142D01*
X155653571Y-107243571D02*
X155796428Y-106957857D01*
X155939285Y-106815000D01*
X156225000Y-106672142D01*
X156510714Y-106672142D01*
X157939285Y-108672142D02*
X157653571Y-108529285D01*
X157510714Y-108386428D01*
X157367857Y-108100714D01*
X157367857Y-107243571D01*
X157510714Y-106957857D01*
X157653571Y-106815000D01*
X157939285Y-106672142D01*
X158367857Y-106672142D01*
X158653571Y-106815000D01*
X158796428Y-106957857D01*
X158939285Y-107243571D01*
X158939285Y-108100714D01*
X158796428Y-108386428D01*
X158653571Y-108529285D01*
X158367857Y-108672142D01*
X157939285Y-108672142D01*
X160225000Y-106672142D02*
X160225000Y-108672142D01*
X160225000Y-106957857D02*
X160367857Y-106815000D01*
X160653571Y-106672142D01*
X161082142Y-106672142D01*
X161367857Y-106815000D01*
X161510714Y-107100714D01*
X161510714Y-108672142D01*
X162939285Y-108672142D02*
X162939285Y-106672142D01*
X162939285Y-105672142D02*
X162796428Y-105815000D01*
X162939285Y-105957857D01*
X163082142Y-105815000D01*
X162939285Y-105672142D01*
X162939285Y-105957857D01*
X165653571Y-108529285D02*
X165367857Y-108672142D01*
X164796428Y-108672142D01*
X164510714Y-108529285D01*
X164367857Y-108386428D01*
X164225000Y-108100714D01*
X164225000Y-107243571D01*
X164367857Y-106957857D01*
X164510714Y-106815000D01*
X164796428Y-106672142D01*
X165367857Y-106672142D01*
X165653571Y-106815000D01*
D11*
%TO.P,SW1,1*%
%TO.N,GND*%
X161925000Y-81915000D03*
%TO.P,SW1,3*%
%TO.N,N/C*%
X168425000Y-81915000D03*
%TO.P,SW1,2*%
%TO.N,Net-(J3-Pad2)*%
X161925000Y-77415000D03*
%TO.P,SW1,4*%
%TO.N,N/C*%
X168425000Y-77415000D03*
%TD*%
D12*
%TO.P,C2,1*%
%TO.N,Net-(C2-Pad1)*%
X102750000Y-56000000D03*
%TO.P,C2,2*%
%TO.N,GND*%
X102750000Y-51000000D03*
%TD*%
D13*
%TO.P,D1,1*%
%TO.N,+5V*%
X55970000Y-31420000D03*
%TO.P,D1,2*%
%TO.N,Net-(D1-Pad2)*%
X55970000Y-34620000D03*
%TO.P,D1,4*%
%TO.N,Net-(D1-Pad4)*%
X60870000Y-31420000D03*
%TO.P,D1,3*%
%TO.N,GND*%
X60870000Y-34620000D03*
%TD*%
%TO.P,D2,3*%
%TO.N,GND*%
X142150000Y-34620000D03*
%TO.P,D2,4*%
%TO.N,Net-(D17-Pad2)*%
X142150000Y-31420000D03*
%TO.P,D2,2*%
%TO.N,Net-(D2-Pad2)*%
X137250000Y-34620000D03*
%TO.P,D2,1*%
%TO.N,+5V*%
X137250000Y-31420000D03*
%TD*%
%TO.P,D3,1*%
%TO.N,+5V*%
X66130000Y-31420000D03*
%TO.P,D3,2*%
%TO.N,Net-(D3-Pad2)*%
X66130000Y-34620000D03*
%TO.P,D3,4*%
%TO.N,Net-(D1-Pad2)*%
X71030000Y-31420000D03*
%TO.P,D3,3*%
%TO.N,GND*%
X71030000Y-34620000D03*
%TD*%
%TO.P,D4,1*%
%TO.N,+5V*%
X147410000Y-31420000D03*
%TO.P,D4,2*%
%TO.N,Net-(D4-Pad2)*%
X147410000Y-34620000D03*
%TO.P,D4,4*%
%TO.N,Net-(D2-Pad2)*%
X152310000Y-31420000D03*
%TO.P,D4,3*%
%TO.N,GND*%
X152310000Y-34620000D03*
%TD*%
%TO.P,D5,3*%
%TO.N,GND*%
X81190000Y-34620000D03*
%TO.P,D5,4*%
%TO.N,Net-(D3-Pad2)*%
X81190000Y-31420000D03*
%TO.P,D5,2*%
%TO.N,Net-(D5-Pad2)*%
X76290000Y-34620000D03*
%TO.P,D5,1*%
%TO.N,+5V*%
X76290000Y-31420000D03*
%TD*%
%TO.P,D6,3*%
%TO.N,GND*%
X162470000Y-34620000D03*
%TO.P,D6,4*%
%TO.N,Net-(D4-Pad2)*%
X162470000Y-31420000D03*
%TO.P,D6,2*%
%TO.N,Net-(D6-Pad2)*%
X157570000Y-34620000D03*
%TO.P,D6,1*%
%TO.N,+5V*%
X157570000Y-31420000D03*
%TD*%
%TO.P,D7,1*%
%TO.N,+5V*%
X86450000Y-31420000D03*
%TO.P,D7,2*%
%TO.N,Net-(D7-Pad2)*%
X86450000Y-34620000D03*
%TO.P,D7,4*%
%TO.N,Net-(D5-Pad2)*%
X91350000Y-31420000D03*
%TO.P,D7,3*%
%TO.N,GND*%
X91350000Y-34620000D03*
%TD*%
%TO.P,D9,3*%
%TO.N,GND*%
X101450000Y-34620000D03*
%TO.P,D9,4*%
%TO.N,Net-(D7-Pad2)*%
X101450000Y-31420000D03*
%TO.P,D9,2*%
%TO.N,Net-(D11-Pad4)*%
X96550000Y-34620000D03*
%TO.P,D9,1*%
%TO.N,+5V*%
X96550000Y-31420000D03*
%TD*%
%TO.P,D11,1*%
%TO.N,+5V*%
X106770000Y-31420000D03*
%TO.P,D11,2*%
%TO.N,Net-(D11-Pad2)*%
X106770000Y-34620000D03*
%TO.P,D11,4*%
%TO.N,Net-(D11-Pad4)*%
X111670000Y-31420000D03*
%TO.P,D11,3*%
%TO.N,GND*%
X111670000Y-34620000D03*
%TD*%
%TO.P,D13,3*%
%TO.N,GND*%
X121830000Y-34620000D03*
%TO.P,D13,4*%
%TO.N,Net-(D11-Pad2)*%
X121830000Y-31420000D03*
%TO.P,D13,2*%
%TO.N,Net-(D13-Pad2)*%
X116930000Y-34620000D03*
%TO.P,D13,1*%
%TO.N,+5V*%
X116930000Y-31420000D03*
%TD*%
%TO.P,D17,3*%
%TO.N,GND*%
X131990000Y-34620000D03*
%TO.P,D17,4*%
%TO.N,Net-(D13-Pad2)*%
X131990000Y-31420000D03*
%TO.P,D17,2*%
%TO.N,Net-(D17-Pad2)*%
X127090000Y-34620000D03*
%TO.P,D17,1*%
%TO.N,+5V*%
X127090000Y-31420000D03*
%TD*%
D14*
%TO.P,Y1,1*%
%TO.N,Net-(C1-Pad1)*%
X116332000Y-55372000D03*
%TO.P,Y1,2*%
%TO.N,Net-(C2-Pad1)*%
X111452000Y-55372000D03*
%TD*%
D13*
%TO.P,D8,3*%
%TO.N,GND*%
X172630000Y-34620000D03*
%TO.P,D8,4*%
%TO.N,Net-(D6-Pad2)*%
X172630000Y-31420000D03*
%TO.P,D8,2*%
%TO.N,Net-(D8-Pad2)*%
X167730000Y-34620000D03*
%TO.P,D8,1*%
%TO.N,+5V*%
X167730000Y-31420000D03*
%TD*%
D15*
%TO.P,J2,1*%
%TO.N,GND*%
X63000000Y-73660000D03*
D16*
%TO.P,J2,2*%
%TO.N,Net-(J2-Pad2)*%
X63000000Y-76200000D03*
%TO.P,J2,3*%
%TO.N,Net-(J2-Pad3)*%
X63000000Y-78740000D03*
%TO.P,J2,4*%
%TO.N,+5V*%
X63000000Y-81280000D03*
%TD*%
D15*
%TO.P,J3,1*%
%TO.N,+5V*%
X63500000Y-52070000D03*
D16*
%TO.P,J3,2*%
%TO.N,Net-(J3-Pad2)*%
X63500000Y-54610000D03*
%TO.P,J3,3*%
%TO.N,Net-(J3-Pad3)*%
X63500000Y-57150000D03*
%TO.P,J3,4*%
%TO.N,Net-(J3-Pad4)*%
X63500000Y-59690000D03*
%TO.P,J3,5*%
%TO.N,Net-(J3-Pad5)*%
X63500000Y-62230000D03*
%TO.P,J3,6*%
%TO.N,GND*%
X63500000Y-64770000D03*
%TD*%
D12*
%TO.P,C1,1*%
%TO.N,Net-(C1-Pad1)*%
X123000000Y-59500000D03*
%TO.P,C1,2*%
%TO.N,GND*%
X123000000Y-64500000D03*
%TD*%
D17*
%TO.P,D15,2*%
%TO.N,Net-(D15-Pad2)*%
X165100000Y-53975000D03*
D18*
%TO.P,D15,1*%
%TO.N,Net-(D15-Pad1)*%
X167640000Y-53975000D03*
%TD*%
%TO.P,D16,1*%
%TO.N,Net-(D16-Pad1)*%
X167640000Y-59690000D03*
D17*
%TO.P,D16,2*%
%TO.N,Net-(D16-Pad2)*%
X165100000Y-59690000D03*
%TD*%
D19*
%TO.P,C3,1*%
%TO.N,Net-(C3-Pad1)*%
X83820000Y-66080000D03*
D12*
%TO.P,C3,2*%
%TO.N,GND*%
X83820000Y-68580000D03*
%TD*%
%TO.P,C4,2*%
%TO.N,GND*%
X90805000Y-68660000D03*
%TO.P,C4,1*%
%TO.N,+5V*%
X90805000Y-73660000D03*
%TD*%
%TO.P,C5,1*%
%TO.N,+5V*%
X127000000Y-69596000D03*
%TO.P,C5,2*%
%TO.N,GND*%
X127000000Y-64596000D03*
%TD*%
%TO.P,R1,1*%
%TO.N,Net-(R1-Pad1)*%
X157670000Y-100250000D03*
D20*
%TO.P,R1,2*%
%TO.N,Net-(J1-Pad3)*%
X165290000Y-100250000D03*
%TD*%
%TO.P,R2,2*%
%TO.N,Net-(J1-Pad2)*%
X165290000Y-96500000D03*
D12*
%TO.P,R2,1*%
%TO.N,Net-(R2-Pad1)*%
X157670000Y-96500000D03*
%TD*%
%TO.P,R3,1*%
%TO.N,+5V*%
X87500000Y-73660000D03*
D20*
%TO.P,R3,2*%
%TO.N,Net-(J3-Pad2)*%
X79880000Y-73660000D03*
%TD*%
%TO.P,R4,2*%
%TO.N,Net-(D15-Pad2)*%
X160020000Y-53975000D03*
D12*
%TO.P,R4,1*%
%TO.N,+5V*%
X152400000Y-53975000D03*
%TD*%
%TO.P,R5,1*%
%TO.N,+5V*%
X152400000Y-59690000D03*
D20*
%TO.P,R5,2*%
%TO.N,Net-(D16-Pad2)*%
X160020000Y-59690000D03*
%TD*%
D21*
%TO.N,+5V*%
X111550000Y-69200000D03*
X118000000Y-69325000D03*
%TO.N,Net-(D1-Pad4)*%
X53682000Y-49250000D03*
%TO.N,Net-(D15-Pad1)*%
X110490000Y-68350000D03*
%TO.N,Net-(J2-Pad2)*%
X117250000Y-66250000D03*
%TO.N,Net-(J2-Pad3)*%
X116250000Y-66250000D03*
%TO.N,Net-(R1-Pad1)*%
X105000000Y-72500000D03*
X108250000Y-80500000D03*
%TO.N,Net-(R2-Pad1)*%
X108250000Y-79350000D03*
X106500000Y-72500000D03*
%TD*%
D22*
%TO.N,GND*%
X60870000Y-34620000D02*
X61290000Y-34620000D01*
D23*
X60870000Y-34620000D02*
X62560000Y-34620000D01*
X62560000Y-34620000D02*
X64770000Y-36830000D01*
X69850000Y-35800000D02*
X71030000Y-34620000D01*
X69850000Y-36830000D02*
X69850000Y-35800000D01*
X69850000Y-36830000D02*
X80010000Y-36830000D01*
X80010000Y-35800000D02*
X81190000Y-34620000D01*
X80010000Y-36830000D02*
X80010000Y-35800000D01*
X90170000Y-35800000D02*
X91350000Y-34620000D01*
X80010000Y-36830000D02*
X90170000Y-36830000D01*
X90170000Y-36830000D02*
X90170000Y-35800000D01*
X90170000Y-36830000D02*
X100330000Y-36830000D01*
X100330000Y-35740000D02*
X101450000Y-34620000D01*
X100330000Y-36830000D02*
X100330000Y-35740000D01*
X110490000Y-35800000D02*
X111670000Y-34620000D01*
X110490000Y-36830000D02*
X110490000Y-35800000D01*
X119620000Y-36830000D02*
X121830000Y-34620000D01*
X110490000Y-36830000D02*
X119620000Y-36830000D01*
X129780000Y-36830000D02*
X131990000Y-34620000D01*
X119620000Y-36830000D02*
X129780000Y-36830000D01*
X139940000Y-36830000D02*
X142150000Y-34620000D01*
X129780000Y-36830000D02*
X139940000Y-36830000D01*
X150100000Y-36830000D02*
X152310000Y-34620000D01*
X160260000Y-36830000D02*
X162470000Y-34620000D01*
X150100000Y-36830000D02*
X160260000Y-36830000D01*
X170420000Y-36830000D02*
X172630000Y-34620000D01*
X160260000Y-36830000D02*
X170420000Y-36830000D01*
X63000000Y-73660000D02*
X63000000Y-68572000D01*
X63500000Y-68072000D02*
X63500000Y-64770000D01*
X63000000Y-68572000D02*
X63500000Y-68072000D01*
X64770000Y-36830000D02*
X67310000Y-36830000D01*
X67310000Y-36830000D02*
X69850000Y-36830000D01*
X139940000Y-36830000D02*
X145670000Y-36830000D01*
X145670000Y-36830000D02*
X150100000Y-36830000D01*
X102750000Y-36950000D02*
X102870000Y-36830000D01*
X102750000Y-51000000D02*
X102750000Y-36950000D01*
X100330000Y-36830000D02*
X102870000Y-36830000D01*
X102870000Y-36830000D02*
X110490000Y-36830000D01*
X123000000Y-64500000D02*
X123000000Y-63310000D01*
X123000000Y-63310000D02*
X116840000Y-57150000D01*
X116840000Y-57150000D02*
X110490000Y-57150000D01*
X104340000Y-51000000D02*
X102750000Y-51000000D01*
X110490000Y-57150000D02*
X104340000Y-51000000D01*
%TO.N,+5V*%
X55970000Y-31420000D02*
X55970000Y-30390000D01*
X55970000Y-30390000D02*
X57150000Y-29210000D01*
X57150000Y-29210000D02*
X64770000Y-29210000D01*
X66130000Y-30570000D02*
X66130000Y-31420000D01*
X64770000Y-29210000D02*
X66130000Y-30570000D01*
X76290000Y-30570000D02*
X76290000Y-31420000D01*
X64770000Y-29210000D02*
X74930000Y-29210000D01*
X74930000Y-29210000D02*
X76290000Y-30570000D01*
X86450000Y-30570000D02*
X86450000Y-31420000D01*
X74930000Y-29210000D02*
X85090000Y-29210000D01*
X85090000Y-29210000D02*
X86450000Y-30570000D01*
X96550000Y-30510000D02*
X96550000Y-31420000D01*
X85090000Y-29210000D02*
X95250000Y-29210000D01*
X95250000Y-29210000D02*
X96550000Y-30510000D01*
X95250000Y-29210000D02*
X105410000Y-29210000D01*
X106770000Y-30570000D02*
X106770000Y-31420000D01*
X105410000Y-29210000D02*
X106770000Y-30570000D01*
X105410000Y-29210000D02*
X115570000Y-29210000D01*
X116930000Y-30570000D02*
X116930000Y-31420000D01*
X115570000Y-29210000D02*
X116930000Y-30570000D01*
X115570000Y-29210000D02*
X126238000Y-29210000D01*
X127090000Y-30062000D02*
X127090000Y-31420000D01*
X126238000Y-29210000D02*
X127090000Y-30062000D01*
X126238000Y-29210000D02*
X135890000Y-29210000D01*
X137250000Y-30570000D02*
X137250000Y-31420000D01*
X135890000Y-29210000D02*
X137250000Y-30570000D01*
X135890000Y-29210000D02*
X146050000Y-29210000D01*
X147410000Y-30570000D02*
X147410000Y-31420000D01*
X146050000Y-29210000D02*
X147410000Y-30570000D01*
X146050000Y-29210000D02*
X156210000Y-29210000D01*
X157570000Y-30570000D02*
X157570000Y-31420000D01*
X156210000Y-29210000D02*
X157570000Y-30570000D01*
X156210000Y-29210000D02*
X166370000Y-29210000D01*
X167730000Y-30570000D02*
X167730000Y-31420000D01*
X166370000Y-29210000D02*
X167730000Y-30570000D01*
X55118000Y-52070000D02*
X63500000Y-52070000D01*
X52832000Y-49784000D02*
X55118000Y-52070000D01*
X55970000Y-31420000D02*
X54432000Y-31420000D01*
X52832000Y-33020000D02*
X52832000Y-49784000D01*
X54432000Y-31420000D02*
X52832000Y-33020000D01*
X117875000Y-69200000D02*
X118000000Y-69325000D01*
X111550000Y-69200000D02*
X117875000Y-69200000D01*
X152400000Y-59690000D02*
X152400000Y-53975000D01*
X152400000Y-43815000D02*
X152400000Y-53975000D01*
X158684990Y-37530010D02*
X152400000Y-43815000D01*
X173355000Y-29210000D02*
X174625000Y-30480000D01*
X166370000Y-29210000D02*
X173355000Y-29210000D01*
X174625000Y-36830000D02*
X173924990Y-37530010D01*
X174625000Y-30480000D02*
X174625000Y-36830000D01*
X173924990Y-37530010D02*
X158684990Y-37530010D01*
%TO.N,Net-(D1-Pad2)*%
X55970000Y-34620000D02*
X56820000Y-34620000D01*
D22*
X70630010Y-32569990D02*
X68901599Y-32569991D01*
X71030000Y-31420000D02*
X71030000Y-32170000D01*
X71030000Y-32170000D02*
X70630010Y-32569990D01*
X68901599Y-32569991D02*
X68221590Y-33250000D01*
X68221590Y-33250000D02*
X60250000Y-33250000D01*
X58880000Y-34620000D02*
X55970000Y-34620000D01*
X60250000Y-33250000D02*
X58880000Y-34620000D01*
D23*
%TO.N,Net-(D1-Pad4)*%
X60870000Y-31420000D02*
X59580000Y-31420000D01*
X59580000Y-31420000D02*
X58000000Y-33000000D01*
X58000000Y-33000000D02*
X54750000Y-33000000D01*
X54750000Y-33000000D02*
X53682000Y-34068000D01*
X53682000Y-34068000D02*
X53682000Y-49250000D01*
D22*
%TO.N,Net-(D17-Pad2)*%
X127090000Y-34620000D02*
X128448000Y-34620000D01*
X128448000Y-34620000D02*
X129540000Y-33528000D01*
X129540000Y-33528000D02*
X133096000Y-33528000D01*
X133096000Y-33528000D02*
X134112000Y-32512000D01*
X141058000Y-32512000D02*
X142150000Y-31420000D01*
X134112000Y-32512000D02*
X141058000Y-32512000D01*
%TO.N,Net-(D2-Pad2)*%
X137250000Y-34620000D02*
X139624000Y-34620000D01*
X139624000Y-34620000D02*
X140716000Y-33528000D01*
X140716000Y-33528000D02*
X142240000Y-33528000D01*
X142240000Y-33528000D02*
X143256000Y-32512000D01*
X151218000Y-32512000D02*
X152310000Y-31420000D01*
X143256000Y-32512000D02*
X151218000Y-32512000D01*
%TO.N,Net-(D3-Pad2)*%
X66130000Y-34620000D02*
X67488000Y-34620000D01*
X67488000Y-34620000D02*
X69088000Y-33020000D01*
X79590000Y-33020000D02*
X81190000Y-31420000D01*
X69088000Y-33020000D02*
X79590000Y-33020000D01*
%TO.N,Net-(D4-Pad2)*%
X147410000Y-34620000D02*
X148768000Y-34620000D01*
X148768000Y-34620000D02*
X149860000Y-33528000D01*
X157297002Y-33528000D02*
X158313002Y-32512000D01*
X149860000Y-33528000D02*
X157297002Y-33528000D01*
X161378000Y-32512000D02*
X162470000Y-31420000D01*
X158313002Y-32512000D02*
X161378000Y-32512000D01*
%TO.N,Net-(D5-Pad2)*%
X89750000Y-33020000D02*
X91350000Y-31420000D01*
X76290000Y-34620000D02*
X78626410Y-34620000D01*
X80226410Y-33020000D02*
X89750000Y-33020000D01*
X78626410Y-34620000D02*
X80226410Y-33020000D01*
%TO.N,Net-(D6-Pad2)*%
X157570000Y-34620000D02*
X158928000Y-34620000D01*
X158928000Y-34620000D02*
X160020000Y-33528000D01*
X160020000Y-33528000D02*
X162560000Y-33528000D01*
X162560000Y-33528000D02*
X163576000Y-32512000D01*
X171538000Y-32512000D02*
X172630000Y-31420000D01*
X163576000Y-32512000D02*
X171538000Y-32512000D01*
%TO.N,Net-(D7-Pad2)*%
X100358000Y-32512000D02*
X101450000Y-31420000D01*
X91440000Y-32512000D02*
X100358000Y-32512000D01*
X86450000Y-34620000D02*
X89332000Y-34620000D01*
X89332000Y-34620000D02*
X91440000Y-32512000D01*
%TO.N,Net-(D11-Pad4)*%
X96550000Y-34620000D02*
X97968000Y-34620000D01*
X97968000Y-34620000D02*
X99060000Y-33528000D01*
X99060000Y-33528000D02*
X103124000Y-33528000D01*
X103124000Y-33528000D02*
X104140000Y-32512000D01*
X110578000Y-32512000D02*
X111670000Y-31420000D01*
X104140000Y-32512000D02*
X110578000Y-32512000D01*
%TO.N,Net-(D11-Pad2)*%
X106770000Y-34620000D02*
X108128000Y-34620000D01*
X108128000Y-34620000D02*
X109220000Y-33528000D01*
X109220000Y-33528000D02*
X112776000Y-33528000D01*
X112776000Y-33528000D02*
X113792000Y-32512000D01*
X120738000Y-32512000D02*
X121830000Y-31420000D01*
X113792000Y-32512000D02*
X120738000Y-32512000D01*
%TO.N,Net-(D13-Pad2)*%
X116930000Y-34620000D02*
X119812000Y-34620000D01*
X119812000Y-34620000D02*
X121412000Y-33020000D01*
X121412000Y-33020000D02*
X128524000Y-33020000D01*
X130124000Y-31420000D02*
X131990000Y-31420000D01*
X128524000Y-33020000D02*
X130124000Y-31420000D01*
D23*
%TO.N,Net-(D15-Pad1)*%
X167640000Y-53975000D02*
X169545000Y-53975000D01*
X169545000Y-53975000D02*
X170180000Y-54610000D01*
X170180000Y-54610000D02*
X170180000Y-61595000D01*
X169545000Y-62230000D02*
X125730000Y-62230000D01*
X170180000Y-61595000D02*
X169545000Y-62230000D01*
X125730000Y-62230000D02*
X125095000Y-62865000D01*
X121000002Y-68350000D02*
X110490000Y-68350000D01*
X125095000Y-62865000D02*
X125095000Y-64255002D01*
X125095000Y-64255002D02*
X121000002Y-68350000D01*
%TO.N,Net-(D15-Pad2)*%
X160020000Y-53975000D02*
X165100000Y-53975000D01*
%TO.N,Net-(D16-Pad2)*%
X165100000Y-59690000D02*
X160020000Y-59690000D01*
%TO.N,Net-(J2-Pad2)*%
X63000000Y-76200000D02*
X61300000Y-76200000D01*
X61300000Y-76200000D02*
X60500000Y-77000000D01*
X60500000Y-77000000D02*
X60500000Y-82000000D01*
X60500000Y-82000000D02*
X61500000Y-83000000D01*
X61500000Y-83000000D02*
X64250000Y-83000000D01*
X64250000Y-83000000D02*
X67500000Y-79750000D01*
X67500000Y-79750000D02*
X95500000Y-79750000D01*
X116658001Y-67100001D02*
X117250000Y-66508002D01*
X117250000Y-66508002D02*
X117250000Y-66250000D01*
X95500000Y-79750000D02*
X108149999Y-67100001D01*
X108149999Y-67100001D02*
X116658001Y-67100001D01*
%TO.N,Net-(J2-Pad3)*%
X63000000Y-78740000D02*
X95260000Y-78740000D01*
X95260000Y-78740000D02*
X107750000Y-66250000D01*
X107750000Y-66250000D02*
X116250000Y-66250000D01*
%TO.N,Net-(R1-Pad1)*%
X108141998Y-80500000D02*
X108250000Y-80500000D01*
X105000000Y-72500000D02*
X105000000Y-77358002D01*
X105000000Y-77358002D02*
X108141998Y-80500000D01*
%TO.N,Net-(R2-Pad1)*%
X108250000Y-79350000D02*
X106500000Y-77600000D01*
X106500000Y-77600000D02*
X106500000Y-72500000D01*
%TD*%
D24*
%TO.N,GND*%
G36*
X175870001Y-112369841D02*
G01*
X52660000Y-112340160D01*
X52660000Y-109576521D01*
X55180979Y-109576521D01*
X55180979Y-110023479D01*
X55268176Y-110461849D01*
X55439220Y-110874785D01*
X55687536Y-111246417D01*
X56003583Y-111562464D01*
X56375215Y-111810780D01*
X56788151Y-111981824D01*
X57226521Y-112069021D01*
X57673479Y-112069021D01*
X58111849Y-111981824D01*
X58524785Y-111810780D01*
X58896417Y-111562464D01*
X59212464Y-111246417D01*
X59460780Y-110874785D01*
X59631824Y-110461849D01*
X59719021Y-110023479D01*
X59719021Y-109576521D01*
X59631824Y-109138151D01*
X59460780Y-108725215D01*
X59212464Y-108353583D01*
X58896417Y-108037536D01*
X58524785Y-107789220D01*
X58111849Y-107618176D01*
X57673479Y-107530979D01*
X57226521Y-107530979D01*
X56788151Y-107618176D01*
X56375215Y-107789220D01*
X56003583Y-108037536D01*
X55687536Y-108353583D01*
X55439220Y-108725215D01*
X55268176Y-109138151D01*
X55180979Y-109576521D01*
X52660000Y-109576521D01*
X52660000Y-104445000D01*
X131440000Y-104445000D01*
X131440000Y-110515000D01*
X167010000Y-110515000D01*
X167010000Y-109576521D01*
X168780979Y-109576521D01*
X168780979Y-110023479D01*
X168868176Y-110461849D01*
X169039220Y-110874785D01*
X169287536Y-111246417D01*
X169603583Y-111562464D01*
X169975215Y-111810780D01*
X170388151Y-111981824D01*
X170826521Y-112069021D01*
X171273479Y-112069021D01*
X171711849Y-111981824D01*
X172124785Y-111810780D01*
X172496417Y-111562464D01*
X172812464Y-111246417D01*
X173060780Y-110874785D01*
X173231824Y-110461849D01*
X173319021Y-110023479D01*
X173319021Y-109576521D01*
X173231824Y-109138151D01*
X173060780Y-108725215D01*
X172812464Y-108353583D01*
X172496417Y-108037536D01*
X172124785Y-107789220D01*
X171711849Y-107618176D01*
X171273479Y-107530979D01*
X170826521Y-107530979D01*
X170388151Y-107618176D01*
X169975215Y-107789220D01*
X169603583Y-108037536D01*
X169287536Y-108353583D01*
X169039220Y-108725215D01*
X168868176Y-109138151D01*
X168780979Y-109576521D01*
X167010000Y-109576521D01*
X167010000Y-104445000D01*
X131440000Y-104445000D01*
X52660000Y-104445000D01*
X52660000Y-100108665D01*
X156235000Y-100108665D01*
X156235000Y-100391335D01*
X156290147Y-100668574D01*
X156398320Y-100929727D01*
X156555363Y-101164759D01*
X156755241Y-101364637D01*
X156990273Y-101521680D01*
X157251426Y-101629853D01*
X157528665Y-101685000D01*
X157811335Y-101685000D01*
X158088574Y-101629853D01*
X158349727Y-101521680D01*
X158584759Y-101364637D01*
X158784637Y-101164759D01*
X158941680Y-100929727D01*
X159049853Y-100668574D01*
X159105000Y-100391335D01*
X159105000Y-100108665D01*
X163855000Y-100108665D01*
X163855000Y-100391335D01*
X163910147Y-100668574D01*
X164018320Y-100929727D01*
X164175363Y-101164759D01*
X164375241Y-101364637D01*
X164610273Y-101521680D01*
X164871426Y-101629853D01*
X165148665Y-101685000D01*
X165431335Y-101685000D01*
X165708574Y-101629853D01*
X165969727Y-101521680D01*
X166204759Y-101364637D01*
X166404637Y-101164759D01*
X166561680Y-100929727D01*
X166669853Y-100668574D01*
X166725000Y-100391335D01*
X166725000Y-100108665D01*
X166669853Y-99831426D01*
X166561680Y-99570273D01*
X166404637Y-99335241D01*
X166204759Y-99135363D01*
X165969727Y-98978320D01*
X165708574Y-98870147D01*
X165431335Y-98815000D01*
X165148665Y-98815000D01*
X164871426Y-98870147D01*
X164610273Y-98978320D01*
X164375241Y-99135363D01*
X164175363Y-99335241D01*
X164018320Y-99570273D01*
X163910147Y-99831426D01*
X163855000Y-100108665D01*
X159105000Y-100108665D01*
X159049853Y-99831426D01*
X158941680Y-99570273D01*
X158784637Y-99335241D01*
X158584759Y-99135363D01*
X158349727Y-98978320D01*
X158088574Y-98870147D01*
X157811335Y-98815000D01*
X157528665Y-98815000D01*
X157251426Y-98870147D01*
X156990273Y-98978320D01*
X156755241Y-99135363D01*
X156555363Y-99335241D01*
X156398320Y-99570273D01*
X156290147Y-99831426D01*
X156235000Y-100108665D01*
X52660000Y-100108665D01*
X52660000Y-96358665D01*
X156235000Y-96358665D01*
X156235000Y-96641335D01*
X156290147Y-96918574D01*
X156398320Y-97179727D01*
X156555363Y-97414759D01*
X156755241Y-97614637D01*
X156990273Y-97771680D01*
X157251426Y-97879853D01*
X157528665Y-97935000D01*
X157811335Y-97935000D01*
X158088574Y-97879853D01*
X158349727Y-97771680D01*
X158584759Y-97614637D01*
X158784637Y-97414759D01*
X158941680Y-97179727D01*
X159049853Y-96918574D01*
X159105000Y-96641335D01*
X159105000Y-96358665D01*
X163855000Y-96358665D01*
X163855000Y-96641335D01*
X163910147Y-96918574D01*
X164018320Y-97179727D01*
X164175363Y-97414759D01*
X164375241Y-97614637D01*
X164610273Y-97771680D01*
X164871426Y-97879853D01*
X165148665Y-97935000D01*
X165431335Y-97935000D01*
X165708574Y-97879853D01*
X165969727Y-97771680D01*
X166204759Y-97614637D01*
X166404637Y-97414759D01*
X166561680Y-97179727D01*
X166669853Y-96918574D01*
X166725000Y-96641335D01*
X166725000Y-96358665D01*
X166669853Y-96081426D01*
X166561680Y-95820273D01*
X166404637Y-95585241D01*
X166204759Y-95385363D01*
X165969727Y-95228320D01*
X165708574Y-95120147D01*
X165431335Y-95065000D01*
X165148665Y-95065000D01*
X164871426Y-95120147D01*
X164610273Y-95228320D01*
X164375241Y-95385363D01*
X164175363Y-95585241D01*
X164018320Y-95820273D01*
X163910147Y-96081426D01*
X163855000Y-96358665D01*
X159105000Y-96358665D01*
X159049853Y-96081426D01*
X158941680Y-95820273D01*
X158784637Y-95585241D01*
X158584759Y-95385363D01*
X158349727Y-95228320D01*
X158088574Y-95120147D01*
X157811335Y-95065000D01*
X157528665Y-95065000D01*
X157251426Y-95120147D01*
X156990273Y-95228320D01*
X156755241Y-95385363D01*
X156555363Y-95585241D01*
X156398320Y-95820273D01*
X156290147Y-96081426D01*
X156235000Y-96358665D01*
X52660000Y-96358665D01*
X52660000Y-77000000D01*
X59610719Y-77000000D01*
X59615000Y-77043469D01*
X59615001Y-81956521D01*
X59610719Y-82000000D01*
X59627805Y-82173490D01*
X59678412Y-82340313D01*
X59760590Y-82494059D01*
X59843468Y-82595046D01*
X59843471Y-82595049D01*
X59871184Y-82628817D01*
X59904951Y-82656529D01*
X60843470Y-83595049D01*
X60871183Y-83628817D01*
X60904951Y-83656530D01*
X60904953Y-83656532D01*
X61005941Y-83739411D01*
X61159686Y-83821589D01*
X61326510Y-83872195D01*
X61456523Y-83885000D01*
X61456531Y-83885000D01*
X61500000Y-83889281D01*
X61543469Y-83885000D01*
X64206531Y-83885000D01*
X64250000Y-83889281D01*
X64293469Y-83885000D01*
X64293477Y-83885000D01*
X64423490Y-83872195D01*
X64590313Y-83821589D01*
X64744059Y-83739411D01*
X64878817Y-83628817D01*
X64906534Y-83595044D01*
X65558181Y-82943397D01*
X161076208Y-82943397D01*
X161153843Y-83192472D01*
X161417883Y-83318371D01*
X161701411Y-83390339D01*
X161993531Y-83405611D01*
X162283019Y-83363599D01*
X162558747Y-83265919D01*
X162696157Y-83192472D01*
X162773792Y-82943397D01*
X161925000Y-82094605D01*
X161076208Y-82943397D01*
X65558181Y-82943397D01*
X66518047Y-81983531D01*
X160434389Y-81983531D01*
X160476401Y-82273019D01*
X160574081Y-82548747D01*
X160647528Y-82686157D01*
X160896603Y-82763792D01*
X161745395Y-81915000D01*
X162104605Y-81915000D01*
X162953397Y-82763792D01*
X163202472Y-82686157D01*
X163328371Y-82422117D01*
X163400339Y-82138589D01*
X163415611Y-81846469D01*
X163404331Y-81768740D01*
X166940000Y-81768740D01*
X166940000Y-82061260D01*
X166997068Y-82348158D01*
X167109010Y-82618411D01*
X167271525Y-82861632D01*
X167478368Y-83068475D01*
X167721589Y-83230990D01*
X167991842Y-83342932D01*
X168278740Y-83400000D01*
X168571260Y-83400000D01*
X168858158Y-83342932D01*
X169128411Y-83230990D01*
X169371632Y-83068475D01*
X169578475Y-82861632D01*
X169740990Y-82618411D01*
X169852932Y-82348158D01*
X169910000Y-82061260D01*
X169910000Y-81768740D01*
X169852932Y-81481842D01*
X169740990Y-81211589D01*
X169578475Y-80968368D01*
X169371632Y-80761525D01*
X169128411Y-80599010D01*
X168858158Y-80487068D01*
X168571260Y-80430000D01*
X168278740Y-80430000D01*
X167991842Y-80487068D01*
X167721589Y-80599010D01*
X167478368Y-80761525D01*
X167271525Y-80968368D01*
X167109010Y-81211589D01*
X166997068Y-81481842D01*
X166940000Y-81768740D01*
X163404331Y-81768740D01*
X163373599Y-81556981D01*
X163275919Y-81281253D01*
X163202472Y-81143843D01*
X162953397Y-81066208D01*
X162104605Y-81915000D01*
X161745395Y-81915000D01*
X160896603Y-81066208D01*
X160647528Y-81143843D01*
X160521629Y-81407883D01*
X160449661Y-81691411D01*
X160434389Y-81983531D01*
X66518047Y-81983531D01*
X67866579Y-80635000D01*
X95456531Y-80635000D01*
X95500000Y-80639281D01*
X95543469Y-80635000D01*
X95543477Y-80635000D01*
X95673490Y-80622195D01*
X95840313Y-80571589D01*
X95994059Y-80489411D01*
X96128817Y-80378817D01*
X96156534Y-80345044D01*
X103965000Y-72536579D01*
X103965000Y-72601939D01*
X104004774Y-72801898D01*
X104082795Y-72990256D01*
X104115000Y-73038454D01*
X104115001Y-77314523D01*
X104110719Y-77358002D01*
X104127805Y-77531492D01*
X104178412Y-77698315D01*
X104260590Y-77852061D01*
X104343468Y-77953048D01*
X104343471Y-77953051D01*
X104371184Y-77986819D01*
X104404951Y-78014531D01*
X107298938Y-80908519D01*
X107332795Y-80990256D01*
X107446063Y-81159774D01*
X107590226Y-81303937D01*
X107759744Y-81417205D01*
X107948102Y-81495226D01*
X108148061Y-81535000D01*
X108351939Y-81535000D01*
X108551898Y-81495226D01*
X108740256Y-81417205D01*
X108909774Y-81303937D01*
X109053937Y-81159774D01*
X109167205Y-80990256D01*
X109210139Y-80886603D01*
X161076208Y-80886603D01*
X161925000Y-81735395D01*
X162773792Y-80886603D01*
X162696157Y-80637528D01*
X162432117Y-80511629D01*
X162148589Y-80439661D01*
X161856469Y-80424389D01*
X161566981Y-80466401D01*
X161291253Y-80564081D01*
X161153843Y-80637528D01*
X161076208Y-80886603D01*
X109210139Y-80886603D01*
X109245226Y-80801898D01*
X109285000Y-80601939D01*
X109285000Y-80398061D01*
X109245226Y-80198102D01*
X109167205Y-80009744D01*
X109110581Y-79925000D01*
X109167205Y-79840256D01*
X109245226Y-79651898D01*
X109285000Y-79451939D01*
X109285000Y-79248061D01*
X109245226Y-79048102D01*
X109167205Y-78859744D01*
X109053937Y-78690226D01*
X108909774Y-78546063D01*
X108740256Y-78432795D01*
X108551898Y-78354774D01*
X108495044Y-78343465D01*
X107420319Y-77268740D01*
X160440000Y-77268740D01*
X160440000Y-77561260D01*
X160497068Y-77848158D01*
X160609010Y-78118411D01*
X160771525Y-78361632D01*
X160978368Y-78568475D01*
X161221589Y-78730990D01*
X161491842Y-78842932D01*
X161778740Y-78900000D01*
X162071260Y-78900000D01*
X162358158Y-78842932D01*
X162628411Y-78730990D01*
X162871632Y-78568475D01*
X163078475Y-78361632D01*
X163240990Y-78118411D01*
X163352932Y-77848158D01*
X163410000Y-77561260D01*
X163410000Y-77268740D01*
X166940000Y-77268740D01*
X166940000Y-77561260D01*
X166997068Y-77848158D01*
X167109010Y-78118411D01*
X167271525Y-78361632D01*
X167478368Y-78568475D01*
X167721589Y-78730990D01*
X167991842Y-78842932D01*
X168278740Y-78900000D01*
X168571260Y-78900000D01*
X168858158Y-78842932D01*
X169128411Y-78730990D01*
X169371632Y-78568475D01*
X169578475Y-78361632D01*
X169740990Y-78118411D01*
X169852932Y-77848158D01*
X169910000Y-77561260D01*
X169910000Y-77268740D01*
X169852932Y-76981842D01*
X169740990Y-76711589D01*
X169578475Y-76468368D01*
X169371632Y-76261525D01*
X169128411Y-76099010D01*
X168858158Y-75987068D01*
X168571260Y-75930000D01*
X168278740Y-75930000D01*
X167991842Y-75987068D01*
X167721589Y-76099010D01*
X167478368Y-76261525D01*
X167271525Y-76468368D01*
X167109010Y-76711589D01*
X166997068Y-76981842D01*
X166940000Y-77268740D01*
X163410000Y-77268740D01*
X163352932Y-76981842D01*
X163240990Y-76711589D01*
X163078475Y-76468368D01*
X162871632Y-76261525D01*
X162628411Y-76099010D01*
X162358158Y-75987068D01*
X162071260Y-75930000D01*
X161778740Y-75930000D01*
X161491842Y-75987068D01*
X161221589Y-76099010D01*
X160978368Y-76261525D01*
X160771525Y-76468368D01*
X160609010Y-76711589D01*
X160497068Y-76981842D01*
X160440000Y-77268740D01*
X107420319Y-77268740D01*
X107385000Y-77233422D01*
X107385000Y-73038454D01*
X107417205Y-72990256D01*
X107495226Y-72801898D01*
X107535000Y-72601939D01*
X107535000Y-72398061D01*
X107495226Y-72198102D01*
X107417205Y-72009744D01*
X107303937Y-71840226D01*
X107159774Y-71696063D01*
X106990256Y-71582795D01*
X106801898Y-71504774D01*
X106601939Y-71465000D01*
X106398061Y-71465000D01*
X106198102Y-71504774D01*
X106009744Y-71582795D01*
X105840226Y-71696063D01*
X105750000Y-71786289D01*
X105659774Y-71696063D01*
X105490256Y-71582795D01*
X105301898Y-71504774D01*
X105101939Y-71465000D01*
X105036579Y-71465000D01*
X108516578Y-67985001D01*
X109520911Y-67985001D01*
X109494774Y-68048102D01*
X109455000Y-68248061D01*
X109455000Y-68451939D01*
X109494774Y-68651898D01*
X109572795Y-68840256D01*
X109686063Y-69009774D01*
X109830226Y-69153937D01*
X109999744Y-69267205D01*
X110188102Y-69345226D01*
X110388061Y-69385000D01*
X110531522Y-69385000D01*
X110554774Y-69501898D01*
X110632795Y-69690256D01*
X110746063Y-69859774D01*
X110890226Y-70003937D01*
X111059744Y-70117205D01*
X111248102Y-70195226D01*
X111448061Y-70235000D01*
X111651939Y-70235000D01*
X111851898Y-70195226D01*
X112040256Y-70117205D01*
X112088454Y-70085000D01*
X117296289Y-70085000D01*
X117340226Y-70128937D01*
X117509744Y-70242205D01*
X117698102Y-70320226D01*
X117898061Y-70360000D01*
X118101939Y-70360000D01*
X118301898Y-70320226D01*
X118490256Y-70242205D01*
X118659774Y-70128937D01*
X118803937Y-69984774D01*
X118917205Y-69815256D01*
X118995226Y-69626898D01*
X119029484Y-69454665D01*
X125565000Y-69454665D01*
X125565000Y-69737335D01*
X125620147Y-70014574D01*
X125728320Y-70275727D01*
X125885363Y-70510759D01*
X126085241Y-70710637D01*
X126320273Y-70867680D01*
X126581426Y-70975853D01*
X126858665Y-71031000D01*
X127141335Y-71031000D01*
X127418574Y-70975853D01*
X127679727Y-70867680D01*
X127914759Y-70710637D01*
X128114637Y-70510759D01*
X128271680Y-70275727D01*
X128379853Y-70014574D01*
X128435000Y-69737335D01*
X128435000Y-69454665D01*
X128379853Y-69177426D01*
X128271680Y-68916273D01*
X128114637Y-68681241D01*
X127914759Y-68481363D01*
X127679727Y-68324320D01*
X127418574Y-68216147D01*
X127141335Y-68161000D01*
X126858665Y-68161000D01*
X126581426Y-68216147D01*
X126320273Y-68324320D01*
X126085241Y-68481363D01*
X125885363Y-68681241D01*
X125728320Y-68916273D01*
X125620147Y-69177426D01*
X125565000Y-69454665D01*
X119029484Y-69454665D01*
X119035000Y-69426939D01*
X119035000Y-69235000D01*
X120956533Y-69235000D01*
X121000002Y-69239281D01*
X121043471Y-69235000D01*
X121043479Y-69235000D01*
X121173492Y-69222195D01*
X121340315Y-69171589D01*
X121494061Y-69089411D01*
X121628819Y-68978817D01*
X121656536Y-68945044D01*
X125012878Y-65588702D01*
X126186903Y-65588702D01*
X126258486Y-65832671D01*
X126513996Y-65953571D01*
X126788184Y-66022300D01*
X127070512Y-66036217D01*
X127350130Y-65994787D01*
X127616292Y-65899603D01*
X127741514Y-65832671D01*
X127813097Y-65588702D01*
X127000000Y-64775605D01*
X126186903Y-65588702D01*
X125012878Y-65588702D01*
X125615500Y-64986081D01*
X125696397Y-65212292D01*
X125763329Y-65337514D01*
X126007298Y-65409097D01*
X126820395Y-64596000D01*
X127179605Y-64596000D01*
X127992702Y-65409097D01*
X128236671Y-65337514D01*
X128357571Y-65082004D01*
X128426300Y-64807816D01*
X128440217Y-64525488D01*
X128398787Y-64245870D01*
X128303603Y-63979708D01*
X128236671Y-63854486D01*
X127992702Y-63782903D01*
X127179605Y-64596000D01*
X126820395Y-64596000D01*
X126007298Y-63782903D01*
X125980000Y-63790913D01*
X125980000Y-63603298D01*
X126186903Y-63603298D01*
X127000000Y-64416395D01*
X127813097Y-63603298D01*
X127741514Y-63359329D01*
X127486004Y-63238429D01*
X127211816Y-63169700D01*
X126929488Y-63155783D01*
X126649870Y-63197213D01*
X126383708Y-63292397D01*
X126258486Y-63359329D01*
X126186903Y-63603298D01*
X125980000Y-63603298D01*
X125980000Y-63231578D01*
X126096579Y-63115000D01*
X169501531Y-63115000D01*
X169545000Y-63119281D01*
X169588469Y-63115000D01*
X169588477Y-63115000D01*
X169718490Y-63102195D01*
X169885313Y-63051589D01*
X170039059Y-62969411D01*
X170173817Y-62858817D01*
X170201534Y-62825044D01*
X170775049Y-62251530D01*
X170808817Y-62223817D01*
X170919411Y-62089059D01*
X170943810Y-62043411D01*
X171001589Y-61935314D01*
X171052195Y-61768490D01*
X171055401Y-61735941D01*
X171065000Y-61638477D01*
X171065000Y-61638469D01*
X171069281Y-61595000D01*
X171065000Y-61551531D01*
X171065000Y-54653469D01*
X171069281Y-54610000D01*
X171065000Y-54566531D01*
X171065000Y-54566523D01*
X171052195Y-54436510D01*
X171009632Y-54296201D01*
X171001589Y-54269686D01*
X170919411Y-54115941D01*
X170836532Y-54014953D01*
X170836530Y-54014951D01*
X170808817Y-53981183D01*
X170775050Y-53953471D01*
X170201534Y-53379956D01*
X170173817Y-53346183D01*
X170039059Y-53235589D01*
X169885313Y-53153411D01*
X169718490Y-53102805D01*
X169588477Y-53090000D01*
X169588469Y-53090000D01*
X169545000Y-53085719D01*
X169501531Y-53090000D01*
X169178072Y-53090000D01*
X169178072Y-53075000D01*
X169165812Y-52950518D01*
X169129502Y-52830820D01*
X169070537Y-52720506D01*
X168991185Y-52623815D01*
X168894494Y-52544463D01*
X168784180Y-52485498D01*
X168664482Y-52449188D01*
X168540000Y-52436928D01*
X166740000Y-52436928D01*
X166615518Y-52449188D01*
X166495820Y-52485498D01*
X166385506Y-52544463D01*
X166288815Y-52623815D01*
X166209463Y-52720506D01*
X166150498Y-52830820D01*
X166144944Y-52849127D01*
X166078505Y-52782688D01*
X165827095Y-52614701D01*
X165547743Y-52498989D01*
X165251184Y-52440000D01*
X164948816Y-52440000D01*
X164652257Y-52498989D01*
X164372905Y-52614701D01*
X164121495Y-52782688D01*
X163907688Y-52996495D01*
X163845210Y-53090000D01*
X161154521Y-53090000D01*
X161134637Y-53060241D01*
X160934759Y-52860363D01*
X160699727Y-52703320D01*
X160438574Y-52595147D01*
X160161335Y-52540000D01*
X159878665Y-52540000D01*
X159601426Y-52595147D01*
X159340273Y-52703320D01*
X159105241Y-52860363D01*
X158905363Y-53060241D01*
X158748320Y-53295273D01*
X158640147Y-53556426D01*
X158585000Y-53833665D01*
X158585000Y-54116335D01*
X158640147Y-54393574D01*
X158748320Y-54654727D01*
X158905363Y-54889759D01*
X159105241Y-55089637D01*
X159340273Y-55246680D01*
X159601426Y-55354853D01*
X159878665Y-55410000D01*
X160161335Y-55410000D01*
X160438574Y-55354853D01*
X160699727Y-55246680D01*
X160934759Y-55089637D01*
X161134637Y-54889759D01*
X161154521Y-54860000D01*
X163845210Y-54860000D01*
X163907688Y-54953505D01*
X164121495Y-55167312D01*
X164372905Y-55335299D01*
X164652257Y-55451011D01*
X164948816Y-55510000D01*
X165251184Y-55510000D01*
X165547743Y-55451011D01*
X165827095Y-55335299D01*
X166078505Y-55167312D01*
X166144944Y-55100873D01*
X166150498Y-55119180D01*
X166209463Y-55229494D01*
X166288815Y-55326185D01*
X166385506Y-55405537D01*
X166495820Y-55464502D01*
X166615518Y-55500812D01*
X166740000Y-55513072D01*
X168540000Y-55513072D01*
X168664482Y-55500812D01*
X168784180Y-55464502D01*
X168894494Y-55405537D01*
X168991185Y-55326185D01*
X169070537Y-55229494D01*
X169129502Y-55119180D01*
X169165812Y-54999482D01*
X169178072Y-54875000D01*
X169178072Y-54860000D01*
X169178422Y-54860000D01*
X169295000Y-54976579D01*
X169295001Y-61228420D01*
X169178422Y-61345000D01*
X125773469Y-61345000D01*
X125730000Y-61340719D01*
X125686531Y-61345000D01*
X125686523Y-61345000D01*
X125556510Y-61357805D01*
X125389686Y-61408411D01*
X125235941Y-61490589D01*
X125134953Y-61573468D01*
X125134951Y-61573470D01*
X125101183Y-61601183D01*
X125073470Y-61634951D01*
X124499956Y-62208466D01*
X124466183Y-62236183D01*
X124355589Y-62370942D01*
X124273411Y-62524688D01*
X124222805Y-62691511D01*
X124210000Y-62821524D01*
X124210000Y-62821531D01*
X124205719Y-62865000D01*
X124210000Y-62908470D01*
X124210001Y-63750661D01*
X123992702Y-63686903D01*
X123179605Y-64500000D01*
X123193748Y-64514143D01*
X123014143Y-64693748D01*
X123000000Y-64679605D01*
X122186903Y-65492702D01*
X122258486Y-65736671D01*
X122328584Y-65769839D01*
X120633424Y-67465000D01*
X117544580Y-67465000D01*
X117845045Y-67164535D01*
X117878817Y-67136819D01*
X117989411Y-67002061D01*
X118021288Y-66942423D01*
X118053937Y-66909774D01*
X118167205Y-66740256D01*
X118245226Y-66551898D01*
X118285000Y-66351939D01*
X118285000Y-66148061D01*
X118245226Y-65948102D01*
X118167205Y-65759744D01*
X118053937Y-65590226D01*
X117909774Y-65446063D01*
X117740256Y-65332795D01*
X117551898Y-65254774D01*
X117351939Y-65215000D01*
X117148061Y-65215000D01*
X116948102Y-65254774D01*
X116759744Y-65332795D01*
X116750000Y-65339306D01*
X116740256Y-65332795D01*
X116551898Y-65254774D01*
X116351939Y-65215000D01*
X116148061Y-65215000D01*
X115948102Y-65254774D01*
X115759744Y-65332795D01*
X115711546Y-65365000D01*
X107793465Y-65365000D01*
X107749999Y-65360719D01*
X107706533Y-65365000D01*
X107706523Y-65365000D01*
X107576510Y-65377805D01*
X107409687Y-65428411D01*
X107255941Y-65510589D01*
X107255939Y-65510590D01*
X107255940Y-65510590D01*
X107154953Y-65593468D01*
X107154951Y-65593470D01*
X107121183Y-65621183D01*
X107093470Y-65654951D01*
X94893422Y-77855000D01*
X64375059Y-77855000D01*
X64269987Y-77697748D01*
X64042252Y-77470013D01*
X64042233Y-77470000D01*
X64042252Y-77469987D01*
X64269987Y-77242252D01*
X64448918Y-76974463D01*
X64572168Y-76676912D01*
X64635000Y-76361033D01*
X64635000Y-76038967D01*
X64572168Y-75723088D01*
X64448918Y-75425537D01*
X64308370Y-75215191D01*
X64354494Y-75190537D01*
X64451185Y-75111185D01*
X64530537Y-75014494D01*
X64589502Y-74904180D01*
X64625812Y-74784482D01*
X64638072Y-74660000D01*
X64635000Y-73945750D01*
X64476250Y-73787000D01*
X63127000Y-73787000D01*
X63127000Y-73807000D01*
X62873000Y-73807000D01*
X62873000Y-73787000D01*
X61523750Y-73787000D01*
X61365000Y-73945750D01*
X61361928Y-74660000D01*
X61374188Y-74784482D01*
X61410498Y-74904180D01*
X61469463Y-75014494D01*
X61548815Y-75111185D01*
X61645506Y-75190537D01*
X61691630Y-75215191D01*
X61624941Y-75315000D01*
X61343469Y-75315000D01*
X61300000Y-75310719D01*
X61256531Y-75315000D01*
X61256523Y-75315000D01*
X61126510Y-75327805D01*
X60959687Y-75378411D01*
X60805941Y-75460589D01*
X60704953Y-75543468D01*
X60704951Y-75543470D01*
X60671183Y-75571183D01*
X60643470Y-75604951D01*
X59904956Y-76343466D01*
X59871183Y-76371183D01*
X59760589Y-76505942D01*
X59678411Y-76659688D01*
X59627805Y-76826511D01*
X59615000Y-76956524D01*
X59615000Y-76956531D01*
X59610719Y-77000000D01*
X52660000Y-77000000D01*
X52660000Y-72660000D01*
X61361928Y-72660000D01*
X61365000Y-73374250D01*
X61523750Y-73533000D01*
X62873000Y-73533000D01*
X62873000Y-72183750D01*
X63127000Y-72183750D01*
X63127000Y-73533000D01*
X64476250Y-73533000D01*
X64490585Y-73518665D01*
X78445000Y-73518665D01*
X78445000Y-73801335D01*
X78500147Y-74078574D01*
X78608320Y-74339727D01*
X78765363Y-74574759D01*
X78965241Y-74774637D01*
X79200273Y-74931680D01*
X79461426Y-75039853D01*
X79738665Y-75095000D01*
X80021335Y-75095000D01*
X80298574Y-75039853D01*
X80559727Y-74931680D01*
X80794759Y-74774637D01*
X80994637Y-74574759D01*
X81151680Y-74339727D01*
X81259853Y-74078574D01*
X81315000Y-73801335D01*
X81315000Y-73518665D01*
X86065000Y-73518665D01*
X86065000Y-73801335D01*
X86120147Y-74078574D01*
X86228320Y-74339727D01*
X86385363Y-74574759D01*
X86585241Y-74774637D01*
X86820273Y-74931680D01*
X87081426Y-75039853D01*
X87358665Y-75095000D01*
X87641335Y-75095000D01*
X87918574Y-75039853D01*
X88179727Y-74931680D01*
X88414759Y-74774637D01*
X88614637Y-74574759D01*
X88771680Y-74339727D01*
X88879853Y-74078574D01*
X88935000Y-73801335D01*
X88935000Y-73518665D01*
X89370000Y-73518665D01*
X89370000Y-73801335D01*
X89425147Y-74078574D01*
X89533320Y-74339727D01*
X89690363Y-74574759D01*
X89890241Y-74774637D01*
X90125273Y-74931680D01*
X90386426Y-75039853D01*
X90663665Y-75095000D01*
X90946335Y-75095000D01*
X91223574Y-75039853D01*
X91484727Y-74931680D01*
X91719759Y-74774637D01*
X91919637Y-74574759D01*
X92076680Y-74339727D01*
X92184853Y-74078574D01*
X92240000Y-73801335D01*
X92240000Y-73518665D01*
X92184853Y-73241426D01*
X92076680Y-72980273D01*
X91919637Y-72745241D01*
X91719759Y-72545363D01*
X91484727Y-72388320D01*
X91223574Y-72280147D01*
X90946335Y-72225000D01*
X90663665Y-72225000D01*
X90386426Y-72280147D01*
X90125273Y-72388320D01*
X89890241Y-72545363D01*
X89690363Y-72745241D01*
X89533320Y-72980273D01*
X89425147Y-73241426D01*
X89370000Y-73518665D01*
X88935000Y-73518665D01*
X88879853Y-73241426D01*
X88771680Y-72980273D01*
X88614637Y-72745241D01*
X88414759Y-72545363D01*
X88179727Y-72388320D01*
X87918574Y-72280147D01*
X87641335Y-72225000D01*
X87358665Y-72225000D01*
X87081426Y-72280147D01*
X86820273Y-72388320D01*
X86585241Y-72545363D01*
X86385363Y-72745241D01*
X86228320Y-72980273D01*
X86120147Y-73241426D01*
X86065000Y-73518665D01*
X81315000Y-73518665D01*
X81259853Y-73241426D01*
X81151680Y-72980273D01*
X80994637Y-72745241D01*
X80794759Y-72545363D01*
X80559727Y-72388320D01*
X80298574Y-72280147D01*
X80021335Y-72225000D01*
X79738665Y-72225000D01*
X79461426Y-72280147D01*
X79200273Y-72388320D01*
X78965241Y-72545363D01*
X78765363Y-72745241D01*
X78608320Y-72980273D01*
X78500147Y-73241426D01*
X78445000Y-73518665D01*
X64490585Y-73518665D01*
X64635000Y-73374250D01*
X64638072Y-72660000D01*
X64625812Y-72535518D01*
X64589502Y-72415820D01*
X64530537Y-72305506D01*
X64451185Y-72208815D01*
X64354494Y-72129463D01*
X64244180Y-72070498D01*
X64124482Y-72034188D01*
X64000000Y-72021928D01*
X63285750Y-72025000D01*
X63127000Y-72183750D01*
X62873000Y-72183750D01*
X62714250Y-72025000D01*
X62000000Y-72021928D01*
X61875518Y-72034188D01*
X61755820Y-72070498D01*
X61645506Y-72129463D01*
X61548815Y-72208815D01*
X61469463Y-72305506D01*
X61410498Y-72415820D01*
X61374188Y-72535518D01*
X61361928Y-72660000D01*
X52660000Y-72660000D01*
X52660000Y-69572702D01*
X83006903Y-69572702D01*
X83078486Y-69816671D01*
X83333996Y-69937571D01*
X83608184Y-70006300D01*
X83890512Y-70020217D01*
X84170130Y-69978787D01*
X84436292Y-69883603D01*
X84561514Y-69816671D01*
X84609624Y-69652702D01*
X89991903Y-69652702D01*
X90063486Y-69896671D01*
X90318996Y-70017571D01*
X90593184Y-70086300D01*
X90875512Y-70100217D01*
X91155130Y-70058787D01*
X91421292Y-69963603D01*
X91546514Y-69896671D01*
X91618097Y-69652702D01*
X90805000Y-68839605D01*
X89991903Y-69652702D01*
X84609624Y-69652702D01*
X84633097Y-69572702D01*
X83820000Y-68759605D01*
X83006903Y-69572702D01*
X52660000Y-69572702D01*
X52660000Y-68650512D01*
X82379783Y-68650512D01*
X82421213Y-68930130D01*
X82516397Y-69196292D01*
X82583329Y-69321514D01*
X82827298Y-69393097D01*
X83640395Y-68580000D01*
X83999605Y-68580000D01*
X84812702Y-69393097D01*
X85056671Y-69321514D01*
X85177571Y-69066004D01*
X85246300Y-68791816D01*
X85249321Y-68730512D01*
X89364783Y-68730512D01*
X89406213Y-69010130D01*
X89501397Y-69276292D01*
X89568329Y-69401514D01*
X89812298Y-69473097D01*
X90625395Y-68660000D01*
X90984605Y-68660000D01*
X91797702Y-69473097D01*
X92041671Y-69401514D01*
X92162571Y-69146004D01*
X92231300Y-68871816D01*
X92245217Y-68589488D01*
X92203787Y-68309870D01*
X92108603Y-68043708D01*
X92041671Y-67918486D01*
X91797702Y-67846903D01*
X90984605Y-68660000D01*
X90625395Y-68660000D01*
X89812298Y-67846903D01*
X89568329Y-67918486D01*
X89447429Y-68173996D01*
X89378700Y-68448184D01*
X89364783Y-68730512D01*
X85249321Y-68730512D01*
X85260217Y-68509488D01*
X85218787Y-68229870D01*
X85123603Y-67963708D01*
X85056671Y-67838486D01*
X84812702Y-67766903D01*
X83999605Y-68580000D01*
X83640395Y-68580000D01*
X82827298Y-67766903D01*
X82583329Y-67838486D01*
X82462429Y-68093996D01*
X82393700Y-68368184D01*
X82379783Y-68650512D01*
X52660000Y-68650512D01*
X52660000Y-65150434D01*
X61909876Y-65150434D01*
X61966498Y-65337107D01*
X62106601Y-65625382D01*
X62300252Y-65880785D01*
X62540008Y-66093501D01*
X62816656Y-66255356D01*
X63119565Y-66360129D01*
X63373000Y-66241315D01*
X63373000Y-64897000D01*
X63627000Y-64897000D01*
X63627000Y-66241315D01*
X63880435Y-66360129D01*
X64183344Y-66255356D01*
X64459992Y-66093501D01*
X64699748Y-65880785D01*
X64893399Y-65625382D01*
X65033502Y-65337107D01*
X65050823Y-65280000D01*
X82381928Y-65280000D01*
X82381928Y-66880000D01*
X82394188Y-67004482D01*
X82430498Y-67124180D01*
X82489463Y-67234494D01*
X82568815Y-67331185D01*
X82665506Y-67410537D01*
X82775820Y-67469502D01*
X82895518Y-67505812D01*
X83020000Y-67518072D01*
X83027215Y-67518072D01*
X83006903Y-67587298D01*
X83820000Y-68400395D01*
X84553097Y-67667298D01*
X89991903Y-67667298D01*
X90805000Y-68480395D01*
X91618097Y-67667298D01*
X91546514Y-67423329D01*
X91291004Y-67302429D01*
X91016816Y-67233700D01*
X90734488Y-67219783D01*
X90454870Y-67261213D01*
X90188708Y-67356397D01*
X90063486Y-67423329D01*
X89991903Y-67667298D01*
X84553097Y-67667298D01*
X84633097Y-67587298D01*
X84612785Y-67518072D01*
X84620000Y-67518072D01*
X84744482Y-67505812D01*
X84864180Y-67469502D01*
X84974494Y-67410537D01*
X85071185Y-67331185D01*
X85150537Y-67234494D01*
X85209502Y-67124180D01*
X85245812Y-67004482D01*
X85258072Y-66880000D01*
X85258072Y-65280000D01*
X85245812Y-65155518D01*
X85209502Y-65035820D01*
X85150537Y-64925506D01*
X85071185Y-64828815D01*
X84974494Y-64749463D01*
X84864180Y-64690498D01*
X84744482Y-64654188D01*
X84620000Y-64641928D01*
X83020000Y-64641928D01*
X82895518Y-64654188D01*
X82775820Y-64690498D01*
X82665506Y-64749463D01*
X82568815Y-64828815D01*
X82489463Y-64925506D01*
X82430498Y-65035820D01*
X82394188Y-65155518D01*
X82381928Y-65280000D01*
X65050823Y-65280000D01*
X65090124Y-65150434D01*
X64970777Y-64897000D01*
X63627000Y-64897000D01*
X63373000Y-64897000D01*
X62029223Y-64897000D01*
X61909876Y-65150434D01*
X52660000Y-65150434D01*
X52660000Y-50863578D01*
X54461470Y-52665049D01*
X54489183Y-52698817D01*
X54522951Y-52726530D01*
X54522953Y-52726532D01*
X54591379Y-52782688D01*
X54623941Y-52809411D01*
X54777687Y-52891589D01*
X54944510Y-52942195D01*
X55074523Y-52955000D01*
X55074533Y-52955000D01*
X55117999Y-52959281D01*
X55161465Y-52955000D01*
X61861928Y-52955000D01*
X61861928Y-53070000D01*
X61874188Y-53194482D01*
X61910498Y-53314180D01*
X61969463Y-53424494D01*
X62048815Y-53521185D01*
X62145506Y-53600537D01*
X62191630Y-53625191D01*
X62051082Y-53835537D01*
X61927832Y-54133088D01*
X61865000Y-54448967D01*
X61865000Y-54771033D01*
X61927832Y-55086912D01*
X62051082Y-55384463D01*
X62230013Y-55652252D01*
X62457748Y-55879987D01*
X62457767Y-55880000D01*
X62457748Y-55880013D01*
X62230013Y-56107748D01*
X62051082Y-56375537D01*
X61927832Y-56673088D01*
X61865000Y-56988967D01*
X61865000Y-57311033D01*
X61927832Y-57626912D01*
X62051082Y-57924463D01*
X62230013Y-58192252D01*
X62457748Y-58419987D01*
X62457767Y-58420000D01*
X62457748Y-58420013D01*
X62230013Y-58647748D01*
X62051082Y-58915537D01*
X61927832Y-59213088D01*
X61865000Y-59528967D01*
X61865000Y-59851033D01*
X61927832Y-60166912D01*
X62051082Y-60464463D01*
X62230013Y-60732252D01*
X62457748Y-60959987D01*
X62457767Y-60960000D01*
X62457748Y-60960013D01*
X62230013Y-61187748D01*
X62051082Y-61455537D01*
X61927832Y-61753088D01*
X61865000Y-62068967D01*
X61865000Y-62391033D01*
X61927832Y-62706912D01*
X62051082Y-63004463D01*
X62230013Y-63272252D01*
X62457748Y-63499987D01*
X62470282Y-63508362D01*
X62300252Y-63659215D01*
X62106601Y-63914618D01*
X61966498Y-64202893D01*
X61909876Y-64389566D01*
X62029223Y-64643000D01*
X63373000Y-64643000D01*
X63373000Y-64623000D01*
X63627000Y-64623000D01*
X63627000Y-64643000D01*
X64970777Y-64643000D01*
X65004913Y-64570512D01*
X121559783Y-64570512D01*
X121601213Y-64850130D01*
X121696397Y-65116292D01*
X121763329Y-65241514D01*
X122007298Y-65313097D01*
X122820395Y-64500000D01*
X122007298Y-63686903D01*
X121763329Y-63758486D01*
X121642429Y-64013996D01*
X121573700Y-64288184D01*
X121559783Y-64570512D01*
X65004913Y-64570512D01*
X65090124Y-64389566D01*
X65033502Y-64202893D01*
X64893399Y-63914618D01*
X64699748Y-63659215D01*
X64529718Y-63508362D01*
X64531310Y-63507298D01*
X122186903Y-63507298D01*
X123000000Y-64320395D01*
X123813097Y-63507298D01*
X123741514Y-63263329D01*
X123486004Y-63142429D01*
X123211816Y-63073700D01*
X122929488Y-63059783D01*
X122649870Y-63101213D01*
X122383708Y-63196397D01*
X122258486Y-63263329D01*
X122186903Y-63507298D01*
X64531310Y-63507298D01*
X64542252Y-63499987D01*
X64769987Y-63272252D01*
X64948918Y-63004463D01*
X65072168Y-62706912D01*
X65135000Y-62391033D01*
X65135000Y-62068967D01*
X65072168Y-61753088D01*
X64948918Y-61455537D01*
X64769987Y-61187748D01*
X64542252Y-60960013D01*
X64542233Y-60960000D01*
X64542252Y-60959987D01*
X64769987Y-60732252D01*
X64948918Y-60464463D01*
X65072168Y-60166912D01*
X65135000Y-59851033D01*
X65135000Y-59528967D01*
X65101125Y-59358665D01*
X121565000Y-59358665D01*
X121565000Y-59641335D01*
X121620147Y-59918574D01*
X121728320Y-60179727D01*
X121885363Y-60414759D01*
X122085241Y-60614637D01*
X122320273Y-60771680D01*
X122581426Y-60879853D01*
X122858665Y-60935000D01*
X123141335Y-60935000D01*
X123418574Y-60879853D01*
X123679727Y-60771680D01*
X123914759Y-60614637D01*
X124114637Y-60414759D01*
X124271680Y-60179727D01*
X124379853Y-59918574D01*
X124435000Y-59641335D01*
X124435000Y-59358665D01*
X124379853Y-59081426D01*
X124271680Y-58820273D01*
X124114637Y-58585241D01*
X123914759Y-58385363D01*
X123679727Y-58228320D01*
X123418574Y-58120147D01*
X123141335Y-58065000D01*
X122858665Y-58065000D01*
X122581426Y-58120147D01*
X122320273Y-58228320D01*
X122085241Y-58385363D01*
X121885363Y-58585241D01*
X121728320Y-58820273D01*
X121620147Y-59081426D01*
X121565000Y-59358665D01*
X65101125Y-59358665D01*
X65072168Y-59213088D01*
X64948918Y-58915537D01*
X64769987Y-58647748D01*
X64542252Y-58420013D01*
X64542233Y-58420000D01*
X64542252Y-58419987D01*
X64769987Y-58192252D01*
X64948918Y-57924463D01*
X65072168Y-57626912D01*
X65135000Y-57311033D01*
X65135000Y-56988967D01*
X65072168Y-56673088D01*
X64948918Y-56375537D01*
X64769987Y-56107748D01*
X64542252Y-55880013D01*
X64542233Y-55880000D01*
X64542252Y-55879987D01*
X64563574Y-55858665D01*
X101315000Y-55858665D01*
X101315000Y-56141335D01*
X101370147Y-56418574D01*
X101478320Y-56679727D01*
X101635363Y-56914759D01*
X101835241Y-57114637D01*
X102070273Y-57271680D01*
X102331426Y-57379853D01*
X102608665Y-57435000D01*
X102891335Y-57435000D01*
X103168574Y-57379853D01*
X103429727Y-57271680D01*
X103664759Y-57114637D01*
X103864637Y-56914759D01*
X104021680Y-56679727D01*
X104129853Y-56418574D01*
X104185000Y-56141335D01*
X104185000Y-55858665D01*
X104129853Y-55581426D01*
X104021680Y-55320273D01*
X103965097Y-55235589D01*
X110067000Y-55235589D01*
X110067000Y-55508411D01*
X110120225Y-55775989D01*
X110224629Y-56028043D01*
X110376201Y-56254886D01*
X110569114Y-56447799D01*
X110795957Y-56599371D01*
X111048011Y-56703775D01*
X111315589Y-56757000D01*
X111588411Y-56757000D01*
X111855989Y-56703775D01*
X112108043Y-56599371D01*
X112334886Y-56447799D01*
X112527799Y-56254886D01*
X112679371Y-56028043D01*
X112783775Y-55775989D01*
X112837000Y-55508411D01*
X112837000Y-55235589D01*
X114947000Y-55235589D01*
X114947000Y-55508411D01*
X115000225Y-55775989D01*
X115104629Y-56028043D01*
X115256201Y-56254886D01*
X115449114Y-56447799D01*
X115675957Y-56599371D01*
X115928011Y-56703775D01*
X116195589Y-56757000D01*
X116468411Y-56757000D01*
X116735989Y-56703775D01*
X116988043Y-56599371D01*
X117214886Y-56447799D01*
X117407799Y-56254886D01*
X117559371Y-56028043D01*
X117663775Y-55775989D01*
X117717000Y-55508411D01*
X117717000Y-55235589D01*
X117663775Y-54968011D01*
X117559371Y-54715957D01*
X117407799Y-54489114D01*
X117214886Y-54296201D01*
X116988043Y-54144629D01*
X116735989Y-54040225D01*
X116468411Y-53987000D01*
X116195589Y-53987000D01*
X115928011Y-54040225D01*
X115675957Y-54144629D01*
X115449114Y-54296201D01*
X115256201Y-54489114D01*
X115104629Y-54715957D01*
X115000225Y-54968011D01*
X114947000Y-55235589D01*
X112837000Y-55235589D01*
X112783775Y-54968011D01*
X112679371Y-54715957D01*
X112527799Y-54489114D01*
X112334886Y-54296201D01*
X112108043Y-54144629D01*
X111855989Y-54040225D01*
X111588411Y-53987000D01*
X111315589Y-53987000D01*
X111048011Y-54040225D01*
X110795957Y-54144629D01*
X110569114Y-54296201D01*
X110376201Y-54489114D01*
X110224629Y-54715957D01*
X110120225Y-54968011D01*
X110067000Y-55235589D01*
X103965097Y-55235589D01*
X103864637Y-55085241D01*
X103664759Y-54885363D01*
X103429727Y-54728320D01*
X103168574Y-54620147D01*
X102891335Y-54565000D01*
X102608665Y-54565000D01*
X102331426Y-54620147D01*
X102070273Y-54728320D01*
X101835241Y-54885363D01*
X101635363Y-55085241D01*
X101478320Y-55320273D01*
X101370147Y-55581426D01*
X101315000Y-55858665D01*
X64563574Y-55858665D01*
X64769987Y-55652252D01*
X64948918Y-55384463D01*
X65072168Y-55086912D01*
X65135000Y-54771033D01*
X65135000Y-54448967D01*
X65072168Y-54133088D01*
X64948918Y-53835537D01*
X64808370Y-53625191D01*
X64854494Y-53600537D01*
X64951185Y-53521185D01*
X65030537Y-53424494D01*
X65089502Y-53314180D01*
X65125812Y-53194482D01*
X65138072Y-53070000D01*
X65138072Y-51992702D01*
X101936903Y-51992702D01*
X102008486Y-52236671D01*
X102263996Y-52357571D01*
X102538184Y-52426300D01*
X102820512Y-52440217D01*
X103100130Y-52398787D01*
X103366292Y-52303603D01*
X103491514Y-52236671D01*
X103563097Y-51992702D01*
X102750000Y-51179605D01*
X101936903Y-51992702D01*
X65138072Y-51992702D01*
X65138072Y-51070512D01*
X101309783Y-51070512D01*
X101351213Y-51350130D01*
X101446397Y-51616292D01*
X101513329Y-51741514D01*
X101757298Y-51813097D01*
X102570395Y-51000000D01*
X102929605Y-51000000D01*
X103742702Y-51813097D01*
X103986671Y-51741514D01*
X104107571Y-51486004D01*
X104176300Y-51211816D01*
X104190217Y-50929488D01*
X104148787Y-50649870D01*
X104053603Y-50383708D01*
X103986671Y-50258486D01*
X103742702Y-50186903D01*
X102929605Y-51000000D01*
X102570395Y-51000000D01*
X101757298Y-50186903D01*
X101513329Y-50258486D01*
X101392429Y-50513996D01*
X101323700Y-50788184D01*
X101309783Y-51070512D01*
X65138072Y-51070512D01*
X65138072Y-51070000D01*
X65125812Y-50945518D01*
X65089502Y-50825820D01*
X65030537Y-50715506D01*
X64951185Y-50618815D01*
X64854494Y-50539463D01*
X64744180Y-50480498D01*
X64624482Y-50444188D01*
X64500000Y-50431928D01*
X62500000Y-50431928D01*
X62375518Y-50444188D01*
X62255820Y-50480498D01*
X62145506Y-50539463D01*
X62048815Y-50618815D01*
X61969463Y-50715506D01*
X61910498Y-50825820D01*
X61874188Y-50945518D01*
X61861928Y-51070000D01*
X61861928Y-51185000D01*
X55484579Y-51185000D01*
X54347645Y-50048066D01*
X54388413Y-50007298D01*
X101936903Y-50007298D01*
X102750000Y-50820395D01*
X103563097Y-50007298D01*
X103491514Y-49763329D01*
X103236004Y-49642429D01*
X102961816Y-49573700D01*
X102679488Y-49559783D01*
X102399870Y-49601213D01*
X102133708Y-49696397D01*
X102008486Y-49763329D01*
X101936903Y-50007298D01*
X54388413Y-50007298D01*
X54485937Y-49909774D01*
X54599205Y-49740256D01*
X54677226Y-49551898D01*
X54717000Y-49351939D01*
X54717000Y-49148061D01*
X54677226Y-48948102D01*
X54599205Y-48759744D01*
X54567000Y-48711546D01*
X54567000Y-41976521D01*
X55180979Y-41976521D01*
X55180979Y-42423479D01*
X55268176Y-42861849D01*
X55439220Y-43274785D01*
X55687536Y-43646417D01*
X56003583Y-43962464D01*
X56375215Y-44210780D01*
X56788151Y-44381824D01*
X57226521Y-44469021D01*
X57673479Y-44469021D01*
X58111849Y-44381824D01*
X58524785Y-44210780D01*
X58896417Y-43962464D01*
X59212464Y-43646417D01*
X59460780Y-43274785D01*
X59631824Y-42861849D01*
X59719021Y-42423479D01*
X59719021Y-41976521D01*
X59631824Y-41538151D01*
X59460780Y-41125215D01*
X59212464Y-40753583D01*
X58896417Y-40437536D01*
X58524785Y-40189220D01*
X58111849Y-40018176D01*
X57673479Y-39930979D01*
X57226521Y-39930979D01*
X56788151Y-40018176D01*
X56375215Y-40189220D01*
X56003583Y-40437536D01*
X55687536Y-40753583D01*
X55439220Y-41125215D01*
X55268176Y-41538151D01*
X55180979Y-41976521D01*
X54567000Y-41976521D01*
X54567000Y-34434578D01*
X54581928Y-34419650D01*
X54581928Y-35120000D01*
X54594188Y-35244482D01*
X54630498Y-35364180D01*
X54689463Y-35474494D01*
X54768815Y-35571185D01*
X54865506Y-35650537D01*
X54975820Y-35709502D01*
X55095518Y-35745812D01*
X55220000Y-35758072D01*
X56720000Y-35758072D01*
X56844482Y-35745812D01*
X56964180Y-35709502D01*
X57074494Y-35650537D01*
X57171185Y-35571185D01*
X57250537Y-35474494D01*
X57301046Y-35380000D01*
X58842678Y-35380000D01*
X58880000Y-35383676D01*
X58917322Y-35380000D01*
X58917333Y-35380000D01*
X59028986Y-35369003D01*
X59172247Y-35325546D01*
X59304276Y-35254974D01*
X59420001Y-35160001D01*
X59443804Y-35130997D01*
X59482323Y-35092478D01*
X59481928Y-35120000D01*
X59494188Y-35244482D01*
X59530498Y-35364180D01*
X59589463Y-35474494D01*
X59668815Y-35571185D01*
X59765506Y-35650537D01*
X59875820Y-35709502D01*
X59995518Y-35745812D01*
X60120000Y-35758072D01*
X60584250Y-35755000D01*
X60743000Y-35596250D01*
X60743000Y-34747000D01*
X60997000Y-34747000D01*
X60997000Y-35596250D01*
X61155750Y-35755000D01*
X61620000Y-35758072D01*
X61744482Y-35745812D01*
X61864180Y-35709502D01*
X61974494Y-35650537D01*
X62071185Y-35571185D01*
X62150537Y-35474494D01*
X62209502Y-35364180D01*
X62245812Y-35244482D01*
X62258072Y-35120000D01*
X62255000Y-34905750D01*
X62096250Y-34747000D01*
X60997000Y-34747000D01*
X60743000Y-34747000D01*
X60723000Y-34747000D01*
X60723000Y-34493000D01*
X60743000Y-34493000D01*
X60743000Y-34473000D01*
X60997000Y-34473000D01*
X60997000Y-34493000D01*
X62096250Y-34493000D01*
X62255000Y-34334250D01*
X62258072Y-34120000D01*
X62247238Y-34010000D01*
X64752762Y-34010000D01*
X64741928Y-34120000D01*
X64741928Y-35120000D01*
X64754188Y-35244482D01*
X64790498Y-35364180D01*
X64849463Y-35474494D01*
X64928815Y-35571185D01*
X65025506Y-35650537D01*
X65135820Y-35709502D01*
X65255518Y-35745812D01*
X65380000Y-35758072D01*
X66880000Y-35758072D01*
X67004482Y-35745812D01*
X67124180Y-35709502D01*
X67234494Y-35650537D01*
X67331185Y-35571185D01*
X67410537Y-35474494D01*
X67460527Y-35380970D01*
X67488000Y-35383676D01*
X67525322Y-35380000D01*
X67525333Y-35380000D01*
X67636986Y-35369003D01*
X67780247Y-35325546D01*
X67912276Y-35254974D01*
X68028001Y-35160001D01*
X68051804Y-35130997D01*
X68062801Y-35120000D01*
X69641928Y-35120000D01*
X69654188Y-35244482D01*
X69690498Y-35364180D01*
X69749463Y-35474494D01*
X69828815Y-35571185D01*
X69925506Y-35650537D01*
X70035820Y-35709502D01*
X70155518Y-35745812D01*
X70280000Y-35758072D01*
X70744250Y-35755000D01*
X70903000Y-35596250D01*
X70903000Y-34747000D01*
X71157000Y-34747000D01*
X71157000Y-35596250D01*
X71315750Y-35755000D01*
X71780000Y-35758072D01*
X71904482Y-35745812D01*
X72024180Y-35709502D01*
X72134494Y-35650537D01*
X72231185Y-35571185D01*
X72310537Y-35474494D01*
X72369502Y-35364180D01*
X72405812Y-35244482D01*
X72418072Y-35120000D01*
X72415000Y-34905750D01*
X72256250Y-34747000D01*
X71157000Y-34747000D01*
X70903000Y-34747000D01*
X69803750Y-34747000D01*
X69645000Y-34905750D01*
X69641928Y-35120000D01*
X68062801Y-35120000D01*
X69402802Y-33780000D01*
X69741716Y-33780000D01*
X69690498Y-33875820D01*
X69654188Y-33995518D01*
X69641928Y-34120000D01*
X69645000Y-34334250D01*
X69803750Y-34493000D01*
X70903000Y-34493000D01*
X70903000Y-34473000D01*
X71157000Y-34473000D01*
X71157000Y-34493000D01*
X72256250Y-34493000D01*
X72415000Y-34334250D01*
X72418072Y-34120000D01*
X72405812Y-33995518D01*
X72369502Y-33875820D01*
X72318284Y-33780000D01*
X75001716Y-33780000D01*
X74950498Y-33875820D01*
X74914188Y-33995518D01*
X74901928Y-34120000D01*
X74901928Y-35120000D01*
X74914188Y-35244482D01*
X74950498Y-35364180D01*
X75009463Y-35474494D01*
X75088815Y-35571185D01*
X75185506Y-35650537D01*
X75295820Y-35709502D01*
X75415518Y-35745812D01*
X75540000Y-35758072D01*
X77040000Y-35758072D01*
X77164482Y-35745812D01*
X77284180Y-35709502D01*
X77394494Y-35650537D01*
X77491185Y-35571185D01*
X77570537Y-35474494D01*
X77621046Y-35380000D01*
X78589088Y-35380000D01*
X78626410Y-35383676D01*
X78663732Y-35380000D01*
X78663743Y-35380000D01*
X78775396Y-35369003D01*
X78918657Y-35325546D01*
X79050686Y-35254974D01*
X79166411Y-35160001D01*
X79190214Y-35130997D01*
X79201211Y-35120000D01*
X79801928Y-35120000D01*
X79814188Y-35244482D01*
X79850498Y-35364180D01*
X79909463Y-35474494D01*
X79988815Y-35571185D01*
X80085506Y-35650537D01*
X80195820Y-35709502D01*
X80315518Y-35745812D01*
X80440000Y-35758072D01*
X80904250Y-35755000D01*
X81063000Y-35596250D01*
X81063000Y-34747000D01*
X81317000Y-34747000D01*
X81317000Y-35596250D01*
X81475750Y-35755000D01*
X81940000Y-35758072D01*
X82064482Y-35745812D01*
X82184180Y-35709502D01*
X82294494Y-35650537D01*
X82391185Y-35571185D01*
X82470537Y-35474494D01*
X82529502Y-35364180D01*
X82565812Y-35244482D01*
X82578072Y-35120000D01*
X82575000Y-34905750D01*
X82416250Y-34747000D01*
X81317000Y-34747000D01*
X81063000Y-34747000D01*
X79963750Y-34747000D01*
X79805000Y-34905750D01*
X79801928Y-35120000D01*
X79201211Y-35120000D01*
X79895981Y-34425231D01*
X79963750Y-34493000D01*
X81063000Y-34493000D01*
X81063000Y-34473000D01*
X81317000Y-34473000D01*
X81317000Y-34493000D01*
X82416250Y-34493000D01*
X82575000Y-34334250D01*
X82578072Y-34120000D01*
X82565812Y-33995518D01*
X82529502Y-33875820D01*
X82478284Y-33780000D01*
X85161716Y-33780000D01*
X85110498Y-33875820D01*
X85074188Y-33995518D01*
X85061928Y-34120000D01*
X85061928Y-35120000D01*
X85074188Y-35244482D01*
X85110498Y-35364180D01*
X85169463Y-35474494D01*
X85248815Y-35571185D01*
X85345506Y-35650537D01*
X85455820Y-35709502D01*
X85575518Y-35745812D01*
X85700000Y-35758072D01*
X87200000Y-35758072D01*
X87324482Y-35745812D01*
X87444180Y-35709502D01*
X87554494Y-35650537D01*
X87651185Y-35571185D01*
X87730537Y-35474494D01*
X87781046Y-35380000D01*
X89294678Y-35380000D01*
X89332000Y-35383676D01*
X89369322Y-35380000D01*
X89369333Y-35380000D01*
X89480986Y-35369003D01*
X89624247Y-35325546D01*
X89756276Y-35254974D01*
X89872001Y-35160001D01*
X89895804Y-35130997D01*
X89962730Y-35064071D01*
X89961928Y-35120000D01*
X89974188Y-35244482D01*
X90010498Y-35364180D01*
X90069463Y-35474494D01*
X90148815Y-35571185D01*
X90245506Y-35650537D01*
X90355820Y-35709502D01*
X90475518Y-35745812D01*
X90600000Y-35758072D01*
X91064250Y-35755000D01*
X91223000Y-35596250D01*
X91223000Y-34747000D01*
X91477000Y-34747000D01*
X91477000Y-35596250D01*
X91635750Y-35755000D01*
X92100000Y-35758072D01*
X92224482Y-35745812D01*
X92344180Y-35709502D01*
X92454494Y-35650537D01*
X92551185Y-35571185D01*
X92630537Y-35474494D01*
X92689502Y-35364180D01*
X92725812Y-35244482D01*
X92738072Y-35120000D01*
X92735000Y-34905750D01*
X92576250Y-34747000D01*
X91477000Y-34747000D01*
X91223000Y-34747000D01*
X91203000Y-34747000D01*
X91203000Y-34493000D01*
X91223000Y-34493000D01*
X91223000Y-34473000D01*
X91477000Y-34473000D01*
X91477000Y-34493000D01*
X92576250Y-34493000D01*
X92735000Y-34334250D01*
X92738072Y-34120000D01*
X92725812Y-33995518D01*
X92689502Y-33875820D01*
X92630537Y-33765506D01*
X92551185Y-33668815D01*
X92454494Y-33589463D01*
X92344180Y-33530498D01*
X92224482Y-33494188D01*
X92100000Y-33481928D01*
X91635750Y-33485000D01*
X91477002Y-33643748D01*
X91477002Y-33549800D01*
X91754802Y-33272000D01*
X98241198Y-33272000D01*
X97793195Y-33720004D01*
X97751185Y-33668815D01*
X97654494Y-33589463D01*
X97544180Y-33530498D01*
X97424482Y-33494188D01*
X97300000Y-33481928D01*
X95800000Y-33481928D01*
X95675518Y-33494188D01*
X95555820Y-33530498D01*
X95445506Y-33589463D01*
X95348815Y-33668815D01*
X95269463Y-33765506D01*
X95210498Y-33875820D01*
X95174188Y-33995518D01*
X95161928Y-34120000D01*
X95161928Y-35120000D01*
X95174188Y-35244482D01*
X95210498Y-35364180D01*
X95269463Y-35474494D01*
X95348815Y-35571185D01*
X95445506Y-35650537D01*
X95555820Y-35709502D01*
X95675518Y-35745812D01*
X95800000Y-35758072D01*
X97300000Y-35758072D01*
X97424482Y-35745812D01*
X97544180Y-35709502D01*
X97654494Y-35650537D01*
X97751185Y-35571185D01*
X97830537Y-35474494D01*
X97881046Y-35380000D01*
X97930678Y-35380000D01*
X97968000Y-35383676D01*
X98005322Y-35380000D01*
X98005333Y-35380000D01*
X98116986Y-35369003D01*
X98260247Y-35325546D01*
X98392276Y-35254974D01*
X98508001Y-35160001D01*
X98531804Y-35130998D01*
X98542802Y-35120000D01*
X100061928Y-35120000D01*
X100074188Y-35244482D01*
X100110498Y-35364180D01*
X100169463Y-35474494D01*
X100248815Y-35571185D01*
X100345506Y-35650537D01*
X100455820Y-35709502D01*
X100575518Y-35745812D01*
X100700000Y-35758072D01*
X101164250Y-35755000D01*
X101323000Y-35596250D01*
X101323000Y-34747000D01*
X101577000Y-34747000D01*
X101577000Y-35596250D01*
X101735750Y-35755000D01*
X102200000Y-35758072D01*
X102324482Y-35745812D01*
X102444180Y-35709502D01*
X102554494Y-35650537D01*
X102651185Y-35571185D01*
X102730537Y-35474494D01*
X102789502Y-35364180D01*
X102825812Y-35244482D01*
X102838072Y-35120000D01*
X102835000Y-34905750D01*
X102676250Y-34747000D01*
X101577000Y-34747000D01*
X101323000Y-34747000D01*
X100223750Y-34747000D01*
X100065000Y-34905750D01*
X100061928Y-35120000D01*
X98542802Y-35120000D01*
X99374802Y-34288000D01*
X100064337Y-34288000D01*
X100065000Y-34334250D01*
X100223750Y-34493000D01*
X101323000Y-34493000D01*
X101323000Y-34473000D01*
X101577000Y-34473000D01*
X101577000Y-34493000D01*
X102676250Y-34493000D01*
X102835000Y-34334250D01*
X102835663Y-34288000D01*
X103086678Y-34288000D01*
X103124000Y-34291676D01*
X103161322Y-34288000D01*
X103161333Y-34288000D01*
X103272986Y-34277003D01*
X103416247Y-34233546D01*
X103548276Y-34162974D01*
X103664001Y-34068001D01*
X103687804Y-34038998D01*
X104454802Y-33272000D01*
X108401198Y-33272000D01*
X107986149Y-33687049D01*
X107971185Y-33668815D01*
X107874494Y-33589463D01*
X107764180Y-33530498D01*
X107644482Y-33494188D01*
X107520000Y-33481928D01*
X106020000Y-33481928D01*
X105895518Y-33494188D01*
X105775820Y-33530498D01*
X105665506Y-33589463D01*
X105568815Y-33668815D01*
X105489463Y-33765506D01*
X105430498Y-33875820D01*
X105394188Y-33995518D01*
X105381928Y-34120000D01*
X105381928Y-35120000D01*
X105394188Y-35244482D01*
X105430498Y-35364180D01*
X105489463Y-35474494D01*
X105568815Y-35571185D01*
X105665506Y-35650537D01*
X105775820Y-35709502D01*
X105895518Y-35745812D01*
X106020000Y-35758072D01*
X107520000Y-35758072D01*
X107644482Y-35745812D01*
X107764180Y-35709502D01*
X107874494Y-35650537D01*
X107971185Y-35571185D01*
X108050537Y-35474494D01*
X108100527Y-35380970D01*
X108128000Y-35383676D01*
X108165322Y-35380000D01*
X108165333Y-35380000D01*
X108276986Y-35369003D01*
X108420247Y-35325546D01*
X108552276Y-35254974D01*
X108668001Y-35160001D01*
X108691804Y-35130998D01*
X108702802Y-35120000D01*
X110281928Y-35120000D01*
X110294188Y-35244482D01*
X110330498Y-35364180D01*
X110389463Y-35474494D01*
X110468815Y-35571185D01*
X110565506Y-35650537D01*
X110675820Y-35709502D01*
X110795518Y-35745812D01*
X110920000Y-35758072D01*
X111384250Y-35755000D01*
X111543000Y-35596250D01*
X111543000Y-34747000D01*
X111797000Y-34747000D01*
X111797000Y-35596250D01*
X111955750Y-35755000D01*
X112420000Y-35758072D01*
X112544482Y-35745812D01*
X112664180Y-35709502D01*
X112774494Y-35650537D01*
X112871185Y-35571185D01*
X112950537Y-35474494D01*
X113009502Y-35364180D01*
X113045812Y-35244482D01*
X113058072Y-35120000D01*
X113055000Y-34905750D01*
X112896250Y-34747000D01*
X111797000Y-34747000D01*
X111543000Y-34747000D01*
X110443750Y-34747000D01*
X110285000Y-34905750D01*
X110281928Y-35120000D01*
X108702802Y-35120000D01*
X109534802Y-34288000D01*
X110284337Y-34288000D01*
X110285000Y-34334250D01*
X110443750Y-34493000D01*
X111543000Y-34493000D01*
X111543000Y-34473000D01*
X111797000Y-34473000D01*
X111797000Y-34493000D01*
X112896250Y-34493000D01*
X113055000Y-34334250D01*
X113056392Y-34237142D01*
X113068247Y-34233546D01*
X113200276Y-34162974D01*
X113316001Y-34068001D01*
X113339804Y-34038998D01*
X114106802Y-33272000D01*
X120085198Y-33272000D01*
X119497199Y-33860000D01*
X118261046Y-33860000D01*
X118210537Y-33765506D01*
X118131185Y-33668815D01*
X118034494Y-33589463D01*
X117924180Y-33530498D01*
X117804482Y-33494188D01*
X117680000Y-33481928D01*
X116180000Y-33481928D01*
X116055518Y-33494188D01*
X115935820Y-33530498D01*
X115825506Y-33589463D01*
X115728815Y-33668815D01*
X115649463Y-33765506D01*
X115590498Y-33875820D01*
X115554188Y-33995518D01*
X115541928Y-34120000D01*
X115541928Y-35120000D01*
X115554188Y-35244482D01*
X115590498Y-35364180D01*
X115649463Y-35474494D01*
X115728815Y-35571185D01*
X115825506Y-35650537D01*
X115935820Y-35709502D01*
X116055518Y-35745812D01*
X116180000Y-35758072D01*
X117680000Y-35758072D01*
X117804482Y-35745812D01*
X117924180Y-35709502D01*
X118034494Y-35650537D01*
X118131185Y-35571185D01*
X118210537Y-35474494D01*
X118261046Y-35380000D01*
X119774678Y-35380000D01*
X119812000Y-35383676D01*
X119849322Y-35380000D01*
X119849333Y-35380000D01*
X119960986Y-35369003D01*
X120104247Y-35325546D01*
X120236276Y-35254974D01*
X120352001Y-35160001D01*
X120375804Y-35130997D01*
X120442730Y-35064071D01*
X120441928Y-35120000D01*
X120454188Y-35244482D01*
X120490498Y-35364180D01*
X120549463Y-35474494D01*
X120628815Y-35571185D01*
X120725506Y-35650537D01*
X120835820Y-35709502D01*
X120955518Y-35745812D01*
X121080000Y-35758072D01*
X121544250Y-35755000D01*
X121703000Y-35596250D01*
X121703000Y-34747000D01*
X121957000Y-34747000D01*
X121957000Y-35596250D01*
X122115750Y-35755000D01*
X122580000Y-35758072D01*
X122704482Y-35745812D01*
X122824180Y-35709502D01*
X122934494Y-35650537D01*
X123031185Y-35571185D01*
X123110537Y-35474494D01*
X123169502Y-35364180D01*
X123205812Y-35244482D01*
X123218072Y-35120000D01*
X123215000Y-34905750D01*
X123056250Y-34747000D01*
X121957000Y-34747000D01*
X121703000Y-34747000D01*
X121683000Y-34747000D01*
X121683000Y-34493000D01*
X121703000Y-34493000D01*
X121703000Y-34473000D01*
X121957000Y-34473000D01*
X121957000Y-34493000D01*
X123056250Y-34493000D01*
X123215000Y-34334250D01*
X123218072Y-34120000D01*
X123205812Y-33995518D01*
X123169502Y-33875820D01*
X123118284Y-33780000D01*
X125801716Y-33780000D01*
X125750498Y-33875820D01*
X125714188Y-33995518D01*
X125701928Y-34120000D01*
X125701928Y-35120000D01*
X125714188Y-35244482D01*
X125750498Y-35364180D01*
X125809463Y-35474494D01*
X125888815Y-35571185D01*
X125985506Y-35650537D01*
X126095820Y-35709502D01*
X126215518Y-35745812D01*
X126340000Y-35758072D01*
X127840000Y-35758072D01*
X127964482Y-35745812D01*
X128084180Y-35709502D01*
X128194494Y-35650537D01*
X128291185Y-35571185D01*
X128370537Y-35474494D01*
X128420527Y-35380970D01*
X128448000Y-35383676D01*
X128485322Y-35380000D01*
X128485333Y-35380000D01*
X128596986Y-35369003D01*
X128740247Y-35325546D01*
X128872276Y-35254974D01*
X128988001Y-35160001D01*
X129011804Y-35130998D01*
X129022802Y-35120000D01*
X130601928Y-35120000D01*
X130614188Y-35244482D01*
X130650498Y-35364180D01*
X130709463Y-35474494D01*
X130788815Y-35571185D01*
X130885506Y-35650537D01*
X130995820Y-35709502D01*
X131115518Y-35745812D01*
X131240000Y-35758072D01*
X131704250Y-35755000D01*
X131863000Y-35596250D01*
X131863000Y-34747000D01*
X132117000Y-34747000D01*
X132117000Y-35596250D01*
X132275750Y-35755000D01*
X132740000Y-35758072D01*
X132864482Y-35745812D01*
X132984180Y-35709502D01*
X133094494Y-35650537D01*
X133191185Y-35571185D01*
X133270537Y-35474494D01*
X133329502Y-35364180D01*
X133365812Y-35244482D01*
X133378072Y-35120000D01*
X133375000Y-34905750D01*
X133216250Y-34747000D01*
X132117000Y-34747000D01*
X131863000Y-34747000D01*
X130763750Y-34747000D01*
X130605000Y-34905750D01*
X130601928Y-35120000D01*
X129022802Y-35120000D01*
X129854802Y-34288000D01*
X130604337Y-34288000D01*
X130605000Y-34334250D01*
X130763750Y-34493000D01*
X131863000Y-34493000D01*
X131863000Y-34473000D01*
X132117000Y-34473000D01*
X132117000Y-34493000D01*
X133216250Y-34493000D01*
X133375000Y-34334250D01*
X133376392Y-34237142D01*
X133388247Y-34233546D01*
X133520276Y-34162974D01*
X133636001Y-34068001D01*
X133659804Y-34038998D01*
X134426802Y-33272000D01*
X139897198Y-33272000D01*
X139309199Y-33860000D01*
X138581046Y-33860000D01*
X138530537Y-33765506D01*
X138451185Y-33668815D01*
X138354494Y-33589463D01*
X138244180Y-33530498D01*
X138124482Y-33494188D01*
X138000000Y-33481928D01*
X136500000Y-33481928D01*
X136375518Y-33494188D01*
X136255820Y-33530498D01*
X136145506Y-33589463D01*
X136048815Y-33668815D01*
X135969463Y-33765506D01*
X135910498Y-33875820D01*
X135874188Y-33995518D01*
X135861928Y-34120000D01*
X135861928Y-35120000D01*
X135874188Y-35244482D01*
X135910498Y-35364180D01*
X135969463Y-35474494D01*
X136048815Y-35571185D01*
X136145506Y-35650537D01*
X136255820Y-35709502D01*
X136375518Y-35745812D01*
X136500000Y-35758072D01*
X138000000Y-35758072D01*
X138124482Y-35745812D01*
X138244180Y-35709502D01*
X138354494Y-35650537D01*
X138451185Y-35571185D01*
X138530537Y-35474494D01*
X138581046Y-35380000D01*
X139586678Y-35380000D01*
X139624000Y-35383676D01*
X139661322Y-35380000D01*
X139661333Y-35380000D01*
X139772986Y-35369003D01*
X139916247Y-35325546D01*
X140048276Y-35254974D01*
X140164001Y-35160001D01*
X140187804Y-35130998D01*
X140198802Y-35120000D01*
X140761928Y-35120000D01*
X140774188Y-35244482D01*
X140810498Y-35364180D01*
X140869463Y-35474494D01*
X140948815Y-35571185D01*
X141045506Y-35650537D01*
X141155820Y-35709502D01*
X141275518Y-35745812D01*
X141400000Y-35758072D01*
X141864250Y-35755000D01*
X142023000Y-35596250D01*
X142023000Y-34747000D01*
X142277000Y-34747000D01*
X142277000Y-35596250D01*
X142435750Y-35755000D01*
X142900000Y-35758072D01*
X143024482Y-35745812D01*
X143144180Y-35709502D01*
X143254494Y-35650537D01*
X143351185Y-35571185D01*
X143430537Y-35474494D01*
X143489502Y-35364180D01*
X143525812Y-35244482D01*
X143538072Y-35120000D01*
X143535000Y-34905750D01*
X143376250Y-34747000D01*
X142277000Y-34747000D01*
X142023000Y-34747000D01*
X140923750Y-34747000D01*
X140765000Y-34905750D01*
X140761928Y-35120000D01*
X140198802Y-35120000D01*
X140874776Y-34444026D01*
X140923750Y-34493000D01*
X142023000Y-34493000D01*
X142023000Y-34473000D01*
X142277000Y-34473000D01*
X142277000Y-34493000D01*
X143376250Y-34493000D01*
X143535000Y-34334250D01*
X143538072Y-34120000D01*
X143525812Y-33995518D01*
X143489502Y-33875820D01*
X143430537Y-33765506D01*
X143351185Y-33668815D01*
X143254494Y-33589463D01*
X143253741Y-33589060D01*
X143570802Y-33272000D01*
X149041198Y-33272000D01*
X148626149Y-33687049D01*
X148611185Y-33668815D01*
X148514494Y-33589463D01*
X148404180Y-33530498D01*
X148284482Y-33494188D01*
X148160000Y-33481928D01*
X146660000Y-33481928D01*
X146535518Y-33494188D01*
X146415820Y-33530498D01*
X146305506Y-33589463D01*
X146208815Y-33668815D01*
X146129463Y-33765506D01*
X146070498Y-33875820D01*
X146034188Y-33995518D01*
X146021928Y-34120000D01*
X146021928Y-35120000D01*
X146034188Y-35244482D01*
X146070498Y-35364180D01*
X146129463Y-35474494D01*
X146208815Y-35571185D01*
X146305506Y-35650537D01*
X146415820Y-35709502D01*
X146535518Y-35745812D01*
X146660000Y-35758072D01*
X148160000Y-35758072D01*
X148284482Y-35745812D01*
X148404180Y-35709502D01*
X148514494Y-35650537D01*
X148611185Y-35571185D01*
X148690537Y-35474494D01*
X148740527Y-35380970D01*
X148768000Y-35383676D01*
X148805322Y-35380000D01*
X148805333Y-35380000D01*
X148916986Y-35369003D01*
X149060247Y-35325546D01*
X149192276Y-35254974D01*
X149308001Y-35160001D01*
X149331804Y-35130998D01*
X149342802Y-35120000D01*
X150921928Y-35120000D01*
X150934188Y-35244482D01*
X150970498Y-35364180D01*
X151029463Y-35474494D01*
X151108815Y-35571185D01*
X151205506Y-35650537D01*
X151315820Y-35709502D01*
X151435518Y-35745812D01*
X151560000Y-35758072D01*
X152024250Y-35755000D01*
X152183000Y-35596250D01*
X152183000Y-34747000D01*
X152437000Y-34747000D01*
X152437000Y-35596250D01*
X152595750Y-35755000D01*
X153060000Y-35758072D01*
X153184482Y-35745812D01*
X153304180Y-35709502D01*
X153414494Y-35650537D01*
X153511185Y-35571185D01*
X153590537Y-35474494D01*
X153649502Y-35364180D01*
X153685812Y-35244482D01*
X153698072Y-35120000D01*
X153695000Y-34905750D01*
X153536250Y-34747000D01*
X152437000Y-34747000D01*
X152183000Y-34747000D01*
X151083750Y-34747000D01*
X150925000Y-34905750D01*
X150921928Y-35120000D01*
X149342802Y-35120000D01*
X150174802Y-34288000D01*
X150924337Y-34288000D01*
X150925000Y-34334250D01*
X151083750Y-34493000D01*
X152183000Y-34493000D01*
X152183000Y-34473000D01*
X152437000Y-34473000D01*
X152437000Y-34493000D01*
X153536250Y-34493000D01*
X153695000Y-34334250D01*
X153695663Y-34288000D01*
X156181928Y-34288000D01*
X156181928Y-35120000D01*
X156194188Y-35244482D01*
X156230498Y-35364180D01*
X156289463Y-35474494D01*
X156368815Y-35571185D01*
X156465506Y-35650537D01*
X156575820Y-35709502D01*
X156695518Y-35745812D01*
X156820000Y-35758072D01*
X158320000Y-35758072D01*
X158444482Y-35745812D01*
X158564180Y-35709502D01*
X158674494Y-35650537D01*
X158771185Y-35571185D01*
X158850537Y-35474494D01*
X158900527Y-35380970D01*
X158928000Y-35383676D01*
X158965322Y-35380000D01*
X158965333Y-35380000D01*
X159076986Y-35369003D01*
X159220247Y-35325546D01*
X159352276Y-35254974D01*
X159468001Y-35160001D01*
X159491804Y-35130998D01*
X159502802Y-35120000D01*
X161081928Y-35120000D01*
X161094188Y-35244482D01*
X161130498Y-35364180D01*
X161189463Y-35474494D01*
X161268815Y-35571185D01*
X161365506Y-35650537D01*
X161475820Y-35709502D01*
X161595518Y-35745812D01*
X161720000Y-35758072D01*
X162184250Y-35755000D01*
X162343000Y-35596250D01*
X162343000Y-34747000D01*
X162597000Y-34747000D01*
X162597000Y-35596250D01*
X162755750Y-35755000D01*
X163220000Y-35758072D01*
X163344482Y-35745812D01*
X163464180Y-35709502D01*
X163574494Y-35650537D01*
X163671185Y-35571185D01*
X163750537Y-35474494D01*
X163809502Y-35364180D01*
X163845812Y-35244482D01*
X163858072Y-35120000D01*
X163855000Y-34905750D01*
X163696250Y-34747000D01*
X162597000Y-34747000D01*
X162343000Y-34747000D01*
X161243750Y-34747000D01*
X161085000Y-34905750D01*
X161081928Y-35120000D01*
X159502802Y-35120000D01*
X160334802Y-34288000D01*
X161084337Y-34288000D01*
X161085000Y-34334250D01*
X161243750Y-34493000D01*
X162343000Y-34493000D01*
X162343000Y-34473000D01*
X162597000Y-34473000D01*
X162597000Y-34493000D01*
X163696250Y-34493000D01*
X163855000Y-34334250D01*
X163858072Y-34120000D01*
X166341928Y-34120000D01*
X166341928Y-35120000D01*
X166354188Y-35244482D01*
X166390498Y-35364180D01*
X166449463Y-35474494D01*
X166528815Y-35571185D01*
X166625506Y-35650537D01*
X166735820Y-35709502D01*
X166855518Y-35745812D01*
X166980000Y-35758072D01*
X168480000Y-35758072D01*
X168604482Y-35745812D01*
X168724180Y-35709502D01*
X168834494Y-35650537D01*
X168931185Y-35571185D01*
X169010537Y-35474494D01*
X169069502Y-35364180D01*
X169105812Y-35244482D01*
X169118072Y-35120000D01*
X171241928Y-35120000D01*
X171254188Y-35244482D01*
X171290498Y-35364180D01*
X171349463Y-35474494D01*
X171428815Y-35571185D01*
X171525506Y-35650537D01*
X171635820Y-35709502D01*
X171755518Y-35745812D01*
X171880000Y-35758072D01*
X172344250Y-35755000D01*
X172503000Y-35596250D01*
X172503000Y-34747000D01*
X171403750Y-34747000D01*
X171245000Y-34905750D01*
X171241928Y-35120000D01*
X169118072Y-35120000D01*
X169118072Y-34120000D01*
X171241928Y-34120000D01*
X171245000Y-34334250D01*
X171403750Y-34493000D01*
X172503000Y-34493000D01*
X172503000Y-33643750D01*
X172344250Y-33485000D01*
X171880000Y-33481928D01*
X171755518Y-33494188D01*
X171635820Y-33530498D01*
X171525506Y-33589463D01*
X171428815Y-33668815D01*
X171349463Y-33765506D01*
X171290498Y-33875820D01*
X171254188Y-33995518D01*
X171241928Y-34120000D01*
X169118072Y-34120000D01*
X169105812Y-33995518D01*
X169069502Y-33875820D01*
X169010537Y-33765506D01*
X168931185Y-33668815D01*
X168834494Y-33589463D01*
X168724180Y-33530498D01*
X168604482Y-33494188D01*
X168480000Y-33481928D01*
X166980000Y-33481928D01*
X166855518Y-33494188D01*
X166735820Y-33530498D01*
X166625506Y-33589463D01*
X166528815Y-33668815D01*
X166449463Y-33765506D01*
X166390498Y-33875820D01*
X166354188Y-33995518D01*
X166341928Y-34120000D01*
X163858072Y-34120000D01*
X163845812Y-33995518D01*
X163809502Y-33875820D01*
X163750537Y-33765506D01*
X163671185Y-33668815D01*
X163574494Y-33589463D01*
X163573741Y-33589060D01*
X163890802Y-33272000D01*
X171500678Y-33272000D01*
X171538000Y-33275676D01*
X171575322Y-33272000D01*
X171575333Y-33272000D01*
X171686986Y-33261003D01*
X171830247Y-33217546D01*
X171962276Y-33146974D01*
X172078001Y-33052001D01*
X172101804Y-33022998D01*
X172566729Y-32558072D01*
X173380000Y-32558072D01*
X173504482Y-32545812D01*
X173624180Y-32509502D01*
X173734494Y-32450537D01*
X173740000Y-32446018D01*
X173740000Y-33593982D01*
X173734494Y-33589463D01*
X173624180Y-33530498D01*
X173504482Y-33494188D01*
X173380000Y-33481928D01*
X172915750Y-33485000D01*
X172757000Y-33643750D01*
X172757000Y-34493000D01*
X172777000Y-34493000D01*
X172777000Y-34747000D01*
X172757000Y-34747000D01*
X172757000Y-35596250D01*
X172915750Y-35755000D01*
X173380000Y-35758072D01*
X173504482Y-35745812D01*
X173624180Y-35709502D01*
X173734494Y-35650537D01*
X173740001Y-35646018D01*
X173740001Y-36463420D01*
X173558412Y-36645010D01*
X158728455Y-36645010D01*
X158684989Y-36640729D01*
X158641523Y-36645010D01*
X158641513Y-36645010D01*
X158511500Y-36657815D01*
X158344677Y-36708421D01*
X158190931Y-36790599D01*
X158190929Y-36790600D01*
X158190930Y-36790600D01*
X158089943Y-36873478D01*
X158089941Y-36873480D01*
X158056173Y-36901193D01*
X158028460Y-36934961D01*
X151804956Y-43158466D01*
X151771183Y-43186183D01*
X151660589Y-43320942D01*
X151578411Y-43474688D01*
X151527805Y-43641511D01*
X151515000Y-43771524D01*
X151515000Y-43771531D01*
X151510719Y-43815000D01*
X151515000Y-43858469D01*
X151515001Y-52840478D01*
X151485241Y-52860363D01*
X151285363Y-53060241D01*
X151128320Y-53295273D01*
X151020147Y-53556426D01*
X150965000Y-53833665D01*
X150965000Y-54116335D01*
X151020147Y-54393574D01*
X151128320Y-54654727D01*
X151285363Y-54889759D01*
X151485241Y-55089637D01*
X151515001Y-55109522D01*
X151515000Y-58555479D01*
X151485241Y-58575363D01*
X151285363Y-58775241D01*
X151128320Y-59010273D01*
X151020147Y-59271426D01*
X150965000Y-59548665D01*
X150965000Y-59831335D01*
X151020147Y-60108574D01*
X151128320Y-60369727D01*
X151285363Y-60604759D01*
X151485241Y-60804637D01*
X151720273Y-60961680D01*
X151981426Y-61069853D01*
X152258665Y-61125000D01*
X152541335Y-61125000D01*
X152818574Y-61069853D01*
X153079727Y-60961680D01*
X153314759Y-60804637D01*
X153514637Y-60604759D01*
X153671680Y-60369727D01*
X153779853Y-60108574D01*
X153835000Y-59831335D01*
X153835000Y-59548665D01*
X158585000Y-59548665D01*
X158585000Y-59831335D01*
X158640147Y-60108574D01*
X158748320Y-60369727D01*
X158905363Y-60604759D01*
X159105241Y-60804637D01*
X159340273Y-60961680D01*
X159601426Y-61069853D01*
X159878665Y-61125000D01*
X160161335Y-61125000D01*
X160438574Y-61069853D01*
X160699727Y-60961680D01*
X160934759Y-60804637D01*
X161134637Y-60604759D01*
X161154521Y-60575000D01*
X163845210Y-60575000D01*
X163907688Y-60668505D01*
X164121495Y-60882312D01*
X164372905Y-61050299D01*
X164652257Y-61166011D01*
X164948816Y-61225000D01*
X165251184Y-61225000D01*
X165547743Y-61166011D01*
X165827095Y-61050299D01*
X166078505Y-60882312D01*
X166144944Y-60815873D01*
X166150498Y-60834180D01*
X166209463Y-60944494D01*
X166288815Y-61041185D01*
X166385506Y-61120537D01*
X166495820Y-61179502D01*
X166615518Y-61215812D01*
X166740000Y-61228072D01*
X168540000Y-61228072D01*
X168664482Y-61215812D01*
X168784180Y-61179502D01*
X168894494Y-61120537D01*
X168991185Y-61041185D01*
X169070537Y-60944494D01*
X169129502Y-60834180D01*
X169165812Y-60714482D01*
X169178072Y-60590000D01*
X169178072Y-58790000D01*
X169165812Y-58665518D01*
X169129502Y-58545820D01*
X169070537Y-58435506D01*
X168991185Y-58338815D01*
X168894494Y-58259463D01*
X168784180Y-58200498D01*
X168664482Y-58164188D01*
X168540000Y-58151928D01*
X166740000Y-58151928D01*
X166615518Y-58164188D01*
X166495820Y-58200498D01*
X166385506Y-58259463D01*
X166288815Y-58338815D01*
X166209463Y-58435506D01*
X166150498Y-58545820D01*
X166144944Y-58564127D01*
X166078505Y-58497688D01*
X165827095Y-58329701D01*
X165547743Y-58213989D01*
X165251184Y-58155000D01*
X164948816Y-58155000D01*
X164652257Y-58213989D01*
X164372905Y-58329701D01*
X164121495Y-58497688D01*
X163907688Y-58711495D01*
X163845210Y-58805000D01*
X161154521Y-58805000D01*
X161134637Y-58775241D01*
X160934759Y-58575363D01*
X160699727Y-58418320D01*
X160438574Y-58310147D01*
X160161335Y-58255000D01*
X159878665Y-58255000D01*
X159601426Y-58310147D01*
X159340273Y-58418320D01*
X159105241Y-58575363D01*
X158905363Y-58775241D01*
X158748320Y-59010273D01*
X158640147Y-59271426D01*
X158585000Y-59548665D01*
X153835000Y-59548665D01*
X153779853Y-59271426D01*
X153671680Y-59010273D01*
X153514637Y-58775241D01*
X153314759Y-58575363D01*
X153285000Y-58555479D01*
X153285000Y-55109521D01*
X153314759Y-55089637D01*
X153514637Y-54889759D01*
X153671680Y-54654727D01*
X153779853Y-54393574D01*
X153835000Y-54116335D01*
X153835000Y-53833665D01*
X153779853Y-53556426D01*
X153671680Y-53295273D01*
X153514637Y-53060241D01*
X153314759Y-52860363D01*
X153285000Y-52840479D01*
X153285000Y-44181578D01*
X155490057Y-41976521D01*
X168780979Y-41976521D01*
X168780979Y-42423479D01*
X168868176Y-42861849D01*
X169039220Y-43274785D01*
X169287536Y-43646417D01*
X169603583Y-43962464D01*
X169975215Y-44210780D01*
X170388151Y-44381824D01*
X170826521Y-44469021D01*
X171273479Y-44469021D01*
X171711849Y-44381824D01*
X172124785Y-44210780D01*
X172496417Y-43962464D01*
X172812464Y-43646417D01*
X173060780Y-43274785D01*
X173231824Y-42861849D01*
X173319021Y-42423479D01*
X173319021Y-41976521D01*
X173231824Y-41538151D01*
X173060780Y-41125215D01*
X172812464Y-40753583D01*
X172496417Y-40437536D01*
X172124785Y-40189220D01*
X171711849Y-40018176D01*
X171273479Y-39930979D01*
X170826521Y-39930979D01*
X170388151Y-40018176D01*
X169975215Y-40189220D01*
X169603583Y-40437536D01*
X169287536Y-40753583D01*
X169039220Y-41125215D01*
X168868176Y-41538151D01*
X168780979Y-41976521D01*
X155490057Y-41976521D01*
X159051569Y-38415010D01*
X173881521Y-38415010D01*
X173924990Y-38419291D01*
X173968459Y-38415010D01*
X173968467Y-38415010D01*
X174098480Y-38402205D01*
X174265303Y-38351599D01*
X174419049Y-38269421D01*
X174553807Y-38158827D01*
X174581524Y-38125054D01*
X175220049Y-37486530D01*
X175253817Y-37458817D01*
X175364411Y-37324059D01*
X175446589Y-37170314D01*
X175497195Y-37003490D01*
X175507270Y-36901193D01*
X175510000Y-36873477D01*
X175510000Y-36873469D01*
X175514281Y-36830000D01*
X175510000Y-36786531D01*
X175510000Y-30523465D01*
X175514281Y-30479999D01*
X175510000Y-30436533D01*
X175510000Y-30436523D01*
X175497195Y-30306510D01*
X175446589Y-30139687D01*
X175364411Y-29985941D01*
X175306152Y-29914953D01*
X175281532Y-29884953D01*
X175281530Y-29884951D01*
X175253817Y-29851183D01*
X175220050Y-29823471D01*
X174011534Y-28614956D01*
X173999260Y-28600000D01*
X175870000Y-28600000D01*
X175870001Y-112369841D01*
G37*
X175870001Y-112369841D02*
X52660000Y-112340160D01*
X52660000Y-109576521D01*
X55180979Y-109576521D01*
X55180979Y-110023479D01*
X55268176Y-110461849D01*
X55439220Y-110874785D01*
X55687536Y-111246417D01*
X56003583Y-111562464D01*
X56375215Y-111810780D01*
X56788151Y-111981824D01*
X57226521Y-112069021D01*
X57673479Y-112069021D01*
X58111849Y-111981824D01*
X58524785Y-111810780D01*
X58896417Y-111562464D01*
X59212464Y-111246417D01*
X59460780Y-110874785D01*
X59631824Y-110461849D01*
X59719021Y-110023479D01*
X59719021Y-109576521D01*
X59631824Y-109138151D01*
X59460780Y-108725215D01*
X59212464Y-108353583D01*
X58896417Y-108037536D01*
X58524785Y-107789220D01*
X58111849Y-107618176D01*
X57673479Y-107530979D01*
X57226521Y-107530979D01*
X56788151Y-107618176D01*
X56375215Y-107789220D01*
X56003583Y-108037536D01*
X55687536Y-108353583D01*
X55439220Y-108725215D01*
X55268176Y-109138151D01*
X55180979Y-109576521D01*
X52660000Y-109576521D01*
X52660000Y-104445000D01*
X131440000Y-104445000D01*
X131440000Y-110515000D01*
X167010000Y-110515000D01*
X167010000Y-109576521D01*
X168780979Y-109576521D01*
X168780979Y-110023479D01*
X168868176Y-110461849D01*
X169039220Y-110874785D01*
X169287536Y-111246417D01*
X169603583Y-111562464D01*
X169975215Y-111810780D01*
X170388151Y-111981824D01*
X170826521Y-112069021D01*
X171273479Y-112069021D01*
X171711849Y-111981824D01*
X172124785Y-111810780D01*
X172496417Y-111562464D01*
X172812464Y-111246417D01*
X173060780Y-110874785D01*
X173231824Y-110461849D01*
X173319021Y-110023479D01*
X173319021Y-109576521D01*
X173231824Y-109138151D01*
X173060780Y-108725215D01*
X172812464Y-108353583D01*
X172496417Y-108037536D01*
X172124785Y-107789220D01*
X171711849Y-107618176D01*
X171273479Y-107530979D01*
X170826521Y-107530979D01*
X170388151Y-107618176D01*
X169975215Y-107789220D01*
X169603583Y-108037536D01*
X169287536Y-108353583D01*
X169039220Y-108725215D01*
X168868176Y-109138151D01*
X168780979Y-109576521D01*
X167010000Y-109576521D01*
X167010000Y-104445000D01*
X131440000Y-104445000D01*
X52660000Y-104445000D01*
X52660000Y-100108665D01*
X156235000Y-100108665D01*
X156235000Y-100391335D01*
X156290147Y-100668574D01*
X156398320Y-100929727D01*
X156555363Y-101164759D01*
X156755241Y-101364637D01*
X156990273Y-101521680D01*
X157251426Y-101629853D01*
X157528665Y-101685000D01*
X157811335Y-101685000D01*
X158088574Y-101629853D01*
X158349727Y-101521680D01*
X158584759Y-101364637D01*
X158784637Y-101164759D01*
X158941680Y-100929727D01*
X159049853Y-100668574D01*
X159105000Y-100391335D01*
X159105000Y-100108665D01*
X163855000Y-100108665D01*
X163855000Y-100391335D01*
X163910147Y-100668574D01*
X164018320Y-100929727D01*
X164175363Y-101164759D01*
X164375241Y-101364637D01*
X164610273Y-101521680D01*
X164871426Y-101629853D01*
X165148665Y-101685000D01*
X165431335Y-101685000D01*
X165708574Y-101629853D01*
X165969727Y-101521680D01*
X166204759Y-101364637D01*
X166404637Y-101164759D01*
X166561680Y-100929727D01*
X166669853Y-100668574D01*
X166725000Y-100391335D01*
X166725000Y-100108665D01*
X166669853Y-99831426D01*
X166561680Y-99570273D01*
X166404637Y-99335241D01*
X166204759Y-99135363D01*
X165969727Y-98978320D01*
X165708574Y-98870147D01*
X165431335Y-98815000D01*
X165148665Y-98815000D01*
X164871426Y-98870147D01*
X164610273Y-98978320D01*
X164375241Y-99135363D01*
X164175363Y-99335241D01*
X164018320Y-99570273D01*
X163910147Y-99831426D01*
X163855000Y-100108665D01*
X159105000Y-100108665D01*
X159049853Y-99831426D01*
X158941680Y-99570273D01*
X158784637Y-99335241D01*
X158584759Y-99135363D01*
X158349727Y-98978320D01*
X158088574Y-98870147D01*
X157811335Y-98815000D01*
X157528665Y-98815000D01*
X157251426Y-98870147D01*
X156990273Y-98978320D01*
X156755241Y-99135363D01*
X156555363Y-99335241D01*
X156398320Y-99570273D01*
X156290147Y-99831426D01*
X156235000Y-100108665D01*
X52660000Y-100108665D01*
X52660000Y-96358665D01*
X156235000Y-96358665D01*
X156235000Y-96641335D01*
X156290147Y-96918574D01*
X156398320Y-97179727D01*
X156555363Y-97414759D01*
X156755241Y-97614637D01*
X156990273Y-97771680D01*
X157251426Y-97879853D01*
X157528665Y-97935000D01*
X157811335Y-97935000D01*
X158088574Y-97879853D01*
X158349727Y-97771680D01*
X158584759Y-97614637D01*
X158784637Y-97414759D01*
X158941680Y-97179727D01*
X159049853Y-96918574D01*
X159105000Y-96641335D01*
X159105000Y-96358665D01*
X163855000Y-96358665D01*
X163855000Y-96641335D01*
X163910147Y-96918574D01*
X164018320Y-97179727D01*
X164175363Y-97414759D01*
X164375241Y-97614637D01*
X164610273Y-97771680D01*
X164871426Y-97879853D01*
X165148665Y-97935000D01*
X165431335Y-97935000D01*
X165708574Y-97879853D01*
X165969727Y-97771680D01*
X166204759Y-97614637D01*
X166404637Y-97414759D01*
X166561680Y-97179727D01*
X166669853Y-96918574D01*
X166725000Y-96641335D01*
X166725000Y-96358665D01*
X166669853Y-96081426D01*
X166561680Y-95820273D01*
X166404637Y-95585241D01*
X166204759Y-95385363D01*
X165969727Y-95228320D01*
X165708574Y-95120147D01*
X165431335Y-95065000D01*
X165148665Y-95065000D01*
X164871426Y-95120147D01*
X164610273Y-95228320D01*
X164375241Y-95385363D01*
X164175363Y-95585241D01*
X164018320Y-95820273D01*
X163910147Y-96081426D01*
X163855000Y-96358665D01*
X159105000Y-96358665D01*
X159049853Y-96081426D01*
X158941680Y-95820273D01*
X158784637Y-95585241D01*
X158584759Y-95385363D01*
X158349727Y-95228320D01*
X158088574Y-95120147D01*
X157811335Y-95065000D01*
X157528665Y-95065000D01*
X157251426Y-95120147D01*
X156990273Y-95228320D01*
X156755241Y-95385363D01*
X156555363Y-95585241D01*
X156398320Y-95820273D01*
X156290147Y-96081426D01*
X156235000Y-96358665D01*
X52660000Y-96358665D01*
X52660000Y-77000000D01*
X59610719Y-77000000D01*
X59615000Y-77043469D01*
X59615001Y-81956521D01*
X59610719Y-82000000D01*
X59627805Y-82173490D01*
X59678412Y-82340313D01*
X59760590Y-82494059D01*
X59843468Y-82595046D01*
X59843471Y-82595049D01*
X59871184Y-82628817D01*
X59904951Y-82656529D01*
X60843470Y-83595049D01*
X60871183Y-83628817D01*
X60904951Y-83656530D01*
X60904953Y-83656532D01*
X61005941Y-83739411D01*
X61159686Y-83821589D01*
X61326510Y-83872195D01*
X61456523Y-83885000D01*
X61456531Y-83885000D01*
X61500000Y-83889281D01*
X61543469Y-83885000D01*
X64206531Y-83885000D01*
X64250000Y-83889281D01*
X64293469Y-83885000D01*
X64293477Y-83885000D01*
X64423490Y-83872195D01*
X64590313Y-83821589D01*
X64744059Y-83739411D01*
X64878817Y-83628817D01*
X64906534Y-83595044D01*
X65558181Y-82943397D01*
X161076208Y-82943397D01*
X161153843Y-83192472D01*
X161417883Y-83318371D01*
X161701411Y-83390339D01*
X161993531Y-83405611D01*
X162283019Y-83363599D01*
X162558747Y-83265919D01*
X162696157Y-83192472D01*
X162773792Y-82943397D01*
X161925000Y-82094605D01*
X161076208Y-82943397D01*
X65558181Y-82943397D01*
X66518047Y-81983531D01*
X160434389Y-81983531D01*
X160476401Y-82273019D01*
X160574081Y-82548747D01*
X160647528Y-82686157D01*
X160896603Y-82763792D01*
X161745395Y-81915000D01*
X162104605Y-81915000D01*
X162953397Y-82763792D01*
X163202472Y-82686157D01*
X163328371Y-82422117D01*
X163400339Y-82138589D01*
X163415611Y-81846469D01*
X163404331Y-81768740D01*
X166940000Y-81768740D01*
X166940000Y-82061260D01*
X166997068Y-82348158D01*
X167109010Y-82618411D01*
X167271525Y-82861632D01*
X167478368Y-83068475D01*
X167721589Y-83230990D01*
X167991842Y-83342932D01*
X168278740Y-83400000D01*
X168571260Y-83400000D01*
X168858158Y-83342932D01*
X169128411Y-83230990D01*
X169371632Y-83068475D01*
X169578475Y-82861632D01*
X169740990Y-82618411D01*
X169852932Y-82348158D01*
X169910000Y-82061260D01*
X169910000Y-81768740D01*
X169852932Y-81481842D01*
X169740990Y-81211589D01*
X169578475Y-80968368D01*
X169371632Y-80761525D01*
X169128411Y-80599010D01*
X168858158Y-80487068D01*
X168571260Y-80430000D01*
X168278740Y-80430000D01*
X167991842Y-80487068D01*
X167721589Y-80599010D01*
X167478368Y-80761525D01*
X167271525Y-80968368D01*
X167109010Y-81211589D01*
X166997068Y-81481842D01*
X166940000Y-81768740D01*
X163404331Y-81768740D01*
X163373599Y-81556981D01*
X163275919Y-81281253D01*
X163202472Y-81143843D01*
X162953397Y-81066208D01*
X162104605Y-81915000D01*
X161745395Y-81915000D01*
X160896603Y-81066208D01*
X160647528Y-81143843D01*
X160521629Y-81407883D01*
X160449661Y-81691411D01*
X160434389Y-81983531D01*
X66518047Y-81983531D01*
X67866579Y-80635000D01*
X95456531Y-80635000D01*
X95500000Y-80639281D01*
X95543469Y-80635000D01*
X95543477Y-80635000D01*
X95673490Y-80622195D01*
X95840313Y-80571589D01*
X95994059Y-80489411D01*
X96128817Y-80378817D01*
X96156534Y-80345044D01*
X103965000Y-72536579D01*
X103965000Y-72601939D01*
X104004774Y-72801898D01*
X104082795Y-72990256D01*
X104115000Y-73038454D01*
X104115001Y-77314523D01*
X104110719Y-77358002D01*
X104127805Y-77531492D01*
X104178412Y-77698315D01*
X104260590Y-77852061D01*
X104343468Y-77953048D01*
X104343471Y-77953051D01*
X104371184Y-77986819D01*
X104404951Y-78014531D01*
X107298938Y-80908519D01*
X107332795Y-80990256D01*
X107446063Y-81159774D01*
X107590226Y-81303937D01*
X107759744Y-81417205D01*
X107948102Y-81495226D01*
X108148061Y-81535000D01*
X108351939Y-81535000D01*
X108551898Y-81495226D01*
X108740256Y-81417205D01*
X108909774Y-81303937D01*
X109053937Y-81159774D01*
X109167205Y-80990256D01*
X109210139Y-80886603D01*
X161076208Y-80886603D01*
X161925000Y-81735395D01*
X162773792Y-80886603D01*
X162696157Y-80637528D01*
X162432117Y-80511629D01*
X162148589Y-80439661D01*
X161856469Y-80424389D01*
X161566981Y-80466401D01*
X161291253Y-80564081D01*
X161153843Y-80637528D01*
X161076208Y-80886603D01*
X109210139Y-80886603D01*
X109245226Y-80801898D01*
X109285000Y-80601939D01*
X109285000Y-80398061D01*
X109245226Y-80198102D01*
X109167205Y-80009744D01*
X109110581Y-79925000D01*
X109167205Y-79840256D01*
X109245226Y-79651898D01*
X109285000Y-79451939D01*
X109285000Y-79248061D01*
X109245226Y-79048102D01*
X109167205Y-78859744D01*
X109053937Y-78690226D01*
X108909774Y-78546063D01*
X108740256Y-78432795D01*
X108551898Y-78354774D01*
X108495044Y-78343465D01*
X107420319Y-77268740D01*
X160440000Y-77268740D01*
X160440000Y-77561260D01*
X160497068Y-77848158D01*
X160609010Y-78118411D01*
X160771525Y-78361632D01*
X160978368Y-78568475D01*
X161221589Y-78730990D01*
X161491842Y-78842932D01*
X161778740Y-78900000D01*
X162071260Y-78900000D01*
X162358158Y-78842932D01*
X162628411Y-78730990D01*
X162871632Y-78568475D01*
X163078475Y-78361632D01*
X163240990Y-78118411D01*
X163352932Y-77848158D01*
X163410000Y-77561260D01*
X163410000Y-77268740D01*
X166940000Y-77268740D01*
X166940000Y-77561260D01*
X166997068Y-77848158D01*
X167109010Y-78118411D01*
X167271525Y-78361632D01*
X167478368Y-78568475D01*
X167721589Y-78730990D01*
X167991842Y-78842932D01*
X168278740Y-78900000D01*
X168571260Y-78900000D01*
X168858158Y-78842932D01*
X169128411Y-78730990D01*
X169371632Y-78568475D01*
X169578475Y-78361632D01*
X169740990Y-78118411D01*
X169852932Y-77848158D01*
X169910000Y-77561260D01*
X169910000Y-77268740D01*
X169852932Y-76981842D01*
X169740990Y-76711589D01*
X169578475Y-76468368D01*
X169371632Y-76261525D01*
X169128411Y-76099010D01*
X168858158Y-75987068D01*
X168571260Y-75930000D01*
X168278740Y-75930000D01*
X167991842Y-75987068D01*
X167721589Y-76099010D01*
X167478368Y-76261525D01*
X167271525Y-76468368D01*
X167109010Y-76711589D01*
X166997068Y-76981842D01*
X166940000Y-77268740D01*
X163410000Y-77268740D01*
X163352932Y-76981842D01*
X163240990Y-76711589D01*
X163078475Y-76468368D01*
X162871632Y-76261525D01*
X162628411Y-76099010D01*
X162358158Y-75987068D01*
X162071260Y-75930000D01*
X161778740Y-75930000D01*
X161491842Y-75987068D01*
X161221589Y-76099010D01*
X160978368Y-76261525D01*
X160771525Y-76468368D01*
X160609010Y-76711589D01*
X160497068Y-76981842D01*
X160440000Y-77268740D01*
X107420319Y-77268740D01*
X107385000Y-77233422D01*
X107385000Y-73038454D01*
X107417205Y-72990256D01*
X107495226Y-72801898D01*
X107535000Y-72601939D01*
X107535000Y-72398061D01*
X107495226Y-72198102D01*
X107417205Y-72009744D01*
X107303937Y-71840226D01*
X107159774Y-71696063D01*
X106990256Y-71582795D01*
X106801898Y-71504774D01*
X106601939Y-71465000D01*
X106398061Y-71465000D01*
X106198102Y-71504774D01*
X106009744Y-71582795D01*
X105840226Y-71696063D01*
X105750000Y-71786289D01*
X105659774Y-71696063D01*
X105490256Y-71582795D01*
X105301898Y-71504774D01*
X105101939Y-71465000D01*
X105036579Y-71465000D01*
X108516578Y-67985001D01*
X109520911Y-67985001D01*
X109494774Y-68048102D01*
X109455000Y-68248061D01*
X109455000Y-68451939D01*
X109494774Y-68651898D01*
X109572795Y-68840256D01*
X109686063Y-69009774D01*
X109830226Y-69153937D01*
X109999744Y-69267205D01*
X110188102Y-69345226D01*
X110388061Y-69385000D01*
X110531522Y-69385000D01*
X110554774Y-69501898D01*
X110632795Y-69690256D01*
X110746063Y-69859774D01*
X110890226Y-70003937D01*
X111059744Y-70117205D01*
X111248102Y-70195226D01*
X111448061Y-70235000D01*
X111651939Y-70235000D01*
X111851898Y-70195226D01*
X112040256Y-70117205D01*
X112088454Y-70085000D01*
X117296289Y-70085000D01*
X117340226Y-70128937D01*
X117509744Y-70242205D01*
X117698102Y-70320226D01*
X117898061Y-70360000D01*
X118101939Y-70360000D01*
X118301898Y-70320226D01*
X118490256Y-70242205D01*
X118659774Y-70128937D01*
X118803937Y-69984774D01*
X118917205Y-69815256D01*
X118995226Y-69626898D01*
X119029484Y-69454665D01*
X125565000Y-69454665D01*
X125565000Y-69737335D01*
X125620147Y-70014574D01*
X125728320Y-70275727D01*
X125885363Y-70510759D01*
X126085241Y-70710637D01*
X126320273Y-70867680D01*
X126581426Y-70975853D01*
X126858665Y-71031000D01*
X127141335Y-71031000D01*
X127418574Y-70975853D01*
X127679727Y-70867680D01*
X127914759Y-70710637D01*
X128114637Y-70510759D01*
X128271680Y-70275727D01*
X128379853Y-70014574D01*
X128435000Y-69737335D01*
X128435000Y-69454665D01*
X128379853Y-69177426D01*
X128271680Y-68916273D01*
X128114637Y-68681241D01*
X127914759Y-68481363D01*
X127679727Y-68324320D01*
X127418574Y-68216147D01*
X127141335Y-68161000D01*
X126858665Y-68161000D01*
X126581426Y-68216147D01*
X126320273Y-68324320D01*
X126085241Y-68481363D01*
X125885363Y-68681241D01*
X125728320Y-68916273D01*
X125620147Y-69177426D01*
X125565000Y-69454665D01*
X119029484Y-69454665D01*
X119035000Y-69426939D01*
X119035000Y-69235000D01*
X120956533Y-69235000D01*
X121000002Y-69239281D01*
X121043471Y-69235000D01*
X121043479Y-69235000D01*
X121173492Y-69222195D01*
X121340315Y-69171589D01*
X121494061Y-69089411D01*
X121628819Y-68978817D01*
X121656536Y-68945044D01*
X125012878Y-65588702D01*
X126186903Y-65588702D01*
X126258486Y-65832671D01*
X126513996Y-65953571D01*
X126788184Y-66022300D01*
X127070512Y-66036217D01*
X127350130Y-65994787D01*
X127616292Y-65899603D01*
X127741514Y-65832671D01*
X127813097Y-65588702D01*
X127000000Y-64775605D01*
X126186903Y-65588702D01*
X125012878Y-65588702D01*
X125615500Y-64986081D01*
X125696397Y-65212292D01*
X125763329Y-65337514D01*
X126007298Y-65409097D01*
X126820395Y-64596000D01*
X127179605Y-64596000D01*
X127992702Y-65409097D01*
X128236671Y-65337514D01*
X128357571Y-65082004D01*
X128426300Y-64807816D01*
X128440217Y-64525488D01*
X128398787Y-64245870D01*
X128303603Y-63979708D01*
X128236671Y-63854486D01*
X127992702Y-63782903D01*
X127179605Y-64596000D01*
X126820395Y-64596000D01*
X126007298Y-63782903D01*
X125980000Y-63790913D01*
X125980000Y-63603298D01*
X126186903Y-63603298D01*
X127000000Y-64416395D01*
X127813097Y-63603298D01*
X127741514Y-63359329D01*
X127486004Y-63238429D01*
X127211816Y-63169700D01*
X126929488Y-63155783D01*
X126649870Y-63197213D01*
X126383708Y-63292397D01*
X126258486Y-63359329D01*
X126186903Y-63603298D01*
X125980000Y-63603298D01*
X125980000Y-63231578D01*
X126096579Y-63115000D01*
X169501531Y-63115000D01*
X169545000Y-63119281D01*
X169588469Y-63115000D01*
X169588477Y-63115000D01*
X169718490Y-63102195D01*
X169885313Y-63051589D01*
X170039059Y-62969411D01*
X170173817Y-62858817D01*
X170201534Y-62825044D01*
X170775049Y-62251530D01*
X170808817Y-62223817D01*
X170919411Y-62089059D01*
X170943810Y-62043411D01*
X171001589Y-61935314D01*
X171052195Y-61768490D01*
X171055401Y-61735941D01*
X171065000Y-61638477D01*
X171065000Y-61638469D01*
X171069281Y-61595000D01*
X171065000Y-61551531D01*
X171065000Y-54653469D01*
X171069281Y-54610000D01*
X171065000Y-54566531D01*
X171065000Y-54566523D01*
X171052195Y-54436510D01*
X171009632Y-54296201D01*
X171001589Y-54269686D01*
X170919411Y-54115941D01*
X170836532Y-54014953D01*
X170836530Y-54014951D01*
X170808817Y-53981183D01*
X170775050Y-53953471D01*
X170201534Y-53379956D01*
X170173817Y-53346183D01*
X170039059Y-53235589D01*
X169885313Y-53153411D01*
X169718490Y-53102805D01*
X169588477Y-53090000D01*
X169588469Y-53090000D01*
X169545000Y-53085719D01*
X169501531Y-53090000D01*
X169178072Y-53090000D01*
X169178072Y-53075000D01*
X169165812Y-52950518D01*
X169129502Y-52830820D01*
X169070537Y-52720506D01*
X168991185Y-52623815D01*
X168894494Y-52544463D01*
X168784180Y-52485498D01*
X168664482Y-52449188D01*
X168540000Y-52436928D01*
X166740000Y-52436928D01*
X166615518Y-52449188D01*
X166495820Y-52485498D01*
X166385506Y-52544463D01*
X166288815Y-52623815D01*
X166209463Y-52720506D01*
X166150498Y-52830820D01*
X166144944Y-52849127D01*
X166078505Y-52782688D01*
X165827095Y-52614701D01*
X165547743Y-52498989D01*
X165251184Y-52440000D01*
X164948816Y-52440000D01*
X164652257Y-52498989D01*
X164372905Y-52614701D01*
X164121495Y-52782688D01*
X163907688Y-52996495D01*
X163845210Y-53090000D01*
X161154521Y-53090000D01*
X161134637Y-53060241D01*
X160934759Y-52860363D01*
X160699727Y-52703320D01*
X160438574Y-52595147D01*
X160161335Y-52540000D01*
X159878665Y-52540000D01*
X159601426Y-52595147D01*
X159340273Y-52703320D01*
X159105241Y-52860363D01*
X158905363Y-53060241D01*
X158748320Y-53295273D01*
X158640147Y-53556426D01*
X158585000Y-53833665D01*
X158585000Y-54116335D01*
X158640147Y-54393574D01*
X158748320Y-54654727D01*
X158905363Y-54889759D01*
X159105241Y-55089637D01*
X159340273Y-55246680D01*
X159601426Y-55354853D01*
X159878665Y-55410000D01*
X160161335Y-55410000D01*
X160438574Y-55354853D01*
X160699727Y-55246680D01*
X160934759Y-55089637D01*
X161134637Y-54889759D01*
X161154521Y-54860000D01*
X163845210Y-54860000D01*
X163907688Y-54953505D01*
X164121495Y-55167312D01*
X164372905Y-55335299D01*
X164652257Y-55451011D01*
X164948816Y-55510000D01*
X165251184Y-55510000D01*
X165547743Y-55451011D01*
X165827095Y-55335299D01*
X166078505Y-55167312D01*
X166144944Y-55100873D01*
X166150498Y-55119180D01*
X166209463Y-55229494D01*
X166288815Y-55326185D01*
X166385506Y-55405537D01*
X166495820Y-55464502D01*
X166615518Y-55500812D01*
X166740000Y-55513072D01*
X168540000Y-55513072D01*
X168664482Y-55500812D01*
X168784180Y-55464502D01*
X168894494Y-55405537D01*
X168991185Y-55326185D01*
X169070537Y-55229494D01*
X169129502Y-55119180D01*
X169165812Y-54999482D01*
X169178072Y-54875000D01*
X169178072Y-54860000D01*
X169178422Y-54860000D01*
X169295000Y-54976579D01*
X169295001Y-61228420D01*
X169178422Y-61345000D01*
X125773469Y-61345000D01*
X125730000Y-61340719D01*
X125686531Y-61345000D01*
X125686523Y-61345000D01*
X125556510Y-61357805D01*
X125389686Y-61408411D01*
X125235941Y-61490589D01*
X125134953Y-61573468D01*
X125134951Y-61573470D01*
X125101183Y-61601183D01*
X125073470Y-61634951D01*
X124499956Y-62208466D01*
X124466183Y-62236183D01*
X124355589Y-62370942D01*
X124273411Y-62524688D01*
X124222805Y-62691511D01*
X124210000Y-62821524D01*
X124210000Y-62821531D01*
X124205719Y-62865000D01*
X124210000Y-62908470D01*
X124210001Y-63750661D01*
X123992702Y-63686903D01*
X123179605Y-64500000D01*
X123193748Y-64514143D01*
X123014143Y-64693748D01*
X123000000Y-64679605D01*
X122186903Y-65492702D01*
X122258486Y-65736671D01*
X122328584Y-65769839D01*
X120633424Y-67465000D01*
X117544580Y-67465000D01*
X117845045Y-67164535D01*
X117878817Y-67136819D01*
X117989411Y-67002061D01*
X118021288Y-66942423D01*
X118053937Y-66909774D01*
X118167205Y-66740256D01*
X118245226Y-66551898D01*
X118285000Y-66351939D01*
X118285000Y-66148061D01*
X118245226Y-65948102D01*
X118167205Y-65759744D01*
X118053937Y-65590226D01*
X117909774Y-65446063D01*
X117740256Y-65332795D01*
X117551898Y-65254774D01*
X117351939Y-65215000D01*
X117148061Y-65215000D01*
X116948102Y-65254774D01*
X116759744Y-65332795D01*
X116750000Y-65339306D01*
X116740256Y-65332795D01*
X116551898Y-65254774D01*
X116351939Y-65215000D01*
X116148061Y-65215000D01*
X115948102Y-65254774D01*
X115759744Y-65332795D01*
X115711546Y-65365000D01*
X107793465Y-65365000D01*
X107749999Y-65360719D01*
X107706533Y-65365000D01*
X107706523Y-65365000D01*
X107576510Y-65377805D01*
X107409687Y-65428411D01*
X107255941Y-65510589D01*
X107255939Y-65510590D01*
X107255940Y-65510590D01*
X107154953Y-65593468D01*
X107154951Y-65593470D01*
X107121183Y-65621183D01*
X107093470Y-65654951D01*
X94893422Y-77855000D01*
X64375059Y-77855000D01*
X64269987Y-77697748D01*
X64042252Y-77470013D01*
X64042233Y-77470000D01*
X64042252Y-77469987D01*
X64269987Y-77242252D01*
X64448918Y-76974463D01*
X64572168Y-76676912D01*
X64635000Y-76361033D01*
X64635000Y-76038967D01*
X64572168Y-75723088D01*
X64448918Y-75425537D01*
X64308370Y-75215191D01*
X64354494Y-75190537D01*
X64451185Y-75111185D01*
X64530537Y-75014494D01*
X64589502Y-74904180D01*
X64625812Y-74784482D01*
X64638072Y-74660000D01*
X64635000Y-73945750D01*
X64476250Y-73787000D01*
X63127000Y-73787000D01*
X63127000Y-73807000D01*
X62873000Y-73807000D01*
X62873000Y-73787000D01*
X61523750Y-73787000D01*
X61365000Y-73945750D01*
X61361928Y-74660000D01*
X61374188Y-74784482D01*
X61410498Y-74904180D01*
X61469463Y-75014494D01*
X61548815Y-75111185D01*
X61645506Y-75190537D01*
X61691630Y-75215191D01*
X61624941Y-75315000D01*
X61343469Y-75315000D01*
X61300000Y-75310719D01*
X61256531Y-75315000D01*
X61256523Y-75315000D01*
X61126510Y-75327805D01*
X60959687Y-75378411D01*
X60805941Y-75460589D01*
X60704953Y-75543468D01*
X60704951Y-75543470D01*
X60671183Y-75571183D01*
X60643470Y-75604951D01*
X59904956Y-76343466D01*
X59871183Y-76371183D01*
X59760589Y-76505942D01*
X59678411Y-76659688D01*
X59627805Y-76826511D01*
X59615000Y-76956524D01*
X59615000Y-76956531D01*
X59610719Y-77000000D01*
X52660000Y-77000000D01*
X52660000Y-72660000D01*
X61361928Y-72660000D01*
X61365000Y-73374250D01*
X61523750Y-73533000D01*
X62873000Y-73533000D01*
X62873000Y-72183750D01*
X63127000Y-72183750D01*
X63127000Y-73533000D01*
X64476250Y-73533000D01*
X64490585Y-73518665D01*
X78445000Y-73518665D01*
X78445000Y-73801335D01*
X78500147Y-74078574D01*
X78608320Y-74339727D01*
X78765363Y-74574759D01*
X78965241Y-74774637D01*
X79200273Y-74931680D01*
X79461426Y-75039853D01*
X79738665Y-75095000D01*
X80021335Y-75095000D01*
X80298574Y-75039853D01*
X80559727Y-74931680D01*
X80794759Y-74774637D01*
X80994637Y-74574759D01*
X81151680Y-74339727D01*
X81259853Y-74078574D01*
X81315000Y-73801335D01*
X81315000Y-73518665D01*
X86065000Y-73518665D01*
X86065000Y-73801335D01*
X86120147Y-74078574D01*
X86228320Y-74339727D01*
X86385363Y-74574759D01*
X86585241Y-74774637D01*
X86820273Y-74931680D01*
X87081426Y-75039853D01*
X87358665Y-75095000D01*
X87641335Y-75095000D01*
X87918574Y-75039853D01*
X88179727Y-74931680D01*
X88414759Y-74774637D01*
X88614637Y-74574759D01*
X88771680Y-74339727D01*
X88879853Y-74078574D01*
X88935000Y-73801335D01*
X88935000Y-73518665D01*
X89370000Y-73518665D01*
X89370000Y-73801335D01*
X89425147Y-74078574D01*
X89533320Y-74339727D01*
X89690363Y-74574759D01*
X89890241Y-74774637D01*
X90125273Y-74931680D01*
X90386426Y-75039853D01*
X90663665Y-75095000D01*
X90946335Y-75095000D01*
X91223574Y-75039853D01*
X91484727Y-74931680D01*
X91719759Y-74774637D01*
X91919637Y-74574759D01*
X92076680Y-74339727D01*
X92184853Y-74078574D01*
X92240000Y-73801335D01*
X92240000Y-73518665D01*
X92184853Y-73241426D01*
X92076680Y-72980273D01*
X91919637Y-72745241D01*
X91719759Y-72545363D01*
X91484727Y-72388320D01*
X91223574Y-72280147D01*
X90946335Y-72225000D01*
X90663665Y-72225000D01*
X90386426Y-72280147D01*
X90125273Y-72388320D01*
X89890241Y-72545363D01*
X89690363Y-72745241D01*
X89533320Y-72980273D01*
X89425147Y-73241426D01*
X89370000Y-73518665D01*
X88935000Y-73518665D01*
X88879853Y-73241426D01*
X88771680Y-72980273D01*
X88614637Y-72745241D01*
X88414759Y-72545363D01*
X88179727Y-72388320D01*
X87918574Y-72280147D01*
X87641335Y-72225000D01*
X87358665Y-72225000D01*
X87081426Y-72280147D01*
X86820273Y-72388320D01*
X86585241Y-72545363D01*
X86385363Y-72745241D01*
X86228320Y-72980273D01*
X86120147Y-73241426D01*
X86065000Y-73518665D01*
X81315000Y-73518665D01*
X81259853Y-73241426D01*
X81151680Y-72980273D01*
X80994637Y-72745241D01*
X80794759Y-72545363D01*
X80559727Y-72388320D01*
X80298574Y-72280147D01*
X80021335Y-72225000D01*
X79738665Y-72225000D01*
X79461426Y-72280147D01*
X79200273Y-72388320D01*
X78965241Y-72545363D01*
X78765363Y-72745241D01*
X78608320Y-72980273D01*
X78500147Y-73241426D01*
X78445000Y-73518665D01*
X64490585Y-73518665D01*
X64635000Y-73374250D01*
X64638072Y-72660000D01*
X64625812Y-72535518D01*
X64589502Y-72415820D01*
X64530537Y-72305506D01*
X64451185Y-72208815D01*
X64354494Y-72129463D01*
X64244180Y-72070498D01*
X64124482Y-72034188D01*
X64000000Y-72021928D01*
X63285750Y-72025000D01*
X63127000Y-72183750D01*
X62873000Y-72183750D01*
X62714250Y-72025000D01*
X62000000Y-72021928D01*
X61875518Y-72034188D01*
X61755820Y-72070498D01*
X61645506Y-72129463D01*
X61548815Y-72208815D01*
X61469463Y-72305506D01*
X61410498Y-72415820D01*
X61374188Y-72535518D01*
X61361928Y-72660000D01*
X52660000Y-72660000D01*
X52660000Y-69572702D01*
X83006903Y-69572702D01*
X83078486Y-69816671D01*
X83333996Y-69937571D01*
X83608184Y-70006300D01*
X83890512Y-70020217D01*
X84170130Y-69978787D01*
X84436292Y-69883603D01*
X84561514Y-69816671D01*
X84609624Y-69652702D01*
X89991903Y-69652702D01*
X90063486Y-69896671D01*
X90318996Y-70017571D01*
X90593184Y-70086300D01*
X90875512Y-70100217D01*
X91155130Y-70058787D01*
X91421292Y-69963603D01*
X91546514Y-69896671D01*
X91618097Y-69652702D01*
X90805000Y-68839605D01*
X89991903Y-69652702D01*
X84609624Y-69652702D01*
X84633097Y-69572702D01*
X83820000Y-68759605D01*
X83006903Y-69572702D01*
X52660000Y-69572702D01*
X52660000Y-68650512D01*
X82379783Y-68650512D01*
X82421213Y-68930130D01*
X82516397Y-69196292D01*
X82583329Y-69321514D01*
X82827298Y-69393097D01*
X83640395Y-68580000D01*
X83999605Y-68580000D01*
X84812702Y-69393097D01*
X85056671Y-69321514D01*
X85177571Y-69066004D01*
X85246300Y-68791816D01*
X85249321Y-68730512D01*
X89364783Y-68730512D01*
X89406213Y-69010130D01*
X89501397Y-69276292D01*
X89568329Y-69401514D01*
X89812298Y-69473097D01*
X90625395Y-68660000D01*
X90984605Y-68660000D01*
X91797702Y-69473097D01*
X92041671Y-69401514D01*
X92162571Y-69146004D01*
X92231300Y-68871816D01*
X92245217Y-68589488D01*
X92203787Y-68309870D01*
X92108603Y-68043708D01*
X92041671Y-67918486D01*
X91797702Y-67846903D01*
X90984605Y-68660000D01*
X90625395Y-68660000D01*
X89812298Y-67846903D01*
X89568329Y-67918486D01*
X89447429Y-68173996D01*
X89378700Y-68448184D01*
X89364783Y-68730512D01*
X85249321Y-68730512D01*
X85260217Y-68509488D01*
X85218787Y-68229870D01*
X85123603Y-67963708D01*
X85056671Y-67838486D01*
X84812702Y-67766903D01*
X83999605Y-68580000D01*
X83640395Y-68580000D01*
X82827298Y-67766903D01*
X82583329Y-67838486D01*
X82462429Y-68093996D01*
X82393700Y-68368184D01*
X82379783Y-68650512D01*
X52660000Y-68650512D01*
X52660000Y-65150434D01*
X61909876Y-65150434D01*
X61966498Y-65337107D01*
X62106601Y-65625382D01*
X62300252Y-65880785D01*
X62540008Y-66093501D01*
X62816656Y-66255356D01*
X63119565Y-66360129D01*
X63373000Y-66241315D01*
X63373000Y-64897000D01*
X63627000Y-64897000D01*
X63627000Y-66241315D01*
X63880435Y-66360129D01*
X64183344Y-66255356D01*
X64459992Y-66093501D01*
X64699748Y-65880785D01*
X64893399Y-65625382D01*
X65033502Y-65337107D01*
X65050823Y-65280000D01*
X82381928Y-65280000D01*
X82381928Y-66880000D01*
X82394188Y-67004482D01*
X82430498Y-67124180D01*
X82489463Y-67234494D01*
X82568815Y-67331185D01*
X82665506Y-67410537D01*
X82775820Y-67469502D01*
X82895518Y-67505812D01*
X83020000Y-67518072D01*
X83027215Y-67518072D01*
X83006903Y-67587298D01*
X83820000Y-68400395D01*
X84553097Y-67667298D01*
X89991903Y-67667298D01*
X90805000Y-68480395D01*
X91618097Y-67667298D01*
X91546514Y-67423329D01*
X91291004Y-67302429D01*
X91016816Y-67233700D01*
X90734488Y-67219783D01*
X90454870Y-67261213D01*
X90188708Y-67356397D01*
X90063486Y-67423329D01*
X89991903Y-67667298D01*
X84553097Y-67667298D01*
X84633097Y-67587298D01*
X84612785Y-67518072D01*
X84620000Y-67518072D01*
X84744482Y-67505812D01*
X84864180Y-67469502D01*
X84974494Y-67410537D01*
X85071185Y-67331185D01*
X85150537Y-67234494D01*
X85209502Y-67124180D01*
X85245812Y-67004482D01*
X85258072Y-66880000D01*
X85258072Y-65280000D01*
X85245812Y-65155518D01*
X85209502Y-65035820D01*
X85150537Y-64925506D01*
X85071185Y-64828815D01*
X84974494Y-64749463D01*
X84864180Y-64690498D01*
X84744482Y-64654188D01*
X84620000Y-64641928D01*
X83020000Y-64641928D01*
X82895518Y-64654188D01*
X82775820Y-64690498D01*
X82665506Y-64749463D01*
X82568815Y-64828815D01*
X82489463Y-64925506D01*
X82430498Y-65035820D01*
X82394188Y-65155518D01*
X82381928Y-65280000D01*
X65050823Y-65280000D01*
X65090124Y-65150434D01*
X64970777Y-64897000D01*
X63627000Y-64897000D01*
X63373000Y-64897000D01*
X62029223Y-64897000D01*
X61909876Y-65150434D01*
X52660000Y-65150434D01*
X52660000Y-50863578D01*
X54461470Y-52665049D01*
X54489183Y-52698817D01*
X54522951Y-52726530D01*
X54522953Y-52726532D01*
X54591379Y-52782688D01*
X54623941Y-52809411D01*
X54777687Y-52891589D01*
X54944510Y-52942195D01*
X55074523Y-52955000D01*
X55074533Y-52955000D01*
X55117999Y-52959281D01*
X55161465Y-52955000D01*
X61861928Y-52955000D01*
X61861928Y-53070000D01*
X61874188Y-53194482D01*
X61910498Y-53314180D01*
X61969463Y-53424494D01*
X62048815Y-53521185D01*
X62145506Y-53600537D01*
X62191630Y-53625191D01*
X62051082Y-53835537D01*
X61927832Y-54133088D01*
X61865000Y-54448967D01*
X61865000Y-54771033D01*
X61927832Y-55086912D01*
X62051082Y-55384463D01*
X62230013Y-55652252D01*
X62457748Y-55879987D01*
X62457767Y-55880000D01*
X62457748Y-55880013D01*
X62230013Y-56107748D01*
X62051082Y-56375537D01*
X61927832Y-56673088D01*
X61865000Y-56988967D01*
X61865000Y-57311033D01*
X61927832Y-57626912D01*
X62051082Y-57924463D01*
X62230013Y-58192252D01*
X62457748Y-58419987D01*
X62457767Y-58420000D01*
X62457748Y-58420013D01*
X62230013Y-58647748D01*
X62051082Y-58915537D01*
X61927832Y-59213088D01*
X61865000Y-59528967D01*
X61865000Y-59851033D01*
X61927832Y-60166912D01*
X62051082Y-60464463D01*
X62230013Y-60732252D01*
X62457748Y-60959987D01*
X62457767Y-60960000D01*
X62457748Y-60960013D01*
X62230013Y-61187748D01*
X62051082Y-61455537D01*
X61927832Y-61753088D01*
X61865000Y-62068967D01*
X61865000Y-62391033D01*
X61927832Y-62706912D01*
X62051082Y-63004463D01*
X62230013Y-63272252D01*
X62457748Y-63499987D01*
X62470282Y-63508362D01*
X62300252Y-63659215D01*
X62106601Y-63914618D01*
X61966498Y-64202893D01*
X61909876Y-64389566D01*
X62029223Y-64643000D01*
X63373000Y-64643000D01*
X63373000Y-64623000D01*
X63627000Y-64623000D01*
X63627000Y-64643000D01*
X64970777Y-64643000D01*
X65004913Y-64570512D01*
X121559783Y-64570512D01*
X121601213Y-64850130D01*
X121696397Y-65116292D01*
X121763329Y-65241514D01*
X122007298Y-65313097D01*
X122820395Y-64500000D01*
X122007298Y-63686903D01*
X121763329Y-63758486D01*
X121642429Y-64013996D01*
X121573700Y-64288184D01*
X121559783Y-64570512D01*
X65004913Y-64570512D01*
X65090124Y-64389566D01*
X65033502Y-64202893D01*
X64893399Y-63914618D01*
X64699748Y-63659215D01*
X64529718Y-63508362D01*
X64531310Y-63507298D01*
X122186903Y-63507298D01*
X123000000Y-64320395D01*
X123813097Y-63507298D01*
X123741514Y-63263329D01*
X123486004Y-63142429D01*
X123211816Y-63073700D01*
X122929488Y-63059783D01*
X122649870Y-63101213D01*
X122383708Y-63196397D01*
X122258486Y-63263329D01*
X122186903Y-63507298D01*
X64531310Y-63507298D01*
X64542252Y-63499987D01*
X64769987Y-63272252D01*
X64948918Y-63004463D01*
X65072168Y-62706912D01*
X65135000Y-62391033D01*
X65135000Y-62068967D01*
X65072168Y-61753088D01*
X64948918Y-61455537D01*
X64769987Y-61187748D01*
X64542252Y-60960013D01*
X64542233Y-60960000D01*
X64542252Y-60959987D01*
X64769987Y-60732252D01*
X64948918Y-60464463D01*
X65072168Y-60166912D01*
X65135000Y-59851033D01*
X65135000Y-59528967D01*
X65101125Y-59358665D01*
X121565000Y-59358665D01*
X121565000Y-59641335D01*
X121620147Y-59918574D01*
X121728320Y-60179727D01*
X121885363Y-60414759D01*
X122085241Y-60614637D01*
X122320273Y-60771680D01*
X122581426Y-60879853D01*
X122858665Y-60935000D01*
X123141335Y-60935000D01*
X123418574Y-60879853D01*
X123679727Y-60771680D01*
X123914759Y-60614637D01*
X124114637Y-60414759D01*
X124271680Y-60179727D01*
X124379853Y-59918574D01*
X124435000Y-59641335D01*
X124435000Y-59358665D01*
X124379853Y-59081426D01*
X124271680Y-58820273D01*
X124114637Y-58585241D01*
X123914759Y-58385363D01*
X123679727Y-58228320D01*
X123418574Y-58120147D01*
X123141335Y-58065000D01*
X122858665Y-58065000D01*
X122581426Y-58120147D01*
X122320273Y-58228320D01*
X122085241Y-58385363D01*
X121885363Y-58585241D01*
X121728320Y-58820273D01*
X121620147Y-59081426D01*
X121565000Y-59358665D01*
X65101125Y-59358665D01*
X65072168Y-59213088D01*
X64948918Y-58915537D01*
X64769987Y-58647748D01*
X64542252Y-58420013D01*
X64542233Y-58420000D01*
X64542252Y-58419987D01*
X64769987Y-58192252D01*
X64948918Y-57924463D01*
X65072168Y-57626912D01*
X65135000Y-57311033D01*
X65135000Y-56988967D01*
X65072168Y-56673088D01*
X64948918Y-56375537D01*
X64769987Y-56107748D01*
X64542252Y-55880013D01*
X64542233Y-55880000D01*
X64542252Y-55879987D01*
X64563574Y-55858665D01*
X101315000Y-55858665D01*
X101315000Y-56141335D01*
X101370147Y-56418574D01*
X101478320Y-56679727D01*
X101635363Y-56914759D01*
X101835241Y-57114637D01*
X102070273Y-57271680D01*
X102331426Y-57379853D01*
X102608665Y-57435000D01*
X102891335Y-57435000D01*
X103168574Y-57379853D01*
X103429727Y-57271680D01*
X103664759Y-57114637D01*
X103864637Y-56914759D01*
X104021680Y-56679727D01*
X104129853Y-56418574D01*
X104185000Y-56141335D01*
X104185000Y-55858665D01*
X104129853Y-55581426D01*
X104021680Y-55320273D01*
X103965097Y-55235589D01*
X110067000Y-55235589D01*
X110067000Y-55508411D01*
X110120225Y-55775989D01*
X110224629Y-56028043D01*
X110376201Y-56254886D01*
X110569114Y-56447799D01*
X110795957Y-56599371D01*
X111048011Y-56703775D01*
X111315589Y-56757000D01*
X111588411Y-56757000D01*
X111855989Y-56703775D01*
X112108043Y-56599371D01*
X112334886Y-56447799D01*
X112527799Y-56254886D01*
X112679371Y-56028043D01*
X112783775Y-55775989D01*
X112837000Y-55508411D01*
X112837000Y-55235589D01*
X114947000Y-55235589D01*
X114947000Y-55508411D01*
X115000225Y-55775989D01*
X115104629Y-56028043D01*
X115256201Y-56254886D01*
X115449114Y-56447799D01*
X115675957Y-56599371D01*
X115928011Y-56703775D01*
X116195589Y-56757000D01*
X116468411Y-56757000D01*
X116735989Y-56703775D01*
X116988043Y-56599371D01*
X117214886Y-56447799D01*
X117407799Y-56254886D01*
X117559371Y-56028043D01*
X117663775Y-55775989D01*
X117717000Y-55508411D01*
X117717000Y-55235589D01*
X117663775Y-54968011D01*
X117559371Y-54715957D01*
X117407799Y-54489114D01*
X117214886Y-54296201D01*
X116988043Y-54144629D01*
X116735989Y-54040225D01*
X116468411Y-53987000D01*
X116195589Y-53987000D01*
X115928011Y-54040225D01*
X115675957Y-54144629D01*
X115449114Y-54296201D01*
X115256201Y-54489114D01*
X115104629Y-54715957D01*
X115000225Y-54968011D01*
X114947000Y-55235589D01*
X112837000Y-55235589D01*
X112783775Y-54968011D01*
X112679371Y-54715957D01*
X112527799Y-54489114D01*
X112334886Y-54296201D01*
X112108043Y-54144629D01*
X111855989Y-54040225D01*
X111588411Y-53987000D01*
X111315589Y-53987000D01*
X111048011Y-54040225D01*
X110795957Y-54144629D01*
X110569114Y-54296201D01*
X110376201Y-54489114D01*
X110224629Y-54715957D01*
X110120225Y-54968011D01*
X110067000Y-55235589D01*
X103965097Y-55235589D01*
X103864637Y-55085241D01*
X103664759Y-54885363D01*
X103429727Y-54728320D01*
X103168574Y-54620147D01*
X102891335Y-54565000D01*
X102608665Y-54565000D01*
X102331426Y-54620147D01*
X102070273Y-54728320D01*
X101835241Y-54885363D01*
X101635363Y-55085241D01*
X101478320Y-55320273D01*
X101370147Y-55581426D01*
X101315000Y-55858665D01*
X64563574Y-55858665D01*
X64769987Y-55652252D01*
X64948918Y-55384463D01*
X65072168Y-55086912D01*
X65135000Y-54771033D01*
X65135000Y-54448967D01*
X65072168Y-54133088D01*
X64948918Y-53835537D01*
X64808370Y-53625191D01*
X64854494Y-53600537D01*
X64951185Y-53521185D01*
X65030537Y-53424494D01*
X65089502Y-53314180D01*
X65125812Y-53194482D01*
X65138072Y-53070000D01*
X65138072Y-51992702D01*
X101936903Y-51992702D01*
X102008486Y-52236671D01*
X102263996Y-52357571D01*
X102538184Y-52426300D01*
X102820512Y-52440217D01*
X103100130Y-52398787D01*
X103366292Y-52303603D01*
X103491514Y-52236671D01*
X103563097Y-51992702D01*
X102750000Y-51179605D01*
X101936903Y-51992702D01*
X65138072Y-51992702D01*
X65138072Y-51070512D01*
X101309783Y-51070512D01*
X101351213Y-51350130D01*
X101446397Y-51616292D01*
X101513329Y-51741514D01*
X101757298Y-51813097D01*
X102570395Y-51000000D01*
X102929605Y-51000000D01*
X103742702Y-51813097D01*
X103986671Y-51741514D01*
X104107571Y-51486004D01*
X104176300Y-51211816D01*
X104190217Y-50929488D01*
X104148787Y-50649870D01*
X104053603Y-50383708D01*
X103986671Y-50258486D01*
X103742702Y-50186903D01*
X102929605Y-51000000D01*
X102570395Y-51000000D01*
X101757298Y-50186903D01*
X101513329Y-50258486D01*
X101392429Y-50513996D01*
X101323700Y-50788184D01*
X101309783Y-51070512D01*
X65138072Y-51070512D01*
X65138072Y-51070000D01*
X65125812Y-50945518D01*
X65089502Y-50825820D01*
X65030537Y-50715506D01*
X64951185Y-50618815D01*
X64854494Y-50539463D01*
X64744180Y-50480498D01*
X64624482Y-50444188D01*
X64500000Y-50431928D01*
X62500000Y-50431928D01*
X62375518Y-50444188D01*
X62255820Y-50480498D01*
X62145506Y-50539463D01*
X62048815Y-50618815D01*
X61969463Y-50715506D01*
X61910498Y-50825820D01*
X61874188Y-50945518D01*
X61861928Y-51070000D01*
X61861928Y-51185000D01*
X55484579Y-51185000D01*
X54347645Y-50048066D01*
X54388413Y-50007298D01*
X101936903Y-50007298D01*
X102750000Y-50820395D01*
X103563097Y-50007298D01*
X103491514Y-49763329D01*
X103236004Y-49642429D01*
X102961816Y-49573700D01*
X102679488Y-49559783D01*
X102399870Y-49601213D01*
X102133708Y-49696397D01*
X102008486Y-49763329D01*
X101936903Y-50007298D01*
X54388413Y-50007298D01*
X54485937Y-49909774D01*
X54599205Y-49740256D01*
X54677226Y-49551898D01*
X54717000Y-49351939D01*
X54717000Y-49148061D01*
X54677226Y-48948102D01*
X54599205Y-48759744D01*
X54567000Y-48711546D01*
X54567000Y-41976521D01*
X55180979Y-41976521D01*
X55180979Y-42423479D01*
X55268176Y-42861849D01*
X55439220Y-43274785D01*
X55687536Y-43646417D01*
X56003583Y-43962464D01*
X56375215Y-44210780D01*
X56788151Y-44381824D01*
X57226521Y-44469021D01*
X57673479Y-44469021D01*
X58111849Y-44381824D01*
X58524785Y-44210780D01*
X58896417Y-43962464D01*
X59212464Y-43646417D01*
X59460780Y-43274785D01*
X59631824Y-42861849D01*
X59719021Y-42423479D01*
X59719021Y-41976521D01*
X59631824Y-41538151D01*
X59460780Y-41125215D01*
X59212464Y-40753583D01*
X58896417Y-40437536D01*
X58524785Y-40189220D01*
X58111849Y-40018176D01*
X57673479Y-39930979D01*
X57226521Y-39930979D01*
X56788151Y-40018176D01*
X56375215Y-40189220D01*
X56003583Y-40437536D01*
X55687536Y-40753583D01*
X55439220Y-41125215D01*
X55268176Y-41538151D01*
X55180979Y-41976521D01*
X54567000Y-41976521D01*
X54567000Y-34434578D01*
X54581928Y-34419650D01*
X54581928Y-35120000D01*
X54594188Y-35244482D01*
X54630498Y-35364180D01*
X54689463Y-35474494D01*
X54768815Y-35571185D01*
X54865506Y-35650537D01*
X54975820Y-35709502D01*
X55095518Y-35745812D01*
X55220000Y-35758072D01*
X56720000Y-35758072D01*
X56844482Y-35745812D01*
X56964180Y-35709502D01*
X57074494Y-35650537D01*
X57171185Y-35571185D01*
X57250537Y-35474494D01*
X57301046Y-35380000D01*
X58842678Y-35380000D01*
X58880000Y-35383676D01*
X58917322Y-35380000D01*
X58917333Y-35380000D01*
X59028986Y-35369003D01*
X59172247Y-35325546D01*
X59304276Y-35254974D01*
X59420001Y-35160001D01*
X59443804Y-35130997D01*
X59482323Y-35092478D01*
X59481928Y-35120000D01*
X59494188Y-35244482D01*
X59530498Y-35364180D01*
X59589463Y-35474494D01*
X59668815Y-35571185D01*
X59765506Y-35650537D01*
X59875820Y-35709502D01*
X59995518Y-35745812D01*
X60120000Y-35758072D01*
X60584250Y-35755000D01*
X60743000Y-35596250D01*
X60743000Y-34747000D01*
X60997000Y-34747000D01*
X60997000Y-35596250D01*
X61155750Y-35755000D01*
X61620000Y-35758072D01*
X61744482Y-35745812D01*
X61864180Y-35709502D01*
X61974494Y-35650537D01*
X62071185Y-35571185D01*
X62150537Y-35474494D01*
X62209502Y-35364180D01*
X62245812Y-35244482D01*
X62258072Y-35120000D01*
X62255000Y-34905750D01*
X62096250Y-34747000D01*
X60997000Y-34747000D01*
X60743000Y-34747000D01*
X60723000Y-34747000D01*
X60723000Y-34493000D01*
X60743000Y-34493000D01*
X60743000Y-34473000D01*
X60997000Y-34473000D01*
X60997000Y-34493000D01*
X62096250Y-34493000D01*
X62255000Y-34334250D01*
X62258072Y-34120000D01*
X62247238Y-34010000D01*
X64752762Y-34010000D01*
X64741928Y-34120000D01*
X64741928Y-35120000D01*
X64754188Y-35244482D01*
X64790498Y-35364180D01*
X64849463Y-35474494D01*
X64928815Y-35571185D01*
X65025506Y-35650537D01*
X65135820Y-35709502D01*
X65255518Y-35745812D01*
X65380000Y-35758072D01*
X66880000Y-35758072D01*
X67004482Y-35745812D01*
X67124180Y-35709502D01*
X67234494Y-35650537D01*
X67331185Y-35571185D01*
X67410537Y-35474494D01*
X67460527Y-35380970D01*
X67488000Y-35383676D01*
X67525322Y-35380000D01*
X67525333Y-35380000D01*
X67636986Y-35369003D01*
X67780247Y-35325546D01*
X67912276Y-35254974D01*
X68028001Y-35160001D01*
X68051804Y-35130997D01*
X68062801Y-35120000D01*
X69641928Y-35120000D01*
X69654188Y-35244482D01*
X69690498Y-35364180D01*
X69749463Y-35474494D01*
X69828815Y-35571185D01*
X69925506Y-35650537D01*
X70035820Y-35709502D01*
X70155518Y-35745812D01*
X70280000Y-35758072D01*
X70744250Y-35755000D01*
X70903000Y-35596250D01*
X70903000Y-34747000D01*
X71157000Y-34747000D01*
X71157000Y-35596250D01*
X71315750Y-35755000D01*
X71780000Y-35758072D01*
X71904482Y-35745812D01*
X72024180Y-35709502D01*
X72134494Y-35650537D01*
X72231185Y-35571185D01*
X72310537Y-35474494D01*
X72369502Y-35364180D01*
X72405812Y-35244482D01*
X72418072Y-35120000D01*
X72415000Y-34905750D01*
X72256250Y-34747000D01*
X71157000Y-34747000D01*
X70903000Y-34747000D01*
X69803750Y-34747000D01*
X69645000Y-34905750D01*
X69641928Y-35120000D01*
X68062801Y-35120000D01*
X69402802Y-33780000D01*
X69741716Y-33780000D01*
X69690498Y-33875820D01*
X69654188Y-33995518D01*
X69641928Y-34120000D01*
X69645000Y-34334250D01*
X69803750Y-34493000D01*
X70903000Y-34493000D01*
X70903000Y-34473000D01*
X71157000Y-34473000D01*
X71157000Y-34493000D01*
X72256250Y-34493000D01*
X72415000Y-34334250D01*
X72418072Y-34120000D01*
X72405812Y-33995518D01*
X72369502Y-33875820D01*
X72318284Y-33780000D01*
X75001716Y-33780000D01*
X74950498Y-33875820D01*
X74914188Y-33995518D01*
X74901928Y-34120000D01*
X74901928Y-35120000D01*
X74914188Y-35244482D01*
X74950498Y-35364180D01*
X75009463Y-35474494D01*
X75088815Y-35571185D01*
X75185506Y-35650537D01*
X75295820Y-35709502D01*
X75415518Y-35745812D01*
X75540000Y-35758072D01*
X77040000Y-35758072D01*
X77164482Y-35745812D01*
X77284180Y-35709502D01*
X77394494Y-35650537D01*
X77491185Y-35571185D01*
X77570537Y-35474494D01*
X77621046Y-35380000D01*
X78589088Y-35380000D01*
X78626410Y-35383676D01*
X78663732Y-35380000D01*
X78663743Y-35380000D01*
X78775396Y-35369003D01*
X78918657Y-35325546D01*
X79050686Y-35254974D01*
X79166411Y-35160001D01*
X79190214Y-35130997D01*
X79201211Y-35120000D01*
X79801928Y-35120000D01*
X79814188Y-35244482D01*
X79850498Y-35364180D01*
X79909463Y-35474494D01*
X79988815Y-35571185D01*
X80085506Y-35650537D01*
X80195820Y-35709502D01*
X80315518Y-35745812D01*
X80440000Y-35758072D01*
X80904250Y-35755000D01*
X81063000Y-35596250D01*
X81063000Y-34747000D01*
X81317000Y-34747000D01*
X81317000Y-35596250D01*
X81475750Y-35755000D01*
X81940000Y-35758072D01*
X82064482Y-35745812D01*
X82184180Y-35709502D01*
X82294494Y-35650537D01*
X82391185Y-35571185D01*
X82470537Y-35474494D01*
X82529502Y-35364180D01*
X82565812Y-35244482D01*
X82578072Y-35120000D01*
X82575000Y-34905750D01*
X82416250Y-34747000D01*
X81317000Y-34747000D01*
X81063000Y-34747000D01*
X79963750Y-34747000D01*
X79805000Y-34905750D01*
X79801928Y-35120000D01*
X79201211Y-35120000D01*
X79895981Y-34425231D01*
X79963750Y-34493000D01*
X81063000Y-34493000D01*
X81063000Y-34473000D01*
X81317000Y-34473000D01*
X81317000Y-34493000D01*
X82416250Y-34493000D01*
X82575000Y-34334250D01*
X82578072Y-34120000D01*
X82565812Y-33995518D01*
X82529502Y-33875820D01*
X82478284Y-33780000D01*
X85161716Y-33780000D01*
X85110498Y-33875820D01*
X85074188Y-33995518D01*
X85061928Y-34120000D01*
X85061928Y-35120000D01*
X85074188Y-35244482D01*
X85110498Y-35364180D01*
X85169463Y-35474494D01*
X85248815Y-35571185D01*
X85345506Y-35650537D01*
X85455820Y-35709502D01*
X85575518Y-35745812D01*
X85700000Y-35758072D01*
X87200000Y-35758072D01*
X87324482Y-35745812D01*
X87444180Y-35709502D01*
X87554494Y-35650537D01*
X87651185Y-35571185D01*
X87730537Y-35474494D01*
X87781046Y-35380000D01*
X89294678Y-35380000D01*
X89332000Y-35383676D01*
X89369322Y-35380000D01*
X89369333Y-35380000D01*
X89480986Y-35369003D01*
X89624247Y-35325546D01*
X89756276Y-35254974D01*
X89872001Y-35160001D01*
X89895804Y-35130997D01*
X89962730Y-35064071D01*
X89961928Y-35120000D01*
X89974188Y-35244482D01*
X90010498Y-35364180D01*
X90069463Y-35474494D01*
X90148815Y-35571185D01*
X90245506Y-35650537D01*
X90355820Y-35709502D01*
X90475518Y-35745812D01*
X90600000Y-35758072D01*
X91064250Y-35755000D01*
X91223000Y-35596250D01*
X91223000Y-34747000D01*
X91477000Y-34747000D01*
X91477000Y-35596250D01*
X91635750Y-35755000D01*
X92100000Y-35758072D01*
X92224482Y-35745812D01*
X92344180Y-35709502D01*
X92454494Y-35650537D01*
X92551185Y-35571185D01*
X92630537Y-35474494D01*
X92689502Y-35364180D01*
X92725812Y-35244482D01*
X92738072Y-35120000D01*
X92735000Y-34905750D01*
X92576250Y-34747000D01*
X91477000Y-34747000D01*
X91223000Y-34747000D01*
X91203000Y-34747000D01*
X91203000Y-34493000D01*
X91223000Y-34493000D01*
X91223000Y-34473000D01*
X91477000Y-34473000D01*
X91477000Y-34493000D01*
X92576250Y-34493000D01*
X92735000Y-34334250D01*
X92738072Y-34120000D01*
X92725812Y-33995518D01*
X92689502Y-33875820D01*
X92630537Y-33765506D01*
X92551185Y-33668815D01*
X92454494Y-33589463D01*
X92344180Y-33530498D01*
X92224482Y-33494188D01*
X92100000Y-33481928D01*
X91635750Y-33485000D01*
X91477002Y-33643748D01*
X91477002Y-33549800D01*
X91754802Y-33272000D01*
X98241198Y-33272000D01*
X97793195Y-33720004D01*
X97751185Y-33668815D01*
X97654494Y-33589463D01*
X97544180Y-33530498D01*
X97424482Y-33494188D01*
X97300000Y-33481928D01*
X95800000Y-33481928D01*
X95675518Y-33494188D01*
X95555820Y-33530498D01*
X95445506Y-33589463D01*
X95348815Y-33668815D01*
X95269463Y-33765506D01*
X95210498Y-33875820D01*
X95174188Y-33995518D01*
X95161928Y-34120000D01*
X95161928Y-35120000D01*
X95174188Y-35244482D01*
X95210498Y-35364180D01*
X95269463Y-35474494D01*
X95348815Y-35571185D01*
X95445506Y-35650537D01*
X95555820Y-35709502D01*
X95675518Y-35745812D01*
X95800000Y-35758072D01*
X97300000Y-35758072D01*
X97424482Y-35745812D01*
X97544180Y-35709502D01*
X97654494Y-35650537D01*
X97751185Y-35571185D01*
X97830537Y-35474494D01*
X97881046Y-35380000D01*
X97930678Y-35380000D01*
X97968000Y-35383676D01*
X98005322Y-35380000D01*
X98005333Y-35380000D01*
X98116986Y-35369003D01*
X98260247Y-35325546D01*
X98392276Y-35254974D01*
X98508001Y-35160001D01*
X98531804Y-35130998D01*
X98542802Y-35120000D01*
X100061928Y-35120000D01*
X100074188Y-35244482D01*
X100110498Y-35364180D01*
X100169463Y-35474494D01*
X100248815Y-35571185D01*
X100345506Y-35650537D01*
X100455820Y-35709502D01*
X100575518Y-35745812D01*
X100700000Y-35758072D01*
X101164250Y-35755000D01*
X101323000Y-35596250D01*
X101323000Y-34747000D01*
X101577000Y-34747000D01*
X101577000Y-35596250D01*
X101735750Y-35755000D01*
X102200000Y-35758072D01*
X102324482Y-35745812D01*
X102444180Y-35709502D01*
X102554494Y-35650537D01*
X102651185Y-35571185D01*
X102730537Y-35474494D01*
X102789502Y-35364180D01*
X102825812Y-35244482D01*
X102838072Y-35120000D01*
X102835000Y-34905750D01*
X102676250Y-34747000D01*
X101577000Y-34747000D01*
X101323000Y-34747000D01*
X100223750Y-34747000D01*
X100065000Y-34905750D01*
X100061928Y-35120000D01*
X98542802Y-35120000D01*
X99374802Y-34288000D01*
X100064337Y-34288000D01*
X100065000Y-34334250D01*
X100223750Y-34493000D01*
X101323000Y-34493000D01*
X101323000Y-34473000D01*
X101577000Y-34473000D01*
X101577000Y-34493000D01*
X102676250Y-34493000D01*
X102835000Y-34334250D01*
X102835663Y-34288000D01*
X103086678Y-34288000D01*
X103124000Y-34291676D01*
X103161322Y-34288000D01*
X103161333Y-34288000D01*
X103272986Y-34277003D01*
X103416247Y-34233546D01*
X103548276Y-34162974D01*
X103664001Y-34068001D01*
X103687804Y-34038998D01*
X104454802Y-33272000D01*
X108401198Y-33272000D01*
X107986149Y-33687049D01*
X107971185Y-33668815D01*
X107874494Y-33589463D01*
X107764180Y-33530498D01*
X107644482Y-33494188D01*
X107520000Y-33481928D01*
X106020000Y-33481928D01*
X105895518Y-33494188D01*
X105775820Y-33530498D01*
X105665506Y-33589463D01*
X105568815Y-33668815D01*
X105489463Y-33765506D01*
X105430498Y-33875820D01*
X105394188Y-33995518D01*
X105381928Y-34120000D01*
X105381928Y-35120000D01*
X105394188Y-35244482D01*
X105430498Y-35364180D01*
X105489463Y-35474494D01*
X105568815Y-35571185D01*
X105665506Y-35650537D01*
X105775820Y-35709502D01*
X105895518Y-35745812D01*
X106020000Y-35758072D01*
X107520000Y-35758072D01*
X107644482Y-35745812D01*
X107764180Y-35709502D01*
X107874494Y-35650537D01*
X107971185Y-35571185D01*
X108050537Y-35474494D01*
X108100527Y-35380970D01*
X108128000Y-35383676D01*
X108165322Y-35380000D01*
X108165333Y-35380000D01*
X108276986Y-35369003D01*
X108420247Y-35325546D01*
X108552276Y-35254974D01*
X108668001Y-35160001D01*
X108691804Y-35130998D01*
X108702802Y-35120000D01*
X110281928Y-35120000D01*
X110294188Y-35244482D01*
X110330498Y-35364180D01*
X110389463Y-35474494D01*
X110468815Y-35571185D01*
X110565506Y-35650537D01*
X110675820Y-35709502D01*
X110795518Y-35745812D01*
X110920000Y-35758072D01*
X111384250Y-35755000D01*
X111543000Y-35596250D01*
X111543000Y-34747000D01*
X111797000Y-34747000D01*
X111797000Y-35596250D01*
X111955750Y-35755000D01*
X112420000Y-35758072D01*
X112544482Y-35745812D01*
X112664180Y-35709502D01*
X112774494Y-35650537D01*
X112871185Y-35571185D01*
X112950537Y-35474494D01*
X113009502Y-35364180D01*
X113045812Y-35244482D01*
X113058072Y-35120000D01*
X113055000Y-34905750D01*
X112896250Y-34747000D01*
X111797000Y-34747000D01*
X111543000Y-34747000D01*
X110443750Y-34747000D01*
X110285000Y-34905750D01*
X110281928Y-35120000D01*
X108702802Y-35120000D01*
X109534802Y-34288000D01*
X110284337Y-34288000D01*
X110285000Y-34334250D01*
X110443750Y-34493000D01*
X111543000Y-34493000D01*
X111543000Y-34473000D01*
X111797000Y-34473000D01*
X111797000Y-34493000D01*
X112896250Y-34493000D01*
X113055000Y-34334250D01*
X113056392Y-34237142D01*
X113068247Y-34233546D01*
X113200276Y-34162974D01*
X113316001Y-34068001D01*
X113339804Y-34038998D01*
X114106802Y-33272000D01*
X120085198Y-33272000D01*
X119497199Y-33860000D01*
X118261046Y-33860000D01*
X118210537Y-33765506D01*
X118131185Y-33668815D01*
X118034494Y-33589463D01*
X117924180Y-33530498D01*
X117804482Y-33494188D01*
X117680000Y-33481928D01*
X116180000Y-33481928D01*
X116055518Y-33494188D01*
X115935820Y-33530498D01*
X115825506Y-33589463D01*
X115728815Y-33668815D01*
X115649463Y-33765506D01*
X115590498Y-33875820D01*
X115554188Y-33995518D01*
X115541928Y-34120000D01*
X115541928Y-35120000D01*
X115554188Y-35244482D01*
X115590498Y-35364180D01*
X115649463Y-35474494D01*
X115728815Y-35571185D01*
X115825506Y-35650537D01*
X115935820Y-35709502D01*
X116055518Y-35745812D01*
X116180000Y-35758072D01*
X117680000Y-35758072D01*
X117804482Y-35745812D01*
X117924180Y-35709502D01*
X118034494Y-35650537D01*
X118131185Y-35571185D01*
X118210537Y-35474494D01*
X118261046Y-35380000D01*
X119774678Y-35380000D01*
X119812000Y-35383676D01*
X119849322Y-35380000D01*
X119849333Y-35380000D01*
X119960986Y-35369003D01*
X120104247Y-35325546D01*
X120236276Y-35254974D01*
X120352001Y-35160001D01*
X120375804Y-35130997D01*
X120442730Y-35064071D01*
X120441928Y-35120000D01*
X120454188Y-35244482D01*
X120490498Y-35364180D01*
X120549463Y-35474494D01*
X120628815Y-35571185D01*
X120725506Y-35650537D01*
X120835820Y-35709502D01*
X120955518Y-35745812D01*
X121080000Y-35758072D01*
X121544250Y-35755000D01*
X121703000Y-35596250D01*
X121703000Y-34747000D01*
X121957000Y-34747000D01*
X121957000Y-35596250D01*
X122115750Y-35755000D01*
X122580000Y-35758072D01*
X122704482Y-35745812D01*
X122824180Y-35709502D01*
X122934494Y-35650537D01*
X123031185Y-35571185D01*
X123110537Y-35474494D01*
X123169502Y-35364180D01*
X123205812Y-35244482D01*
X123218072Y-35120000D01*
X123215000Y-34905750D01*
X123056250Y-34747000D01*
X121957000Y-34747000D01*
X121703000Y-34747000D01*
X121683000Y-34747000D01*
X121683000Y-34493000D01*
X121703000Y-34493000D01*
X121703000Y-34473000D01*
X121957000Y-34473000D01*
X121957000Y-34493000D01*
X123056250Y-34493000D01*
X123215000Y-34334250D01*
X123218072Y-34120000D01*
X123205812Y-33995518D01*
X123169502Y-33875820D01*
X123118284Y-33780000D01*
X125801716Y-33780000D01*
X125750498Y-33875820D01*
X125714188Y-33995518D01*
X125701928Y-34120000D01*
X125701928Y-35120000D01*
X125714188Y-35244482D01*
X125750498Y-35364180D01*
X125809463Y-35474494D01*
X125888815Y-35571185D01*
X125985506Y-35650537D01*
X126095820Y-35709502D01*
X126215518Y-35745812D01*
X126340000Y-35758072D01*
X127840000Y-35758072D01*
X127964482Y-35745812D01*
X128084180Y-35709502D01*
X128194494Y-35650537D01*
X128291185Y-35571185D01*
X128370537Y-35474494D01*
X128420527Y-35380970D01*
X128448000Y-35383676D01*
X128485322Y-35380000D01*
X128485333Y-35380000D01*
X128596986Y-35369003D01*
X128740247Y-35325546D01*
X128872276Y-35254974D01*
X128988001Y-35160001D01*
X129011804Y-35130998D01*
X129022802Y-35120000D01*
X130601928Y-35120000D01*
X130614188Y-35244482D01*
X130650498Y-35364180D01*
X130709463Y-35474494D01*
X130788815Y-35571185D01*
X130885506Y-35650537D01*
X130995820Y-35709502D01*
X131115518Y-35745812D01*
X131240000Y-35758072D01*
X131704250Y-35755000D01*
X131863000Y-35596250D01*
X131863000Y-34747000D01*
X132117000Y-34747000D01*
X132117000Y-35596250D01*
X132275750Y-35755000D01*
X132740000Y-35758072D01*
X132864482Y-35745812D01*
X132984180Y-35709502D01*
X133094494Y-35650537D01*
X133191185Y-35571185D01*
X133270537Y-35474494D01*
X133329502Y-35364180D01*
X133365812Y-35244482D01*
X133378072Y-35120000D01*
X133375000Y-34905750D01*
X133216250Y-34747000D01*
X132117000Y-34747000D01*
X131863000Y-34747000D01*
X130763750Y-34747000D01*
X130605000Y-34905750D01*
X130601928Y-35120000D01*
X129022802Y-35120000D01*
X129854802Y-34288000D01*
X130604337Y-34288000D01*
X130605000Y-34334250D01*
X130763750Y-34493000D01*
X131863000Y-34493000D01*
X131863000Y-34473000D01*
X132117000Y-34473000D01*
X132117000Y-34493000D01*
X133216250Y-34493000D01*
X133375000Y-34334250D01*
X133376392Y-34237142D01*
X133388247Y-34233546D01*
X133520276Y-34162974D01*
X133636001Y-34068001D01*
X133659804Y-34038998D01*
X134426802Y-33272000D01*
X139897198Y-33272000D01*
X139309199Y-33860000D01*
X138581046Y-33860000D01*
X138530537Y-33765506D01*
X138451185Y-33668815D01*
X138354494Y-33589463D01*
X138244180Y-33530498D01*
X138124482Y-33494188D01*
X138000000Y-33481928D01*
X136500000Y-33481928D01*
X136375518Y-33494188D01*
X136255820Y-33530498D01*
X136145506Y-33589463D01*
X136048815Y-33668815D01*
X135969463Y-33765506D01*
X135910498Y-33875820D01*
X135874188Y-33995518D01*
X135861928Y-34120000D01*
X135861928Y-35120000D01*
X135874188Y-35244482D01*
X135910498Y-35364180D01*
X135969463Y-35474494D01*
X136048815Y-35571185D01*
X136145506Y-35650537D01*
X136255820Y-35709502D01*
X136375518Y-35745812D01*
X136500000Y-35758072D01*
X138000000Y-35758072D01*
X138124482Y-35745812D01*
X138244180Y-35709502D01*
X138354494Y-35650537D01*
X138451185Y-35571185D01*
X138530537Y-35474494D01*
X138581046Y-35380000D01*
X139586678Y-35380000D01*
X139624000Y-35383676D01*
X139661322Y-35380000D01*
X139661333Y-35380000D01*
X139772986Y-35369003D01*
X139916247Y-35325546D01*
X140048276Y-35254974D01*
X140164001Y-35160001D01*
X140187804Y-35130998D01*
X140198802Y-35120000D01*
X140761928Y-35120000D01*
X140774188Y-35244482D01*
X140810498Y-35364180D01*
X140869463Y-35474494D01*
X140948815Y-35571185D01*
X141045506Y-35650537D01*
X141155820Y-35709502D01*
X141275518Y-35745812D01*
X141400000Y-35758072D01*
X141864250Y-35755000D01*
X142023000Y-35596250D01*
X142023000Y-34747000D01*
X142277000Y-34747000D01*
X142277000Y-35596250D01*
X142435750Y-35755000D01*
X142900000Y-35758072D01*
X143024482Y-35745812D01*
X143144180Y-35709502D01*
X143254494Y-35650537D01*
X143351185Y-35571185D01*
X143430537Y-35474494D01*
X143489502Y-35364180D01*
X143525812Y-35244482D01*
X143538072Y-35120000D01*
X143535000Y-34905750D01*
X143376250Y-34747000D01*
X142277000Y-34747000D01*
X142023000Y-34747000D01*
X140923750Y-34747000D01*
X140765000Y-34905750D01*
X140761928Y-35120000D01*
X140198802Y-35120000D01*
X140874776Y-34444026D01*
X140923750Y-34493000D01*
X142023000Y-34493000D01*
X142023000Y-34473000D01*
X142277000Y-34473000D01*
X142277000Y-34493000D01*
X143376250Y-34493000D01*
X143535000Y-34334250D01*
X143538072Y-34120000D01*
X143525812Y-33995518D01*
X143489502Y-33875820D01*
X143430537Y-33765506D01*
X143351185Y-33668815D01*
X143254494Y-33589463D01*
X143253741Y-33589060D01*
X143570802Y-33272000D01*
X149041198Y-33272000D01*
X148626149Y-33687049D01*
X148611185Y-33668815D01*
X148514494Y-33589463D01*
X148404180Y-33530498D01*
X148284482Y-33494188D01*
X148160000Y-33481928D01*
X146660000Y-33481928D01*
X146535518Y-33494188D01*
X146415820Y-33530498D01*
X146305506Y-33589463D01*
X146208815Y-33668815D01*
X146129463Y-33765506D01*
X146070498Y-33875820D01*
X146034188Y-33995518D01*
X146021928Y-34120000D01*
X146021928Y-35120000D01*
X146034188Y-35244482D01*
X146070498Y-35364180D01*
X146129463Y-35474494D01*
X146208815Y-35571185D01*
X146305506Y-35650537D01*
X146415820Y-35709502D01*
X146535518Y-35745812D01*
X146660000Y-35758072D01*
X148160000Y-35758072D01*
X148284482Y-35745812D01*
X148404180Y-35709502D01*
X148514494Y-35650537D01*
X148611185Y-35571185D01*
X148690537Y-35474494D01*
X148740527Y-35380970D01*
X148768000Y-35383676D01*
X148805322Y-35380000D01*
X148805333Y-35380000D01*
X148916986Y-35369003D01*
X149060247Y-35325546D01*
X149192276Y-35254974D01*
X149308001Y-35160001D01*
X149331804Y-35130998D01*
X149342802Y-35120000D01*
X150921928Y-35120000D01*
X150934188Y-35244482D01*
X150970498Y-35364180D01*
X151029463Y-35474494D01*
X151108815Y-35571185D01*
X151205506Y-35650537D01*
X151315820Y-35709502D01*
X151435518Y-35745812D01*
X151560000Y-35758072D01*
X152024250Y-35755000D01*
X152183000Y-35596250D01*
X152183000Y-34747000D01*
X152437000Y-34747000D01*
X152437000Y-35596250D01*
X152595750Y-35755000D01*
X153060000Y-35758072D01*
X153184482Y-35745812D01*
X153304180Y-35709502D01*
X153414494Y-35650537D01*
X153511185Y-35571185D01*
X153590537Y-35474494D01*
X153649502Y-35364180D01*
X153685812Y-35244482D01*
X153698072Y-35120000D01*
X153695000Y-34905750D01*
X153536250Y-34747000D01*
X152437000Y-34747000D01*
X152183000Y-34747000D01*
X151083750Y-34747000D01*
X150925000Y-34905750D01*
X150921928Y-35120000D01*
X149342802Y-35120000D01*
X150174802Y-34288000D01*
X150924337Y-34288000D01*
X150925000Y-34334250D01*
X151083750Y-34493000D01*
X152183000Y-34493000D01*
X152183000Y-34473000D01*
X152437000Y-34473000D01*
X152437000Y-34493000D01*
X153536250Y-34493000D01*
X153695000Y-34334250D01*
X153695663Y-34288000D01*
X156181928Y-34288000D01*
X156181928Y-35120000D01*
X156194188Y-35244482D01*
X156230498Y-35364180D01*
X156289463Y-35474494D01*
X156368815Y-35571185D01*
X156465506Y-35650537D01*
X156575820Y-35709502D01*
X156695518Y-35745812D01*
X156820000Y-35758072D01*
X158320000Y-35758072D01*
X158444482Y-35745812D01*
X158564180Y-35709502D01*
X158674494Y-35650537D01*
X158771185Y-35571185D01*
X158850537Y-35474494D01*
X158900527Y-35380970D01*
X158928000Y-35383676D01*
X158965322Y-35380000D01*
X158965333Y-35380000D01*
X159076986Y-35369003D01*
X159220247Y-35325546D01*
X159352276Y-35254974D01*
X159468001Y-35160001D01*
X159491804Y-35130998D01*
X159502802Y-35120000D01*
X161081928Y-35120000D01*
X161094188Y-35244482D01*
X161130498Y-35364180D01*
X161189463Y-35474494D01*
X161268815Y-35571185D01*
X161365506Y-35650537D01*
X161475820Y-35709502D01*
X161595518Y-35745812D01*
X161720000Y-35758072D01*
X162184250Y-35755000D01*
X162343000Y-35596250D01*
X162343000Y-34747000D01*
X162597000Y-34747000D01*
X162597000Y-35596250D01*
X162755750Y-35755000D01*
X163220000Y-35758072D01*
X163344482Y-35745812D01*
X163464180Y-35709502D01*
X163574494Y-35650537D01*
X163671185Y-35571185D01*
X163750537Y-35474494D01*
X163809502Y-35364180D01*
X163845812Y-35244482D01*
X163858072Y-35120000D01*
X163855000Y-34905750D01*
X163696250Y-34747000D01*
X162597000Y-34747000D01*
X162343000Y-34747000D01*
X161243750Y-34747000D01*
X161085000Y-34905750D01*
X161081928Y-35120000D01*
X159502802Y-35120000D01*
X160334802Y-34288000D01*
X161084337Y-34288000D01*
X161085000Y-34334250D01*
X161243750Y-34493000D01*
X162343000Y-34493000D01*
X162343000Y-34473000D01*
X162597000Y-34473000D01*
X162597000Y-34493000D01*
X163696250Y-34493000D01*
X163855000Y-34334250D01*
X163858072Y-34120000D01*
X166341928Y-34120000D01*
X166341928Y-35120000D01*
X166354188Y-35244482D01*
X166390498Y-35364180D01*
X166449463Y-35474494D01*
X166528815Y-35571185D01*
X166625506Y-35650537D01*
X166735820Y-35709502D01*
X166855518Y-35745812D01*
X166980000Y-35758072D01*
X168480000Y-35758072D01*
X168604482Y-35745812D01*
X168724180Y-35709502D01*
X168834494Y-35650537D01*
X168931185Y-35571185D01*
X169010537Y-35474494D01*
X169069502Y-35364180D01*
X169105812Y-35244482D01*
X169118072Y-35120000D01*
X171241928Y-35120000D01*
X171254188Y-35244482D01*
X171290498Y-35364180D01*
X171349463Y-35474494D01*
X171428815Y-35571185D01*
X171525506Y-35650537D01*
X171635820Y-35709502D01*
X171755518Y-35745812D01*
X171880000Y-35758072D01*
X172344250Y-35755000D01*
X172503000Y-35596250D01*
X172503000Y-34747000D01*
X171403750Y-34747000D01*
X171245000Y-34905750D01*
X171241928Y-35120000D01*
X169118072Y-35120000D01*
X169118072Y-34120000D01*
X171241928Y-34120000D01*
X171245000Y-34334250D01*
X171403750Y-34493000D01*
X172503000Y-34493000D01*
X172503000Y-33643750D01*
X172344250Y-33485000D01*
X171880000Y-33481928D01*
X171755518Y-33494188D01*
X171635820Y-33530498D01*
X171525506Y-33589463D01*
X171428815Y-33668815D01*
X171349463Y-33765506D01*
X171290498Y-33875820D01*
X171254188Y-33995518D01*
X171241928Y-34120000D01*
X169118072Y-34120000D01*
X169105812Y-33995518D01*
X169069502Y-33875820D01*
X169010537Y-33765506D01*
X168931185Y-33668815D01*
X168834494Y-33589463D01*
X168724180Y-33530498D01*
X168604482Y-33494188D01*
X168480000Y-33481928D01*
X166980000Y-33481928D01*
X166855518Y-33494188D01*
X166735820Y-33530498D01*
X166625506Y-33589463D01*
X166528815Y-33668815D01*
X166449463Y-33765506D01*
X166390498Y-33875820D01*
X166354188Y-33995518D01*
X166341928Y-34120000D01*
X163858072Y-34120000D01*
X163845812Y-33995518D01*
X163809502Y-33875820D01*
X163750537Y-33765506D01*
X163671185Y-33668815D01*
X163574494Y-33589463D01*
X163573741Y-33589060D01*
X163890802Y-33272000D01*
X171500678Y-33272000D01*
X171538000Y-33275676D01*
X171575322Y-33272000D01*
X171575333Y-33272000D01*
X171686986Y-33261003D01*
X171830247Y-33217546D01*
X171962276Y-33146974D01*
X172078001Y-33052001D01*
X172101804Y-33022998D01*
X172566729Y-32558072D01*
X173380000Y-32558072D01*
X173504482Y-32545812D01*
X173624180Y-32509502D01*
X173734494Y-32450537D01*
X173740000Y-32446018D01*
X173740000Y-33593982D01*
X173734494Y-33589463D01*
X173624180Y-33530498D01*
X173504482Y-33494188D01*
X173380000Y-33481928D01*
X172915750Y-33485000D01*
X172757000Y-33643750D01*
X172757000Y-34493000D01*
X172777000Y-34493000D01*
X172777000Y-34747000D01*
X172757000Y-34747000D01*
X172757000Y-35596250D01*
X172915750Y-35755000D01*
X173380000Y-35758072D01*
X173504482Y-35745812D01*
X173624180Y-35709502D01*
X173734494Y-35650537D01*
X173740001Y-35646018D01*
X173740001Y-36463420D01*
X173558412Y-36645010D01*
X158728455Y-36645010D01*
X158684989Y-36640729D01*
X158641523Y-36645010D01*
X158641513Y-36645010D01*
X158511500Y-36657815D01*
X158344677Y-36708421D01*
X158190931Y-36790599D01*
X158190929Y-36790600D01*
X158190930Y-36790600D01*
X158089943Y-36873478D01*
X158089941Y-36873480D01*
X158056173Y-36901193D01*
X158028460Y-36934961D01*
X151804956Y-43158466D01*
X151771183Y-43186183D01*
X151660589Y-43320942D01*
X151578411Y-43474688D01*
X151527805Y-43641511D01*
X151515000Y-43771524D01*
X151515000Y-43771531D01*
X151510719Y-43815000D01*
X151515000Y-43858469D01*
X151515001Y-52840478D01*
X151485241Y-52860363D01*
X151285363Y-53060241D01*
X151128320Y-53295273D01*
X151020147Y-53556426D01*
X150965000Y-53833665D01*
X150965000Y-54116335D01*
X151020147Y-54393574D01*
X151128320Y-54654727D01*
X151285363Y-54889759D01*
X151485241Y-55089637D01*
X151515001Y-55109522D01*
X151515000Y-58555479D01*
X151485241Y-58575363D01*
X151285363Y-58775241D01*
X151128320Y-59010273D01*
X151020147Y-59271426D01*
X150965000Y-59548665D01*
X150965000Y-59831335D01*
X151020147Y-60108574D01*
X151128320Y-60369727D01*
X151285363Y-60604759D01*
X151485241Y-60804637D01*
X151720273Y-60961680D01*
X151981426Y-61069853D01*
X152258665Y-61125000D01*
X152541335Y-61125000D01*
X152818574Y-61069853D01*
X153079727Y-60961680D01*
X153314759Y-60804637D01*
X153514637Y-60604759D01*
X153671680Y-60369727D01*
X153779853Y-60108574D01*
X153835000Y-59831335D01*
X153835000Y-59548665D01*
X158585000Y-59548665D01*
X158585000Y-59831335D01*
X158640147Y-60108574D01*
X158748320Y-60369727D01*
X158905363Y-60604759D01*
X159105241Y-60804637D01*
X159340273Y-60961680D01*
X159601426Y-61069853D01*
X159878665Y-61125000D01*
X160161335Y-61125000D01*
X160438574Y-61069853D01*
X160699727Y-60961680D01*
X160934759Y-60804637D01*
X161134637Y-60604759D01*
X161154521Y-60575000D01*
X163845210Y-60575000D01*
X163907688Y-60668505D01*
X164121495Y-60882312D01*
X164372905Y-61050299D01*
X164652257Y-61166011D01*
X164948816Y-61225000D01*
X165251184Y-61225000D01*
X165547743Y-61166011D01*
X165827095Y-61050299D01*
X166078505Y-60882312D01*
X166144944Y-60815873D01*
X166150498Y-60834180D01*
X166209463Y-60944494D01*
X166288815Y-61041185D01*
X166385506Y-61120537D01*
X166495820Y-61179502D01*
X166615518Y-61215812D01*
X166740000Y-61228072D01*
X168540000Y-61228072D01*
X168664482Y-61215812D01*
X168784180Y-61179502D01*
X168894494Y-61120537D01*
X168991185Y-61041185D01*
X169070537Y-60944494D01*
X169129502Y-60834180D01*
X169165812Y-60714482D01*
X169178072Y-60590000D01*
X169178072Y-58790000D01*
X169165812Y-58665518D01*
X169129502Y-58545820D01*
X169070537Y-58435506D01*
X168991185Y-58338815D01*
X168894494Y-58259463D01*
X168784180Y-58200498D01*
X168664482Y-58164188D01*
X168540000Y-58151928D01*
X166740000Y-58151928D01*
X166615518Y-58164188D01*
X166495820Y-58200498D01*
X166385506Y-58259463D01*
X166288815Y-58338815D01*
X166209463Y-58435506D01*
X166150498Y-58545820D01*
X166144944Y-58564127D01*
X166078505Y-58497688D01*
X165827095Y-58329701D01*
X165547743Y-58213989D01*
X165251184Y-58155000D01*
X164948816Y-58155000D01*
X164652257Y-58213989D01*
X164372905Y-58329701D01*
X164121495Y-58497688D01*
X163907688Y-58711495D01*
X163845210Y-58805000D01*
X161154521Y-58805000D01*
X161134637Y-58775241D01*
X160934759Y-58575363D01*
X160699727Y-58418320D01*
X160438574Y-58310147D01*
X160161335Y-58255000D01*
X159878665Y-58255000D01*
X159601426Y-58310147D01*
X159340273Y-58418320D01*
X159105241Y-58575363D01*
X158905363Y-58775241D01*
X158748320Y-59010273D01*
X158640147Y-59271426D01*
X158585000Y-59548665D01*
X153835000Y-59548665D01*
X153779853Y-59271426D01*
X153671680Y-59010273D01*
X153514637Y-58775241D01*
X153314759Y-58575363D01*
X153285000Y-58555479D01*
X153285000Y-55109521D01*
X153314759Y-55089637D01*
X153514637Y-54889759D01*
X153671680Y-54654727D01*
X153779853Y-54393574D01*
X153835000Y-54116335D01*
X153835000Y-53833665D01*
X153779853Y-53556426D01*
X153671680Y-53295273D01*
X153514637Y-53060241D01*
X153314759Y-52860363D01*
X153285000Y-52840479D01*
X153285000Y-44181578D01*
X155490057Y-41976521D01*
X168780979Y-41976521D01*
X168780979Y-42423479D01*
X168868176Y-42861849D01*
X169039220Y-43274785D01*
X169287536Y-43646417D01*
X169603583Y-43962464D01*
X169975215Y-44210780D01*
X170388151Y-44381824D01*
X170826521Y-44469021D01*
X171273479Y-44469021D01*
X171711849Y-44381824D01*
X172124785Y-44210780D01*
X172496417Y-43962464D01*
X172812464Y-43646417D01*
X173060780Y-43274785D01*
X173231824Y-42861849D01*
X173319021Y-42423479D01*
X173319021Y-41976521D01*
X173231824Y-41538151D01*
X173060780Y-41125215D01*
X172812464Y-40753583D01*
X172496417Y-40437536D01*
X172124785Y-40189220D01*
X171711849Y-40018176D01*
X171273479Y-39930979D01*
X170826521Y-39930979D01*
X170388151Y-40018176D01*
X169975215Y-40189220D01*
X169603583Y-40437536D01*
X169287536Y-40753583D01*
X169039220Y-41125215D01*
X168868176Y-41538151D01*
X168780979Y-41976521D01*
X155490057Y-41976521D01*
X159051569Y-38415010D01*
X173881521Y-38415010D01*
X173924990Y-38419291D01*
X173968459Y-38415010D01*
X173968467Y-38415010D01*
X174098480Y-38402205D01*
X174265303Y-38351599D01*
X174419049Y-38269421D01*
X174553807Y-38158827D01*
X174581524Y-38125054D01*
X175220049Y-37486530D01*
X175253817Y-37458817D01*
X175364411Y-37324059D01*
X175446589Y-37170314D01*
X175497195Y-37003490D01*
X175507270Y-36901193D01*
X175510000Y-36873477D01*
X175510000Y-36873469D01*
X175514281Y-36830000D01*
X175510000Y-36786531D01*
X175510000Y-30523465D01*
X175514281Y-30479999D01*
X175510000Y-30436533D01*
X175510000Y-30436523D01*
X175497195Y-30306510D01*
X175446589Y-30139687D01*
X175364411Y-29985941D01*
X175306152Y-29914953D01*
X175281532Y-29884953D01*
X175281530Y-29884951D01*
X175253817Y-29851183D01*
X175220050Y-29823471D01*
X174011534Y-28614956D01*
X173999260Y-28600000D01*
X175870000Y-28600000D01*
X175870001Y-112369841D01*
%TD*%
M02*
