<?xml version="1.0" standalone="no"?>
 <!DOCTYPE svg PUBLIC "-//W3C//DTD SVG 1.1//EN" 
 "http://www.w3.org/Graphics/SVG/1.1/DTD/svg11.dtd"> 
<svg
  xmlns:svg="http://www.w3.org/2000/svg"
  xmlns="http://www.w3.org/2000/svg"
  xmlns:xlink="http://www.w3.org/1999/xlink"
  version="1.1"
  width="29.700220cm" height="21.000720cm" viewBox="0 0 116930 82680">
<title>SVG Picture created as sim-F_Fab.svg date 2020/10/19 12:16:52 </title>
  <desc>Picture generated by PCBNEW </desc>
<g style="fill:#000000; fill-opacity:1;stroke:#000000; stroke-opacity:1;
stroke-linecap:round; stroke-linejoin:round;"
 transform="translate(0 0) scale(1 1)">
</g>
<g style="fill:#000000; fill-opacity:0.0; 
stroke:#000000; stroke-width:-0.000393701; stroke-opacity:1; 
stroke-linecap:round; stroke-linejoin:round;">
</g>
<g style="fill:#000000; fill-opacity:0.0; 
stroke:#000000; stroke-width:39.3701; stroke-opacity:1; 
stroke-linecap:round; stroke-linejoin:round;">
<circle cx="23000" cy="13000" r="787.402" /> 
<path d="M23984 12015
L22015 12015
" />
<path d="M23984 13984
L23984 12015
" />
<path d="M22015 13984
L23984 13984
" />
<path d="M22015 12015
L22015 13984
" />
<path d="M23984 13590
L23590 13984
" />
<path d="M55984 13590
L55590 13984
" />
<path d="M54015 12015
L54015 13984
" />
<path d="M54015 13984
L55984 13984
" />
<path d="M55984 13984
L55984 12015
" />
<path d="M55984 12015
L54015 12015
" />
<circle cx="55000" cy="13000" r="787.402" /> 
<circle cx="27000" cy="13000" r="787.402" /> 
<path d="M27984 12015
L26015 12015
" />
<path d="M27984 13984
L27984 12015
" />
<path d="M26015 13984
L27984 13984
" />
<path d="M26015 12015
L26015 13984
" />
<path d="M27984 13590
L27590 13984
" />
<circle cx="59000" cy="13000" r="787.402" /> 
<path d="M59984 12015
L58015 12015
" />
<path d="M59984 13984
L59984 12015
" />
<path d="M58015 13984
L59984 13984
" />
<path d="M58015 12015
L58015 13984
" />
<path d="M59984 13590
L59590 13984
" />
<path d="M31984 13590
L31590 13984
" />
<path d="M30015 12015
L30015 13984
" />
<path d="M30015 13984
L31984 13984
" />
<path d="M31984 13984
L31984 12015
" />
<path d="M31984 12015
L30015 12015
" />
<circle cx="31000" cy="13000" r="787.402" /> 
<path d="M63984 13590
L63590 13984
" />
<path d="M62015 12015
L62015 13984
" />
<path d="M62015 13984
L63984 13984
" />
<path d="M63984 13984
L63984 12015
" />
<path d="M63984 12015
L62015 12015
" />
<circle cx="63000" cy="13000" r="787.402" /> 
<circle cx="35000" cy="13000" r="787.402" /> 
<path d="M35984 12015
L34015 12015
" />
<path d="M35984 13984
L35984 12015
" />
<path d="M34015 13984
L35984 13984
" />
<path d="M34015 12015
L34015 13984
" />
<path d="M35984 13590
L35590 13984
" />
<path d="M39960 13590
L39566 13984
" />
<path d="M37992 12015
L37992 13984
" />
<path d="M37992 13984
L39960 13984
" />
<path d="M39960 13984
L39960 12015
" />
<path d="M39960 12015
L37992 12015
" />
<circle cx="38976.4" cy="13000" r="787.402" /> 
<circle cx="43000" cy="13000" r="787.402" /> 
<path d="M43984 12015
L42015 12015
" />
<path d="M43984 13984
L43984 12015
" />
<path d="M42015 13984
L43984 13984
" />
<path d="M42015 12015
L42015 13984
" />
<path d="M43984 13590
L43590 13984
" />
<path d="M47984 13590
L47590 13984
" />
<path d="M46015 12015
L46015 13984
" />
<path d="M46015 13984
L47984 13984
" />
<path d="M47984 13984
L47984 12015
" />
<path d="M47984 12015
L46015 12015
" />
<circle cx="47000" cy="13000" r="787.402" /> 
<path d="M51984 13590
L51590 13984
" />
<path d="M50015 12015
L50015 13984
" />
<path d="M50015 13984
L51984 13984
" />
<path d="M51984 13984
L51984 12015
" />
<path d="M51984 12015
L50015 12015
" />
<circle cx="51000" cy="13000" r="787.402" /> 
<path d="M67984 13590
L67590 13984
" />
<path d="M66015 12015
L66015 13984
" />
<path d="M66015 13984
L67984 13984
" />
<path d="M67984 13984
L67984 12015
" />
<path d="M67984 12015
L66015 12015
" />
<circle cx="67000" cy="13000" r="787.402" /> 
<g >
</g>
<g >
</g>
<g >
</g>
<g >
</g>
<g >
</g>
<g >
</g>
<g >
</g>
<g >
</g>
<g >
</g>
<g >
</g>
<g >
</g>
<g >
</g>
<g >
</g>
<g >
</g>
<g >
</g>
<g >
</g>
<g >
</g>
<g >
</g>
<g >
</g>
<g >
</g>
<g >
</g>
<g >
</g>
<g >
</g>
<g >
</g>
<g >
</g>
<g >
</g>
<g >
</g>
<g >
</g>
<g >
</g>
</g> 
</svg>
