<?xml version="1.0" standalone="no"?>
 <!DOCTYPE svg PUBLIC "-//W3C//DTD SVG 1.1//EN" 
 "http://www.w3.org/Graphics/SVG/1.1/DTD/svg11.dtd"> 
<svg
  xmlns:svg="http://www.w3.org/2000/svg"
  xmlns="http://www.w3.org/2000/svg"
  xmlns:xlink="http://www.w3.org/1999/xlink"
  version="1.1"
  width="29.700220cm" height="21.000720cm" viewBox="0 0 116930 82680">
<title>SVG Picture created as sim-F_Cu.svg date 2020/10/19 12:16:52 </title>
  <desc>Picture generated by PCBNEW </desc>
<g style="fill:#000000; fill-opacity:1;stroke:#000000; stroke-opacity:1;
stroke-linecap:round; stroke-linejoin:round;"
 transform="translate(0 0) scale(1 1)">
</g>
<g style="fill:#000000; fill-opacity:0.0; 
stroke:#000000; stroke-width:-0.000393701; stroke-opacity:1; 
stroke-linecap:round; stroke-linejoin:round;">
</g>
<g style="fill:#000000; fill-opacity:0.0; 
stroke:#000000; stroke-width:118.11; stroke-opacity:1; 
stroke-linecap:round; stroke-linejoin:round;">
<text x="58750" y="42840.6"
textLength="13462.6" font-size="1574.8" lengthAdjust="spacingAndGlyphs"
text-anchor="middle" opacity="0">2020 Jaytronic</text>
<path d="M52282 41715
L52338 41659
L52450 41603
L52732 41603
L52844 41659
L52900 41715
L52956 41828
L52956 41940
L52900 42109
L52225 42784
L52956 42784
" />
<path d="M53688 41603
L53800 41603
L53913 41659
L53969 41715
L54025 41828
L54081 42053
L54081 42334
L54025 42559
L53969 42671
L53913 42728
L53800 42784
L53688 42784
L53575 42728
L53519 42671
L53463 42559
L53406 42334
L53406 42053
L53463 41828
L53519 41715
L53575 41659
L53688 41603
" />
<path d="M54531 41715
L54588 41659
L54700 41603
L54981 41603
L55094 41659
L55150 41715
L55206 41828
L55206 41940
L55150 42109
L54475 42784
L55206 42784
" />
<path d="M55937 41603
L56050 41603
L56162 41659
L56219 41715
L56275 41828
L56331 42053
L56331 42334
L56275 42559
L56219 42671
L56162 42728
L56050 42784
L55937 42784
L55825 42728
L55769 42671
L55712 42559
L55656 42334
L55656 42053
L55712 41828
L55769 41715
L55825 41659
L55937 41603
" />
<path d="M58075 41603
L58075 42446
L58018 42615
L57906 42728
L57737 42784
L57625 42784
" />
<path d="M59143 42784
L59143 42165
L59087 42053
L58974 41996
L58750 41996
L58637 42053
" />
<path d="M59143 42728
L59031 42784
L58750 42784
L58637 42728
L58581 42615
L58581 42503
L58637 42390
L58750 42334
L59031 42334
L59143 42278
" />
<path d="M59593 41996
L59874 42784
" />
<path d="M60156 41996
L59874 42784
L59762 43065
L59706 43121
L59593 43178
" />
<path d="M60437 41996
L60887 41996
" />
<path d="M60606 41603
L60606 42615
L60662 42728
L60774 42784
L60887 42784
" />
<path d="M61280 42784
L61280 41996
" />
<path d="M61280 42221
L61337 42109
L61393 42053
L61505 41996
L61618 41996
" />
<path d="M62180 42784
L62068 42728
L62012 42671
L61955 42559
L61955 42221
L62012 42109
L62068 42053
L62180 41996
L62349 41996
L62462 42053
L62518 42109
L62574 42221
L62574 42559
L62518 42671
L62462 42728
L62349 42784
L62180 42784
" />
<path d="M63080 41996
L63080 42784
" />
<path d="M63080 42109
L63136 42053
L63249 41996
L63418 41996
L63530 42053
L63586 42165
L63586 42784
" />
<path d="M64149 42784
L64149 41996
" />
<path d="M64149 41603
L64093 41659
L64149 41715
L64205 41659
L64149 41603
L64149 41715
" />
<path d="M65217 42728
L65105 42784
L64880 42784
L64767 42728
L64711 42671
L64655 42559
L64655 42221
L64711 42109
L64767 42053
L64880 41996
L65105 41996
L65217 42053
" />
<g >
</g>
<g style="fill:#000000; fill-opacity:1.0; 
stroke:#000000; stroke-width:0; stroke-opacity:1; 
stroke-linecap:round; stroke-linejoin:round;">
<circle cx="63750" cy="32250" r="334.646" /> 
</g>
<g style="fill:#000000; fill-opacity:1.0; 
stroke:#000000; stroke-width:39.3701; stroke-opacity:1; 
stroke-linecap:round; stroke-linejoin:round;">
</g>
<g style="fill:#000000; fill-opacity:1.0; 
stroke:#000000; stroke-width:0; stroke-opacity:1; 
stroke-linecap:round; stroke-linejoin:round;">
<circle cx="66309.1" cy="32250" r="334.646" /> 
</g>
<g style="fill:#000000; fill-opacity:1.0; 
stroke:#000000; stroke-width:39.3701; stroke-opacity:1; 
stroke-linecap:round; stroke-linejoin:round;">
</g>
<g style="fill:#000000; fill-opacity:1.0; 
stroke:#000000; stroke-width:0; stroke-opacity:1; 
stroke-linecap:round; stroke-linejoin:round;">
<circle cx="63750" cy="30478.3" r="334.646" /> 
</g>
<g style="fill:#000000; fill-opacity:1.0; 
stroke:#000000; stroke-width:39.3701; stroke-opacity:1; 
stroke-linecap:round; stroke-linejoin:round;">
</g>
<g style="fill:#000000; fill-opacity:1.0; 
stroke:#000000; stroke-width:0; stroke-opacity:1; 
stroke-linecap:round; stroke-linejoin:round;">
<circle cx="66309.1" cy="30478.3" r="334.646" /> 
</g>
<g style="fill:#000000; fill-opacity:1.0; 
stroke:#000000; stroke-width:39.3701; stroke-opacity:1; 
stroke-linecap:round; stroke-linejoin:round;">
</g>
<g >
</g>
<g style="fill:#000000; fill-opacity:1.0; 
stroke:#000000; stroke-width:39.3701; stroke-opacity:1; 
stroke-linecap:round; stroke-linejoin:round;">
</g>
<g style="fill:#000000; fill-opacity:1.0; 
stroke:#000000; stroke-width:0; stroke-opacity:1; 
stroke-linecap:round; stroke-linejoin:round;">
<circle cx="40452.8" cy="22047.2" r="314.961" /> 
</g>
<g style="fill:#000000; fill-opacity:1.0; 
stroke:#000000; stroke-width:39.3701; stroke-opacity:1; 
stroke-linecap:round; stroke-linejoin:round;">
</g>
<g style="fill:#000000; fill-opacity:1.0; 
stroke:#000000; stroke-width:0; stroke-opacity:1; 
stroke-linecap:round; stroke-linejoin:round;">
<circle cx="40452.8" cy="20078.7" r="314.961" /> 
</g>
<g style="fill:#000000; fill-opacity:1.0; 
stroke:#000000; stroke-width:39.3701; stroke-opacity:1; 
stroke-linecap:round; stroke-linejoin:round;">
</g>
<g >
</g>
<g style="fill:#000000; fill-opacity:1.0; 
stroke:#000000; stroke-width:39.3701; stroke-opacity:1; 
stroke-linecap:round; stroke-linejoin:round;">
</g>
<g style="fill:#000000; fill-opacity:1.0; 
stroke:#000000; stroke-width:0; stroke-opacity:1; 
stroke-linecap:round; stroke-linejoin:round;">
<path style="fill:#000000; fill-opacity:1.0; 
stroke:#000000; stroke-width:0; stroke-opacity:1; 
stroke-linecap:round; stroke-linejoin:round;fill-rule:evenodd;"
d="M 21740.2,12566.9
21740.2,12173.2
22330.7,12173.2
22330.7,12566.9
Z" /> 
<path style="fill:#000000; fill-opacity:1.0; 
stroke:#000000; stroke-width:0; stroke-opacity:1; 
stroke-linecap:round; stroke-linejoin:round;fill-rule:evenodd;"
d="M 21740.2,13826.8
21740.2,13433.1
22330.7,13433.1
22330.7,13826.8
Z" /> 
<path style="fill:#000000; fill-opacity:1.0; 
stroke:#000000; stroke-width:0; stroke-opacity:1; 
stroke-linecap:round; stroke-linejoin:round;fill-rule:evenodd;"
d="M 23669.3,12566.9
23669.3,12173.2
24259.8,12173.2
24259.8,12566.9
Z" /> 
<path style="fill:#000000; fill-opacity:1.0; 
stroke:#000000; stroke-width:0; stroke-opacity:1; 
stroke-linecap:round; stroke-linejoin:round;fill-rule:evenodd;"
d="M 23669.3,13826.8
23669.3,13433.1
24259.8,13433.1
24259.8,13826.8
Z" /> 
</g>
<g >
</g>
<g style="fill:#000000; fill-opacity:1.0; 
stroke:#000000; stroke-width:0; stroke-opacity:1; 
stroke-linecap:round; stroke-linejoin:round;">
<path style="fill:#000000; fill-opacity:1.0; 
stroke:#000000; stroke-width:0; stroke-opacity:1; 
stroke-linecap:round; stroke-linejoin:round;fill-rule:evenodd;"
d="M 55669.3,13826.8
55669.3,13433.1
56259.8,13433.1
56259.8,13826.8
Z" /> 
<path style="fill:#000000; fill-opacity:1.0; 
stroke:#000000; stroke-width:0; stroke-opacity:1; 
stroke-linecap:round; stroke-linejoin:round;fill-rule:evenodd;"
d="M 55669.3,12566.9
55669.3,12173.2
56259.8,12173.2
56259.8,12566.9
Z" /> 
<path style="fill:#000000; fill-opacity:1.0; 
stroke:#000000; stroke-width:0; stroke-opacity:1; 
stroke-linecap:round; stroke-linejoin:round;fill-rule:evenodd;"
d="M 53740.2,13826.8
53740.2,13433.1
54330.7,13433.1
54330.7,13826.8
Z" /> 
<path style="fill:#000000; fill-opacity:1.0; 
stroke:#000000; stroke-width:0; stroke-opacity:1; 
stroke-linecap:round; stroke-linejoin:round;fill-rule:evenodd;"
d="M 53740.2,12566.9
53740.2,12173.2
54330.7,12173.2
54330.7,12566.9
Z" /> 
</g>
<g >
</g>
<g style="fill:#000000; fill-opacity:1.0; 
stroke:#000000; stroke-width:0; stroke-opacity:1; 
stroke-linecap:round; stroke-linejoin:round;">
<path style="fill:#000000; fill-opacity:1.0; 
stroke:#000000; stroke-width:0; stroke-opacity:1; 
stroke-linecap:round; stroke-linejoin:round;fill-rule:evenodd;"
d="M 25740.2,12566.9
25740.2,12173.2
26330.7,12173.2
26330.7,12566.9
Z" /> 
<path style="fill:#000000; fill-opacity:1.0; 
stroke:#000000; stroke-width:0; stroke-opacity:1; 
stroke-linecap:round; stroke-linejoin:round;fill-rule:evenodd;"
d="M 25740.2,13826.8
25740.2,13433.1
26330.7,13433.1
26330.7,13826.8
Z" /> 
<path style="fill:#000000; fill-opacity:1.0; 
stroke:#000000; stroke-width:0; stroke-opacity:1; 
stroke-linecap:round; stroke-linejoin:round;fill-rule:evenodd;"
d="M 27669.3,12566.9
27669.3,12173.2
28259.8,12173.2
28259.8,12566.9
Z" /> 
<path style="fill:#000000; fill-opacity:1.0; 
stroke:#000000; stroke-width:0; stroke-opacity:1; 
stroke-linecap:round; stroke-linejoin:round;fill-rule:evenodd;"
d="M 27669.3,13826.8
27669.3,13433.1
28259.8,13433.1
28259.8,13826.8
Z" /> 
</g>
<g >
</g>
<g style="fill:#000000; fill-opacity:1.0; 
stroke:#000000; stroke-width:0; stroke-opacity:1; 
stroke-linecap:round; stroke-linejoin:round;">
<path style="fill:#000000; fill-opacity:1.0; 
stroke:#000000; stroke-width:0; stroke-opacity:1; 
stroke-linecap:round; stroke-linejoin:round;fill-rule:evenodd;"
d="M 57740.2,12566.9
57740.2,12173.2
58330.7,12173.2
58330.7,12566.9
Z" /> 
<path style="fill:#000000; fill-opacity:1.0; 
stroke:#000000; stroke-width:0; stroke-opacity:1; 
stroke-linecap:round; stroke-linejoin:round;fill-rule:evenodd;"
d="M 57740.2,13826.8
57740.2,13433.1
58330.7,13433.1
58330.7,13826.8
Z" /> 
<path style="fill:#000000; fill-opacity:1.0; 
stroke:#000000; stroke-width:0; stroke-opacity:1; 
stroke-linecap:round; stroke-linejoin:round;fill-rule:evenodd;"
d="M 59669.3,12566.9
59669.3,12173.2
60259.8,12173.2
60259.8,12566.9
Z" /> 
<path style="fill:#000000; fill-opacity:1.0; 
stroke:#000000; stroke-width:0; stroke-opacity:1; 
stroke-linecap:round; stroke-linejoin:round;fill-rule:evenodd;"
d="M 59669.3,13826.8
59669.3,13433.1
60259.8,13433.1
60259.8,13826.8
Z" /> 
</g>
<g >
</g>
<g style="fill:#000000; fill-opacity:1.0; 
stroke:#000000; stroke-width:0; stroke-opacity:1; 
stroke-linecap:round; stroke-linejoin:round;">
<path style="fill:#000000; fill-opacity:1.0; 
stroke:#000000; stroke-width:0; stroke-opacity:1; 
stroke-linecap:round; stroke-linejoin:round;fill-rule:evenodd;"
d="M 31669.3,13826.8
31669.3,13433.1
32259.8,13433.1
32259.8,13826.8
Z" /> 
<path style="fill:#000000; fill-opacity:1.0; 
stroke:#000000; stroke-width:0; stroke-opacity:1; 
stroke-linecap:round; stroke-linejoin:round;fill-rule:evenodd;"
d="M 31669.3,12566.9
31669.3,12173.2
32259.8,12173.2
32259.8,12566.9
Z" /> 
<path style="fill:#000000; fill-opacity:1.0; 
stroke:#000000; stroke-width:0; stroke-opacity:1; 
stroke-linecap:round; stroke-linejoin:round;fill-rule:evenodd;"
d="M 29740.2,13826.8
29740.2,13433.1
30330.7,13433.1
30330.7,13826.8
Z" /> 
<path style="fill:#000000; fill-opacity:1.0; 
stroke:#000000; stroke-width:0; stroke-opacity:1; 
stroke-linecap:round; stroke-linejoin:round;fill-rule:evenodd;"
d="M 29740.2,12566.9
29740.2,12173.2
30330.7,12173.2
30330.7,12566.9
Z" /> 
</g>
<g >
</g>
<g style="fill:#000000; fill-opacity:1.0; 
stroke:#000000; stroke-width:0; stroke-opacity:1; 
stroke-linecap:round; stroke-linejoin:round;">
<path style="fill:#000000; fill-opacity:1.0; 
stroke:#000000; stroke-width:0; stroke-opacity:1; 
stroke-linecap:round; stroke-linejoin:round;fill-rule:evenodd;"
d="M 63669.3,13826.8
63669.3,13433.1
64259.8,13433.1
64259.8,13826.8
Z" /> 
<path style="fill:#000000; fill-opacity:1.0; 
stroke:#000000; stroke-width:0; stroke-opacity:1; 
stroke-linecap:round; stroke-linejoin:round;fill-rule:evenodd;"
d="M 63669.3,12566.9
63669.3,12173.2
64259.8,12173.2
64259.8,12566.9
Z" /> 
<path style="fill:#000000; fill-opacity:1.0; 
stroke:#000000; stroke-width:0; stroke-opacity:1; 
stroke-linecap:round; stroke-linejoin:round;fill-rule:evenodd;"
d="M 61740.2,13826.8
61740.2,13433.1
62330.7,13433.1
62330.7,13826.8
Z" /> 
<path style="fill:#000000; fill-opacity:1.0; 
stroke:#000000; stroke-width:0; stroke-opacity:1; 
stroke-linecap:round; stroke-linejoin:round;fill-rule:evenodd;"
d="M 61740.2,12566.9
61740.2,12173.2
62330.7,12173.2
62330.7,12566.9
Z" /> 
</g>
<g >
</g>
<g style="fill:#000000; fill-opacity:1.0; 
stroke:#000000; stroke-width:0; stroke-opacity:1; 
stroke-linecap:round; stroke-linejoin:round;">
<path style="fill:#000000; fill-opacity:1.0; 
stroke:#000000; stroke-width:0; stroke-opacity:1; 
stroke-linecap:round; stroke-linejoin:round;fill-rule:evenodd;"
d="M 33740.2,12566.9
33740.2,12173.2
34330.7,12173.2
34330.7,12566.9
Z" /> 
<path style="fill:#000000; fill-opacity:1.0; 
stroke:#000000; stroke-width:0; stroke-opacity:1; 
stroke-linecap:round; stroke-linejoin:round;fill-rule:evenodd;"
d="M 33740.2,13826.8
33740.2,13433.1
34330.7,13433.1
34330.7,13826.8
Z" /> 
<path style="fill:#000000; fill-opacity:1.0; 
stroke:#000000; stroke-width:0; stroke-opacity:1; 
stroke-linecap:round; stroke-linejoin:round;fill-rule:evenodd;"
d="M 35669.3,12566.9
35669.3,12173.2
36259.8,12173.2
36259.8,12566.9
Z" /> 
<path style="fill:#000000; fill-opacity:1.0; 
stroke:#000000; stroke-width:0; stroke-opacity:1; 
stroke-linecap:round; stroke-linejoin:round;fill-rule:evenodd;"
d="M 35669.3,13826.8
35669.3,13433.1
36259.8,13433.1
36259.8,13826.8
Z" /> 
</g>
<g >
</g>
<g style="fill:#000000; fill-opacity:1.0; 
stroke:#000000; stroke-width:0; stroke-opacity:1; 
stroke-linecap:round; stroke-linejoin:round;">
<path style="fill:#000000; fill-opacity:1.0; 
stroke:#000000; stroke-width:0; stroke-opacity:1; 
stroke-linecap:round; stroke-linejoin:round;fill-rule:evenodd;"
d="M 39645.7,13826.8
39645.7,13433.1
40236.2,13433.1
40236.2,13826.8
Z" /> 
<path style="fill:#000000; fill-opacity:1.0; 
stroke:#000000; stroke-width:0; stroke-opacity:1; 
stroke-linecap:round; stroke-linejoin:round;fill-rule:evenodd;"
d="M 39645.7,12566.9
39645.7,12173.2
40236.2,12173.2
40236.2,12566.9
Z" /> 
<path style="fill:#000000; fill-opacity:1.0; 
stroke:#000000; stroke-width:0; stroke-opacity:1; 
stroke-linecap:round; stroke-linejoin:round;fill-rule:evenodd;"
d="M 37716.5,13826.8
37716.5,13433.1
38307.1,13433.1
38307.1,13826.8
Z" /> 
<path style="fill:#000000; fill-opacity:1.0; 
stroke:#000000; stroke-width:0; stroke-opacity:1; 
stroke-linecap:round; stroke-linejoin:round;fill-rule:evenodd;"
d="M 37716.5,12566.9
37716.5,12173.2
38307.1,12173.2
38307.1,12566.9
Z" /> 
</g>
<g >
</g>
<g style="fill:#000000; fill-opacity:1.0; 
stroke:#000000; stroke-width:0; stroke-opacity:1; 
stroke-linecap:round; stroke-linejoin:round;">
<path style="fill:#000000; fill-opacity:1.0; 
stroke:#000000; stroke-width:0; stroke-opacity:1; 
stroke-linecap:round; stroke-linejoin:round;fill-rule:evenodd;"
d="M 41740.2,12566.9
41740.2,12173.2
42330.7,12173.2
42330.7,12566.9
Z" /> 
<path style="fill:#000000; fill-opacity:1.0; 
stroke:#000000; stroke-width:0; stroke-opacity:1; 
stroke-linecap:round; stroke-linejoin:round;fill-rule:evenodd;"
d="M 41740.2,13826.8
41740.2,13433.1
42330.7,13433.1
42330.7,13826.8
Z" /> 
<path style="fill:#000000; fill-opacity:1.0; 
stroke:#000000; stroke-width:0; stroke-opacity:1; 
stroke-linecap:round; stroke-linejoin:round;fill-rule:evenodd;"
d="M 43669.3,12566.9
43669.3,12173.2
44259.8,12173.2
44259.8,12566.9
Z" /> 
<path style="fill:#000000; fill-opacity:1.0; 
stroke:#000000; stroke-width:0; stroke-opacity:1; 
stroke-linecap:round; stroke-linejoin:round;fill-rule:evenodd;"
d="M 43669.3,13826.8
43669.3,13433.1
44259.8,13433.1
44259.8,13826.8
Z" /> 
</g>
<g >
</g>
<g style="fill:#000000; fill-opacity:1.0; 
stroke:#000000; stroke-width:0; stroke-opacity:1; 
stroke-linecap:round; stroke-linejoin:round;">
<path style="fill:#000000; fill-opacity:1.0; 
stroke:#000000; stroke-width:0; stroke-opacity:1; 
stroke-linecap:round; stroke-linejoin:round;fill-rule:evenodd;"
d="M 47669.3,13826.8
47669.3,13433.1
48259.8,13433.1
48259.8,13826.8
Z" /> 
<path style="fill:#000000; fill-opacity:1.0; 
stroke:#000000; stroke-width:0; stroke-opacity:1; 
stroke-linecap:round; stroke-linejoin:round;fill-rule:evenodd;"
d="M 47669.3,12566.9
47669.3,12173.2
48259.8,12173.2
48259.8,12566.9
Z" /> 
<path style="fill:#000000; fill-opacity:1.0; 
stroke:#000000; stroke-width:0; stroke-opacity:1; 
stroke-linecap:round; stroke-linejoin:round;fill-rule:evenodd;"
d="M 45740.2,13826.8
45740.2,13433.1
46330.7,13433.1
46330.7,13826.8
Z" /> 
<path style="fill:#000000; fill-opacity:1.0; 
stroke:#000000; stroke-width:0; stroke-opacity:1; 
stroke-linecap:round; stroke-linejoin:round;fill-rule:evenodd;"
d="M 45740.2,12566.9
45740.2,12173.2
46330.7,12173.2
46330.7,12566.9
Z" /> 
</g>
<g >
</g>
<g style="fill:#000000; fill-opacity:1.0; 
stroke:#000000; stroke-width:0; stroke-opacity:1; 
stroke-linecap:round; stroke-linejoin:round;">
<path style="fill:#000000; fill-opacity:1.0; 
stroke:#000000; stroke-width:0; stroke-opacity:1; 
stroke-linecap:round; stroke-linejoin:round;fill-rule:evenodd;"
d="M 51669.3,13826.8
51669.3,13433.1
52259.8,13433.1
52259.8,13826.8
Z" /> 
<path style="fill:#000000; fill-opacity:1.0; 
stroke:#000000; stroke-width:0; stroke-opacity:1; 
stroke-linecap:round; stroke-linejoin:round;fill-rule:evenodd;"
d="M 51669.3,12566.9
51669.3,12173.2
52259.8,12173.2
52259.8,12566.9
Z" /> 
<path style="fill:#000000; fill-opacity:1.0; 
stroke:#000000; stroke-width:0; stroke-opacity:1; 
stroke-linecap:round; stroke-linejoin:round;fill-rule:evenodd;"
d="M 49740.2,13826.8
49740.2,13433.1
50330.7,13433.1
50330.7,13826.8
Z" /> 
<path style="fill:#000000; fill-opacity:1.0; 
stroke:#000000; stroke-width:0; stroke-opacity:1; 
stroke-linecap:round; stroke-linejoin:round;fill-rule:evenodd;"
d="M 49740.2,12566.9
49740.2,12173.2
50330.7,12173.2
50330.7,12566.9
Z" /> 
</g>
<g >
</g>
<g >
</g>
<g style="fill:#000000; fill-opacity:1.0; 
stroke:#000000; stroke-width:0; stroke-opacity:1; 
stroke-linecap:round; stroke-linejoin:round;">
<circle cx="45800" cy="21800" r="295.276" /> 
</g>
<g style="fill:#000000; fill-opacity:1.0; 
stroke:#000000; stroke-width:39.3701; stroke-opacity:1; 
stroke-linecap:round; stroke-linejoin:round;">
</g>
<g style="fill:#000000; fill-opacity:1.0; 
stroke:#000000; stroke-width:0; stroke-opacity:1; 
stroke-linecap:round; stroke-linejoin:round;">
<circle cx="43878.7" cy="21800" r="295.276" /> 
</g>
<g style="fill:#000000; fill-opacity:1.0; 
stroke:#000000; stroke-width:39.3701; stroke-opacity:1; 
stroke-linecap:round; stroke-linejoin:round;">
</g>
<g >
</g>
<g style="fill:#000000; fill-opacity:1.0; 
stroke:#000000; stroke-width:39.3701; stroke-opacity:1; 
stroke-linecap:round; stroke-linejoin:round;">
</g>
<g style="fill:#000000; fill-opacity:1.0; 
stroke:#000000; stroke-width:0; stroke-opacity:1; 
stroke-linecap:round; stroke-linejoin:round;">
<path style="fill:#000000; fill-opacity:1.0; 
stroke:#000000; stroke-width:0; stroke-opacity:1; 
stroke-linecap:round; stroke-linejoin:round;fill-rule:evenodd;"
d="M 67669.3,13826.8
67669.3,13433.1
68259.8,13433.1
68259.8,13826.8
Z" /> 
<path style="fill:#000000; fill-opacity:1.0; 
stroke:#000000; stroke-width:0; stroke-opacity:1; 
stroke-linecap:round; stroke-linejoin:round;fill-rule:evenodd;"
d="M 67669.3,12566.9
67669.3,12173.2
68259.8,12173.2
68259.8,12566.9
Z" /> 
<path style="fill:#000000; fill-opacity:1.0; 
stroke:#000000; stroke-width:0; stroke-opacity:1; 
stroke-linecap:round; stroke-linejoin:round;fill-rule:evenodd;"
d="M 65740.2,13826.8
65740.2,13433.1
66330.7,13433.1
66330.7,13826.8
Z" /> 
<path style="fill:#000000; fill-opacity:1.0; 
stroke:#000000; stroke-width:0; stroke-opacity:1; 
stroke-linecap:round; stroke-linejoin:round;fill-rule:evenodd;"
d="M 65740.2,12566.9
65740.2,12173.2
66330.7,12173.2
66330.7,12566.9
Z" /> 
</g>
<g >
</g>
<g >
</g>
<g style="fill:#000000; fill-opacity:1.0; 
stroke:#000000; stroke-width:0; stroke-opacity:1; 
stroke-linecap:round; stroke-linejoin:round;">
<path style="fill:#000000; fill-opacity:1.0; 
stroke:#000000; stroke-width:0; stroke-opacity:1; 
stroke-linecap:round; stroke-linejoin:round;fill-rule:evenodd;"
d="M 25196.9,28606.3
25196.9,29393.7
24409.4,29393.7
24409.4,28606.3
Z" /> 
</g>
<g style="fill:#000000; fill-opacity:1.0; 
stroke:#000000; stroke-width:787.402; stroke-opacity:1; 
stroke-linecap:round; stroke-linejoin:round;">
</g>
<g style="fill:#000000; fill-opacity:0.0; 
stroke:#000000; stroke-width:787.402; stroke-opacity:1; 
stroke-linecap:round; stroke-linejoin:round;">
<path d="M24803 30000
L24803 30000
" />
<path d="M24803 31000
L24803 31000
" />
<path d="M24803 32000
L24803 32000
" />
</g>
<g >
</g>
<g style="fill:#000000; fill-opacity:0.0; 
stroke:#000000; stroke-width:787.402; stroke-opacity:1; 
stroke-linecap:round; stroke-linejoin:round;">
</g>
<g style="fill:#000000; fill-opacity:0.0; 
stroke:#000000; stroke-width:0; stroke-opacity:1; 
stroke-linecap:round; stroke-linejoin:round;">
</g>
<g style="fill:#000000; fill-opacity:1.0; 
stroke:#000000; stroke-width:0; stroke-opacity:1; 
stroke-linecap:round; stroke-linejoin:round;">
<path style="fill:#000000; fill-opacity:1.0; 
stroke:#000000; stroke-width:0; stroke-opacity:1; 
stroke-linecap:round; stroke-linejoin:round;fill-rule:evenodd;"
d="M 25393.7,20106.3
25393.7,20893.7
24606.3,20893.7
24606.3,20106.3
Z" /> 
</g>
<g style="fill:#000000; fill-opacity:1.0; 
stroke:#000000; stroke-width:787.402; stroke-opacity:1; 
stroke-linecap:round; stroke-linejoin:round;">
</g>
<g style="fill:#000000; fill-opacity:0.0; 
stroke:#000000; stroke-width:787.402; stroke-opacity:1; 
stroke-linecap:round; stroke-linejoin:round;">
<path d="M25000 21500
L25000 21500
" />
<path d="M25000 22500
L25000 22500
" />
<path d="M25000 23500
L25000 23500
" />
<path d="M25000 24500
L25000 24500
" />
<path d="M25000 25500
L25000 25500
" />
</g>
<g >
</g>
<g style="fill:#000000; fill-opacity:0.0; 
stroke:#000000; stroke-width:787.402; stroke-opacity:1; 
stroke-linecap:round; stroke-linejoin:round;">
</g>
<g style="fill:#000000; fill-opacity:1.0; 
stroke:#000000; stroke-width:0; stroke-opacity:1; 
stroke-linecap:round; stroke-linejoin:round;">
<circle cx="48425.2" cy="25393.7" r="314.961" /> 
</g>
<g style="fill:#000000; fill-opacity:1.0; 
stroke:#000000; stroke-width:39.3701; stroke-opacity:1; 
stroke-linecap:round; stroke-linejoin:round;">
</g>
<g style="fill:#000000; fill-opacity:1.0; 
stroke:#000000; stroke-width:0; stroke-opacity:1; 
stroke-linecap:round; stroke-linejoin:round;">
<circle cx="48425.2" cy="23425.2" r="314.961" /> 
</g>
<g style="fill:#000000; fill-opacity:1.0; 
stroke:#000000; stroke-width:39.3701; stroke-opacity:1; 
stroke-linecap:round; stroke-linejoin:round;">
</g>
<g >
</g>
<g style="fill:#000000; fill-opacity:1.0; 
stroke:#000000; stroke-width:39.3701; stroke-opacity:1; 
stroke-linecap:round; stroke-linejoin:round;">
</g>
<g style="fill:#000000; fill-opacity:1.0; 
stroke:#000000; stroke-width:0; stroke-opacity:1; 
stroke-linecap:round; stroke-linejoin:round;">
<circle cx="65000" cy="21250" r="354.331" /> 
</g>
<g style="fill:#000000; fill-opacity:1.0; 
stroke:#000000; stroke-width:39.3701; stroke-opacity:1; 
stroke-linecap:round; stroke-linejoin:round;">
</g>
<g style="fill:#000000; fill-opacity:1.0; 
stroke:#000000; stroke-width:0; stroke-opacity:1; 
stroke-linecap:round; stroke-linejoin:round;">
<path style="fill:#000000; fill-opacity:1.0; 
stroke:#000000; stroke-width:0; stroke-opacity:1; 
stroke-linecap:round; stroke-linejoin:round;fill-rule:evenodd;"
d="M 66354.3,20895.7
66354.3,21604.3
65645.7,21604.3
65645.7,20895.7
Z" /> 
</g>
<g >
</g>
<g style="fill:#000000; fill-opacity:1.0; 
stroke:#000000; stroke-width:0; stroke-opacity:1; 
stroke-linecap:round; stroke-linejoin:round;">
<path style="fill:#000000; fill-opacity:1.0; 
stroke:#000000; stroke-width:0; stroke-opacity:1; 
stroke-linecap:round; stroke-linejoin:round;fill-rule:evenodd;"
d="M 66354.3,23145.7
66354.3,23854.3
65645.7,23854.3
65645.7,23145.7
Z" /> 
<circle cx="65000" cy="23500" r="354.331" /> 
</g>
<g style="fill:#000000; fill-opacity:1.0; 
stroke:#000000; stroke-width:39.3701; stroke-opacity:1; 
stroke-linecap:round; stroke-linejoin:round;">
</g>
<g >
</g>
<g style="fill:#000000; fill-opacity:1.0; 
stroke:#000000; stroke-width:39.3701; stroke-opacity:1; 
stroke-linecap:round; stroke-linejoin:round;">
</g>
<g style="fill:#000000; fill-opacity:1.0; 
stroke:#000000; stroke-width:551.181; stroke-opacity:1; 
stroke-linecap:round; stroke-linejoin:round;">
</g>
<g style="fill:#000000; fill-opacity:0.0; 
stroke:#000000; stroke-width:551.181; stroke-opacity:1; 
stroke-linecap:round; stroke-linejoin:round;">
<path d="M64074 39468
L64074 39468
" />
</g>
<g style="fill:#000000; fill-opacity:1.0; 
stroke:#000000; stroke-width:0; stroke-opacity:1; 
stroke-linecap:round; stroke-linejoin:round;">
<circle cx="62074.8" cy="39468.5" r="275.591" /> 
</g>
<g style="fill:#000000; fill-opacity:1.0; 
stroke:#000000; stroke-width:39.3701; stroke-opacity:1; 
stroke-linecap:round; stroke-linejoin:round;">
</g>
<g >
</g>
<g style="fill:#000000; fill-opacity:1.0; 
stroke:#000000; stroke-width:39.3701; stroke-opacity:1; 
stroke-linecap:round; stroke-linejoin:round;">
</g>
<g style="fill:#000000; fill-opacity:1.0; 
stroke:#000000; stroke-width:0; stroke-opacity:1; 
stroke-linecap:round; stroke-linejoin:round;">
<circle cx="62074.8" cy="37992.1" r="275.591" /> 
</g>
<g style="fill:#000000; fill-opacity:1.0; 
stroke:#000000; stroke-width:39.3701; stroke-opacity:1; 
stroke-linecap:round; stroke-linejoin:round;">
</g>
<g style="fill:#000000; fill-opacity:1.0; 
stroke:#000000; stroke-width:551.181; stroke-opacity:1; 
stroke-linecap:round; stroke-linejoin:round;">
</g>
<g style="fill:#000000; fill-opacity:0.0; 
stroke:#000000; stroke-width:551.181; stroke-opacity:1; 
stroke-linecap:round; stroke-linejoin:round;">
<path d="M64074 37992
L64074 37992
" />
</g>
<g >
</g>
<g style="fill:#000000; fill-opacity:0.0; 
stroke:#000000; stroke-width:551.181; stroke-opacity:1; 
stroke-linecap:round; stroke-linejoin:round;">
<path d="M32448 29921
L32448 29921
" />
</g>
<g style="fill:#000000; fill-opacity:1.0; 
stroke:#000000; stroke-width:0; stroke-opacity:1; 
stroke-linecap:round; stroke-linejoin:round;">
<circle cx="34448.8" cy="29921.3" r="275.591" /> 
</g>
<g style="fill:#000000; fill-opacity:1.0; 
stroke:#000000; stroke-width:39.3701; stroke-opacity:1; 
stroke-linecap:round; stroke-linejoin:round;">
</g>
<g >
</g>
<g style="fill:#000000; fill-opacity:1.0; 
stroke:#000000; stroke-width:39.3701; stroke-opacity:1; 
stroke-linecap:round; stroke-linejoin:round;">
</g>
<g style="fill:#000000; fill-opacity:1.0; 
stroke:#000000; stroke-width:0; stroke-opacity:1; 
stroke-linecap:round; stroke-linejoin:round;">
<circle cx="61500" cy="21250" r="275.591" /> 
</g>
<g style="fill:#000000; fill-opacity:1.0; 
stroke:#000000; stroke-width:39.3701; stroke-opacity:1; 
stroke-linecap:round; stroke-linejoin:round;">
</g>
<g style="fill:#000000; fill-opacity:1.0; 
stroke:#000000; stroke-width:551.181; stroke-opacity:1; 
stroke-linecap:round; stroke-linejoin:round;">
</g>
<g style="fill:#000000; fill-opacity:0.0; 
stroke:#000000; stroke-width:551.181; stroke-opacity:1; 
stroke-linecap:round; stroke-linejoin:round;">
<path d="M63500 21250
L63500 21250
" />
</g>
<g >
</g>
<g style="fill:#000000; fill-opacity:0.0; 
stroke:#000000; stroke-width:551.181; stroke-opacity:1; 
stroke-linecap:round; stroke-linejoin:round;">
</g>
<g style="fill:#000000; fill-opacity:1.0; 
stroke:#000000; stroke-width:0; stroke-opacity:1; 
stroke-linecap:round; stroke-linejoin:round;">
<circle cx="61500" cy="23500" r="275.591" /> 
</g>
<g style="fill:#000000; fill-opacity:1.0; 
stroke:#000000; stroke-width:39.3701; stroke-opacity:1; 
stroke-linecap:round; stroke-linejoin:round;">
</g>
<g style="fill:#000000; fill-opacity:1.0; 
stroke:#000000; stroke-width:551.181; stroke-opacity:1; 
stroke-linecap:round; stroke-linejoin:round;">
</g>
<g style="fill:#000000; fill-opacity:0.0; 
stroke:#000000; stroke-width:551.181; stroke-opacity:1; 
stroke-linecap:round; stroke-linejoin:round;">
<path d="M63500 23500
L63500 23500
" />
</g>
<g >
</g>
<g style="fill:#000000; fill-opacity:0.0; 
stroke:#000000; stroke-width:551.181; stroke-opacity:1; 
stroke-linecap:round; stroke-linejoin:round;">
</g>
<g style="fill:#000000; fill-opacity:0.0; 
stroke:#000000; stroke-width:0; stroke-opacity:1; 
stroke-linecap:round; stroke-linejoin:round;">
</g>
<g style="fill:#000000; fill-opacity:1.0; 
stroke:#000000; stroke-width:0; stroke-opacity:1; 
stroke-linecap:round; stroke-linejoin:round;">
<path style="fill:#000000; fill-opacity:1.0; 
stroke:#000000; stroke-width:0; stroke-opacity:1; 
stroke-linecap:round; stroke-linejoin:round;fill-rule:evenodd;"
d="M 33149.6,25374
33779.5,25374
33779.5,26003.9
33149.6,26003.9
Z" /> 
<circle cx="33464.6" cy="26673.2" r="314.961" /> 
</g>
<g style="fill:#000000; fill-opacity:1.0; 
stroke:#000000; stroke-width:39.3701; stroke-opacity:1; 
stroke-linecap:round; stroke-linejoin:round;">
</g>
<g >
</g>
<g style="fill:#000000; fill-opacity:1.0; 
stroke:#000000; stroke-width:39.3701; stroke-opacity:1; 
stroke-linecap:round; stroke-linejoin:round;">
</g>
<g style="fill:#000000; fill-opacity:1.0; 
stroke:#000000; stroke-width:0; stroke-opacity:1; 
stroke-linecap:round; stroke-linejoin:round;">
<circle cx="43917.3" cy="27244.1" r="157.48" /> 
</g>
<g style="fill:#000000; fill-opacity:1.0; 
stroke:#000000; stroke-width:39.3701; stroke-opacity:1; 
stroke-linecap:round; stroke-linejoin:round;">
</g>
<g style="fill:#000000; fill-opacity:1.0; 
stroke:#000000; stroke-width:0; stroke-opacity:1; 
stroke-linecap:round; stroke-linejoin:round;">
<circle cx="46456.7" cy="27293.3" r="157.48" /> 
</g>
<g style="fill:#000000; fill-opacity:1.0; 
stroke:#000000; stroke-width:39.3701; stroke-opacity:1; 
stroke-linecap:round; stroke-linejoin:round;">
</g>
<g style="fill:#000000; fill-opacity:1.0; 
stroke:#000000; stroke-width:0; stroke-opacity:1; 
stroke-linecap:round; stroke-linejoin:round;">
<circle cx="21134.6" cy="19389.8" r="157.48" /> 
</g>
<g style="fill:#000000; fill-opacity:1.0; 
stroke:#000000; stroke-width:39.3701; stroke-opacity:1; 
stroke-linecap:round; stroke-linejoin:round;">
</g>
<g style="fill:#000000; fill-opacity:1.0; 
stroke:#000000; stroke-width:0; stroke-opacity:1; 
stroke-linecap:round; stroke-linejoin:round;">
<circle cx="43500" cy="26752" r="157.48" /> 
</g>
<g style="fill:#000000; fill-opacity:1.0; 
stroke:#000000; stroke-width:39.3701; stroke-opacity:1; 
stroke-linecap:round; stroke-linejoin:round;">
</g>
<g style="fill:#000000; fill-opacity:1.0; 
stroke:#000000; stroke-width:0; stroke-opacity:1; 
stroke-linecap:round; stroke-linejoin:round;">
<circle cx="46161.4" cy="26082.7" r="157.48" /> 
</g>
<g style="fill:#000000; fill-opacity:1.0; 
stroke:#000000; stroke-width:39.3701; stroke-opacity:1; 
stroke-linecap:round; stroke-linejoin:round;">
</g>
<g style="fill:#000000; fill-opacity:1.0; 
stroke:#000000; stroke-width:0; stroke-opacity:1; 
stroke-linecap:round; stroke-linejoin:round;">
<circle cx="45767.7" cy="26082.7" r="157.48" /> 
</g>
<g style="fill:#000000; fill-opacity:1.0; 
stroke:#000000; stroke-width:39.3701; stroke-opacity:1; 
stroke-linecap:round; stroke-linejoin:round;">
</g>
<g style="fill:#000000; fill-opacity:1.0; 
stroke:#000000; stroke-width:0; stroke-opacity:1; 
stroke-linecap:round; stroke-linejoin:round;">
<circle cx="41338.6" cy="28543.3" r="157.48" /> 
</g>
<g style="fill:#000000; fill-opacity:1.0; 
stroke:#000000; stroke-width:39.3701; stroke-opacity:1; 
stroke-linecap:round; stroke-linejoin:round;">
</g>
<g style="fill:#000000; fill-opacity:1.0; 
stroke:#000000; stroke-width:0; stroke-opacity:1; 
stroke-linecap:round; stroke-linejoin:round;">
<circle cx="42618.1" cy="31692.9" r="157.48" /> 
</g>
<g style="fill:#000000; fill-opacity:1.0; 
stroke:#000000; stroke-width:39.3701; stroke-opacity:1; 
stroke-linecap:round; stroke-linejoin:round;">
</g>
<g style="fill:#000000; fill-opacity:1.0; 
stroke:#000000; stroke-width:0; stroke-opacity:1; 
stroke-linecap:round; stroke-linejoin:round;">
<circle cx="42618.1" cy="31240.2" r="157.48" /> 
</g>
<g style="fill:#000000; fill-opacity:1.0; 
stroke:#000000; stroke-width:39.3701; stroke-opacity:1; 
stroke-linecap:round; stroke-linejoin:round;">
</g>
<g style="fill:#000000; fill-opacity:1.0; 
stroke:#000000; stroke-width:0; stroke-opacity:1; 
stroke-linecap:round; stroke-linejoin:round;">
<circle cx="41929.1" cy="28543.3" r="157.48" /> 
</g>
<g style="fill:#000000; fill-opacity:1.0; 
stroke:#000000; stroke-width:39.3701; stroke-opacity:1; 
stroke-linecap:round; stroke-linejoin:round;">
</g>
<g >
</g>
<g style="fill:#000000; fill-opacity:1.0; 
stroke:#000000; stroke-width:39.3701; stroke-opacity:1; 
stroke-linecap:round; stroke-linejoin:round;">
</g>
<g style="fill:#000000; fill-opacity:1.0; 
stroke:#000000; stroke-width:98.4252; stroke-opacity:1; 
stroke-linecap:round; stroke-linejoin:round;">
</g>
<g style="fill:#000000; fill-opacity:0.0; 
stroke:#000000; stroke-width:98.4252; stroke-opacity:1; 
stroke-linecap:round; stroke-linejoin:round;">
<path d="M23964 13629
L24129 13629
" />
</g>
<g style="fill:#000000; fill-opacity:0.0; 
stroke:#000000; stroke-width:196.85; stroke-opacity:1; 
stroke-linecap:round; stroke-linejoin:round;">
<path d="M23964 13629
L24629 13629
" />
<path d="M24629 13629
L25500 14500
" />
<path d="M27500 14094
L27964 13629
" />
<path d="M27500 14500
L27500 14094
" />
<path d="M27500 14500
L31500 14500
" />
<path d="M31500 14094
L31964 13629
" />
<path d="M31500 14500
L31500 14094
" />
<path d="M35500 14094
L35964 13629
" />
<path d="M31500 14500
L35500 14500
" />
<path d="M35500 14500
L35500 14094
" />
<path d="M35500 14500
L39500 14500
" />
<path d="M39500 14070
L39940 13629
" />
<path d="M39500 14500
L39500 14070
" />
<path d="M43500 14094
L43964 13629
" />
<path d="M43500 14500
L43500 14094
" />
<path d="M47094 14500
L47964 13629
" />
<path d="M43500 14500
L47094 14500
" />
<path d="M51094 14500
L51964 13629
" />
<path d="M47094 14500
L51094 14500
" />
<path d="M55094 14500
L55964 13629
" />
<path d="M51094 14500
L55094 14500
" />
<path d="M59094 14500
L59964 13629
" />
<path d="M63094 14500
L63964 13629
" />
<path d="M59094 14500
L63094 14500
" />
<path d="M67094 14500
L67964 13629
" />
<path d="M63094 14500
L67094 14500
" />
<path d="M24803 29000
L24803 26996
" />
<path d="M25000 26800
L25000 25500
" />
<path d="M24803 26996
L25000 26800
" />
<path d="M25500 14500
L26500 14500
" />
<path d="M26500 14500
L27500 14500
" />
<path d="M55094 14500
L57350 14500
" />
<path d="M57350 14500
L59094 14500
" />
<path d="M40452 14547
L40500 14500
" />
<path d="M40452 20078
L40452 14547
" />
<path d="M39500 14500
L40500 14500
" />
<path d="M40500 14500
L43500 14500
" />
<path d="M48425 25393
L48425 24925
" />
<path d="M48425 24925
L46000 22500
" />
<path d="M46000 22500
L43500 22500
" />
<path d="M41078 20078
L40452 20078
" />
<path d="M43500 22500
L41078 20078
" />
<path d="M22035 12370
L22035 11964
" />
<path d="M22035 11964
L22500 11500
" />
<path d="M22500 11500
L25500 11500
" />
<path d="M26035 12035
L26035 12370
" />
<path d="M25500 11500
L26035 12035
" />
<path d="M30035 12035
L30035 12370
" />
<path d="M25500 11500
L29500 11500
" />
<path d="M29500 11500
L30035 12035
" />
<path d="M34035 12035
L34035 12370
" />
<path d="M29500 11500
L33500 11500
" />
<path d="M33500 11500
L34035 12035
" />
<path d="M38011 12011
L38011 12370
" />
<path d="M33500 11500
L37500 11500
" />
<path d="M37500 11500
L38011 12011
" />
<path d="M37500 11500
L41500 11500
" />
<path d="M42035 12035
L42035 12370
" />
<path d="M41500 11500
L42035 12035
" />
<path d="M41500 11500
L45500 11500
" />
<path d="M46035 12035
L46035 12370
" />
<path d="M45500 11500
L46035 12035
" />
<path d="M45500 11500
L49700 11500
" />
<path d="M50035 11835
L50035 12370
" />
<path d="M49700 11500
L50035 11835
" />
<path d="M49700 11500
L53500 11500
" />
<path d="M54035 12035
L54035 12370
" />
<path d="M53500 11500
L54035 12035
" />
<path d="M53500 11500
L57500 11500
" />
<path d="M58035 12035
L58035 12370
" />
<path d="M57500 11500
L58035 12035
" />
<path d="M57500 11500
L61500 11500
" />
<path d="M62035 12035
L62035 12370
" />
<path d="M61500 11500
L62035 12035
" />
<path d="M61500 11500
L65500 11500
" />
<path d="M66035 12035
L66035 12370
" />
<path d="M65500 11500
L66035 12035
" />
<path d="M21700 20500
L25000 20500
" />
<path d="M20800 19600
L21700 20500
" />
<path d="M22035 12370
L21429 12370
" />
<path d="M20800 13000
L20800 19600
" />
<path d="M21429 12370
L20800 13000
" />
<path d="M61500 21250
L61500 15750
" />
<path d="M62474 14775
L68474 14775
" />
<path d="M61500 15750
L62474 14775
" />
<path d="M68474 14775
L68750 14500
" />
<path d="M68750 14500
L68750 12000
" />
<path d="M68250 11500
L65500 11500
" />
<path d="M68750 12000
L68250 11500
" />
<path d="M61500 23500
L61500 21250
" />
<path d="M46407 27244
L46456 27293
" />
<path d="M43917 27244
L46407 27244
" />
<path d="M22035 13629
L22370 13629
" />
</g>
<g style="fill:#000000; fill-opacity:0.0; 
stroke:#000000; stroke-width:98.4252; stroke-opacity:1; 
stroke-linecap:round; stroke-linejoin:round;">
<path d="M27807 12822
L27126 12822
" />
<path d="M27964 12370
L27964 12665
" />
<path d="M27964 12665
L27807 12822
" />
<path d="M27126 12822
L26858 13090
" />
<path d="M26858 13090
L23720 13090
" />
<path d="M23181 13629
L22035 13629
" />
<path d="M23720 13090
L23181 13629
" />
</g>
<g style="fill:#000000; fill-opacity:0.0; 
stroke:#000000; stroke-width:196.85; stroke-opacity:1; 
stroke-linecap:round; stroke-linejoin:round;">
<path d="M23964 12370
L23456 12370
" />
<path d="M23456 12370
L22834 12992
" />
<path d="M22834 12992
L21555 12992
" />
<path d="M21555 12992
L21134 13412
" />
<path d="M21134 13412
L21134 19389
" />
</g>
<g style="fill:#000000; fill-opacity:0.0; 
stroke:#000000; stroke-width:98.4252; stroke-opacity:1; 
stroke-linecap:round; stroke-linejoin:round;">
<path d="M50035 13629
L50570 13629
" />
<path d="M50570 13629
L51000 13200
" />
<path d="M51000 13200
L52400 13200
" />
<path d="M52400 13200
L52800 12800
" />
<path d="M55534 12800
L55964 12370
" />
<path d="M52800 12800
L55534 12800
" />
<path d="M54035 13629
L54970 13629
" />
<path d="M54970 13629
L55400 13200
" />
<path d="M55400 13200
L56000 13200
" />
<path d="M56000 13200
L56400 12800
" />
<path d="M59534 12800
L59964 12370
" />
<path d="M56400 12800
L59534 12800
" />
<path d="M26035 13629
L26570 13629
" />
<path d="M26570 13629
L27200 13000
" />
<path d="M31334 13000
L31964 12370
" />
<path d="M27200 13000
L31334 13000
" />
<path d="M58035 13629
L58570 13629
" />
<path d="M58570 13629
L59000 13200
" />
<path d="M61927 13200
L62327 12800
" />
<path d="M59000 13200
L61927 13200
" />
<path d="M63534 12800
L63964 12370
" />
<path d="M62327 12800
L63534 12800
" />
<path d="M35334 13000
L35964 12370
" />
<path d="M30035 13629
L30955 13629
" />
<path d="M31585 13000
L35334 13000
" />
<path d="M30955 13629
L31585 13000
" />
<path d="M62035 13629
L62570 13629
" />
<path d="M62570 13629
L63000 13200
" />
<path d="M63000 13200
L64000 13200
" />
<path d="M64000 13200
L64400 12800
" />
<path d="M67534 12800
L67964 12370
" />
<path d="M64400 12800
L67534 12800
" />
<path d="M39511 12800
L39940 12370
" />
<path d="M36000 12800
L39511 12800
" />
<path d="M34035 13629
L35170 13629
" />
<path d="M35170 13629
L36000 12800
" />
<path d="M38011 13629
L38570 13629
" />
<path d="M38570 13629
L39000 13200
" />
<path d="M39000 13200
L40600 13200
" />
<path d="M40600 13200
L41000 12800
" />
<path d="M43534 12800
L43964 12370
" />
<path d="M41000 12800
L43534 12800
" />
<path d="M42035 13629
L42570 13629
" />
<path d="M42570 13629
L43000 13200
" />
<path d="M43000 13200
L44400 13200
" />
<path d="M44400 13200
L44800 12800
" />
<path d="M47534 12800
L47964 12370
" />
<path d="M44800 12800
L47534 12800
" />
<path d="M46035 13629
L47170 13629
" />
<path d="M47170 13629
L47800 13000
" />
<path d="M47800 13000
L50600 13000
" />
<path d="M51229 12370
L51964 12370
" />
<path d="M50600 13000
L51229 12370
" />
</g>
<g style="fill:#000000; fill-opacity:0.0; 
stroke:#000000; stroke-width:196.85; stroke-opacity:1; 
stroke-linecap:round; stroke-linejoin:round;">
<path d="M66750 21250
L66000 21250
" />
<path d="M67000 21500
L66750 21250
" />
<path d="M49137 26751
L51389 24500
" />
<path d="M43500 26751
L49137 26751
" />
<path d="M66500 24500
L67000 24000
" />
<path d="M51389 24500
L66500 24500
" />
<path d="M67000 24000
L67000 21500
" />
<path d="M65000 21250
L63500 21250
" />
<path d="M65000 23500
L63500 23500
" />
<path d="M24803 30000
L24133 30000
" />
<path d="M24133 30000
L23818 30314
" />
<path d="M23818 30314
L23818 32283
" />
<path d="M23818 32283
L24212 32677
" />
<path d="M24212 32677
L25295 32677
" />
<path d="M25295 32677
L26574 31397
" />
<path d="M26574 31397
L37598 31397
" />
<path d="M45928 26417
L46161 26184
" />
<path d="M46161 26184
L46161 26082
" />
<path d="M37598 31397
L42578 26417
" />
<path d="M42578 26417
L45928 26417
" />
<path d="M24803 31000
L37503 31000
" />
<path d="M37503 31000
L42421 26082
" />
<path d="M42421 26082
L45767 26082
" />
<path d="M42575 31692
L42618 31692
" />
<path d="M41338 28543
L41338 30455
" />
<path d="M41338 30455
L42575 31692
" />
<path d="M42618 31240
L41929 30551
" />
<path d="M41929 30551
L41929 28543
" />
</g>
<g >
</g>
<g style="fill:#000000; fill-opacity:0.0; 
stroke:#000000; stroke-width:196.85; stroke-opacity:1; 
stroke-linecap:round; stroke-linejoin:round;">
</g>
<g style="fill:#000000; fill-opacity:1.0; 
stroke:#000000; stroke-width:100; stroke-opacity:1; 
stroke-linecap:round; stroke-linejoin:round;">
<path style="fill:#000000; fill-opacity:1.0; 
stroke:#000000; stroke-width:100; stroke-opacity:1; 
stroke-linecap:round; stroke-linejoin:round;fill-rule:evenodd;"
d="M 69240.2,44240.1
20732.3,44228.4
20732.3,43140.4
21724.8,43140.4
21724.8,43316.3
21759.1,43488.9
21826.5,43651.5
21924.2,43797.8
22048.7,43922.2
22195,44020
22357.5,44087.3
22530.1,44121.7
22706.1,44121.7
22878.7,44087.3
23041.3,44020
23187.6,43922.2
23312,43797.8
23409.8,43651.5
23477.1,43488.9
23511.4,43316.3
23511.4,43140.4
23477.1,42967.8
23409.8,42805.2
23312,42658.9
23187.6,42534.5
23041.3,42436.7
22878.7,42369.4
22706.1,42335
22530.1,42335
22357.5,42369.4
22195,42436.7
22048.7,42534.5
21924.2,42658.9
21826.5,42805.2
21759.1,42967.8
21724.8,43140.4
20732.3,43140.4
20732.3,41120.1
51748,41120.1
51748,43509.8
65752,43509.8
65752,43140.4
66449.2,43140.4
66449.2,43316.3
66483.5,43488.9
66550.9,43651.5
66648.6,43797.8
66773.1,43922.2
66919.4,44020
67081.9,44087.3
67254.5,44121.7
67430.5,44121.7
67603.1,44087.3
67765.7,44020
67912,43922.2
68036.4,43797.8
68134.2,43651.5
68201.5,43488.9
68235.8,43316.3
68235.8,43140.4
68201.5,42967.8
68134.2,42805.2
68036.4,42658.9
67912,42534.5
67765.7,42436.7
67603.1,42369.4
67430.5,42335
67254.5,42335
67081.9,42369.4
66919.4,42436.7
66773.1,42534.5
66648.6,42658.9
66550.9,42805.2
66483.5,42967.8
66449.2,43140.4
65752,43140.4
65752,41120.1
51748,41120.1
20732.3,41120.1
20732.3,39416.7
61549.2,39416.7
61549.2,39520.3
61569.4,39621.8
61609,39717.5
61666.6,39803.5
61739.8,39876.8
61825.8,39934.3
61921.5,39973.9
62023,39994.1
62126.6,39994.1
62228.1,39973.9
62323.8,39934.3
62409.8,39876.8
62483.1,39803.5
62540.6,39717.5
62580.2,39621.8
62600.4,39520.3
62600.4,39416.7
63549.2,39416.7
63549.2,39520.3
63569.4,39621.8
63609,39717.5
63666.6,39803.5
63739.8,39876.8
63825.8,39934.3
63921.5,39973.9
64023,39994.1
64126.6,39994.1
64228.1,39973.9
64323.8,39934.3
64409.8,39876.8
64483.1,39803.5
64540.6,39717.5
64580.2,39621.8
64600.4,39520.3
64600.4,39416.7
64580.2,39315.2
64540.6,39219.5
64483.1,39133.5
64409.8,39060.3
64323.8,39002.7
64228.1,38963.1
64126.6,38942.9
64023,38942.9
63921.5,38963.1
63825.8,39002.7
63739.8,39060.3
63666.6,39133.5
63609,39219.5
63569.4,39315.2
63549.2,39416.7
62600.4,39416.7
62580.2,39315.2
62540.6,39219.5
62483.1,39133.5
62409.8,39060.3
62323.8,39002.7
62228.1,38963.1
62126.6,38942.9
62023,38942.9
61921.5,38963.1
61825.8,39002.7
61739.8,39060.3
61666.6,39133.5
61609,39219.5
61569.4,39315.2
61549.2,39416.7
20732.3,39416.7
20732.3,37940.4
61549.2,37940.4
61549.2,38043.9
61569.4,38145.4
61609,38241.1
61666.6,38327.2
61739.8,38400.4
61825.8,38457.9
61921.5,38497.5
62023,38517.7
62126.6,38517.7
62228.1,38497.5
62323.8,38457.9
62409.8,38400.4
62483.1,38327.2
62540.6,38241.1
62580.2,38145.4
62600.4,38043.9
62600.4,37940.4
63549.2,37940.4
63549.2,38043.9
63569.4,38145.4
63609,38241.1
63666.6,38327.2
63739.8,38400.4
63825.8,38457.9
63921.5,38497.5
64023,38517.7
64126.6,38517.7
64228.1,38497.5
64323.8,38457.9
64409.8,38400.4
64483.1,38327.2
64540.6,38241.1
64580.2,38145.4
64600.4,38043.9
64600.4,37940.4
64580.2,37838.8
64540.6,37743.2
64483.1,37657.1
64409.8,37583.9
64323.8,37526.4
64228.1,37486.7
64126.6,37466.5
64023,37466.5
63921.5,37486.7
63825.8,37526.4
63739.8,37583.9
63666.6,37657.1
63609,37743.2
63569.4,37838.8
63549.2,37940.4
62600.4,37940.4
62580.2,37838.8
62540.6,37743.2
62483.1,37657.1
62409.8,37583.9
62323.8,37526.4
62228.1,37486.7
62126.6,37466.5
62023,37466.5
61921.5,37486.7
61825.8,37526.4
61739.8,37583.9
61666.6,37657.1
61609,37743.2
61569.4,37838.8
61549.2,37940.4
20732.3,37940.4
20732.3,30315
23468.8,30315
23470.5,30332.1
23470.5,32266.3
23468.8,32283.5
23475.5,32351.8
23495.4,32417.4
23527.8,32478
23560.4,32517.7
23560.4,32517.7
23571.3,32531
23584.6,32541.9
23954.1,32911.4
23965,32924.7
23978.3,32935.6
23978.3,32935.6
24018.1,32968.3
24078.6,33000.6
24144.3,33020.5
24195.5,33025.6
24195.5,33025.6
24212.6,33027.3
24229.7,33025.6
25278.2,33025.6
25295.3,33027.3
25312.4,33025.6
25312.4,33025.6
25363.6,33020.5
25429.3,33000.6
25489.8,32968.3
25542.8,32924.7
25553.8,32911.4
25810.3,32654.9
63415.8,32654.9
63446.4,32752.9
63550.3,32802.5
63662,32830.8
63777,32836.9
63891,32820.3
63999.5,32781.9
64053.6,32752.9
64084.2,32654.9
63750,32320.7
63415.8,32654.9
25810.3,32654.9
26188.2,32277
63163.1,32277
63179.7,32391
63218.1,32499.5
63247.1,32553.6
63345.1,32584.2
63679.3,32250
63820.7,32250
64154.9,32584.2
64252.9,32553.6
64302.5,32449.7
64330.8,32338
64336.9,32223
64332.4,32192.4
65724.4,32192.4
65724.4,32307.6
65746.9,32420.5
65790.9,32526.9
65854.9,32622.7
65936.4,32704.1
66032.1,32768.1
66138.5,32812.2
66251.5,32834.6
66366.6,32834.6
66479.6,32812.2
66586,32768.1
66681.7,32704.1
66763.2,32622.7
66827.2,32526.9
66871.2,32420.5
66893.7,32307.6
66893.7,32192.4
66871.2,32079.5
66827.2,31973.1
66763.2,31877.3
66681.7,31795.9
66586,31731.9
66479.6,31687.8
66366.6,31665.4
66251.5,31665.4
66138.5,31687.8
66032.1,31731.9
65936.4,31795.9
65854.9,31877.3
65790.9,31973.1
65746.9,32079.5
65724.4,32192.4
64332.4,32192.4
64320.3,32109
64281.9,32000.5
64252.9,31946.4
64154.9,31915.8
63820.7,32250
63679.3,32250
63345.1,31915.8
63247.1,31946.4
63197.5,32050.3
63169.2,32162
63163.1,32277
26188.2,32277
26719.1,31746.1
37581.3,31746.1
37598.4,31747.7
37615.5,31746.1
37615.5,31746.1
37666.7,31741
37732.4,31721.1
37792.9,31688.7
37846,31645.2
37856.9,31631.9
40931.1,28557.7
40931.1,28583.4
40946.8,28662.2
40977.5,28736.3
40990.2,28755.3
40990.2,30438.8
40988.5,30455.9
40995.2,30524.2
41015.1,30589.9
41047.5,30650.4
41080.1,30690.2
41080.1,30690.2
41091,30703.5
41104.3,30714.4
42243.7,31853.7
42257,31885.9
42301.6,31952.7
42358.4,32009.4
42425.1,32054
42499.3,32084.7
42578,32100.4
42658.2,32100.4
42737,32084.7
42811.1,32054
42877.9,32009.4
42934.6,31952.7
42979.2,31885.9
42996.1,31845.1
63415.8,31845.1
63750,32179.3
64084.2,31845.1
64053.6,31747.1
63949.7,31697.5
63838,31669.2
63723,31663.1
63609,31679.7
63500.5,31718.1
63446.4,31747.1
63415.8,31845.1
42996.1,31845.1
43009.9,31811.8
43025.6,31733
43025.6,31652.8
43009.9,31574.1
42979.2,31499.9
42956.9,31466.5
42979.2,31433.2
43009.9,31359
43025.6,31280.3
43025.6,31200
43009.9,31121.3
42979.2,31047.1
42934.6,30980.4
42877.9,30923.6
42811.1,30879.1
42737,30848.3
42714.6,30843.9
42291.5,30420.8
63165.4,30420.8
63165.4,30535.9
63187.8,30648.9
63231.9,30755.3
63295.9,30851
63377.3,30932.5
63473.1,30996.5
63579.5,31040.5
63692.4,31063
63807.6,31063
63920.5,31040.5
64026.9,30996.5
64122.7,30932.5
64204.1,30851
64268.1,30755.3
64312.2,30648.9
64334.6,30535.9
64334.6,30420.8
65724.4,30420.8
65724.4,30535.9
65746.9,30648.9
65790.9,30755.3
65854.9,30851
65936.4,30932.5
66032.1,30996.5
66138.5,31040.5
66251.5,31063
66366.6,31063
66479.6,31040.5
66586,30996.5
66681.7,30932.5
66763.2,30851
66827.2,30755.3
66871.2,30648.9
66893.7,30535.9
66893.7,30420.8
66871.2,30307.8
66827.2,30201.4
66763.2,30105.7
66681.7,30024.2
66586,29960.2
66479.6,29916.2
66366.6,29893.7
66251.5,29893.7
66138.5,29916.2
66032.1,29960.2
65936.4,30024.2
65854.9,30105.7
65790.9,30201.4
65746.9,30307.8
65724.4,30420.8
64334.6,30420.8
64312.2,30307.8
64268.1,30201.4
64204.1,30105.7
64122.7,30024.2
64026.9,29960.2
63920.5,29916.2
63807.6,29893.7
63692.4,29893.7
63579.5,29916.2
63473.1,29960.2
63377.3,30024.2
63295.9,30105.7
63231.9,30201.4
63187.8,30307.8
63165.4,30420.8
42291.5,30420.8
42277.6,30406.9
42277.6,28755.3
42290.2,28736.3
42321,28662.2
42336.6,28583.4
42336.6,28503.2
42321,28424.4
42290.2,28350.3
42245.6,28283.6
42188.9,28226.8
42122.1,28182.2
42048,28151.5
41969.3,28135.8
41889,28135.8
41810.3,28151.5
41736.1,28182.2
41669.4,28226.8
41633.9,28262.3
41598.3,28226.8
41531.6,28182.2
41457.4,28151.5
41378.7,28135.8
41353,28135.8
42723.1,26765.7
43092.5,26765.7
43092.5,26792.1
43108.2,26870.8
43138.9,26945
43183.5,27011.7
43240.2,27068.5
43307,27113.1
43381.1,27143.8
43459.9,27159.4
43518.7,27159.4
43509.8,27204
43509.8,27284.2
43525.5,27363
43556.2,27437.1
43600.8,27503.8
43657.6,27560.6
43724.3,27605.2
43798.5,27635.9
43877.2,27651.6
43957.5,27651.6
44036.2,27635.9
44110.3,27605.2
44129.3,27592.5
46179.6,27592.5
46196.9,27609.8
46263.7,27654.4
46337.8,27685.1
46416.6,27700.8
46496.8,27700.8
46575.6,27685.1
46649.7,27654.4
46716.4,27609.8
46773.2,27553.1
46817.8,27486.3
46848.5,27412.2
46864.2,27333.4
46864.2,27253.2
46848.5,27174.4
46817.8,27100.4
49120.7,27100.4
49137.8,27102.1
49154.9,27100.4
49154.9,27100.4
49206.1,27095.4
49271.8,27075.4
49332.3,27043.1
49385.3,26999.5
49396.3,26986.2
51534.1,24848.4
66482.9,24848.4
66500,24850.1
66517.1,24848.4
66517.1,24848.4
66568.3,24843.4
66634,24823.5
66694.5,24791.1
66747.6,24747.6
66758.5,24734.3
67234.3,24258.5
67247.6,24247.6
67291.1,24194.5
67323.5,24134
67343.4,24068.3
67348.4,24017.1
67348.4,24017.1
67350.1,24000
67348.4,23982.9
67348.4,21517.1
67350.1,21500
67348.4,21482.9
67348.4,21482.9
67343.4,21431.7
67328.9,21384
67323.5,21366
67291.1,21305.5
67258.5,21265.7
67258.5,21265.7
67247.6,21252.4
67234.3,21241.5
67008.5,21015.7
66997.6,21002.4
66944.5,20958.9
66884,20926.5
66818.3,20906.6
66767.1,20901.6
66767.1,20901.6
66750,20899.9
66732.9,20901.6
66605.5,20901.6
66605.5,20895.7
66600.7,20846.7
66586.4,20799.5
66563.2,20756.1
66532,20718
66493.9,20686.8
66450.5,20663.6
66403.3,20649.3
66354.3,20644.5
65645.7,20644.5
65596.7,20649.3
65549.5,20663.6
65506.1,20686.8
65468,20718
65436.8,20756.1
65413.6,20799.5
65411.4,20806.7
65385.2,20780.6
65286.3,20714.4
65176.3,20668.9
65059.5,20645.7
64940.5,20645.7
64823.7,20668.9
64713.7,20714.4
64614.8,20780.6
64530.6,20864.8
64506,20901.6
63894.9,20901.6
63835,20841.7
63749,20784.2
63653.3,20744.6
63551.8,20724.4
63448.2,20724.4
63346.7,20744.6
63251,20784.2
63165,20841.7
63091.7,20915
63034.2,21001
62994.6,21096.7
62974.4,21198.2
62974.4,21301.8
62994.6,21403.3
63034.2,21499
63091.7,21585
63165,21658.3
63251,21715.8
63346.7,21755.4
63448.2,21775.6
63551.8,21775.6
63653.3,21755.4
63749,21715.8
63835,21658.3
63894.9,21598.4
64506,21598.4
64530.6,21635.2
64614.8,21719.4
64713.7,21785.6
64823.7,21831.1
64940.5,21854.3
65059.5,21854.3
65176.3,21831.1
65286.3,21785.6
65385.2,21719.4
65411.4,21693.3
65413.6,21700.5
65436.8,21743.9
65468,21782
65506.1,21813.2
65549.5,21836.4
65596.7,21850.7
65645.7,21855.5
66354.3,21855.5
66403.3,21850.7
66450.5,21836.4
66493.9,21813.2
66532,21782
66563.2,21743.9
66586.4,21700.5
66600.7,21653.3
66605.5,21604.3
66605.5,21598.4
66605.7,21598.4
66651.6,21644.3
66651.6,23855.7
66599.3,23907.9
66600.7,23903.3
66605.5,23854.3
66605.5,23145.7
66600.7,23096.7
66586.4,23049.5
66563.2,23006.1
66532,22968
66493.9,22936.8
66450.5,22913.6
66403.3,22899.3
66354.3,22894.5
65645.7,22894.5
65596.7,22899.3
65549.5,22913.6
65506.1,22936.8
65468,22968
65436.8,23006.1
65413.6,23049.5
65411.4,23056.7
65385.2,23030.6
65286.3,22964.4
65176.3,22918.9
65059.5,22895.7
64940.5,22895.7
64823.7,22918.9
64713.7,22964.4
64614.8,23030.6
64530.6,23114.8
64506,23151.6
63894.9,23151.6
63835,23091.7
63749,23034.2
63653.3,22994.6
63551.8,22974.4
63448.2,22974.4
63346.7,22994.6
63251,23034.2
63165,23091.7
63091.7,23165
63034.2,23251
62994.6,23346.7
62974.4,23448.2
62974.4,23551.8
62994.6,23653.3
63034.2,23749
63091.7,23835
63165,23908.3
63251,23965.8
63346.7,24005.4
63448.2,24025.6
63551.8,24025.6
63653.3,24005.4
63749,23965.8
63835,23908.3
63894.9,23848.4
64506,23848.4
64530.6,23885.2
64614.8,23969.4
64713.7,24035.6
64823.7,24081.1
64940.5,24104.3
65059.5,24104.3
65176.3,24081.1
65286.3,24035.6
65385.2,23969.4
65411.4,23943.3
65413.6,23950.5
65436.8,23993.9
65468,24032
65506.1,24063.2
65549.5,24086.4
65596.7,24100.7
65645.7,24105.5
66354.3,24105.5
66403.3,24100.7
66407.9,24099.3
66355.7,24151.6
51406.9,24151.6
51389.7,24149.9
51372.6,24151.6
51372.6,24151.6
51327.3,24156
51321.4,24156.6
51301.5,24162.7
51255.8,24176.5
51195.2,24208.9
51195.2,24208.9
51195.2,24208.9
51155.5,24241.5
51155.5,24241.5
51142.2,24252.4
51131.3,24265.7
48993.5,26403.5
46432.2,26403.5
46452.5,26378.8
46465.1,26355.3
46477.9,26342.4
46522.5,26275.7
46553.2,26201.5
46568.9,26122.8
46568.9,26042.5
46553.2,25963.8
46522.5,25889.7
46477.9,25822.9
46439.5,25784.5
48105.1,25784.5
48133.3,25880.6
48233.9,25928.2
48341.8,25955.2
48453,25960.7
48563,25944.4
48667.8,25906.9
48717.1,25880.6
48745.3,25784.5
48425.2,25464.4
48105.1,25784.5
46439.5,25784.5
46421.2,25766.2
46354.4,25721.6
46280.3,25690.9
46201.6,25675.2
46121.3,25675.2
46042.6,25690.9
45968.4,25721.6
45964.6,25724.1
45960.7,25721.6
45886.6,25690.9
45807.8,25675.2
45727.6,25675.2
45648.9,25690.9
45574.7,25721.6
45555.7,25734.3
42438.4,25734.3
42421.3,25732.6
42404.1,25734.3
42404.1,25734.3
42353,25739.3
42287.3,25759.2
42226.7,25791.6
42226.7,25791.6
42226.7,25791.6
42187,25824.2
42187,25824.2
42173.7,25835.1
42162.8,25848.4
37359.6,30651.6
25344.5,30651.6
25303.1,30589.7
25213.5,30500
25213.5,30500
25213.5,30500
25303.1,30410.3
25373.6,30304.9
25422.1,30187.8
25446.9,30063.4
25446.9,29936.6
25433.5,29869.5
31923.2,29869.5
31923.2,29973
31943.4,30074.6
31983,30170.2
32040.6,30256.3
32113.8,30329.5
32199.9,30387
32295.5,30426.7
32397.1,30446.9
32500.6,30446.9
32602.1,30426.7
32697.8,30387
32783.9,30329.5
32857.1,30256.3
32914.6,30170.2
32954.2,30074.6
32974.4,29973
32974.4,29869.5
33923.2,29869.5
33923.2,29973
33943.4,30074.6
33983,30170.2
34040.6,30256.3
34113.8,30329.5
34199.9,30387
34295.5,30426.7
34397.1,30446.9
34500.6,30446.9
34602.1,30426.7
34697.8,30387
34783.9,30329.5
34857.1,30256.3
34914.6,30170.2
34954.2,30074.6
34974.4,29973
34974.4,29869.5
34954.2,29768
34914.6,29672.3
34857.1,29586.2
34783.9,29513
34697.8,29455.5
34602.1,29415.9
34500.6,29395.7
34397.1,29395.7
34295.5,29415.9
34199.9,29455.5
34113.8,29513
34040.6,29586.2
33983,29672.3
33943.4,29768
33923.2,29869.5
32974.4,29869.5
32954.2,29768
32914.6,29672.3
32857.1,29586.2
32783.9,29513
32697.8,29455.5
32602.1,29415.9
32500.6,29395.7
32397.1,29395.7
32295.5,29415.9
32199.9,29455.5
32113.8,29513
32040.6,29586.2
31983,29672.3
31943.4,29768
31923.2,29869.5
25433.5,29869.5
25422.1,29812.2
25373.6,29695.1
25318.3,29612.3
25336.4,29602.6
25374.5,29571.3
25405.7,29533.3
25428.9,29489.8
25443.2,29442.7
25448.1,29393.7
25446.9,29112.5
25384.4,29050
24853.1,29050
24853.1,29057.9
24753.1,29057.9
24753.1,29050
24221.9,29050
24159.4,29112.5
24158.2,29393.7
24163.1,29442.7
24177.4,29489.8
24200.6,29533.3
24231.8,29571.3
24269.9,29602.6
24288,29612.3
24261.8,29651.6
24151,29651.6
24133.9,29649.9
24116.7,29651.6
24116.7,29651.6
24065.6,29656.6
23999.9,29676.5
23939.3,29708.9
23899.6,29741.5
23899.6,29741.5
23886.3,29752.4
23875.4,29765.7
23584.6,30056.5
23571.3,30067.4
23527.8,30120.4
23495.4,30181
23475.5,30246.7
23470.5,30297.8
23470.5,30297.8
23468.8,30315
20732.3,30315
20732.3,28606.3
24158.2,28606.3
24159.4,28887.5
24221.9,28950
24753.1,28950
24753.1,28418.8
24853.1,28418.8
24853.1,28950
25384.4,28950
25446.9,28887.5
25448.1,28606.3
25443.2,28557.3
25428.9,28510.2
25405.7,28466.7
25374.5,28428.7
25336.4,28397.4
25293,28374.2
25245.9,28359.9
25196.9,28355.1
24915.6,28356.3
24853.1,28418.8
24753.1,28418.8
24690.6,28356.3
24409.4,28355.1
24360.4,28359.9
24313.3,28374.2
24269.9,28397.4
24231.8,28428.7
24200.6,28466.7
24177.4,28510.2
24163.1,28557.3
24158.2,28606.3
20732.3,28606.3
20732.3,27064.1
33144.4,27064.1
33172.6,27160.1
33273.2,27207.7
33381.2,27234.8
33492.3,27240.2
33602.4,27223.9
33707.2,27186.5
33756.5,27160.1
33784.7,27064.1
33464.6,26743.9
33144.4,27064.1
20732.3,27064.1
20732.3,26701
32897.6,26701
32913.9,26811.1
32951.3,26915.9
32977.7,26965.2
33073.7,26993.3
33393.9,26673.2
33535.3,26673.2
33855.4,26993.3
33951.4,26965.2
33999,26864.6
34026.1,26756.6
34031.6,26645.5
34015.3,26535.4
33977.8,26430.6
33951.4,26381.3
33855.4,26353.1
33535.3,26673.2
33393.9,26673.2
33073.7,26353.1
32977.7,26381.3
32930.1,26481.9
32903,26589.8
32897.6,26701
20732.3,26701
20732.3,25649.8
24374,25649.8
24396.3,25723.3
24451.4,25836.8
24527.7,25937.3
24622.1,26021.1
24731,26084.8
24850.2,26126
24950,26079.3
24950,25550
25050,25550
25050,26079.3
25149.8,26126
25269,26084.8
25377.9,26021.1
25472.3,25937.3
25548.6,25836.8
25603.7,25723.3
25626,25649.8
25579,25550
25050,25550
24950,25550
24421,25550
24374,25649.8
20732.3,25649.8
20732.3,20025
21441.5,20734.3
21452.4,20747.6
21465.7,20758.5
21465.7,20758.5
21492.7,20780.6
21505.5,20791.1
21566,20823.5
21631.7,20843.4
21682.9,20848.4
21682.9,20848.4
21700,20850.1
21717.1,20848.4
24355.1,20848.4
24355.1,20893.7
24359.9,20942.7
24374.2,20989.8
24397.4,21033.3
24428.7,21071.3
24466.7,21102.6
24484.9,21112.3
24429.6,21195.1
24381,21312.2
24356.3,21436.6
24356.3,21563.4
24381,21687.8
24429.6,21804.9
24500,21910.3
24589.7,22000
24589.7,22000
24589.7,22000
24500,22089.7
24429.6,22195.1
24381,22312.2
24356.3,22436.6
24356.3,22563.4
24381,22687.8
24429.6,22804.9
24500,22910.3
24589.7,23000
24589.7,23000
24589.7,23000
24500,23089.7
24429.6,23195.1
24381,23312.2
24356.3,23436.6
24356.3,23563.4
24381,23687.8
24429.6,23804.9
24500,23910.3
24589.7,24000
24589.7,24000
24589.7,24000
24500,24089.7
24429.6,24195.1
24381,24312.2
24356.3,24436.6
24356.3,24563.4
24381,24687.8
24429.6,24804.9
24500,24910.3
24589.7,25000
24594.6,25003.3
24527.7,25062.7
24451.4,25163.2
24396.3,25276.7
24374,25350.2
24421,25450
24950,25450
24950,25442.1
25050,25442.1
25050,25450
25579,25450
25614.8,25374
32898.4,25374
32898.4,26003.9
32903.2,26052.9
32917.5,26100.1
32940.7,26143.5
32972,26181.6
33010,26212.8
33053.5,26236
33100.6,26250.3
33149.6,26255.1
33152.4,26255.1
33144.4,26282.4
33464.6,26602.5
33784.7,26282.4
33776.7,26255.1
33779.5,26255.1
33828.5,26250.3
33875.7,26236
33919.1,26212.8
33957.2,26181.6
33988.4,26143.5
34011.6,26100.1
34025.9,26052.9
34030.7,26003.9
34030.7,25421.5
47858.2,25421.5
47874.5,25531.5
47912,25636.3
47938.3,25685.6
48034.4,25713.8
48354.5,25393.7
48495.9,25393.7
48816,25713.8
48912.1,25685.6
48959.7,25585
48986.7,25477.1
48992.2,25365.9
48975.9,25255.9
48938.4,25151.1
48912.1,25101.8
48816,25073.6
48495.9,25393.7
48354.5,25393.7
48034.4,25073.6
47938.3,25101.8
47890.7,25202.4
47863.7,25310.3
47858.2,25421.5
34030.7,25421.5
34030.7,25374
34025.9,25325
34011.6,25277.9
33988.4,25234.5
33957.2,25196.4
33919.1,25165.1
33875.7,25141.9
33828.5,25127.6
33779.5,25122.8
33149.6,25122.8
33100.6,25127.6
33053.5,25141.9
33010,25165.1
32972,25196.4
32940.7,25234.5
32917.5,25277.9
32903.2,25325
32898.4,25374
25614.8,25374
25626,25350.2
25603.7,25276.7
25548.6,25163.2
25472.3,25062.7
25405.4,25003.3
25406,25002.9
48105.1,25002.9
48425.2,25323
48745.3,25002.9
48717.1,24906.8
48616.5,24859.2
48508.6,24832.2
48397.4,24826.7
48287.4,24843
48182.6,24880.5
48133.3,24906.8
48105.1,25002.9
25406,25002.9
25410.3,25000
25500,24910.3
25570.4,24804.9
25619,24687.8
25643.7,24563.4
25643.7,24436.6
25619,24312.2
25570.4,24195.1
25500,24089.7
25410.3,24000
25410.3,24000
25410.3,24000
25500,23910.3
25570.4,23804.9
25619,23687.8
25643.7,23563.4
25643.7,23436.6
25630.4,23369.6
47860.2,23369.6
47860.2,23480.8
47881.9,23590
47924.5,23692.8
47986.4,23785.3
48065.1,23864
48157.6,23925.9
48260.4,23968.4
48369.6,23990.2
48480.8,23990.2
48590,23968.4
48692.8,23925.9
48785.3,23864
48864,23785.3
48925.9,23692.8
48968.4,23590
48990.2,23480.8
48990.2,23369.6
48968.4,23260.4
48925.9,23157.6
48864,23065.1
48785.3,22986.4
48692.8,22924.5
48590,22881.9
48480.8,22860.2
48369.6,22860.2
48260.4,22881.9
48157.6,22924.5
48065.1,22986.4
47986.4,23065.1
47924.5,23157.6
47881.9,23260.4
47860.2,23369.6
25630.4,23369.6
25619,23312.2
25570.4,23195.1
25500,23089.7
25410.3,23000
25410.3,23000
25410.3,23000
25500,22910.3
25570.4,22804.9
25619,22687.8
25643.7,22563.4
25643.7,22436.6
25619,22312.2
25570.4,22195.1
25500,22089.7
25410.3,22000
25410.3,22000
25410.3,22000
25418.7,21991.6
39887.8,21991.6
39887.8,22102.9
39909.5,22212
39952.1,22314.9
40013.9,22407.4
40092.6,22486.1
40185.1,22547.9
40288,22590.5
40397.1,22612.2
40508.4,22612.2
40617.5,22590.5
40720.4,22547.9
40812.9,22486.1
40891.6,22407.4
40953.4,22314.9
40996,22212
41017.7,22102.9
41017.7,21991.6
40996,21882.5
40953.4,21779.6
40931.1,21746.3
43333.5,21746.3
43333.5,21853.7
43354.4,21959.1
43395.5,22058.3
43455.2,22147.6
43531.1,22223.5
43620.5,22283.2
43719.7,22324.3
43825,22345.3
43932.4,22345.3
44037.8,22324.3
44137,22283.2
44226.3,22223.5
44302.3,22147.6
44362,22058.3
44403.1,21959.1
44424,21853.7
44424,21746.3
45254.7,21746.3
45254.7,21853.7
45275.7,21959.1
45316.8,22058.3
45376.5,22147.6
45452.4,22223.5
45541.7,22283.2
45640.9,22324.3
45746.3,22345.3
45853.7,22345.3
45959.1,22324.3
46058.3,22283.2
46147.6,22223.5
46223.5,22147.6
46283.2,22058.3
46324.3,21959.1
46345.3,21853.7
46345.3,21746.3
46324.3,21640.9
46283.2,21541.7
46223.5,21452.4
46147.6,21376.5
46058.3,21316.8
45959.1,21275.7
45853.7,21254.7
45746.3,21254.7
45640.9,21275.7
45541.7,21316.8
45452.4,21376.5
45376.5,21452.4
45316.8,21541.7
45275.7,21640.9
45254.7,21746.3
44424,21746.3
44403.1,21640.9
44362,21541.7
44302.3,21452.4
44226.3,21376.5
44137,21316.8
44037.8,21275.7
43932.4,21254.7
43825,21254.7
43719.7,21275.7
43620.5,21316.8
43531.1,21376.5
43455.2,21452.4
43395.5,21541.7
43354.4,21640.9
43333.5,21746.3
40931.1,21746.3
40891.6,21687.1
40812.9,21608.4
40720.4,21546.6
40617.5,21504
40508.4,21482.3
40397.1,21482.3
40288,21504
40185.1,21546.6
40092.6,21608.4
40013.9,21687.1
39952.1,21779.6
39909.5,21882.5
39887.8,21991.6
25418.7,21991.6
25500,21910.3
25570.4,21804.9
25619,21687.8
25643.7,21563.4
25643.7,21436.6
25619,21312.2
25570.4,21195.1
25515.1,21112.3
25533.3,21102.6
25571.3,21071.3
25602.6,21033.3
25625.8,20989.8
25640.1,20942.7
25644.9,20893.7
25644.9,20469.6
40132.6,20469.6
40160.8,20565.6
40261.4,20613.2
40369.4,20640.3
40480.5,20645.8
40590.6,20629.4
40695.4,20592
40744.7,20565.6
40772.9,20469.6
40452.8,20149.5
40132.6,20469.6
25644.9,20469.6
25644.9,20106.5
39885.7,20106.5
39902.1,20216.6
39939.5,20321.4
39965.9,20370.7
40061.9,20398.9
40382,20078.7
40523.5,20078.7
40843.6,20398.9
40939.6,20370.7
40987.2,20270.1
41014.3,20162.1
41019.8,20051
41003.5,19940.9
40966,19836.1
40939.6,19786.8
40843.6,19758.6
40523.5,20078.7
40382,20078.7
40061.9,19758.6
39965.9,19786.8
39918.3,19887.4
39891.2,19995.3
39885.7,20106.5
25644.9,20106.5
25644.9,20106.3
25640.1,20057.3
25625.8,20010.2
25602.6,19966.7
25571.3,19928.7
25533.3,19897.4
25489.8,19874.2
25442.7,19859.9
25393.7,19855.1
24606.3,19855.1
24557.3,19859.9
24510.2,19874.2
24466.7,19897.4
24428.7,19928.7
24397.4,19966.7
24374.2,20010.2
24359.9,20057.3
24355.1,20106.3
24355.1,20151.6
21844.3,20151.6
21396.7,19704
21412.8,19687.9
40132.6,19687.9
40452.8,20008
40772.9,19687.9
40744.7,19591.9
40644.1,19544.3
40536.1,19517.2
40425,19511.7
40314.9,19528
40210.1,19565.5
40160.8,19591.9
40132.6,19687.9
21412.8,19687.9
21451.2,19649.5
21495.8,19582.8
21526.5,19508.6
21542.1,19429.9
21542.1,19349.6
21526.5,19270.9
21495.8,19196.7
21483.1,19177.8
21483.1,16526.2
21724.8,16526.2
21724.8,16702.2
21759.1,16874.7
21826.5,17037.3
21924.2,17183.6
22048.7,17308.1
22195,17405.8
22357.5,17473.2
22530.1,17507.5
22706.1,17507.5
22878.7,17473.2
23041.3,17405.8
23187.6,17308.1
23312,17183.6
23409.8,17037.3
23477.1,16874.7
23511.4,16702.2
23511.4,16526.2
23477.1,16353.6
23409.8,16191
23312,16044.7
23187.6,15920.3
23041.3,15822.5
22878.7,15755.2
22706.1,15720.9
22530.1,15720.9
22357.5,15755.2
22195,15822.5
22048.7,15920.3
21924.2,16044.7
21826.5,16191
21759.1,16353.6
21724.8,16526.2
21483.1,16526.2
21483.1,13556.9
21488.9,13551
21488.9,13826.8
21493.8,13875.8
21508.1,13922.9
21531.3,13966.3
21562.5,14004.4
21600.6,14035.6
21644,14058.9
21691.1,14073.2
21740.2,14078
22330.7,14078
22379.7,14073.2
22426.8,14058.9
22470.3,14035.6
22508.3,14004.4
22539.6,13966.3
22559.5,13929.1
23166.4,13929.1
23181.1,13930.6
23195.8,13929.1
23195.8,13929.1
23239.8,13924.8
23296.2,13907.7
23348.1,13879.9
23393.7,13842.5
23403.1,13831.1
23418.2,13815.9
23418.1,13826.8
23422.9,13875.8
23437.2,13922.9
23460.4,13966.3
23491.7,14004.4
23529.7,14035.6
23573.2,14058.9
23620.3,14073.2
23669.3,14078
23852.1,14076.8
23914.6,14014.3
23914.6,13679.9
24014.6,13679.9
24014.6,14014.3
24077.1,14076.8
24259.8,14078
24308.9,14073.2
24356,14058.9
24399.4,14035.6
24437.5,14004.4
24468.7,13966.3
24491.9,13922.9
24506.2,13875.8
24511.1,13826.8
24509.8,13742.4
24447.3,13679.9
24014.6,13679.9
23914.6,13679.9
23906.7,13679.9
23906.7,13579.9
23914.6,13579.9
23914.6,13572
24014.6,13572
24014.6,13579.9
24447.3,13579.9
24509.8,13517.4
24511.1,13433.1
24506.8,13389.8
25493.2,13389.8
25488.9,13433.1
25488.9,13826.8
25493.8,13875.8
25508.1,13922.9
25531.3,13966.3
25562.5,14004.4
25600.6,14035.6
25644,14058.9
25691.1,14073.2
25740.2,14078
26330.7,14078
26379.7,14073.2
26426.8,14058.9
26470.3,14035.6
26508.3,14004.4
26539.6,13966.3
26559.3,13929.5
26570.1,13930.6
26584.8,13929.1
26584.8,13929.1
26628.7,13924.8
26685.1,13907.7
26737.1,13879.9
26782.7,13842.5
26792,13831.1
26796.4,13826.8
27418.1,13826.8
27422.9,13875.8
27437.2,13922.9
27460.4,13966.3
27491.7,14004.4
27529.7,14035.6
27573.2,14058.9
27620.3,14073.2
27669.3,14078
27852.1,14076.8
27914.6,14014.3
27914.6,13679.9
28014.6,13679.9
28014.6,14014.3
28077.1,14076.8
28259.8,14078
28308.9,14073.2
28356,14058.9
28399.4,14035.6
28437.5,14004.4
28468.7,13966.3
28491.9,13922.9
28506.2,13875.8
28511.1,13826.8
28509.8,13742.4
28447.3,13679.9
28014.6,13679.9
27914.6,13679.9
27481.8,13679.9
27419.3,13742.4
27418.1,13826.8
26796.4,13826.8
27323.9,13299.2
27457.4,13299.2
27437.2,13336.9
27422.9,13384.1
27418.1,13433.1
27419.3,13517.4
27481.8,13579.9
27914.6,13579.9
27914.6,13572
28014.6,13572
28014.6,13579.9
28447.3,13579.9
28509.8,13517.4
28511.1,13433.1
28506.2,13384.1
28491.9,13336.9
28471.8,13299.2
29528.2,13299.2
29508.1,13336.9
29493.8,13384.1
29488.9,13433.1
29488.9,13826.8
29493.8,13875.8
29508.1,13922.9
29531.3,13966.3
29562.5,14004.4
29600.6,14035.6
29644,14058.9
29691.1,14073.2
29740.2,14078
30330.7,14078
30379.7,14073.2
30426.8,14058.9
30470.3,14035.6
30508.3,14004.4
30539.6,13966.3
30559.5,13929.1
30940.6,13929.1
30955.3,13930.6
30970,13929.1
30970,13929.1
31013.9,13924.8
31070.3,13907.7
31122.3,13879.9
31167.9,13842.5
31177.2,13831.1
31181.6,13826.8
31418.1,13826.8
31422.9,13875.8
31437.2,13922.9
31460.4,13966.3
31491.7,14004.4
31529.7,14035.6
31573.2,14058.9
31620.3,14073.2
31669.3,14078
31852.1,14076.8
31914.6,14014.3
31914.6,13679.9
32014.6,13679.9
32014.6,14014.3
32077.1,14076.8
32259.8,14078
32308.9,14073.2
32356,14058.9
32399.4,14035.6
32437.5,14004.4
32468.7,13966.3
32491.9,13922.9
32506.2,13875.8
32511.1,13826.8
32509.8,13742.4
32447.3,13679.9
32014.6,13679.9
31914.6,13679.9
31481.8,13679.9
31419.3,13742.4
31418.1,13826.8
31181.6,13826.8
31455.1,13553.2
31481.8,13579.9
31914.6,13579.9
31914.6,13572
32014.6,13572
32014.6,13579.9
32447.3,13579.9
32509.8,13517.4
32511.1,13433.1
32506.2,13384.1
32491.9,13336.9
32471.8,13299.2
33528.2,13299.2
33508.1,13336.9
33493.8,13384.1
33488.9,13433.1
33488.9,13826.8
33493.8,13875.8
33508.1,13922.9
33531.3,13966.3
33562.5,14004.4
33600.6,14035.6
33644,14058.9
33691.1,14073.2
33740.2,14078
34330.7,14078
34379.7,14073.2
34426.8,14058.9
34470.3,14035.6
34508.3,14004.4
34539.6,13966.3
34559.5,13929.1
35155.4,13929.1
35170.1,13930.6
35184.8,13929.1
35184.8,13929.1
35228.7,13924.8
35285.1,13907.7
35337.1,13879.9
35382.7,13842.5
35392,13831.1
35418.4,13804.8
35418.1,13826.8
35422.9,13875.8
35437.2,13922.9
35460.4,13966.3
35491.7,14004.4
35529.7,14035.6
35573.2,14058.9
35620.3,14073.2
35669.3,14078
35852.1,14076.8
35914.6,14014.3
35914.6,13679.9
36014.6,13679.9
36014.6,14014.3
36077.1,14076.8
36259.8,14078
36308.9,14073.2
36356,14058.9
36399.4,14035.6
36437.5,14004.4
36468.7,13966.3
36491.9,13922.9
36506.2,13875.8
36511.1,13826.8
36509.8,13742.4
36447.3,13679.9
36014.6,13679.9
35914.6,13679.9
35906.7,13679.9
35906.7,13579.9
35914.6,13579.9
35914.6,13572
36014.6,13572
36014.6,13579.9
36447.3,13579.9
36509.8,13517.4
36511.1,13433.1
36506.2,13384.1
36491.9,13336.9
36468.7,13293.5
36437.5,13255.4
36399.4,13224.2
36356,13201
36308.9,13186.7
36259.8,13181.9
36077.1,13183.1
36014.6,13245.6
36014.6,13208.6
36123.9,13099.2
38677.6,13099.2
38501.3,13275.6
38484.7,13255.4
38446.7,13224.2
38403.2,13201
38356.1,13186.7
38307.1,13181.9
37716.5,13181.9
37667.5,13186.7
37620.4,13201
37577,13224.2
37538.9,13255.4
37507.7,13293.5
37484.4,13336.9
37470.2,13384.1
37465.3,13433.1
37465.3,13826.8
37470.2,13875.8
37484.4,13922.9
37507.7,13966.3
37538.9,14004.4
37577,14035.6
37620.4,14058.9
37667.5,14073.2
37716.5,14078
38307.1,14078
38356.1,14073.2
38403.2,14058.9
38446.7,14035.6
38484.7,14004.4
38516,13966.3
38535.8,13929.1
38555.4,13929.1
38570.1,13930.6
38584.8,13929.1
38584.8,13929.1
38628.7,13924.8
38685.1,13907.7
38737.1,13879.9
38782.7,13842.5
38792,13831.1
38796.4,13826.8
39394.5,13826.8
39399.3,13875.8
39413.6,13922.9
39436.8,13966.3
39468,14004.4
39506.1,14035.6
39549.5,14058.9
39596.7,14073.2
39645.7,14078
39828.4,14076.8
39890.9,14014.3
39890.9,13679.9
39990.9,13679.9
39990.9,14014.3
40053.4,14076.8
40236.2,14078
40285.2,14073.2
40332.4,14058.9
40375.8,14035.6
40413.9,14004.4
40445.1,13966.3
40468.3,13922.9
40482.6,13875.8
40487.4,13826.8
40486.2,13742.4
40423.7,13679.9
39990.9,13679.9
39890.9,13679.9
39458.2,13679.9
39395.7,13742.4
39394.5,13826.8
38796.4,13826.8
39123.9,13499.2
39395.4,13499.2
39395.7,13517.4
39458.2,13579.9
39890.9,13579.9
39890.9,13572
39990.9,13572
39990.9,13579.9
40423.7,13579.9
40486.2,13517.4
40486.5,13499.2
40585.3,13499.2
40600,13500.7
40614.7,13499.2
40614.7,13499.2
40658.7,13494.9
40715.1,13477.8
40767,13450
40812.6,13412.6
40822,13401.2
41123.9,13099.2
42677.6,13099.2
42514.2,13262.6
42508.3,13255.4
42470.3,13224.2
42426.8,13201
42379.7,13186.7
42330.7,13181.9
41740.2,13181.9
41691.1,13186.7
41644,13201
41600.6,13224.2
41562.5,13255.4
41531.3,13293.5
41508.1,13336.9
41493.8,13384.1
41488.9,13433.1
41488.9,13826.8
41493.8,13875.8
41508.1,13922.9
41531.3,13966.3
41562.5,14004.4
41600.6,14035.6
41644,14058.9
41691.1,14073.2
41740.2,14078
42330.7,14078
42379.7,14073.2
42426.8,14058.9
42470.3,14035.6
42508.3,14004.4
42539.6,13966.3
42559.3,13929.5
42570.1,13930.6
42584.8,13929.1
42584.8,13929.1
42628.7,13924.8
42685.1,13907.7
42737.1,13879.9
42782.7,13842.5
42792,13831.1
42796.4,13826.8
43418.1,13826.8
43422.9,13875.8
43437.2,13922.9
43460.4,13966.3
43491.7,14004.4
43529.7,14035.6
43573.2,14058.9
43620.3,14073.2
43669.3,14078
43852.1,14076.8
43914.6,14014.3
43914.6,13679.9
44014.6,13679.9
44014.6,14014.3
44077.1,14076.8
44259.8,14078
44308.9,14073.2
44356,14058.9
44399.4,14035.6
44437.5,14004.4
44468.7,13966.3
44491.9,13922.9
44506.2,13875.8
44511.1,13826.8
44509.8,13742.4
44447.3,13679.9
44014.6,13679.9
43914.6,13679.9
43481.8,13679.9
43419.3,13742.4
43418.1,13826.8
42796.4,13826.8
43123.9,13499.2
43419,13499.2
43419.3,13517.4
43481.8,13579.9
43914.6,13579.9
43914.6,13572
44014.6,13572
44014.6,13579.9
44447.3,13579.9
44509.8,13517.4
44510.4,13479.2
44515.1,13477.8
44567,13450
44612.6,13412.6
44622,13401.2
44923.9,13099.2
47277.6,13099.2
47046.1,13330.7
46559.5,13330.7
46539.6,13293.5
46508.3,13255.4
46470.3,13224.2
46426.8,13201
46379.7,13186.7
46330.7,13181.9
45740.2,13181.9
45691.1,13186.7
45644,13201
45600.6,13224.2
45562.5,13255.4
45531.3,13293.5
45508.1,13336.9
45493.8,13384.1
45488.9,13433.1
45488.9,13826.8
45493.8,13875.8
45508.1,13922.9
45531.3,13966.3
45562.5,14004.4
45600.6,14035.6
45644,14058.9
45691.1,14073.2
45740.2,14078
46330.7,14078
46379.7,14073.2
46426.8,14058.9
46470.3,14035.6
46508.3,14004.4
46539.6,13966.3
46559.5,13929.1
47155.4,13929.1
47170.1,13930.6
47184.8,13929.1
47184.8,13929.1
47228.7,13924.8
47285.1,13907.7
47337.1,13879.9
47382.7,13842.5
47392,13831.1
47418.4,13804.8
47418.1,13826.8
47422.9,13875.8
47437.2,13922.9
47460.4,13966.3
47491.7,14004.4
47529.7,14035.6
47573.2,14058.9
47620.3,14073.2
47669.3,14078
47852.1,14076.8
47914.6,14014.3
47914.6,13679.9
48014.6,13679.9
48014.6,14014.3
48077.1,14076.8
48259.8,14078
48308.9,14073.2
48356,14058.9
48399.4,14035.6
48437.5,14004.4
48468.7,13966.3
48491.9,13922.9
48506.2,13875.8
48511.1,13826.8
48509.8,13742.4
48447.3,13679.9
48014.6,13679.9
47914.6,13679.9
47906.7,13679.9
47906.7,13579.9
47914.6,13579.9
47914.6,13572
48014.6,13572
48014.6,13579.9
48447.3,13579.9
48509.8,13517.4
48511.1,13433.1
48506.2,13384.1
48491.9,13336.9
48471.8,13299.2
49528.2,13299.2
49508.1,13336.9
49493.8,13384.1
49488.9,13433.1
49488.9,13826.8
49493.8,13875.8
49508.1,13922.9
49531.3,13966.3
49562.5,14004.4
49600.6,14035.6
49644,14058.9
49691.1,14073.2
49740.2,14078
50330.7,14078
50379.7,14073.2
50426.8,14058.9
50470.3,14035.6
50508.3,14004.4
50539.6,13966.3
50559.3,13929.5
50570.1,13930.6
50584.8,13929.1
50584.8,13929.1
50628.7,13924.8
50685.1,13907.7
50737.1,13879.9
50782.7,13842.5
50792,13831.1
50796.4,13826.8
51418.1,13826.8
51422.9,13875.8
51437.2,13922.9
51460.4,13966.3
51491.7,14004.4
51529.7,14035.6
51573.2,14058.9
51620.3,14073.2
51669.3,14078
51852.1,14076.8
51914.6,14014.3
51914.6,13679.9
52014.6,13679.9
52014.6,14014.3
52077.1,14076.8
52259.8,14078
52308.9,14073.2
52356,14058.9
52399.4,14035.6
52437.5,14004.4
52468.7,13966.3
52491.9,13922.9
52506.2,13875.8
52511.1,13826.8
52509.8,13742.4
52447.3,13679.9
52014.6,13679.9
51914.6,13679.9
51481.8,13679.9
51419.3,13742.4
51418.1,13826.8
50796.4,13826.8
51123.9,13499.2
51419,13499.2
51419.3,13517.4
51481.8,13579.9
51914.6,13579.9
51914.6,13572
52014.6,13572
52014.6,13579.9
52447.3,13579.9
52509.8,13517.4
52510.4,13479.2
52515.1,13477.8
52567,13450
52612.6,13412.6
52622,13401.2
52923.9,13099.2
55077.6,13099.2
54846.1,13330.7
54559.5,13330.7
54539.6,13293.5
54508.3,13255.4
54470.3,13224.2
54426.8,13201
54379.7,13186.7
54330.7,13181.9
53740.2,13181.9
53691.1,13186.7
53644,13201
53600.6,13224.2
53562.5,13255.4
53531.3,13293.5
53508.1,13336.9
53493.8,13384.1
53488.9,13433.1
53488.9,13826.8
53493.8,13875.8
53508.1,13922.9
53531.3,13966.3
53562.5,14004.4
53600.6,14035.6
53644,14058.9
53691.1,14073.2
53740.2,14078
54330.7,14078
54379.7,14073.2
54426.8,14058.9
54470.3,14035.6
54508.3,14004.4
54539.6,13966.3
54559.5,13929.1
54955.4,13929.1
54970.1,13930.6
54984.8,13929.1
54984.8,13929.1
55028.7,13924.8
55085.1,13907.7
55137.1,13879.9
55182.7,13842.5
55192,13831.1
55196.4,13826.8
55418.1,13826.8
55422.9,13875.8
55437.2,13922.9
55460.4,13966.3
55491.7,14004.4
55529.7,14035.6
55573.2,14058.9
55620.3,14073.2
55669.3,14078
55852.1,14076.8
55914.6,14014.3
55914.6,13679.9
56014.6,13679.9
56014.6,14014.3
56077.1,14076.8
56259.8,14078
56308.9,14073.2
56356,14058.9
56399.4,14035.6
56437.5,14004.4
56468.7,13966.3
56491.9,13922.9
56506.2,13875.8
56511.1,13826.8
56509.8,13742.4
56447.3,13679.9
56014.6,13679.9
55914.6,13679.9
55481.8,13679.9
55419.3,13742.4
55418.1,13826.8
55196.4,13826.8
55462.5,13560.6
55481.8,13579.9
55914.6,13579.9
55914.6,13572
56014.6,13572
56014.6,13579.9
56447.3,13579.9
56509.8,13517.4
56511.1,13433.1
56506.2,13384.1
56491.9,13336.9
56468.7,13293.5
56437.5,13255.4
56399.4,13224.2
56399.1,13224
56523.9,13099.2
58677.6,13099.2
58514.2,13262.6
58508.3,13255.4
58470.3,13224.2
58426.8,13201
58379.7,13186.7
58330.7,13181.9
57740.2,13181.9
57691.1,13186.7
57644,13201
57600.6,13224.2
57562.5,13255.4
57531.3,13293.5
57508.1,13336.9
57493.8,13384.1
57488.9,13433.1
57488.9,13826.8
57493.8,13875.8
57508.1,13922.9
57531.3,13966.3
57562.5,14004.4
57600.6,14035.6
57644,14058.9
57691.1,14073.2
57740.2,14078
58330.7,14078
58379.7,14073.2
58426.8,14058.9
58470.3,14035.6
58508.3,14004.4
58539.6,13966.3
58559.3,13929.5
58570.1,13930.6
58584.8,13929.1
58584.8,13929.1
58628.7,13924.8
58685.1,13907.7
58737.1,13879.9
58782.7,13842.5
58792,13831.1
58796.4,13826.8
59418.1,13826.8
59422.9,13875.8
59437.2,13922.9
59460.4,13966.3
59491.7,14004.4
59529.7,14035.6
59573.2,14058.9
59620.3,14073.2
59669.3,14078
59852.1,14076.8
59914.6,14014.3
59914.6,13679.9
60014.6,13679.9
60014.6,14014.3
60077.1,14076.8
60259.8,14078
60308.9,14073.2
60356,14058.9
60399.4,14035.6
60437.5,14004.4
60468.7,13966.3
60491.9,13922.9
60506.2,13875.8
60511.1,13826.8
60509.8,13742.4
60447.3,13679.9
60014.6,13679.9
59914.6,13679.9
59481.8,13679.9
59419.3,13742.4
59418.1,13826.8
58796.4,13826.8
59123.9,13499.2
59419,13499.2
59419.3,13517.4
59481.8,13579.9
59914.6,13579.9
59914.6,13572
60014.6,13572
60014.6,13579.9
60447.3,13579.9
60509.8,13517.4
60510.1,13499.2
61488.9,13499.2
61488.9,13826.8
61493.8,13875.8
61508.1,13922.9
61531.3,13966.3
61562.5,14004.4
61600.6,14035.6
61644,14058.9
61691.1,14073.2
61740.2,14078
62330.7,14078
62379.7,14073.2
62426.8,14058.9
62470.3,14035.6
62508.3,14004.4
62539.6,13966.3
62559.3,13929.5
62570.1,13930.6
62584.8,13929.1
62584.8,13929.1
62628.7,13924.8
62685.1,13907.7
62737.1,13879.9
62782.7,13842.5
62792,13831.1
62796.4,13826.8
63418.1,13826.8
63422.9,13875.8
63437.2,13922.9
63460.4,13966.3
63491.7,14004.4
63529.7,14035.6
63573.2,14058.9
63620.3,14073.2
63669.3,14078
63852.1,14076.8
63914.6,14014.3
63914.6,13679.9
64014.6,13679.9
64014.6,14014.3
64077.1,14076.8
64259.8,14078
64308.9,14073.2
64356,14058.9
64399.4,14035.6
64437.5,14004.4
64468.7,13966.3
64491.9,13922.9
64506.2,13875.8
64511.1,13826.8
64509.8,13742.4
64447.3,13679.9
64014.6,13679.9
63914.6,13679.9
63481.8,13679.9
63419.3,13742.4
63418.1,13826.8
62796.4,13826.8
63123.9,13499.2
63419,13499.2
63419.3,13517.4
63481.8,13579.9
63914.6,13579.9
63914.6,13572
64014.6,13572
64014.6,13579.9
64447.3,13579.9
64509.8,13517.4
64511.1,13433.1
65488.9,13433.1
65488.9,13826.8
65493.8,13875.8
65508.1,13922.9
65531.3,13966.3
65562.5,14004.4
65600.6,14035.6
65644,14058.9
65691.1,14073.2
65740.2,14078
66330.7,14078
66379.7,14073.2
66426.8,14058.9
66470.3,14035.6
66508.3,14004.4
66539.6,13966.3
66562.8,13922.9
66577.1,13875.8
66581.9,13826.8
67418.1,13826.8
67422.9,13875.8
67437.2,13922.9
67460.4,13966.3
67491.7,14004.4
67529.7,14035.6
67573.2,14058.9
67620.3,14073.2
67669.3,14078
67852.1,14076.8
67914.6,14014.3
67914.6,13679.9
67481.8,13679.9
67419.3,13742.4
67418.1,13826.8
66581.9,13826.8
66581.9,13433.1
67418.1,13433.1
67419.3,13517.4
67481.8,13579.9
67914.6,13579.9
67914.6,13245.6
67852.1,13183.1
67669.3,13181.9
67620.3,13186.7
67573.2,13201
67529.7,13224.2
67491.7,13255.4
67460.4,13293.5
67437.2,13336.9
67422.9,13384.1
67418.1,13433.1
66581.9,13433.1
66577.1,13384.1
66562.8,13336.9
66539.6,13293.5
66508.3,13255.4
66470.3,13224.2
66426.8,13201
66379.7,13186.7
66330.7,13181.9
65740.2,13181.9
65691.1,13186.7
65644,13201
65600.6,13224.2
65562.5,13255.4
65531.3,13293.5
65508.1,13336.9
65493.8,13384.1
65488.9,13433.1
64511.1,13433.1
64506.2,13384.1
64491.9,13336.9
64468.7,13293.5
64437.5,13255.4
64399.4,13224.2
64399.1,13224
64523.9,13099.2
67520,13099.2
67534.6,13100.7
67549.3,13099.2
67549.3,13099.2
67593.3,13094.9
67649.7,13077.8
67701.7,13050
67747.2,13012.6
67756.6,13001.2
67939.7,12818.1
68259.8,12818.1
68308.9,12813.3
68356,12799
68399.4,12775.8
68401.6,12774
68401.6,13226
68399.4,13224.2
68356,13201
68308.9,13186.7
68259.8,13181.9
68077.1,13183.1
68014.6,13245.6
68014.6,13579.9
68022.4,13579.9
68022.4,13679.9
68014.6,13679.9
68014.6,14014.3
68077.1,14076.8
68259.8,14078
68308.9,14073.2
68356,14058.9
68399.4,14035.6
68401.6,14033.9
68401.6,14355.7
68330.1,14427.2
62491.5,14427.2
62474.4,14425.5
62457.3,14427.2
62457.3,14427.2
62406.1,14432.2
62340.4,14452.1
62279.9,14484.5
62279.9,14484.5
62279.9,14484.5
62240.1,14517.1
62240.1,14517.1
62226.8,14528
62215.9,14541.3
61265.7,15491.5
61252.4,15502.4
61241.5,15515.7
61241.5,15515.7
61208.9,15555.5
61176.5,15616
61156.6,15681.7
61149.9,15750
61151.6,15767.1
61151.6,20855.1
61091.7,20915
61034.2,21001
60994.6,21096.7
60974.4,21198.2
60974.4,21301.8
60994.6,21403.3
61034.2,21499
61091.7,21585
61151.6,21644.9
61151.6,23105.1
61091.7,23165
61034.2,23251
60994.6,23346.7
60974.4,23448.2
60974.4,23551.8
60994.6,23653.3
61034.2,23749
61091.7,23835
61165,23908.3
61251,23965.8
61346.7,24005.4
61448.2,24025.6
61551.8,24025.6
61653.3,24005.4
61749,23965.8
61835,23908.3
61908.3,23835
61965.8,23749
62005.4,23653.3
62025.6,23551.8
62025.6,23448.2
62005.4,23346.7
61965.8,23251
61908.3,23165
61848.4,23105.1
61848.4,21644.9
61908.3,21585
61965.8,21499
62005.4,21403.3
62025.6,21301.8
62025.6,21198.2
62005.4,21096.7
61965.8,21001
61908.3,20915
61848.4,20855.1
61848.4,16526.2
66449.2,16526.2
66449.2,16702.2
66483.5,16874.7
66550.9,17037.3
66648.6,17183.6
66773.1,17308.1
66919.4,17405.8
67081.9,17473.2
67254.5,17507.5
67430.5,17507.5
67603.1,17473.2
67765.7,17405.8
67912,17308.1
68036.4,17183.6
68134.2,17037.3
68201.5,16874.7
68235.8,16702.2
68235.8,16526.2
68201.5,16353.6
68134.2,16191
68036.4,16044.7
67912,15920.3
67765.7,15822.5
67603.1,15755.2
67430.5,15720.9
67254.5,15720.9
67081.9,15755.2
66919.4,15822.5
66773.1,15920.3
66648.6,16044.7
66550.9,16191
66483.5,16353.6
66449.2,16526.2
61848.4,16526.2
61848.4,15894.3
62618.7,15124
68457.3,15124
68474.4,15125.7
68491.5,15124
68491.5,15124
68542.7,15119
68608.4,15099.1
68668.9,15066.7
68722,15023.2
68732.9,15009.9
68984.3,14758.5
68997.6,14747.6
69041.1,14694.5
69041.1,14694.5
69073.5,14634
69093.4,14568.3
69097.4,14528
69098.4,14517.1
69098.4,14517.1
69100.1,14500
69098.4,14482.9
69098.4,12017.1
69100.1,12000
69098.4,11982.9
69098.4,11982.9
69093.4,11931.7
69073.5,11866
69041.1,11805.5
69018.2,11777.5
69008.5,11765.7
69008.5,11765.7
68997.6,11752.4
68984.3,11741.5
68508.5,11265.7
68503.6,11259.8
69240.2,11259.8
Z" /> 
</g>
</g> 
</svg>
