<?xml version="1.0" standalone="no"?>
 <!DOCTYPE svg PUBLIC "-//W3C//DTD SVG 1.1//EN" 
 "http://www.w3.org/Graphics/SVG/1.1/DTD/svg11.dtd"> 
<svg
  xmlns:svg="http://www.w3.org/2000/svg"
  xmlns="http://www.w3.org/2000/svg"
  xmlns:xlink="http://www.w3.org/1999/xlink"
  version="1.1"
  width="29.700220cm" height="21.000720cm" viewBox="0 0 116930 82680">
<title>SVG Picture created as sim-B_SilkS.svg date 2020/10/19 15:43:01 </title>
  <desc>Picture generated by PCBNEW </desc>
<g style="fill:#000000; fill-opacity:1;stroke:#000000; stroke-opacity:1;
stroke-linecap:round; stroke-linejoin:round;"
 transform="translate(0 0) scale(1 1)">
</g>
<g style="fill:#000000; fill-opacity:0.0; 
stroke:#000000; stroke-width:-0.000393701; stroke-opacity:1; 
stroke-linecap:round; stroke-linejoin:round;">
</g>
<g style="fill:#000000; fill-opacity:0.0; 
stroke:#000000; stroke-width:59.0551; stroke-opacity:1; 
stroke-linecap:round; stroke-linejoin:round;">
<text x="41750" y="29446.9"
textLength="298.181" font-size="524.934" lengthAdjust="spacingAndGlyphs"
text-anchor="middle" opacity="0">1</text>
<path d="M41637 29428
L41862 29428
" />
<path d="M41750 29428
L41750 29034
L41787 29090
L41824 29128
L41862 29146
" />
<text x="25000" y="26696.9"
textLength="1273.06" font-size="524.934" lengthAdjust="spacingAndGlyphs"
text-anchor="middle" opacity="0">ICSP</text>
<path d="M25581 26678
L25581 26284
" />
<path d="M25168 26640
L25187 26659
L25243 26678
L25281 26678
L25337 26659
L25374 26621
L25393 26584
L25412 26509
L25412 26453
L25393 26378
L25374 26340
L25337 26303
L25281 26284
L25243 26284
L25187 26303
L25168 26321
" />
<path d="M25018 26659
L24962 26678
L24868 26678
L24831 26659
L24812 26640
L24793 26603
L24793 26565
L24812 26528
L24831 26509
L24868 26490
L24943 26471
L24981 26453
L25000 26434
L25018 26396
L25018 26359
L25000 26321
L24981 26303
L24943 26284
L24850 26284
L24793 26303
" />
<path d="M24625 26678
L24625 26284
L24475 26284
L24437 26303
L24418 26321
L24400 26359
L24400 26415
L24418 26453
L24437 26471
L24475 26490
L24625 26490
" />
<text x="67000" y="23696.9"
textLength="598.144" font-size="524.934" lengthAdjust="spacingAndGlyphs"
text-anchor="middle" opacity="0">TX</text>
<path d="M67299 23284
L67074 23284
" />
<path d="M67187 23678
L67187 23284
" />
<path d="M66981 23284
L66718 23678
" />
<path d="M66718 23284
L66981 23678
" />
<text x="67000" y="21446.9"
textLength="691.882" font-size="524.934" lengthAdjust="spacingAndGlyphs"
text-anchor="middle" opacity="0">RX</text>
<path d="M67065 21428
L67196 21240
" />
<path d="M67290 21428
L67290 21034
L67140 21034
L67103 21053
L67084 21071
L67065 21109
L67065 21165
L67084 21203
L67103 21221
L67140 21240
L67290 21240
" />
<path d="M66934 21034
L66671 21428
" />
<path d="M66671 21034
L66934 21428
" />
<text x="65000" y="33946.9"
textLength="1704.26" font-size="524.934" lengthAdjust="spacingAndGlyphs"
text-anchor="middle" opacity="0">RESET</text>
<path d="M65571 33928
L65703 33740
" />
<path d="M65796 33928
L65796 33534
L65646 33534
L65609 33553
L65590 33571
L65571 33609
L65571 33665
L65590 33703
L65609 33721
L65646 33740
L65796 33740
" />
<path d="M65403 33721
L65271 33721
" />
<path d="M65215 33928
L65403 33928
L65403 33534
L65215 33534
" />
<path d="M65065 33909
L65009 33928
L64915 33928
L64878 33909
L64859 33890
L64840 33853
L64840 33815
L64859 33778
L64878 33759
L64915 33740
L64990 33721
L65028 33703
L65046 33684
L65065 33646
L65065 33609
L65046 33571
L65028 33553
L64990 33534
L64896 33534
L64840 33553
" />
<path d="M64671 33721
L64540 33721
" />
<path d="M64484 33928
L64671 33928
L64671 33534
L64484 33534
" />
<path d="M64371 33534
L64146 33534
" />
<path d="M64259 33928
L64259 33534
" />
<text x="26500" y="25696.9"
textLength="1123.08" font-size="524.934" lengthAdjust="spacingAndGlyphs"
text-anchor="middle" opacity="0">GND</text>
<path d="M26799 25303
L26837 25284
L26893 25284
L26949 25303
L26987 25340
L27006 25378
L27024 25453
L27024 25509
L27006 25584
L26987 25621
L26949 25659
L26893 25678
L26856 25678
L26799 25659
L26781 25640
L26781 25509
L26856 25509
" />
<path d="M26612 25678
L26612 25284
L26387 25678
L26387 25284
" />
<path d="M26200 25678
L26200 25284
L26106 25284
L26050 25303
L26012 25340
L25993 25378
L25975 25453
L25975 25509
L25993 25584
L26012 25621
L26050 25659
L26106 25678
L26200 25678
" />
<text x="26750" y="22696.9"
textLength="1348.05" font-size="524.934" lengthAdjust="spacingAndGlyphs"
text-anchor="middle" opacity="0">MISO</text>
<path d="M27368 22678
L27368 22284
L27237 22565
L27106 22284
L27106 22678
" />
<path d="M26918 22678
L26918 22284
" />
<path d="M26750 22659
L26693 22678
L26600 22678
L26562 22659
L26543 22640
L26525 22603
L26525 22565
L26543 22528
L26562 22509
L26600 22490
L26675 22471
L26712 22453
L26731 22434
L26750 22396
L26750 22359
L26731 22321
L26712 22303
L26675 22284
L26581 22284
L26525 22303
" />
<path d="M26281 22284
L26206 22284
L26168 22303
L26131 22340
L26112 22415
L26112 22546
L26131 22621
L26168 22659
L26206 22678
L26281 22678
L26318 22659
L26356 22621
L26375 22546
L26375 22415
L26356 22340
L26318 22303
L26281 22284
" />
<text x="26750" y="23696.9"
textLength="1348.05" font-size="524.934" lengthAdjust="spacingAndGlyphs"
text-anchor="middle" opacity="0">MOSI</text>
<path d="M27368 23678
L27368 23284
L27237 23565
L27106 23284
L27106 23678
" />
<path d="M26843 23284
L26768 23284
L26731 23303
L26693 23340
L26675 23415
L26675 23546
L26693 23621
L26731 23659
L26768 23678
L26843 23678
L26881 23659
L26918 23621
L26937 23546
L26937 23415
L26918 23340
L26881 23303
L26843 23284
" />
<path d="M26525 23659
L26468 23678
L26375 23678
L26337 23659
L26318 23640
L26300 23603
L26300 23565
L26318 23528
L26337 23509
L26375 23490
L26450 23471
L26487 23453
L26506 23434
L26525 23396
L26525 23359
L26506 23321
L26487 23303
L26450 23284
L26356 23284
L26300 23303
" />
<path d="M26131 23678
L26131 23284
" />
<text x="26500" y="24696.9"
textLength="1085.58" font-size="524.934" lengthAdjust="spacingAndGlyphs"
text-anchor="middle" opacity="0">SCK</text>
<path d="M27006 24659
L26949 24678
L26856 24678
L26818 24659
L26799 24640
L26781 24603
L26781 24565
L26799 24528
L26818 24509
L26856 24490
L26931 24471
L26968 24453
L26987 24434
L27006 24396
L27006 24359
L26987 24321
L26968 24303
L26931 24284
L26837 24284
L26781 24303
" />
<path d="M26387 24640
L26406 24659
L26462 24678
L26500 24678
L26556 24659
L26593 24621
L26612 24584
L26631 24509
L26631 24453
L26612 24378
L26593 24340
L26556 24303
L26500 24284
L26462 24284
L26406 24303
L26387 24321
" />
<path d="M26218 24678
L26218 24284
" />
<path d="M25993 24678
L26162 24453
" />
<path d="M25993 24284
L26218 24509
" />
<text x="26750" y="21696.9"
textLength="1704.26" font-size="524.934" lengthAdjust="spacingAndGlyphs"
text-anchor="middle" opacity="0">RESET</text>
<path d="M27321 21678
L27453 21490
" />
<path d="M27546 21678
L27546 21284
L27396 21284
L27359 21303
L27340 21321
L27321 21359
L27321 21415
L27340 21453
L27359 21471
L27396 21490
L27546 21490
" />
<path d="M27153 21471
L27021 21471
" />
<path d="M26965 21678
L27153 21678
L27153 21284
L26965 21284
" />
<path d="M26815 21659
L26759 21678
L26665 21678
L26628 21659
L26609 21640
L26590 21603
L26590 21565
L26609 21528
L26628 21509
L26665 21490
L26740 21471
L26778 21453
L26796 21434
L26815 21396
L26815 21359
L26796 21321
L26778 21303
L26740 21284
L26646 21284
L26590 21303
" />
<path d="M26421 21471
L26290 21471
" />
<path d="M26234 21678
L26421 21678
L26421 21284
L26234 21284
" />
<path d="M26121 21284
L25896 21284
" />
<path d="M26009 21678
L26009 21284
" />
<text x="26250" y="20696.9"
textLength="635.639" font-size="524.934" lengthAdjust="spacingAndGlyphs"
text-anchor="middle" opacity="0">5V</text>
<path d="M26324 20284
L26512 20284
L26531 20471
L26512 20453
L26474 20434
L26381 20434
L26343 20453
L26324 20471
L26306 20509
L26306 20603
L26324 20640
L26343 20659
L26381 20678
L26474 20678
L26512 20659
L26531 20640
" />
<path d="M26193 20284
L26062 20678
L25931 20284
" />
</g>
<g style="fill:#000000; fill-opacity:0.0; 
stroke:#000000; stroke-width:47.2441; stroke-opacity:1; 
stroke-linecap:round; stroke-linejoin:round;">
<path d="M66257 31891
L66257 30836
" />
<path d="M63801 30836
L63801 31891
" />
<path d="M63860 32592
L66198 32592
" />
<path d="M63860 30135
L66198 30135
" />
<circle cx="65029.5" cy="31364.2" r="556.777" /> 
<path d="M40874 21956
L40874 20169
" />
<path d="M40031 21956
L40031 20169
" />
<path d="M40874 21956
L40868 21956
" />
<path d="M40037 21956
L40031 21956
" />
<path d="M40874 20169
L40868 20169
" />
<path d="M40037 20169
L40031 20169
" />
</g>
<g style="fill:#000000; fill-opacity:0.0; 
stroke:#000000; stroke-width:59.0551; stroke-opacity:1; 
stroke-linecap:round; stroke-linejoin:round;">
<path d="M42844 29596
L42844 29370
" />
<path d="M46919 29596
L46919 29330
" />
<path d="M46919 25521
L46919 25787
" />
<path d="M42844 25521
L42844 25787
" />
<path d="M42844 29596
L43110 29596
" />
<path d="M42844 25521
L43110 25521
" />
<path d="M46919 25521
L46653 25521
" />
<path d="M46919 29596
L46653 29596
" />
<path d="M42844 29370
L42342 29370
" />
</g>
<g style="fill:#000000; fill-opacity:0.0; 
stroke:#000000; stroke-width:47.2441; stroke-opacity:1; 
stroke-linecap:round; stroke-linejoin:round;">
<path d="M46069 20805
L43609 20805
" />
<path d="M46069 22794
L43609 22794
" />
<path d="M46069.7 22794.1 A994.094 994.094 0.0 0 0 46069.7 20805.9" />
<path d="M43609.1 20805.9 A994.094 994.094 0.0 0 0 43609.1 22794.1" />
<path d="M70043 36472
L69409 36472
" />
<path d="M67751 39511
L67751 38700
" />
<path d="M68425 39511
L67751 39511
" />
<path d="M67751 36472
L67751 37283
" />
<path d="M68425 36472
L67751 36472
" />
<path d="M70043 36472
L70043 39511
" />
<path d="M70043 39511
L69409 39511
" />
<path d="M67751 37283
L67519 37283
" />
<path d="M25326 32523
L24279 32523
" />
<path d="M25326 29500
L25326 32523
" />
<path d="M24279 29500
L24279 32523
" />
<path d="M25326 29500
L24279 29500
" />
<path d="M25326 29000
L25326 28476
" />
<path d="M25326 28476
L24803 28476
" />
<path d="M25523 26023
L24476 26023
" />
<path d="M25523 21000
L25523 26023
" />
<path d="M24476 21000
L24476 26023
" />
<path d="M25523 21000
L24476 21000
" />
<path d="M25523 20500
L25523 19976
" />
<path d="M25523 19976
L25000 19976
" />
<path d="M48003 23515
L48003 25303
" />
<path d="M48846 23515
L48846 25303
" />
<path d="M48003 23515
L48009 23515
" />
<path d="M48840 23515
L48846 23515
" />
<path d="M48003 25303
L48009 25303
" />
<path d="M48840 25303
L48846 25303
" />
<path d="M66114 21675
L66114 21736
" />
<path d="M66114 20763
L66114 20824
" />
<path d="M65090.1 21675.1 A590.551 590.551 0.0 0 0 65909.8 21675.2" />
<path d="M65909.8 20824.8 A590.551 590.551 0.0 0 0 65090.1 20824.9" />
<path d="M64841.6 21674.6 A783.465 783.465 0.0 0 0 66114.2 21736.4" />
<path d="M66114.2 20763.6 A783.465 783.465 0.0 0 0 64841.6 20825.4" />
<path d="M66114 23013
L66114 23074
" />
<path d="M66114 23925
L66114 23986
" />
<path d="M66114.2 23013.6 A783.465 783.465 0.0 0 0 64841.6 23075.4" />
<path d="M64841.6 23924.6 A783.465 783.465 0.0 0 0 66114.2 23986.4" />
<path d="M65909.8 23074.8 A590.551 590.551 0.0 0 0 65090.1 23074.9" />
<path d="M65090.1 23925.1 A590.551 590.551 0.0 0 0 65909.8 23925.2" />
<path d="M32320 25502
L32517 25502
" />
<path d="M32419 25403
L32419 25600
" />
<path d="M32888 27531
L33111 27531
" />
<path d="M32796 27516
L33203 27516
" />
<path d="M32733 27500
L33266 27500
" />
<path d="M32683 27484
L33316 27484
" />
<path d="M32639 27468
L33360 27468
" />
<path d="M32601 27453
L33398 27453
" />
<path d="M32567 27437
L33432 27437
" />
<path d="M32536 27421
L33463 27421
" />
<path d="M33409 27405
L33492 27405
" />
<path d="M32507 27405
L32590 27405
" />
<path d="M33409 27390
L33519 27390
" />
<path d="M32480 27390
L32590 27390
" />
<path d="M33409 27374
L33544 27374
" />
<path d="M32455 27374
L32590 27374
" />
<path d="M33409 27358
L33568 27358
" />
<path d="M32431 27358
L32590 27358
" />
<path d="M33409 27342
L33590 27342
" />
<path d="M32409 27342
L32590 27342
" />
<path d="M33409 27327
L33611 27327
" />
<path d="M32388 27327
L32590 27327
" />
<path d="M33409 27311
L33631 27311
" />
<path d="M32368 27311
L32590 27311
" />
<path d="M33409 27295
L33650 27295
" />
<path d="M32349 27295
L32590 27295
" />
<path d="M33409 27279
L33668 27279
" />
<path d="M32331 27279
L32590 27279
" />
<path d="M33409 27264
L33686 27264
" />
<path d="M32313 27264
L32590 27264
" />
<path d="M33409 27248
L33702 27248
" />
<path d="M32297 27248
L32590 27248
" />
<path d="M33409 27232
L33718 27232
" />
<path d="M32281 27232
L32590 27232
" />
<path d="M33409 27216
L33733 27216
" />
<path d="M32266 27216
L32590 27216
" />
<path d="M33409 27201
L33748 27201
" />
<path d="M32251 27201
L32590 27201
" />
<path d="M33409 27185
L33762 27185
" />
<path d="M32237 27185
L32590 27185
" />
<path d="M33409 27169
L33775 27169
" />
<path d="M32224 27169
L32590 27169
" />
<path d="M33409 27153
L33788 27153
" />
<path d="M32211 27153
L32590 27153
" />
<path d="M33409 27138
L33801 27138
" />
<path d="M32198 27138
L32590 27138
" />
<path d="M33409 27122
L33812 27122
" />
<path d="M32187 27122
L32590 27122
" />
<path d="M33409 27106
L33824 27106
" />
<path d="M32175 27106
L32590 27106
" />
<path d="M33409 27090
L33835 27090
" />
<path d="M32164 27090
L32590 27090
" />
<path d="M33409 27075
L33846 27075
" />
<path d="M32153 27075
L32590 27075
" />
<path d="M33409 27059
L33856 27059
" />
<path d="M32143 27059
L32590 27059
" />
<path d="M33409 27043
L33866 27043
" />
<path d="M32133 27043
L32590 27043
" />
<path d="M33409 27027
L33875 27027
" />
<path d="M32124 27027
L32590 27027
" />
<path d="M33409 27012
L33884 27012
" />
<path d="M32115 27012
L32590 27012
" />
<path d="M33409 26996
L33892 26996
" />
<path d="M32107 26996
L32590 26996
" />
<path d="M33409 26980
L33901 26980
" />
<path d="M32098 26980
L32590 26980
" />
<path d="M33409 26964
L33909 26964
" />
<path d="M32090 26964
L32590 26964
" />
<path d="M33409 26949
L33916 26949
" />
<path d="M32083 26949
L32590 26949
" />
<path d="M33409 26933
L33924 26933
" />
<path d="M32075 26933
L32590 26933
" />
<path d="M33409 26917
L33931 26917
" />
<path d="M32068 26917
L32590 26917
" />
<path d="M33409 26901
L33937 26901
" />
<path d="M32062 26901
L32590 26901
" />
<path d="M33409 26886
L33944 26886
" />
<path d="M32055 26886
L32590 26886
" />
<path d="M33409 26870
L33950 26870
" />
<path d="M32049 26870
L32590 26870
" />
<path d="M33409 26854
L33955 26854
" />
<path d="M32044 26854
L32590 26854
" />
<path d="M33409 26838
L33961 26838
" />
<path d="M32038 26838
L32590 26838
" />
<path d="M33409 26823
L33966 26823
" />
<path d="M32033 26823
L32590 26823
" />
<path d="M33409 26807
L33971 26807
" />
<path d="M32028 26807
L32590 26807
" />
<path d="M33409 26791
L33976 26791
" />
<path d="M32023 26791
L32590 26791
" />
<path d="M33409 26775
L33980 26775
" />
<path d="M32019 26775
L32590 26775
" />
<path d="M33409 26759
L33984 26759
" />
<path d="M32015 26759
L32590 26759
" />
<path d="M33409 26744
L33988 26744
" />
<path d="M32011 26744
L32590 26744
" />
<path d="M33409 26728
L33992 26728
" />
<path d="M32007 26728
L32590 26728
" />
<path d="M33409 26712
L33995 26712
" />
<path d="M32004 26712
L32590 26712
" />
<path d="M33409 26696
L33998 26696
" />
<path d="M32001 26696
L32590 26696
" />
<path d="M33409 26681
L34001 26681
" />
<path d="M31998 26681
L32590 26681
" />
<path d="M33409 26665
L34003 26665
" />
<path d="M31996 26665
L32590 26665
" />
<path d="M33409 26649
L34006 26649
" />
<path d="M31993 26649
L32590 26649
" />
<path d="M33409 26633
L34008 26633
" />
<path d="M31991 26633
L32590 26633
" />
<path d="M33409 26618
L34009 26618
" />
<path d="M31990 26618
L32590 26618
" />
<path d="M33409 26602
L34011 26602
" />
<path d="M31988 26602
L32590 26602
" />
<path d="M31987 26586
L34012 26586
" />
<path d="M31985 26570
L34014 26570
" />
<path d="M31985 26555
L34014 26555
" />
<path d="M31984 26539
L34015 26539
" />
<path d="M31984 26523
L34015 26523
" />
<path d="M31984 26507
L34015 26507
" />
<circle cx="33000" cy="26507.9" r="1031.5" /> 
<path d="M36171 28909
L36171 27122
" />
<path d="M35328 28909
L35328 27122
" />
<path d="M36171 28909
L36165 28909
" />
<path d="M35334 28909
L35328 28909
" />
<path d="M36171 27122
L36165 27122
" />
<path d="M35334 27122
L35328 27122
" />
<path d="M49584 25522
L49578 25522
" />
<path d="M50421 25522
L50415 25522
" />
<path d="M49584 27309
L49578 27309
" />
<path d="M50421 27309
L50415 27309
" />
<path d="M49578 27309
L49578 25522
" />
<path d="M50421 27309
L50421 25522
" />
<path d="M64862 38929
L64862 39059
" />
<path d="M62287 38929
L64862 38929
" />
<path d="M62287 39059
L62287 38929
" />
<path d="M64862 40007
L64862 39877
" />
<path d="M62287 40007
L64862 40007
" />
<path d="M62287 39877
L62287 40007
" />
<path d="M62287 38401
L62287 38531
" />
<path d="M62287 38531
L64862 38531
" />
<path d="M64862 38531
L64862 38401
" />
<path d="M62287 37582
L62287 37452
" />
<path d="M62287 37452
L64862 37452
" />
<path d="M64862 37452
L64862 37582
" />
<path d="M31661 29539
L31661 29409
" />
<path d="M34236 29539
L31661 29539
" />
<path d="M34236 29409
L34236 29539
" />
<path d="M31661 28460
L31661 28590
" />
<path d="M34236 28460
L31661 28460
" />
<path d="M34236 28590
L34236 28460
" />
<path d="M60212 21659
L60212 21789
" />
<path d="M60212 21789
L62787 21789
" />
<path d="M62787 21789
L62787 21659
" />
<path d="M60212 20840
L60212 20710
" />
<path d="M60212 20710
L62787 20710
" />
<path d="M62787 20710
L62787 20840
" />
<path d="M62787 22960
L62787 23090
" />
<path d="M60212 22960
L62787 22960
" />
<path d="M60212 23090
L60212 22960
" />
<path d="M62787 24039
L62787 23909
" />
<path d="M60212 24039
L62787 24039
" />
<path d="M60212 23909
L60212 24039
" />
<g >
</g>
<g >
</g>
<g >
</g>
<g >
</g>
<g >
</g>
<g >
</g>
<g >
</g>
<g >
</g>
<g >
</g>
<g >
</g>
<g >
</g>
<g >
</g>
<g >
</g>
<g >
</g>
<g >
</g>
<g >
</g>
<g >
</g>
<g >
</g>
<g >
</g>
<g >
</g>
<g >
</g>
<g >
</g>
<g >
</g>
<g >
</g>
<g >
</g>
<g >
</g>
<g >
</g>
<g >
</g>
<g >
</g>
<g >
</g>
<g >
</g>
</g> 
</svg>
