%TF.GenerationSoftware,KiCad,Pcbnew,(5.1.6)-1*%
%TF.CreationDate,2020-10-19T15:42:45+08:00*%
%TF.ProjectId,sim,73696d2e-6b69-4636-9164-5f7063625858,rev?*%
%TF.SameCoordinates,Original*%
%TF.FileFunction,Copper,L2,Bot*%
%TF.FilePolarity,Positive*%
%FSLAX46Y46*%
G04 Gerber Fmt 4.6, Leading zero omitted, Abs format (unit mm)*
G04 Created by KiCad (PCBNEW (5.1.6)-1) date 2020-10-19 15:42:45*
%MOMM*%
%LPD*%
G01*
G04 APERTURE LIST*
%TA.AperFunction,NonConductor*%
%ADD10C,0.300000*%
%TD*%
%TA.AperFunction,ComponentPad*%
%ADD11C,1.700000*%
%TD*%
%TA.AperFunction,ComponentPad*%
%ADD12C,1.600000*%
%TD*%
%TA.AperFunction,SMDPad,CuDef*%
%ADD13R,1.500000X0.550000*%
%TD*%
%TA.AperFunction,SMDPad,CuDef*%
%ADD14R,0.550000X1.500000*%
%TD*%
%TA.AperFunction,ComponentPad*%
%ADD15C,1.500000*%
%TD*%
%TA.AperFunction,SMDPad,CuDef*%
%ADD16R,1.900000X1.800000*%
%TD*%
%TA.AperFunction,SMDPad,CuDef*%
%ADD17R,1.900000X2.300000*%
%TD*%
%TA.AperFunction,SMDPad,CuDef*%
%ADD18R,1.400000X0.400000*%
%TD*%
%TA.AperFunction,ComponentPad*%
%ADD19R,2.000000X2.000000*%
%TD*%
%TA.AperFunction,ComponentPad*%
%ADD20O,2.000000X2.000000*%
%TD*%
%TA.AperFunction,ComponentPad*%
%ADD21C,1.800000*%
%TD*%
%TA.AperFunction,ComponentPad*%
%ADD22R,1.800000X1.800000*%
%TD*%
%TA.AperFunction,ComponentPad*%
%ADD23R,1.600000X1.600000*%
%TD*%
%TA.AperFunction,ComponentPad*%
%ADD24O,1.600000X1.600000*%
%TD*%
%TA.AperFunction,ViaPad*%
%ADD25C,0.800000*%
%TD*%
%TA.AperFunction,Conductor*%
%ADD26C,0.500000*%
%TD*%
%TA.AperFunction,Conductor*%
%ADD27C,0.250000*%
%TD*%
%TA.AperFunction,Conductor*%
%ADD28C,0.254000*%
%TD*%
G04 APERTURE END LIST*
D10*
X165653571Y-105957857D02*
X165510714Y-105815000D01*
X165225000Y-105672142D01*
X164510714Y-105672142D01*
X164225000Y-105815000D01*
X164082142Y-105957857D01*
X163939285Y-106243571D01*
X163939285Y-106529285D01*
X164082142Y-106957857D01*
X165796428Y-108672142D01*
X163939285Y-108672142D01*
X162082142Y-105672142D02*
X161796428Y-105672142D01*
X161510714Y-105815000D01*
X161367857Y-105957857D01*
X161225000Y-106243571D01*
X161082142Y-106815000D01*
X161082142Y-107529285D01*
X161225000Y-108100714D01*
X161367857Y-108386428D01*
X161510714Y-108529285D01*
X161796428Y-108672142D01*
X162082142Y-108672142D01*
X162367857Y-108529285D01*
X162510714Y-108386428D01*
X162653571Y-108100714D01*
X162796428Y-107529285D01*
X162796428Y-106815000D01*
X162653571Y-106243571D01*
X162510714Y-105957857D01*
X162367857Y-105815000D01*
X162082142Y-105672142D01*
X159939285Y-105957857D02*
X159796428Y-105815000D01*
X159510714Y-105672142D01*
X158796428Y-105672142D01*
X158510714Y-105815000D01*
X158367857Y-105957857D01*
X158225000Y-106243571D01*
X158225000Y-106529285D01*
X158367857Y-106957857D01*
X160082142Y-108672142D01*
X158225000Y-108672142D01*
X156367857Y-105672142D02*
X156082142Y-105672142D01*
X155796428Y-105815000D01*
X155653571Y-105957857D01*
X155510714Y-106243571D01*
X155367857Y-106815000D01*
X155367857Y-107529285D01*
X155510714Y-108100714D01*
X155653571Y-108386428D01*
X155796428Y-108529285D01*
X156082142Y-108672142D01*
X156367857Y-108672142D01*
X156653571Y-108529285D01*
X156796428Y-108386428D01*
X156939285Y-108100714D01*
X157082142Y-107529285D01*
X157082142Y-106815000D01*
X156939285Y-106243571D01*
X156796428Y-105957857D01*
X156653571Y-105815000D01*
X156367857Y-105672142D01*
X150939285Y-105672142D02*
X150939285Y-107815000D01*
X151082142Y-108243571D01*
X151367857Y-108529285D01*
X151796428Y-108672142D01*
X152082142Y-108672142D01*
X148225000Y-108672142D02*
X148225000Y-107100714D01*
X148367857Y-106815000D01*
X148653571Y-106672142D01*
X149225000Y-106672142D01*
X149510714Y-106815000D01*
X148225000Y-108529285D02*
X148510714Y-108672142D01*
X149225000Y-108672142D01*
X149510714Y-108529285D01*
X149653571Y-108243571D01*
X149653571Y-107957857D01*
X149510714Y-107672142D01*
X149225000Y-107529285D01*
X148510714Y-107529285D01*
X148225000Y-107386428D01*
X147082142Y-106672142D02*
X146367857Y-108672142D01*
X145653571Y-106672142D02*
X146367857Y-108672142D01*
X146653571Y-109386428D01*
X146796428Y-109529285D01*
X147082142Y-109672142D01*
X144939285Y-106672142D02*
X143796428Y-106672142D01*
X144510714Y-105672142D02*
X144510714Y-108243571D01*
X144367857Y-108529285D01*
X144082142Y-108672142D01*
X143796428Y-108672142D01*
X142796428Y-108672142D02*
X142796428Y-106672142D01*
X142796428Y-107243571D02*
X142653571Y-106957857D01*
X142510714Y-106815000D01*
X142225000Y-106672142D01*
X141939285Y-106672142D01*
X140510714Y-108672142D02*
X140796428Y-108529285D01*
X140939285Y-108386428D01*
X141082142Y-108100714D01*
X141082142Y-107243571D01*
X140939285Y-106957857D01*
X140796428Y-106815000D01*
X140510714Y-106672142D01*
X140082142Y-106672142D01*
X139796428Y-106815000D01*
X139653571Y-106957857D01*
X139510714Y-107243571D01*
X139510714Y-108100714D01*
X139653571Y-108386428D01*
X139796428Y-108529285D01*
X140082142Y-108672142D01*
X140510714Y-108672142D01*
X138225000Y-106672142D02*
X138225000Y-108672142D01*
X138225000Y-106957857D02*
X138082142Y-106815000D01*
X137796428Y-106672142D01*
X137367857Y-106672142D01*
X137082142Y-106815000D01*
X136939285Y-107100714D01*
X136939285Y-108672142D01*
X135510714Y-108672142D02*
X135510714Y-106672142D01*
X135510714Y-105672142D02*
X135653571Y-105815000D01*
X135510714Y-105957857D01*
X135367857Y-105815000D01*
X135510714Y-105672142D01*
X135510714Y-105957857D01*
X132796428Y-108529285D02*
X133082142Y-108672142D01*
X133653571Y-108672142D01*
X133939285Y-108529285D01*
X134082142Y-108386428D01*
X134225000Y-108100714D01*
X134225000Y-107243571D01*
X134082142Y-106957857D01*
X133939285Y-106815000D01*
X133653571Y-106672142D01*
X133082142Y-106672142D01*
X132796428Y-106815000D01*
D11*
%TO.P,SW1,1*%
%TO.N,GND*%
X161925000Y-81915000D03*
%TO.P,SW1,3*%
%TO.N,N/C*%
X168425000Y-81915000D03*
%TO.P,SW1,2*%
%TO.N,Net-(J3-Pad2)*%
X161925000Y-77415000D03*
%TO.P,SW1,4*%
%TO.N,N/C*%
X168425000Y-77415000D03*
%TD*%
D12*
%TO.P,C2,1*%
%TO.N,Net-(C2-Pad1)*%
X102750000Y-56000000D03*
%TO.P,C2,2*%
%TO.N,GND*%
X102750000Y-51000000D03*
%TD*%
D13*
%TO.P,U1,1*%
%TO.N,Net-(U1-Pad1)*%
X108300000Y-74000000D03*
%TO.P,U1,2*%
%TO.N,+5V*%
X108300000Y-73200000D03*
%TO.P,U1,3*%
%TO.N,Net-(R2-Pad1)*%
X108300000Y-72400000D03*
%TO.P,U1,4*%
%TO.N,Net-(R1-Pad1)*%
X108300000Y-71600000D03*
%TO.P,U1,5*%
%TO.N,GND*%
X108300000Y-70800000D03*
%TO.P,U1,6*%
%TO.N,Net-(C3-Pad1)*%
X108300000Y-70000000D03*
%TO.P,U1,7*%
%TO.N,+5V*%
X108300000Y-69200000D03*
%TO.P,U1,8*%
%TO.N,Net-(D15-Pad1)*%
X108300000Y-68400000D03*
%TO.P,U1,9*%
%TO.N,Net-(J3-Pad5)*%
X108300000Y-67600000D03*
%TO.P,U1,10*%
%TO.N,Net-(J3-Pad4)*%
X108300000Y-66800000D03*
%TO.P,U1,11*%
%TO.N,Net-(J3-Pad3)*%
X108300000Y-66000000D03*
D14*
%TO.P,U1,12*%
%TO.N,Net-(U1-Pad12)*%
X110000000Y-64300000D03*
%TO.P,U1,13*%
%TO.N,Net-(J3-Pad2)*%
X110800000Y-64300000D03*
%TO.P,U1,14*%
%TO.N,+5V*%
X111600000Y-64300000D03*
%TO.P,U1,15*%
%TO.N,GND*%
X112400000Y-64300000D03*
%TO.P,U1,16*%
%TO.N,Net-(C2-Pad1)*%
X113200000Y-64300000D03*
%TO.P,U1,17*%
%TO.N,Net-(C1-Pad1)*%
X114000000Y-64300000D03*
%TO.P,U1,18*%
%TO.N,Net-(U1-Pad18)*%
X114800000Y-64300000D03*
%TO.P,U1,19*%
%TO.N,Net-(U1-Pad19)*%
X115600000Y-64300000D03*
%TO.P,U1,20*%
%TO.N,Net-(J2-Pad3)*%
X116400000Y-64300000D03*
%TO.P,U1,21*%
%TO.N,Net-(J2-Pad2)*%
X117200000Y-64300000D03*
%TO.P,U1,22*%
%TO.N,Net-(D16-Pad1)*%
X118000000Y-64300000D03*
D13*
%TO.P,U1,23*%
%TO.N,GND*%
X119700000Y-66000000D03*
%TO.P,U1,24*%
%TO.N,+5V*%
X119700000Y-66800000D03*
%TO.P,U1,25*%
%TO.N,Net-(U1-Pad25)*%
X119700000Y-67600000D03*
%TO.P,U1,26*%
%TO.N,Net-(U1-Pad26)*%
X119700000Y-68400000D03*
%TO.P,U1,27*%
%TO.N,Net-(D1-Pad4)*%
X119700000Y-69200000D03*
%TO.P,U1,28*%
%TO.N,Net-(U1-Pad28)*%
X119700000Y-70000000D03*
%TO.P,U1,29*%
%TO.N,Net-(U1-Pad29)*%
X119700000Y-70800000D03*
%TO.P,U1,30*%
%TO.N,Net-(U1-Pad30)*%
X119700000Y-71600000D03*
%TO.P,U1,31*%
%TO.N,Net-(U1-Pad31)*%
X119700000Y-72400000D03*
%TO.P,U1,32*%
%TO.N,Net-(U1-Pad32)*%
X119700000Y-73200000D03*
%TO.P,U1,33*%
%TO.N,Net-(U1-Pad33)*%
X119700000Y-74000000D03*
D14*
%TO.P,U1,34*%
%TO.N,+5V*%
X118000000Y-75700000D03*
%TO.P,U1,35*%
%TO.N,GND*%
X117200000Y-75700000D03*
%TO.P,U1,36*%
%TO.N,Net-(U1-Pad36)*%
X116400000Y-75700000D03*
%TO.P,U1,37*%
%TO.N,Net-(U1-Pad37)*%
X115600000Y-75700000D03*
%TO.P,U1,38*%
%TO.N,Net-(U1-Pad38)*%
X114800000Y-75700000D03*
%TO.P,U1,39*%
%TO.N,Net-(U1-Pad39)*%
X114000000Y-75700000D03*
%TO.P,U1,40*%
%TO.N,Net-(U1-Pad40)*%
X113200000Y-75700000D03*
%TO.P,U1,41*%
%TO.N,Net-(U1-Pad41)*%
X112400000Y-75700000D03*
%TO.P,U1,42*%
%TO.N,Net-(U1-Pad42)*%
X111600000Y-75700000D03*
%TO.P,U1,43*%
%TO.N,GND*%
X110800000Y-75700000D03*
%TO.P,U1,44*%
%TO.N,+5V*%
X110000000Y-75700000D03*
%TD*%
D15*
%TO.P,Y1,1*%
%TO.N,Net-(C1-Pad1)*%
X116332000Y-55372000D03*
%TO.P,Y1,2*%
%TO.N,Net-(C2-Pad1)*%
X111452000Y-55372000D03*
%TD*%
D16*
%TO.P,J1,6*%
%TO.N,GND*%
X175050000Y-97650000D03*
X175050000Y-95350000D03*
D17*
X175050000Y-100250000D03*
X175050000Y-92750000D03*
D18*
%TO.P,J1,5*%
X172200000Y-97800000D03*
%TO.P,J1,4*%
%TO.N,Net-(J1-Pad4)*%
X172200000Y-97150000D03*
%TO.P,J1,3*%
%TO.N,Net-(J1-Pad3)*%
X172200000Y-96500000D03*
%TO.P,J1,2*%
%TO.N,Net-(J1-Pad2)*%
X172200000Y-95850000D03*
%TO.P,J1,1*%
%TO.N,+5V*%
X172200000Y-95200000D03*
%TD*%
D19*
%TO.P,J2,1*%
%TO.N,GND*%
X63000000Y-73660000D03*
D20*
%TO.P,J2,2*%
%TO.N,Net-(J2-Pad2)*%
X63000000Y-76200000D03*
%TO.P,J2,3*%
%TO.N,Net-(J2-Pad3)*%
X63000000Y-78740000D03*
%TO.P,J2,4*%
%TO.N,+5V*%
X63000000Y-81280000D03*
%TD*%
D19*
%TO.P,J3,1*%
%TO.N,+5V*%
X63500000Y-52070000D03*
D20*
%TO.P,J3,2*%
%TO.N,Net-(J3-Pad2)*%
X63500000Y-54610000D03*
%TO.P,J3,3*%
%TO.N,Net-(J3-Pad3)*%
X63500000Y-57150000D03*
%TO.P,J3,4*%
%TO.N,Net-(J3-Pad4)*%
X63500000Y-59690000D03*
%TO.P,J3,5*%
%TO.N,Net-(J3-Pad5)*%
X63500000Y-62230000D03*
%TO.P,J3,6*%
%TO.N,GND*%
X63500000Y-64770000D03*
%TD*%
D12*
%TO.P,C1,1*%
%TO.N,Net-(C1-Pad1)*%
X123000000Y-59500000D03*
%TO.P,C1,2*%
%TO.N,GND*%
X123000000Y-64500000D03*
%TD*%
D21*
%TO.P,D15,2*%
%TO.N,Net-(D15-Pad2)*%
X165100000Y-53975000D03*
D22*
%TO.P,D15,1*%
%TO.N,Net-(D15-Pad1)*%
X167640000Y-53975000D03*
%TD*%
%TO.P,D16,1*%
%TO.N,Net-(D16-Pad1)*%
X167640000Y-59690000D03*
D21*
%TO.P,D16,2*%
%TO.N,Net-(D16-Pad2)*%
X165100000Y-59690000D03*
%TD*%
D23*
%TO.P,C3,1*%
%TO.N,Net-(C3-Pad1)*%
X83820000Y-66080000D03*
D12*
%TO.P,C3,2*%
%TO.N,GND*%
X83820000Y-68580000D03*
%TD*%
%TO.P,C4,2*%
%TO.N,GND*%
X90805000Y-68660000D03*
%TO.P,C4,1*%
%TO.N,+5V*%
X90805000Y-73660000D03*
%TD*%
%TO.P,C5,1*%
%TO.N,+5V*%
X127000000Y-69596000D03*
%TO.P,C5,2*%
%TO.N,GND*%
X127000000Y-64596000D03*
%TD*%
%TO.P,R1,1*%
%TO.N,Net-(R1-Pad1)*%
X157670000Y-100250000D03*
D24*
%TO.P,R1,2*%
%TO.N,Net-(J1-Pad3)*%
X165290000Y-100250000D03*
%TD*%
%TO.P,R2,2*%
%TO.N,Net-(J1-Pad2)*%
X165290000Y-96500000D03*
D12*
%TO.P,R2,1*%
%TO.N,Net-(R2-Pad1)*%
X157670000Y-96500000D03*
%TD*%
%TO.P,R3,1*%
%TO.N,+5V*%
X87500000Y-73660000D03*
D24*
%TO.P,R3,2*%
%TO.N,Net-(J3-Pad2)*%
X79880000Y-73660000D03*
%TD*%
%TO.P,R4,2*%
%TO.N,Net-(D15-Pad2)*%
X160020000Y-53975000D03*
D12*
%TO.P,R4,1*%
%TO.N,+5V*%
X152400000Y-53975000D03*
%TD*%
%TO.P,R5,1*%
%TO.N,+5V*%
X152400000Y-59690000D03*
D24*
%TO.P,R5,2*%
%TO.N,Net-(D16-Pad2)*%
X160020000Y-59690000D03*
%TD*%
D25*
%TO.N,+5V*%
X111550000Y-69200000D03*
X118000000Y-69325000D03*
%TO.N,Net-(D1-Pad4)*%
X53682000Y-49250000D03*
%TO.N,Net-(D15-Pad1)*%
X110490000Y-68350000D03*
%TO.N,Net-(J2-Pad2)*%
X117250000Y-66250000D03*
%TO.N,Net-(J2-Pad3)*%
X116250000Y-66250000D03*
%TO.N,Net-(R1-Pad1)*%
X105000000Y-72500000D03*
X108250000Y-80500000D03*
%TO.N,Net-(R2-Pad1)*%
X108250000Y-79350000D03*
X106500000Y-72500000D03*
%TD*%
D26*
%TO.N,Net-(C1-Pad1)*%
X123000000Y-56500000D02*
X123000000Y-59500000D01*
X116332000Y-55372000D02*
X121872000Y-55372000D01*
X121872000Y-55372000D02*
X123000000Y-56500000D01*
X114628000Y-55372000D02*
X116332000Y-55372000D01*
X114000000Y-64300000D02*
X114000000Y-56000000D01*
X114000000Y-56000000D02*
X114628000Y-55372000D01*
%TO.N,GND*%
X110800000Y-74112000D02*
X110800000Y-75700000D01*
D27*
X175050000Y-100250000D02*
X175050000Y-97650000D01*
X175050000Y-97650000D02*
X175050000Y-95350000D01*
X175050000Y-95350000D02*
X175050000Y-92750000D01*
D26*
X121500000Y-66000000D02*
X123000000Y-64500000D01*
X119700000Y-66000000D02*
X121500000Y-66000000D01*
X102809000Y-50941000D02*
X102750000Y-51000000D01*
X112400000Y-64300000D02*
X112400000Y-60400000D01*
X112400000Y-60400000D02*
X110000000Y-58000000D01*
X110000000Y-58000000D02*
X102000000Y-58000000D01*
X102000000Y-58000000D02*
X100250000Y-56250000D01*
X100250000Y-56250000D02*
X100250000Y-51500000D01*
X100750000Y-51000000D02*
X102750000Y-51000000D01*
X100250000Y-51500000D02*
X100750000Y-51000000D01*
X174900000Y-97800000D02*
X175050000Y-97650000D01*
X172200000Y-97800000D02*
X174900000Y-97800000D01*
X175050000Y-100250000D02*
X175050000Y-92750000D01*
X112400000Y-69845000D02*
X112400000Y-64300000D01*
X111445000Y-70800000D02*
X112400000Y-69845000D01*
X110800000Y-70810000D02*
X110810000Y-70800000D01*
X108300000Y-70800000D02*
X110810000Y-70800000D01*
X110810000Y-70800000D02*
X111445000Y-70800000D01*
X117200000Y-75700000D02*
X117200000Y-74020000D01*
X116530000Y-73350000D02*
X110800000Y-73350000D01*
X117200000Y-74020000D02*
X116530000Y-73350000D01*
X110800000Y-74112000D02*
X110800000Y-73350000D01*
X110800000Y-73350000D02*
X110800000Y-70810000D01*
X123000000Y-64500000D02*
X155940000Y-64500000D01*
X155940000Y-64500000D02*
X159385000Y-67945000D01*
X159385000Y-67945000D02*
X159385000Y-81280000D01*
X160020000Y-81915000D02*
X161925000Y-81915000D01*
X159385000Y-81280000D02*
X160020000Y-81915000D01*
X161925000Y-81915000D02*
X163195000Y-83185000D01*
X165485000Y-83185000D02*
X175050000Y-92750000D01*
X163195000Y-83185000D02*
X165485000Y-83185000D01*
X83900000Y-68660000D02*
X83820000Y-68580000D01*
X90170000Y-68660000D02*
X83900000Y-68660000D01*
X83820000Y-68580000D02*
X69215000Y-68580000D01*
X65405000Y-64770000D02*
X63500000Y-64770000D01*
X69215000Y-68580000D02*
X65405000Y-64770000D01*
X108300000Y-70800000D02*
X106360000Y-70800000D01*
X106360000Y-70800000D02*
X104775000Y-69215000D01*
X104775000Y-69215000D02*
X92075000Y-69215000D01*
X91520000Y-68660000D02*
X90170000Y-68660000D01*
X92075000Y-69215000D02*
X91520000Y-68660000D01*
%TO.N,Net-(C2-Pad1)*%
X102750000Y-56000000D02*
X106250000Y-56000000D01*
X106878000Y-55372000D02*
X111452000Y-55372000D01*
X106250000Y-56000000D02*
X106878000Y-55372000D01*
X113200000Y-64200000D02*
X113250000Y-64150000D01*
X113200000Y-64300000D02*
X113200000Y-64200000D01*
X113250000Y-64150000D02*
X113250000Y-55750000D01*
X112872000Y-55372000D02*
X111452000Y-55372000D01*
X113250000Y-55750000D02*
X112872000Y-55372000D01*
%TO.N,Net-(C3-Pad1)*%
X92550006Y-68300010D02*
X105130010Y-68300010D01*
X105130010Y-68300010D02*
X106830000Y-70000000D01*
X83820000Y-66080000D02*
X90329997Y-66080000D01*
X106830000Y-70000000D02*
X108300000Y-70000000D01*
X90329997Y-66080000D02*
X92550006Y-68300010D01*
%TO.N,+5V*%
X63000000Y-81280000D02*
X60960000Y-81280000D01*
X60960000Y-81280000D02*
X59436000Y-79756000D01*
X59436000Y-79756000D02*
X59436000Y-54356000D01*
X61722000Y-52070000D02*
X63500000Y-52070000D01*
X59436000Y-54356000D02*
X61722000Y-52070000D01*
X63500000Y-52070000D02*
X63500000Y-52324000D01*
X108300000Y-69200000D02*
X111648000Y-69200000D01*
X110000000Y-77698000D02*
X109974000Y-77724000D01*
X110000000Y-75700000D02*
X110000000Y-77698000D01*
X110000000Y-75700000D02*
X110000000Y-73500000D01*
X109700000Y-73200000D02*
X108300000Y-73200000D01*
X110000000Y-73500000D02*
X109700000Y-73200000D01*
X119700000Y-66800000D02*
X117950000Y-66800000D01*
X118000000Y-66850000D02*
X117950000Y-66800000D01*
X119700000Y-66800000D02*
X122680000Y-66800000D01*
X123852001Y-67972001D02*
X122680000Y-66800000D01*
X136250000Y-98250000D02*
X123852001Y-85852001D01*
X171500000Y-94000000D02*
X157250000Y-94000000D01*
X172200000Y-94700000D02*
X171500000Y-94000000D01*
X172200000Y-95200000D02*
X172200000Y-94700000D01*
X157250000Y-94000000D02*
X153000000Y-98250000D01*
X153000000Y-98250000D02*
X136250000Y-98250000D01*
X111648000Y-64398000D02*
X111648000Y-69200000D01*
X111600000Y-64350000D02*
X111648000Y-64398000D01*
X111600000Y-64300000D02*
X111600000Y-64350000D01*
X118000000Y-75700000D02*
X118000000Y-73000000D01*
X111648000Y-69200000D02*
X111550000Y-69200000D01*
X118000000Y-73000000D02*
X118000000Y-69325000D01*
X118000000Y-69325000D02*
X118000000Y-66850000D01*
X109974000Y-77724000D02*
X117221000Y-77724000D01*
X118000000Y-76945000D02*
X118000000Y-75700000D01*
X117221000Y-77724000D02*
X118000000Y-76945000D01*
X106590000Y-73660000D02*
X90170000Y-73660000D01*
X107050000Y-73200000D02*
X106590000Y-73660000D01*
X108300000Y-73200000D02*
X107050000Y-73200000D01*
X87500000Y-73660000D02*
X90170000Y-73660000D01*
X87500000Y-73660000D02*
X83820000Y-77340000D01*
X83820000Y-77340000D02*
X69980000Y-77340000D01*
X66040000Y-81280000D02*
X63000000Y-81280000D01*
X69980000Y-77340000D02*
X66040000Y-81280000D01*
X123952000Y-69596000D02*
X123852001Y-69695999D01*
X127000000Y-69596000D02*
X123952000Y-69596000D01*
X123852001Y-85852001D02*
X123852001Y-69695999D01*
X123852001Y-69695999D02*
X123852001Y-67972001D01*
%TO.N,Net-(D1-Pad4)*%
X53682000Y-49250000D02*
X53682000Y-50432000D01*
X53682000Y-50432000D02*
X58500000Y-55250000D01*
X58500000Y-55250000D02*
X58500000Y-80500000D01*
X58500000Y-80500000D02*
X61250000Y-83250000D01*
X61250000Y-83250000D02*
X65500000Y-83250000D01*
X65500000Y-83250000D02*
X70250000Y-78500000D01*
X70250000Y-78500000D02*
X119250000Y-78500000D01*
X119250000Y-78500000D02*
X122250000Y-75500000D01*
X122250000Y-75500000D02*
X122250000Y-70000000D01*
X121450000Y-69200000D02*
X119700000Y-69200000D01*
X122250000Y-70000000D02*
X121450000Y-69200000D01*
%TO.N,Net-(D15-Pad1)*%
X108350000Y-68350000D02*
X108300000Y-68400000D01*
X110490000Y-68350000D02*
X108350000Y-68350000D01*
%TO.N,Net-(D16-Pad1)*%
X118745000Y-62230000D02*
X167005000Y-62230000D01*
X167640000Y-61595000D02*
X167640000Y-59690000D01*
X118000000Y-64300000D02*
X118000000Y-62975000D01*
X167005000Y-62230000D02*
X167640000Y-61595000D01*
X118000000Y-62975000D02*
X118745000Y-62230000D01*
D27*
%TO.N,Net-(J1-Pad2)*%
X172200000Y-95850000D02*
X168627500Y-95850000D01*
X167977500Y-96500000D02*
X165290000Y-96500000D01*
X168627500Y-95850000D02*
X167977500Y-96500000D01*
%TO.N,Net-(J1-Pad3)*%
X165290000Y-100250000D02*
X166958000Y-100250000D01*
X166958000Y-100250000D02*
X168783000Y-98425000D01*
X168783000Y-98425000D02*
X168783000Y-97155000D01*
X169438000Y-96500000D02*
X172200000Y-96500000D01*
X168783000Y-97155000D02*
X169438000Y-96500000D01*
D26*
%TO.N,Net-(J2-Pad2)*%
X117250000Y-64350000D02*
X117200000Y-64300000D01*
X117250000Y-66250000D02*
X117250000Y-64350000D01*
%TO.N,Net-(J2-Pad3)*%
X116400000Y-66100000D02*
X116400000Y-64300000D01*
X116250000Y-66250000D02*
X116400000Y-66100000D01*
%TO.N,Net-(J3-Pad2)*%
X110800000Y-64300000D02*
X110800000Y-62800000D01*
X99060000Y-56515000D02*
X101600000Y-59055000D01*
X101600000Y-59055000D02*
X109220000Y-59055000D01*
X110800000Y-60635000D02*
X110800000Y-62800000D01*
X109220000Y-59055000D02*
X110800000Y-60635000D01*
X64914213Y-54610000D02*
X99060000Y-54610000D01*
X63500000Y-54610000D02*
X64914213Y-54610000D01*
X99060000Y-54610000D02*
X99060000Y-56515000D01*
X99060000Y-50604998D02*
X99060000Y-54610000D01*
X161925000Y-77415000D02*
X161925000Y-74930000D01*
X161925000Y-74930000D02*
X171450000Y-65405000D01*
X171450000Y-52705000D02*
X168494999Y-49749999D01*
X168494999Y-49749999D02*
X99914999Y-49749999D01*
X99914999Y-49749999D02*
X99060000Y-50604998D01*
X171450000Y-65405000D02*
X171450000Y-52705000D01*
X61595000Y-54610000D02*
X63500000Y-54610000D01*
X60960000Y-55245000D02*
X61595000Y-54610000D01*
X73025000Y-73660000D02*
X66040000Y-66675000D01*
X79880000Y-73660000D02*
X73025000Y-73660000D01*
X66040000Y-66675000D02*
X62230000Y-66675000D01*
X60960000Y-65405000D02*
X60960000Y-55245000D01*
X62230000Y-66675000D02*
X60960000Y-65405000D01*
%TO.N,Net-(J3-Pad3)*%
X84369884Y-57150000D02*
X63500000Y-57150000D01*
X93219884Y-66000000D02*
X84369884Y-57150000D01*
X108300000Y-66000000D02*
X93219884Y-66000000D01*
%TO.N,Net-(J3-Pad4)*%
X85919922Y-59690000D02*
X63500000Y-59690000D01*
X93029922Y-66800000D02*
X85919922Y-59690000D01*
X108300000Y-66800000D02*
X93029922Y-66800000D01*
%TO.N,Net-(J3-Pad5)*%
X87469959Y-62230000D02*
X63500000Y-62230000D01*
X92839959Y-67600000D02*
X87469959Y-62230000D01*
X108300000Y-67600000D02*
X92839959Y-67600000D01*
%TO.N,Net-(R1-Pad1)*%
X108300000Y-71600000D02*
X105900000Y-71600000D01*
X105900000Y-71600000D02*
X105000000Y-72500000D01*
X108250000Y-80500000D02*
X121000000Y-80500000D01*
X121000000Y-80500000D02*
X122250000Y-81750000D01*
X122250000Y-81750000D02*
X122250000Y-86500000D01*
X136000000Y-100250000D02*
X157670000Y-100250000D01*
X122250000Y-86500000D02*
X136000000Y-100250000D01*
%TO.N,Net-(R2-Pad1)*%
X157670000Y-96500000D02*
X154920000Y-99250000D01*
X136260038Y-99250000D02*
X123000000Y-85989962D01*
X154920000Y-99250000D02*
X136260038Y-99250000D01*
X123000000Y-85989962D02*
X123000000Y-80750000D01*
X123000000Y-80750000D02*
X121450010Y-79200010D01*
X121450010Y-79200010D02*
X108399990Y-79200010D01*
X108399990Y-79200010D02*
X108250000Y-79350000D01*
X106600000Y-72400000D02*
X108300000Y-72400000D01*
X106500000Y-72500000D02*
X106600000Y-72400000D01*
%TD*%
D28*
%TO.N,GND*%
G36*
X175870001Y-90962529D02*
G01*
X175335750Y-90965000D01*
X175177000Y-91123750D01*
X175177000Y-92623000D01*
X175197000Y-92623000D01*
X175197000Y-92877000D01*
X175177000Y-92877000D01*
X175177000Y-95223000D01*
X175197000Y-95223000D01*
X175197000Y-95477000D01*
X175177000Y-95477000D01*
X175177000Y-97523000D01*
X175197000Y-97523000D01*
X175197000Y-97777000D01*
X175177000Y-97777000D01*
X175177000Y-100123000D01*
X175197000Y-100123000D01*
X175197000Y-100377000D01*
X175177000Y-100377000D01*
X175177000Y-101876250D01*
X175335750Y-102035000D01*
X175870001Y-102037471D01*
X175870001Y-112369841D01*
X52660000Y-112340160D01*
X52660000Y-109576521D01*
X55180979Y-109576521D01*
X55180979Y-110023479D01*
X55268176Y-110461849D01*
X55439220Y-110874785D01*
X55687536Y-111246417D01*
X56003583Y-111562464D01*
X56375215Y-111810780D01*
X56788151Y-111981824D01*
X57226521Y-112069021D01*
X57673479Y-112069021D01*
X58111849Y-111981824D01*
X58524785Y-111810780D01*
X58896417Y-111562464D01*
X59212464Y-111246417D01*
X59460780Y-110874785D01*
X59631824Y-110461849D01*
X59719021Y-110023479D01*
X59719021Y-109576521D01*
X59631824Y-109138151D01*
X59460780Y-108725215D01*
X59212464Y-108353583D01*
X58896417Y-108037536D01*
X58524785Y-107789220D01*
X58111849Y-107618176D01*
X57673479Y-107530979D01*
X57226521Y-107530979D01*
X56788151Y-107618176D01*
X56375215Y-107789220D01*
X56003583Y-108037536D01*
X55687536Y-108353583D01*
X55439220Y-108725215D01*
X55268176Y-109138151D01*
X55180979Y-109576521D01*
X52660000Y-109576521D01*
X52660000Y-104445000D01*
X131440000Y-104445000D01*
X131440000Y-110515000D01*
X167010000Y-110515000D01*
X167010000Y-109576521D01*
X168780979Y-109576521D01*
X168780979Y-110023479D01*
X168868176Y-110461849D01*
X169039220Y-110874785D01*
X169287536Y-111246417D01*
X169603583Y-111562464D01*
X169975215Y-111810780D01*
X170388151Y-111981824D01*
X170826521Y-112069021D01*
X171273479Y-112069021D01*
X171711849Y-111981824D01*
X172124785Y-111810780D01*
X172496417Y-111562464D01*
X172812464Y-111246417D01*
X173060780Y-110874785D01*
X173231824Y-110461849D01*
X173319021Y-110023479D01*
X173319021Y-109576521D01*
X173231824Y-109138151D01*
X173060780Y-108725215D01*
X172812464Y-108353583D01*
X172496417Y-108037536D01*
X172124785Y-107789220D01*
X171711849Y-107618176D01*
X171273479Y-107530979D01*
X170826521Y-107530979D01*
X170388151Y-107618176D01*
X169975215Y-107789220D01*
X169603583Y-108037536D01*
X169287536Y-108353583D01*
X169039220Y-108725215D01*
X168868176Y-109138151D01*
X168780979Y-109576521D01*
X167010000Y-109576521D01*
X167010000Y-104445000D01*
X131440000Y-104445000D01*
X52660000Y-104445000D01*
X52660000Y-49417295D01*
X52686774Y-49551898D01*
X52764795Y-49740256D01*
X52797000Y-49788455D01*
X52797001Y-50388522D01*
X52792719Y-50432000D01*
X52809805Y-50605490D01*
X52860412Y-50772313D01*
X52942590Y-50926059D01*
X53025468Y-51027046D01*
X53025471Y-51027049D01*
X53053184Y-51060817D01*
X53086952Y-51088530D01*
X57615000Y-55616579D01*
X57615001Y-80456521D01*
X57610719Y-80500000D01*
X57627805Y-80673490D01*
X57678412Y-80840313D01*
X57760590Y-80994059D01*
X57843468Y-81095046D01*
X57843471Y-81095049D01*
X57871184Y-81128817D01*
X57904951Y-81156529D01*
X60593470Y-83845049D01*
X60621183Y-83878817D01*
X60654951Y-83906530D01*
X60654953Y-83906532D01*
X60726452Y-83965210D01*
X60755941Y-83989411D01*
X60909687Y-84071589D01*
X61076510Y-84122195D01*
X61206523Y-84135000D01*
X61206533Y-84135000D01*
X61249999Y-84139281D01*
X61293465Y-84135000D01*
X65456531Y-84135000D01*
X65500000Y-84139281D01*
X65543469Y-84135000D01*
X65543477Y-84135000D01*
X65673490Y-84122195D01*
X65840313Y-84071589D01*
X65994059Y-83989411D01*
X66128817Y-83878817D01*
X66156534Y-83845044D01*
X70616579Y-79385000D01*
X107215000Y-79385000D01*
X107215000Y-79451939D01*
X107254774Y-79651898D01*
X107332795Y-79840256D01*
X107389419Y-79925000D01*
X107332795Y-80009744D01*
X107254774Y-80198102D01*
X107215000Y-80398061D01*
X107215000Y-80601939D01*
X107254774Y-80801898D01*
X107332795Y-80990256D01*
X107446063Y-81159774D01*
X107590226Y-81303937D01*
X107759744Y-81417205D01*
X107948102Y-81495226D01*
X108148061Y-81535000D01*
X108351939Y-81535000D01*
X108551898Y-81495226D01*
X108740256Y-81417205D01*
X108788454Y-81385000D01*
X120633422Y-81385000D01*
X121365000Y-82116579D01*
X121365001Y-86456521D01*
X121360719Y-86500000D01*
X121377805Y-86673490D01*
X121428412Y-86840313D01*
X121510590Y-86994059D01*
X121593468Y-87095046D01*
X121593471Y-87095049D01*
X121621184Y-87128817D01*
X121654952Y-87156530D01*
X135343470Y-100845049D01*
X135371183Y-100878817D01*
X135404951Y-100906530D01*
X135404953Y-100906532D01*
X135433216Y-100929727D01*
X135505941Y-100989411D01*
X135659687Y-101071589D01*
X135826510Y-101122195D01*
X135956523Y-101135000D01*
X135956533Y-101135000D01*
X135999999Y-101139281D01*
X136043465Y-101135000D01*
X156535479Y-101135000D01*
X156555363Y-101164759D01*
X156755241Y-101364637D01*
X156990273Y-101521680D01*
X157251426Y-101629853D01*
X157528665Y-101685000D01*
X157811335Y-101685000D01*
X158088574Y-101629853D01*
X158349727Y-101521680D01*
X158584759Y-101364637D01*
X158784637Y-101164759D01*
X158941680Y-100929727D01*
X159049853Y-100668574D01*
X159105000Y-100391335D01*
X159105000Y-100108665D01*
X159049853Y-99831426D01*
X158941680Y-99570273D01*
X158784637Y-99335241D01*
X158584759Y-99135363D01*
X158349727Y-98978320D01*
X158088574Y-98870147D01*
X157811335Y-98815000D01*
X157528665Y-98815000D01*
X157251426Y-98870147D01*
X156990273Y-98978320D01*
X156755241Y-99135363D01*
X156555363Y-99335241D01*
X156535479Y-99365000D01*
X156056578Y-99365000D01*
X157493561Y-97928017D01*
X157528665Y-97935000D01*
X157811335Y-97935000D01*
X158088574Y-97879853D01*
X158349727Y-97771680D01*
X158584759Y-97614637D01*
X158784637Y-97414759D01*
X158941680Y-97179727D01*
X159049853Y-96918574D01*
X159105000Y-96641335D01*
X159105000Y-96358665D01*
X159049853Y-96081426D01*
X158941680Y-95820273D01*
X158784637Y-95585241D01*
X158584759Y-95385363D01*
X158349727Y-95228320D01*
X158088574Y-95120147D01*
X157811335Y-95065000D01*
X157528665Y-95065000D01*
X157413713Y-95087866D01*
X157616579Y-94885000D01*
X170873254Y-94885000D01*
X170861928Y-95000000D01*
X170861928Y-95090000D01*
X168664823Y-95090000D01*
X168627500Y-95086324D01*
X168590177Y-95090000D01*
X168590167Y-95090000D01*
X168478514Y-95100997D01*
X168335253Y-95144454D01*
X168203224Y-95215026D01*
X168087499Y-95309999D01*
X168063700Y-95338998D01*
X167662699Y-95740000D01*
X166508043Y-95740000D01*
X166404637Y-95585241D01*
X166204759Y-95385363D01*
X165969727Y-95228320D01*
X165708574Y-95120147D01*
X165431335Y-95065000D01*
X165148665Y-95065000D01*
X164871426Y-95120147D01*
X164610273Y-95228320D01*
X164375241Y-95385363D01*
X164175363Y-95585241D01*
X164018320Y-95820273D01*
X163910147Y-96081426D01*
X163855000Y-96358665D01*
X163855000Y-96641335D01*
X163910147Y-96918574D01*
X164018320Y-97179727D01*
X164175363Y-97414759D01*
X164375241Y-97614637D01*
X164610273Y-97771680D01*
X164871426Y-97879853D01*
X165148665Y-97935000D01*
X165431335Y-97935000D01*
X165708574Y-97879853D01*
X165969727Y-97771680D01*
X166204759Y-97614637D01*
X166404637Y-97414759D01*
X166508043Y-97260000D01*
X167940178Y-97260000D01*
X167977500Y-97263676D01*
X168014822Y-97260000D01*
X168014833Y-97260000D01*
X168023001Y-97259196D01*
X168023000Y-98110198D01*
X166643199Y-99490000D01*
X166508043Y-99490000D01*
X166404637Y-99335241D01*
X166204759Y-99135363D01*
X165969727Y-98978320D01*
X165708574Y-98870147D01*
X165431335Y-98815000D01*
X165148665Y-98815000D01*
X164871426Y-98870147D01*
X164610273Y-98978320D01*
X164375241Y-99135363D01*
X164175363Y-99335241D01*
X164018320Y-99570273D01*
X163910147Y-99831426D01*
X163855000Y-100108665D01*
X163855000Y-100391335D01*
X163910147Y-100668574D01*
X164018320Y-100929727D01*
X164175363Y-101164759D01*
X164375241Y-101364637D01*
X164610273Y-101521680D01*
X164871426Y-101629853D01*
X165148665Y-101685000D01*
X165431335Y-101685000D01*
X165708574Y-101629853D01*
X165969727Y-101521680D01*
X166151834Y-101400000D01*
X173461928Y-101400000D01*
X173474188Y-101524482D01*
X173510498Y-101644180D01*
X173569463Y-101754494D01*
X173648815Y-101851185D01*
X173745506Y-101930537D01*
X173855820Y-101989502D01*
X173975518Y-102025812D01*
X174100000Y-102038072D01*
X174764250Y-102035000D01*
X174923000Y-101876250D01*
X174923000Y-100377000D01*
X173623750Y-100377000D01*
X173465000Y-100535750D01*
X173461928Y-101400000D01*
X166151834Y-101400000D01*
X166204759Y-101364637D01*
X166404637Y-101164759D01*
X166508043Y-101010000D01*
X166920678Y-101010000D01*
X166958000Y-101013676D01*
X166995322Y-101010000D01*
X166995333Y-101010000D01*
X167106986Y-100999003D01*
X167250247Y-100955546D01*
X167382276Y-100884974D01*
X167498001Y-100790001D01*
X167521804Y-100760997D01*
X169294004Y-98988798D01*
X169323001Y-98965001D01*
X169417974Y-98849276D01*
X169488546Y-98717247D01*
X169532003Y-98573986D01*
X169543000Y-98462333D01*
X169543000Y-98462325D01*
X169546676Y-98425000D01*
X169543000Y-98387675D01*
X169543000Y-97469801D01*
X169752802Y-97260000D01*
X170861928Y-97260000D01*
X170861928Y-97350000D01*
X170874188Y-97474482D01*
X170874971Y-97477064D01*
X170865000Y-97568250D01*
X170932968Y-97636218D01*
X170969463Y-97704494D01*
X171048815Y-97801185D01*
X171136322Y-97873000D01*
X171023750Y-97873000D01*
X170865000Y-98031750D01*
X170876206Y-98134229D01*
X170914379Y-98253346D01*
X170975057Y-98362727D01*
X171055908Y-98458169D01*
X171153826Y-98536003D01*
X171265046Y-98593239D01*
X171385296Y-98627677D01*
X171509954Y-98637994D01*
X171914250Y-98635000D01*
X172073000Y-98476250D01*
X172073000Y-97988072D01*
X172327000Y-97988072D01*
X172327000Y-98476250D01*
X172485750Y-98635000D01*
X172890046Y-98637994D01*
X173014704Y-98627677D01*
X173134954Y-98593239D01*
X173246174Y-98536003D01*
X173344092Y-98458169D01*
X173424943Y-98362727D01*
X173463210Y-98293746D01*
X173461928Y-98550000D01*
X173474188Y-98674482D01*
X173510498Y-98794180D01*
X173526972Y-98825000D01*
X173510498Y-98855820D01*
X173474188Y-98975518D01*
X173461928Y-99100000D01*
X173465000Y-99964250D01*
X173623750Y-100123000D01*
X174923000Y-100123000D01*
X174923000Y-97777000D01*
X173623750Y-97777000D01*
X173465000Y-97935750D01*
X173464871Y-97961621D01*
X173376250Y-97873000D01*
X173263678Y-97873000D01*
X173351185Y-97801185D01*
X173430537Y-97704494D01*
X173467032Y-97636218D01*
X173535000Y-97568250D01*
X173525029Y-97477064D01*
X173525812Y-97474482D01*
X173530243Y-97429493D01*
X173623750Y-97523000D01*
X174923000Y-97523000D01*
X174923000Y-95477000D01*
X174903000Y-95477000D01*
X174903000Y-95223000D01*
X174923000Y-95223000D01*
X174923000Y-92877000D01*
X173623750Y-92877000D01*
X173465000Y-93035750D01*
X173461928Y-93900000D01*
X173474188Y-94024482D01*
X173510498Y-94144180D01*
X173526972Y-94175000D01*
X173510498Y-94205820D01*
X173474188Y-94325518D01*
X173461928Y-94450000D01*
X173463211Y-94706635D01*
X173430537Y-94645506D01*
X173351185Y-94548815D01*
X173254494Y-94469463D01*
X173144180Y-94410498D01*
X173026141Y-94374691D01*
X173021589Y-94359687D01*
X172939411Y-94205941D01*
X172828817Y-94071183D01*
X172795049Y-94043470D01*
X172156534Y-93404956D01*
X172128817Y-93371183D01*
X171994059Y-93260589D01*
X171840313Y-93178411D01*
X171673490Y-93127805D01*
X171543477Y-93115000D01*
X171543469Y-93115000D01*
X171500000Y-93110719D01*
X171456531Y-93115000D01*
X157293469Y-93115000D01*
X157250000Y-93110719D01*
X157206531Y-93115000D01*
X157206523Y-93115000D01*
X157076510Y-93127805D01*
X156909686Y-93178411D01*
X156755941Y-93260589D01*
X156654953Y-93343468D01*
X156654951Y-93343470D01*
X156621183Y-93371183D01*
X156593470Y-93404951D01*
X152633422Y-97365000D01*
X136616579Y-97365000D01*
X130851579Y-91600000D01*
X173461928Y-91600000D01*
X173465000Y-92464250D01*
X173623750Y-92623000D01*
X174923000Y-92623000D01*
X174923000Y-91123750D01*
X174764250Y-90965000D01*
X174100000Y-90961928D01*
X173975518Y-90974188D01*
X173855820Y-91010498D01*
X173745506Y-91069463D01*
X173648815Y-91148815D01*
X173569463Y-91245506D01*
X173510498Y-91355820D01*
X173474188Y-91475518D01*
X173461928Y-91600000D01*
X130851579Y-91600000D01*
X124737001Y-85485423D01*
X124737001Y-82943397D01*
X161076208Y-82943397D01*
X161153843Y-83192472D01*
X161417883Y-83318371D01*
X161701411Y-83390339D01*
X161993531Y-83405611D01*
X162283019Y-83363599D01*
X162558747Y-83265919D01*
X162696157Y-83192472D01*
X162773792Y-82943397D01*
X161925000Y-82094605D01*
X161076208Y-82943397D01*
X124737001Y-82943397D01*
X124737001Y-81983531D01*
X160434389Y-81983531D01*
X160476401Y-82273019D01*
X160574081Y-82548747D01*
X160647528Y-82686157D01*
X160896603Y-82763792D01*
X161745395Y-81915000D01*
X162104605Y-81915000D01*
X162953397Y-82763792D01*
X163202472Y-82686157D01*
X163328371Y-82422117D01*
X163400339Y-82138589D01*
X163415611Y-81846469D01*
X163404331Y-81768740D01*
X166940000Y-81768740D01*
X166940000Y-82061260D01*
X166997068Y-82348158D01*
X167109010Y-82618411D01*
X167271525Y-82861632D01*
X167478368Y-83068475D01*
X167721589Y-83230990D01*
X167991842Y-83342932D01*
X168278740Y-83400000D01*
X168571260Y-83400000D01*
X168858158Y-83342932D01*
X169128411Y-83230990D01*
X169371632Y-83068475D01*
X169578475Y-82861632D01*
X169740990Y-82618411D01*
X169852932Y-82348158D01*
X169910000Y-82061260D01*
X169910000Y-81768740D01*
X169852932Y-81481842D01*
X169740990Y-81211589D01*
X169578475Y-80968368D01*
X169371632Y-80761525D01*
X169128411Y-80599010D01*
X168858158Y-80487068D01*
X168571260Y-80430000D01*
X168278740Y-80430000D01*
X167991842Y-80487068D01*
X167721589Y-80599010D01*
X167478368Y-80761525D01*
X167271525Y-80968368D01*
X167109010Y-81211589D01*
X166997068Y-81481842D01*
X166940000Y-81768740D01*
X163404331Y-81768740D01*
X163373599Y-81556981D01*
X163275919Y-81281253D01*
X163202472Y-81143843D01*
X162953397Y-81066208D01*
X162104605Y-81915000D01*
X161745395Y-81915000D01*
X160896603Y-81066208D01*
X160647528Y-81143843D01*
X160521629Y-81407883D01*
X160449661Y-81691411D01*
X160434389Y-81983531D01*
X124737001Y-81983531D01*
X124737001Y-80886603D01*
X161076208Y-80886603D01*
X161925000Y-81735395D01*
X162773792Y-80886603D01*
X162696157Y-80637528D01*
X162432117Y-80511629D01*
X162148589Y-80439661D01*
X161856469Y-80424389D01*
X161566981Y-80466401D01*
X161291253Y-80564081D01*
X161153843Y-80637528D01*
X161076208Y-80886603D01*
X124737001Y-80886603D01*
X124737001Y-70481000D01*
X125865479Y-70481000D01*
X125885363Y-70510759D01*
X126085241Y-70710637D01*
X126320273Y-70867680D01*
X126581426Y-70975853D01*
X126858665Y-71031000D01*
X127141335Y-71031000D01*
X127418574Y-70975853D01*
X127679727Y-70867680D01*
X127914759Y-70710637D01*
X128114637Y-70510759D01*
X128271680Y-70275727D01*
X128379853Y-70014574D01*
X128435000Y-69737335D01*
X128435000Y-69454665D01*
X128379853Y-69177426D01*
X128271680Y-68916273D01*
X128114637Y-68681241D01*
X127914759Y-68481363D01*
X127679727Y-68324320D01*
X127418574Y-68216147D01*
X127141335Y-68161000D01*
X126858665Y-68161000D01*
X126581426Y-68216147D01*
X126320273Y-68324320D01*
X126085241Y-68481363D01*
X125885363Y-68681241D01*
X125865479Y-68711000D01*
X124737001Y-68711000D01*
X124737001Y-68015470D01*
X124741282Y-67972001D01*
X124737001Y-67928532D01*
X124737001Y-67928524D01*
X124724196Y-67798511D01*
X124673590Y-67631688D01*
X124591412Y-67477942D01*
X124573841Y-67456532D01*
X124508533Y-67376954D01*
X124508531Y-67376952D01*
X124480818Y-67343184D01*
X124447050Y-67315471D01*
X123336534Y-66204956D01*
X123308817Y-66171183D01*
X123174059Y-66060589D01*
X123020313Y-65978411D01*
X122860237Y-65929852D01*
X123070512Y-65940217D01*
X123350130Y-65898787D01*
X123616292Y-65803603D01*
X123741514Y-65736671D01*
X123784929Y-65588702D01*
X126186903Y-65588702D01*
X126258486Y-65832671D01*
X126513996Y-65953571D01*
X126788184Y-66022300D01*
X127070512Y-66036217D01*
X127350130Y-65994787D01*
X127616292Y-65899603D01*
X127741514Y-65832671D01*
X127813097Y-65588702D01*
X127000000Y-64775605D01*
X126186903Y-65588702D01*
X123784929Y-65588702D01*
X123813097Y-65492702D01*
X123000000Y-64679605D01*
X122186903Y-65492702D01*
X122258486Y-65736671D01*
X122513996Y-65857571D01*
X122755807Y-65918184D01*
X122723477Y-65915000D01*
X122723469Y-65915000D01*
X122680000Y-65910719D01*
X122636531Y-65915000D01*
X121085000Y-65915000D01*
X121085000Y-65872998D01*
X120926252Y-65872998D01*
X121085000Y-65714250D01*
X121075177Y-65597369D01*
X121038265Y-65477855D01*
X120978746Y-65367839D01*
X120898908Y-65271549D01*
X120801818Y-65192684D01*
X120691208Y-65134276D01*
X120571329Y-65098570D01*
X120446787Y-65086936D01*
X119985750Y-65090000D01*
X119827000Y-65248750D01*
X119827000Y-65873000D01*
X119847000Y-65873000D01*
X119847000Y-65886928D01*
X119553000Y-65886928D01*
X119553000Y-65873000D01*
X119573000Y-65873000D01*
X119573000Y-65248750D01*
X119414250Y-65090000D01*
X118953213Y-65086936D01*
X118909028Y-65091064D01*
X118913072Y-65050000D01*
X118913072Y-64570512D01*
X121559783Y-64570512D01*
X121601213Y-64850130D01*
X121696397Y-65116292D01*
X121763329Y-65241514D01*
X122007298Y-65313097D01*
X122820395Y-64500000D01*
X123179605Y-64500000D01*
X123992702Y-65313097D01*
X124236671Y-65241514D01*
X124357571Y-64986004D01*
X124426300Y-64711816D01*
X124428533Y-64666512D01*
X125559783Y-64666512D01*
X125601213Y-64946130D01*
X125696397Y-65212292D01*
X125763329Y-65337514D01*
X126007298Y-65409097D01*
X126820395Y-64596000D01*
X127179605Y-64596000D01*
X127992702Y-65409097D01*
X128236671Y-65337514D01*
X128357571Y-65082004D01*
X128426300Y-64807816D01*
X128440217Y-64525488D01*
X128398787Y-64245870D01*
X128303603Y-63979708D01*
X128236671Y-63854486D01*
X127992702Y-63782903D01*
X127179605Y-64596000D01*
X126820395Y-64596000D01*
X126007298Y-63782903D01*
X125763329Y-63854486D01*
X125642429Y-64109996D01*
X125573700Y-64384184D01*
X125559783Y-64666512D01*
X124428533Y-64666512D01*
X124440217Y-64429488D01*
X124398787Y-64149870D01*
X124303603Y-63883708D01*
X124236671Y-63758486D01*
X123992702Y-63686903D01*
X123179605Y-64500000D01*
X122820395Y-64500000D01*
X122007298Y-63686903D01*
X121763329Y-63758486D01*
X121642429Y-64013996D01*
X121573700Y-64288184D01*
X121559783Y-64570512D01*
X118913072Y-64570512D01*
X118913072Y-63550000D01*
X118900812Y-63425518D01*
X118885000Y-63373393D01*
X118885000Y-63341578D01*
X119111579Y-63115000D01*
X122611318Y-63115000D01*
X122383708Y-63196397D01*
X122258486Y-63263329D01*
X122186903Y-63507298D01*
X123000000Y-64320395D01*
X123717097Y-63603298D01*
X126186903Y-63603298D01*
X127000000Y-64416395D01*
X127813097Y-63603298D01*
X127741514Y-63359329D01*
X127486004Y-63238429D01*
X127211816Y-63169700D01*
X126929488Y-63155783D01*
X126649870Y-63197213D01*
X126383708Y-63292397D01*
X126258486Y-63359329D01*
X126186903Y-63603298D01*
X123717097Y-63603298D01*
X123813097Y-63507298D01*
X123741514Y-63263329D01*
X123486004Y-63142429D01*
X123376579Y-63115000D01*
X166961531Y-63115000D01*
X167005000Y-63119281D01*
X167048469Y-63115000D01*
X167048477Y-63115000D01*
X167178490Y-63102195D01*
X167345313Y-63051589D01*
X167499059Y-62969411D01*
X167633817Y-62858817D01*
X167661534Y-62825044D01*
X168235050Y-62251529D01*
X168268817Y-62223817D01*
X168379411Y-62089059D01*
X168438553Y-61978411D01*
X168461589Y-61935314D01*
X168512195Y-61768490D01*
X168513712Y-61753088D01*
X168525000Y-61638477D01*
X168525000Y-61638469D01*
X168529281Y-61595000D01*
X168525000Y-61551531D01*
X168525000Y-61228072D01*
X168540000Y-61228072D01*
X168664482Y-61215812D01*
X168784180Y-61179502D01*
X168894494Y-61120537D01*
X168991185Y-61041185D01*
X169070537Y-60944494D01*
X169129502Y-60834180D01*
X169165812Y-60714482D01*
X169178072Y-60590000D01*
X169178072Y-58790000D01*
X169165812Y-58665518D01*
X169129502Y-58545820D01*
X169070537Y-58435506D01*
X168991185Y-58338815D01*
X168894494Y-58259463D01*
X168784180Y-58200498D01*
X168664482Y-58164188D01*
X168540000Y-58151928D01*
X166740000Y-58151928D01*
X166615518Y-58164188D01*
X166495820Y-58200498D01*
X166385506Y-58259463D01*
X166288815Y-58338815D01*
X166209463Y-58435506D01*
X166150498Y-58545820D01*
X166144944Y-58564127D01*
X166078505Y-58497688D01*
X165827095Y-58329701D01*
X165547743Y-58213989D01*
X165251184Y-58155000D01*
X164948816Y-58155000D01*
X164652257Y-58213989D01*
X164372905Y-58329701D01*
X164121495Y-58497688D01*
X163907688Y-58711495D01*
X163739701Y-58962905D01*
X163623989Y-59242257D01*
X163565000Y-59538816D01*
X163565000Y-59841184D01*
X163623989Y-60137743D01*
X163739701Y-60417095D01*
X163907688Y-60668505D01*
X164121495Y-60882312D01*
X164372905Y-61050299D01*
X164652257Y-61166011D01*
X164948816Y-61225000D01*
X165251184Y-61225000D01*
X165547743Y-61166011D01*
X165827095Y-61050299D01*
X166078505Y-60882312D01*
X166144944Y-60815873D01*
X166150498Y-60834180D01*
X166209463Y-60944494D01*
X166288815Y-61041185D01*
X166385506Y-61120537D01*
X166495820Y-61179502D01*
X166615518Y-61215812D01*
X166740000Y-61228072D01*
X166755000Y-61228072D01*
X166755000Y-61228421D01*
X166638422Y-61345000D01*
X118788465Y-61345000D01*
X118744999Y-61340719D01*
X118701533Y-61345000D01*
X118701523Y-61345000D01*
X118571510Y-61357805D01*
X118404687Y-61408411D01*
X118250941Y-61490589D01*
X118250939Y-61490590D01*
X118250940Y-61490590D01*
X118149953Y-61573468D01*
X118149951Y-61573470D01*
X118116183Y-61601183D01*
X118088470Y-61634951D01*
X117404951Y-62318471D01*
X117371184Y-62346183D01*
X117343471Y-62379951D01*
X117343468Y-62379954D01*
X117260590Y-62480941D01*
X117178412Y-62634687D01*
X117127805Y-62801510D01*
X117116931Y-62911928D01*
X116925000Y-62911928D01*
X116800518Y-62924188D01*
X116800000Y-62924345D01*
X116799482Y-62924188D01*
X116675000Y-62911928D01*
X116125000Y-62911928D01*
X116000518Y-62924188D01*
X116000000Y-62924345D01*
X115999482Y-62924188D01*
X115875000Y-62911928D01*
X115325000Y-62911928D01*
X115200518Y-62924188D01*
X115200000Y-62924345D01*
X115199482Y-62924188D01*
X115075000Y-62911928D01*
X114885000Y-62911928D01*
X114885000Y-56366578D01*
X114994579Y-56257000D01*
X115258315Y-56257000D01*
X115449114Y-56447799D01*
X115675957Y-56599371D01*
X115928011Y-56703775D01*
X116195589Y-56757000D01*
X116468411Y-56757000D01*
X116735989Y-56703775D01*
X116988043Y-56599371D01*
X117214886Y-56447799D01*
X117405685Y-56257000D01*
X121505422Y-56257000D01*
X122115000Y-56866579D01*
X122115001Y-58365478D01*
X122085241Y-58385363D01*
X121885363Y-58585241D01*
X121728320Y-58820273D01*
X121620147Y-59081426D01*
X121565000Y-59358665D01*
X121565000Y-59641335D01*
X121620147Y-59918574D01*
X121728320Y-60179727D01*
X121885363Y-60414759D01*
X122085241Y-60614637D01*
X122320273Y-60771680D01*
X122581426Y-60879853D01*
X122858665Y-60935000D01*
X123141335Y-60935000D01*
X123418574Y-60879853D01*
X123679727Y-60771680D01*
X123914759Y-60614637D01*
X124114637Y-60414759D01*
X124271680Y-60179727D01*
X124379853Y-59918574D01*
X124435000Y-59641335D01*
X124435000Y-59548665D01*
X150965000Y-59548665D01*
X150965000Y-59831335D01*
X151020147Y-60108574D01*
X151128320Y-60369727D01*
X151285363Y-60604759D01*
X151485241Y-60804637D01*
X151720273Y-60961680D01*
X151981426Y-61069853D01*
X152258665Y-61125000D01*
X152541335Y-61125000D01*
X152818574Y-61069853D01*
X153079727Y-60961680D01*
X153314759Y-60804637D01*
X153514637Y-60604759D01*
X153671680Y-60369727D01*
X153779853Y-60108574D01*
X153835000Y-59831335D01*
X153835000Y-59548665D01*
X158585000Y-59548665D01*
X158585000Y-59831335D01*
X158640147Y-60108574D01*
X158748320Y-60369727D01*
X158905363Y-60604759D01*
X159105241Y-60804637D01*
X159340273Y-60961680D01*
X159601426Y-61069853D01*
X159878665Y-61125000D01*
X160161335Y-61125000D01*
X160438574Y-61069853D01*
X160699727Y-60961680D01*
X160934759Y-60804637D01*
X161134637Y-60604759D01*
X161291680Y-60369727D01*
X161399853Y-60108574D01*
X161455000Y-59831335D01*
X161455000Y-59548665D01*
X161399853Y-59271426D01*
X161291680Y-59010273D01*
X161134637Y-58775241D01*
X160934759Y-58575363D01*
X160699727Y-58418320D01*
X160438574Y-58310147D01*
X160161335Y-58255000D01*
X159878665Y-58255000D01*
X159601426Y-58310147D01*
X159340273Y-58418320D01*
X159105241Y-58575363D01*
X158905363Y-58775241D01*
X158748320Y-59010273D01*
X158640147Y-59271426D01*
X158585000Y-59548665D01*
X153835000Y-59548665D01*
X153779853Y-59271426D01*
X153671680Y-59010273D01*
X153514637Y-58775241D01*
X153314759Y-58575363D01*
X153079727Y-58418320D01*
X152818574Y-58310147D01*
X152541335Y-58255000D01*
X152258665Y-58255000D01*
X151981426Y-58310147D01*
X151720273Y-58418320D01*
X151485241Y-58575363D01*
X151285363Y-58775241D01*
X151128320Y-59010273D01*
X151020147Y-59271426D01*
X150965000Y-59548665D01*
X124435000Y-59548665D01*
X124435000Y-59358665D01*
X124379853Y-59081426D01*
X124271680Y-58820273D01*
X124114637Y-58585241D01*
X123914759Y-58385363D01*
X123885000Y-58365479D01*
X123885000Y-56543469D01*
X123889281Y-56500000D01*
X123885000Y-56456531D01*
X123885000Y-56456523D01*
X123872195Y-56326510D01*
X123821589Y-56159687D01*
X123739411Y-56005941D01*
X123707491Y-55967047D01*
X123656532Y-55904953D01*
X123656530Y-55904951D01*
X123628817Y-55871183D01*
X123595050Y-55843471D01*
X122528534Y-54776956D01*
X122500817Y-54743183D01*
X122366059Y-54632589D01*
X122212313Y-54550411D01*
X122045490Y-54499805D01*
X121915477Y-54487000D01*
X121915469Y-54487000D01*
X121872000Y-54482719D01*
X121828531Y-54487000D01*
X117405685Y-54487000D01*
X117214886Y-54296201D01*
X116988043Y-54144629D01*
X116735989Y-54040225D01*
X116468411Y-53987000D01*
X116195589Y-53987000D01*
X115928011Y-54040225D01*
X115675957Y-54144629D01*
X115449114Y-54296201D01*
X115258315Y-54487000D01*
X114671465Y-54487000D01*
X114627999Y-54482719D01*
X114584533Y-54487000D01*
X114584523Y-54487000D01*
X114454510Y-54499805D01*
X114287687Y-54550411D01*
X114133941Y-54632589D01*
X114133939Y-54632590D01*
X114133940Y-54632590D01*
X114032953Y-54715468D01*
X114032951Y-54715470D01*
X113999183Y-54743183D01*
X113971470Y-54776951D01*
X113750000Y-54998422D01*
X113528534Y-54776956D01*
X113500817Y-54743183D01*
X113366059Y-54632589D01*
X113212313Y-54550411D01*
X113045490Y-54499805D01*
X112915477Y-54487000D01*
X112915469Y-54487000D01*
X112872000Y-54482719D01*
X112828531Y-54487000D01*
X112525685Y-54487000D01*
X112334886Y-54296201D01*
X112108043Y-54144629D01*
X111855989Y-54040225D01*
X111588411Y-53987000D01*
X111315589Y-53987000D01*
X111048011Y-54040225D01*
X110795957Y-54144629D01*
X110569114Y-54296201D01*
X110378315Y-54487000D01*
X106921465Y-54487000D01*
X106877999Y-54482719D01*
X106834533Y-54487000D01*
X106834523Y-54487000D01*
X106704510Y-54499805D01*
X106537687Y-54550411D01*
X106383941Y-54632589D01*
X106383939Y-54632590D01*
X106383940Y-54632590D01*
X106282953Y-54715468D01*
X106282951Y-54715470D01*
X106249183Y-54743183D01*
X106221470Y-54776951D01*
X105883422Y-55115000D01*
X103884521Y-55115000D01*
X103864637Y-55085241D01*
X103664759Y-54885363D01*
X103429727Y-54728320D01*
X103168574Y-54620147D01*
X102891335Y-54565000D01*
X102608665Y-54565000D01*
X102331426Y-54620147D01*
X102070273Y-54728320D01*
X101835241Y-54885363D01*
X101635363Y-55085241D01*
X101478320Y-55320273D01*
X101370147Y-55581426D01*
X101315000Y-55858665D01*
X101315000Y-56141335D01*
X101370147Y-56418574D01*
X101478320Y-56679727D01*
X101635363Y-56914759D01*
X101835241Y-57114637D01*
X102070273Y-57271680D01*
X102331426Y-57379853D01*
X102608665Y-57435000D01*
X102891335Y-57435000D01*
X103168574Y-57379853D01*
X103429727Y-57271680D01*
X103664759Y-57114637D01*
X103864637Y-56914759D01*
X103884521Y-56885000D01*
X106206531Y-56885000D01*
X106250000Y-56889281D01*
X106293469Y-56885000D01*
X106293477Y-56885000D01*
X106423490Y-56872195D01*
X106590313Y-56821589D01*
X106744059Y-56739411D01*
X106878817Y-56628817D01*
X106906534Y-56595044D01*
X107244579Y-56257000D01*
X110378315Y-56257000D01*
X110569114Y-56447799D01*
X110795957Y-56599371D01*
X111048011Y-56703775D01*
X111315589Y-56757000D01*
X111588411Y-56757000D01*
X111855989Y-56703775D01*
X112108043Y-56599371D01*
X112334886Y-56447799D01*
X112365001Y-56417684D01*
X112365000Y-62915000D01*
X112272998Y-62915000D01*
X112272998Y-63055166D01*
X112229494Y-63019463D01*
X112206333Y-63007083D01*
X112114250Y-62915000D01*
X112000663Y-62924546D01*
X111999482Y-62924188D01*
X111875000Y-62911928D01*
X111685000Y-62911928D01*
X111685000Y-60678465D01*
X111689281Y-60634999D01*
X111685000Y-60591533D01*
X111685000Y-60591523D01*
X111672195Y-60461510D01*
X111621589Y-60294687D01*
X111539411Y-60140941D01*
X111428817Y-60006183D01*
X111395050Y-59978471D01*
X109876534Y-58459956D01*
X109848817Y-58426183D01*
X109714059Y-58315589D01*
X109560313Y-58233411D01*
X109393490Y-58182805D01*
X109263477Y-58170000D01*
X109263469Y-58170000D01*
X109220000Y-58165719D01*
X109176531Y-58170000D01*
X101966579Y-58170000D01*
X99945000Y-56148422D01*
X99945000Y-54653477D01*
X99949282Y-54610000D01*
X99945000Y-54566523D01*
X99945000Y-53833665D01*
X150965000Y-53833665D01*
X150965000Y-54116335D01*
X151020147Y-54393574D01*
X151128320Y-54654727D01*
X151285363Y-54889759D01*
X151485241Y-55089637D01*
X151720273Y-55246680D01*
X151981426Y-55354853D01*
X152258665Y-55410000D01*
X152541335Y-55410000D01*
X152818574Y-55354853D01*
X153079727Y-55246680D01*
X153314759Y-55089637D01*
X153514637Y-54889759D01*
X153671680Y-54654727D01*
X153779853Y-54393574D01*
X153835000Y-54116335D01*
X153835000Y-53833665D01*
X158585000Y-53833665D01*
X158585000Y-54116335D01*
X158640147Y-54393574D01*
X158748320Y-54654727D01*
X158905363Y-54889759D01*
X159105241Y-55089637D01*
X159340273Y-55246680D01*
X159601426Y-55354853D01*
X159878665Y-55410000D01*
X160161335Y-55410000D01*
X160438574Y-55354853D01*
X160699727Y-55246680D01*
X160934759Y-55089637D01*
X161134637Y-54889759D01*
X161291680Y-54654727D01*
X161399853Y-54393574D01*
X161455000Y-54116335D01*
X161455000Y-53833665D01*
X161453041Y-53823816D01*
X163565000Y-53823816D01*
X163565000Y-54126184D01*
X163623989Y-54422743D01*
X163739701Y-54702095D01*
X163907688Y-54953505D01*
X164121495Y-55167312D01*
X164372905Y-55335299D01*
X164652257Y-55451011D01*
X164948816Y-55510000D01*
X165251184Y-55510000D01*
X165547743Y-55451011D01*
X165827095Y-55335299D01*
X166078505Y-55167312D01*
X166144944Y-55100873D01*
X166150498Y-55119180D01*
X166209463Y-55229494D01*
X166288815Y-55326185D01*
X166385506Y-55405537D01*
X166495820Y-55464502D01*
X166615518Y-55500812D01*
X166740000Y-55513072D01*
X168540000Y-55513072D01*
X168664482Y-55500812D01*
X168784180Y-55464502D01*
X168894494Y-55405537D01*
X168991185Y-55326185D01*
X169070537Y-55229494D01*
X169129502Y-55119180D01*
X169165812Y-54999482D01*
X169178072Y-54875000D01*
X169178072Y-53075000D01*
X169165812Y-52950518D01*
X169129502Y-52830820D01*
X169070537Y-52720506D01*
X168991185Y-52623815D01*
X168894494Y-52544463D01*
X168784180Y-52485498D01*
X168664482Y-52449188D01*
X168540000Y-52436928D01*
X166740000Y-52436928D01*
X166615518Y-52449188D01*
X166495820Y-52485498D01*
X166385506Y-52544463D01*
X166288815Y-52623815D01*
X166209463Y-52720506D01*
X166150498Y-52830820D01*
X166144944Y-52849127D01*
X166078505Y-52782688D01*
X165827095Y-52614701D01*
X165547743Y-52498989D01*
X165251184Y-52440000D01*
X164948816Y-52440000D01*
X164652257Y-52498989D01*
X164372905Y-52614701D01*
X164121495Y-52782688D01*
X163907688Y-52996495D01*
X163739701Y-53247905D01*
X163623989Y-53527257D01*
X163565000Y-53823816D01*
X161453041Y-53823816D01*
X161399853Y-53556426D01*
X161291680Y-53295273D01*
X161134637Y-53060241D01*
X160934759Y-52860363D01*
X160699727Y-52703320D01*
X160438574Y-52595147D01*
X160161335Y-52540000D01*
X159878665Y-52540000D01*
X159601426Y-52595147D01*
X159340273Y-52703320D01*
X159105241Y-52860363D01*
X158905363Y-53060241D01*
X158748320Y-53295273D01*
X158640147Y-53556426D01*
X158585000Y-53833665D01*
X153835000Y-53833665D01*
X153779853Y-53556426D01*
X153671680Y-53295273D01*
X153514637Y-53060241D01*
X153314759Y-52860363D01*
X153079727Y-52703320D01*
X152818574Y-52595147D01*
X152541335Y-52540000D01*
X152258665Y-52540000D01*
X151981426Y-52595147D01*
X151720273Y-52703320D01*
X151485241Y-52860363D01*
X151285363Y-53060241D01*
X151128320Y-53295273D01*
X151020147Y-53556426D01*
X150965000Y-53833665D01*
X99945000Y-53833665D01*
X99945000Y-51992702D01*
X101936903Y-51992702D01*
X102008486Y-52236671D01*
X102263996Y-52357571D01*
X102538184Y-52426300D01*
X102820512Y-52440217D01*
X103100130Y-52398787D01*
X103366292Y-52303603D01*
X103491514Y-52236671D01*
X103563097Y-51992702D01*
X102750000Y-51179605D01*
X101936903Y-51992702D01*
X99945000Y-51992702D01*
X99945000Y-50971576D01*
X100281578Y-50634999D01*
X101362098Y-50634999D01*
X101323700Y-50788184D01*
X101309783Y-51070512D01*
X101351213Y-51350130D01*
X101446397Y-51616292D01*
X101513329Y-51741514D01*
X101757298Y-51813097D01*
X102570395Y-51000000D01*
X102556253Y-50985858D01*
X102735858Y-50806253D01*
X102750000Y-50820395D01*
X102764143Y-50806253D01*
X102943748Y-50985858D01*
X102929605Y-51000000D01*
X103742702Y-51813097D01*
X103986671Y-51741514D01*
X104107571Y-51486004D01*
X104176300Y-51211816D01*
X104190217Y-50929488D01*
X104148787Y-50649870D01*
X104143469Y-50634999D01*
X168128421Y-50634999D01*
X170565001Y-53071580D01*
X170565000Y-65038421D01*
X161329952Y-74273470D01*
X161296184Y-74301183D01*
X161268471Y-74334951D01*
X161268468Y-74334954D01*
X161185590Y-74435941D01*
X161103412Y-74589687D01*
X161052805Y-74756510D01*
X161035719Y-74930000D01*
X161040001Y-74973479D01*
X161040000Y-76220344D01*
X160978368Y-76261525D01*
X160771525Y-76468368D01*
X160609010Y-76711589D01*
X160497068Y-76981842D01*
X160440000Y-77268740D01*
X160440000Y-77561260D01*
X160497068Y-77848158D01*
X160609010Y-78118411D01*
X160771525Y-78361632D01*
X160978368Y-78568475D01*
X161221589Y-78730990D01*
X161491842Y-78842932D01*
X161778740Y-78900000D01*
X162071260Y-78900000D01*
X162358158Y-78842932D01*
X162628411Y-78730990D01*
X162871632Y-78568475D01*
X163078475Y-78361632D01*
X163240990Y-78118411D01*
X163352932Y-77848158D01*
X163410000Y-77561260D01*
X163410000Y-77268740D01*
X166940000Y-77268740D01*
X166940000Y-77561260D01*
X166997068Y-77848158D01*
X167109010Y-78118411D01*
X167271525Y-78361632D01*
X167478368Y-78568475D01*
X167721589Y-78730990D01*
X167991842Y-78842932D01*
X168278740Y-78900000D01*
X168571260Y-78900000D01*
X168858158Y-78842932D01*
X169128411Y-78730990D01*
X169371632Y-78568475D01*
X169578475Y-78361632D01*
X169740990Y-78118411D01*
X169852932Y-77848158D01*
X169910000Y-77561260D01*
X169910000Y-77268740D01*
X169852932Y-76981842D01*
X169740990Y-76711589D01*
X169578475Y-76468368D01*
X169371632Y-76261525D01*
X169128411Y-76099010D01*
X168858158Y-75987068D01*
X168571260Y-75930000D01*
X168278740Y-75930000D01*
X167991842Y-75987068D01*
X167721589Y-76099010D01*
X167478368Y-76261525D01*
X167271525Y-76468368D01*
X167109010Y-76711589D01*
X166997068Y-76981842D01*
X166940000Y-77268740D01*
X163410000Y-77268740D01*
X163352932Y-76981842D01*
X163240990Y-76711589D01*
X163078475Y-76468368D01*
X162871632Y-76261525D01*
X162810000Y-76220344D01*
X162810000Y-75296578D01*
X172045051Y-66061528D01*
X172078817Y-66033817D01*
X172106533Y-66000046D01*
X172183296Y-65906510D01*
X172189411Y-65899059D01*
X172271589Y-65745313D01*
X172322195Y-65578490D01*
X172335000Y-65448477D01*
X172335000Y-65448467D01*
X172339281Y-65405001D01*
X172335000Y-65361535D01*
X172335000Y-52748465D01*
X172339281Y-52704999D01*
X172335000Y-52661533D01*
X172335000Y-52661523D01*
X172322195Y-52531510D01*
X172271589Y-52364687D01*
X172189411Y-52210941D01*
X172078817Y-52076183D01*
X172045049Y-52048470D01*
X169151533Y-49154955D01*
X169123816Y-49121182D01*
X168989058Y-49010588D01*
X168835312Y-48928410D01*
X168668489Y-48877804D01*
X168538476Y-48864999D01*
X168538468Y-48864999D01*
X168494999Y-48860718D01*
X168451530Y-48864999D01*
X99958464Y-48864999D01*
X99914998Y-48860718D01*
X99871532Y-48864999D01*
X99871522Y-48864999D01*
X99741509Y-48877804D01*
X99574686Y-48928410D01*
X99420940Y-49010588D01*
X99420938Y-49010589D01*
X99420939Y-49010589D01*
X99319952Y-49093467D01*
X99319950Y-49093469D01*
X99286182Y-49121182D01*
X99258469Y-49154950D01*
X98464956Y-49948464D01*
X98431183Y-49976181D01*
X98320589Y-50110940D01*
X98238411Y-50264686D01*
X98203157Y-50380902D01*
X98202306Y-50383708D01*
X98187805Y-50431509D01*
X98175000Y-50561522D01*
X98175000Y-50561529D01*
X98170719Y-50604998D01*
X98175000Y-50648467D01*
X98175001Y-53725000D01*
X64875059Y-53725000D01*
X64808370Y-53625191D01*
X64854494Y-53600537D01*
X64951185Y-53521185D01*
X65030537Y-53424494D01*
X65089502Y-53314180D01*
X65125812Y-53194482D01*
X65138072Y-53070000D01*
X65138072Y-51070000D01*
X65125812Y-50945518D01*
X65089502Y-50825820D01*
X65030537Y-50715506D01*
X64951185Y-50618815D01*
X64854494Y-50539463D01*
X64744180Y-50480498D01*
X64624482Y-50444188D01*
X64500000Y-50431928D01*
X62500000Y-50431928D01*
X62375518Y-50444188D01*
X62255820Y-50480498D01*
X62145506Y-50539463D01*
X62048815Y-50618815D01*
X61969463Y-50715506D01*
X61910498Y-50825820D01*
X61874188Y-50945518D01*
X61861928Y-51070000D01*
X61861928Y-51185000D01*
X61765465Y-51185000D01*
X61721999Y-51180719D01*
X61678533Y-51185000D01*
X61678523Y-51185000D01*
X61548510Y-51197805D01*
X61381687Y-51248411D01*
X61227941Y-51330589D01*
X61227939Y-51330590D01*
X61227940Y-51330590D01*
X61126953Y-51413468D01*
X61126951Y-51413470D01*
X61093183Y-51441183D01*
X61065470Y-51474951D01*
X58840951Y-53699471D01*
X58807184Y-53727183D01*
X58779471Y-53760951D01*
X58779468Y-53760954D01*
X58696590Y-53861941D01*
X58614412Y-54015687D01*
X58591801Y-54090222D01*
X54567000Y-50065422D01*
X54567000Y-49788454D01*
X54599205Y-49740256D01*
X54677226Y-49551898D01*
X54717000Y-49351939D01*
X54717000Y-49148061D01*
X54677226Y-48948102D01*
X54599205Y-48759744D01*
X54485937Y-48590226D01*
X54341774Y-48446063D01*
X54172256Y-48332795D01*
X53983898Y-48254774D01*
X53783939Y-48215000D01*
X53580061Y-48215000D01*
X53380102Y-48254774D01*
X53191744Y-48332795D01*
X53022226Y-48446063D01*
X52878063Y-48590226D01*
X52764795Y-48759744D01*
X52686774Y-48948102D01*
X52660000Y-49082705D01*
X52660000Y-41976521D01*
X55180979Y-41976521D01*
X55180979Y-42423479D01*
X55268176Y-42861849D01*
X55439220Y-43274785D01*
X55687536Y-43646417D01*
X56003583Y-43962464D01*
X56375215Y-44210780D01*
X56788151Y-44381824D01*
X57226521Y-44469021D01*
X57673479Y-44469021D01*
X58111849Y-44381824D01*
X58524785Y-44210780D01*
X58896417Y-43962464D01*
X59212464Y-43646417D01*
X59460780Y-43274785D01*
X59631824Y-42861849D01*
X59719021Y-42423479D01*
X59719021Y-41976521D01*
X168780979Y-41976521D01*
X168780979Y-42423479D01*
X168868176Y-42861849D01*
X169039220Y-43274785D01*
X169287536Y-43646417D01*
X169603583Y-43962464D01*
X169975215Y-44210780D01*
X170388151Y-44381824D01*
X170826521Y-44469021D01*
X171273479Y-44469021D01*
X171711849Y-44381824D01*
X172124785Y-44210780D01*
X172496417Y-43962464D01*
X172812464Y-43646417D01*
X173060780Y-43274785D01*
X173231824Y-42861849D01*
X173319021Y-42423479D01*
X173319021Y-41976521D01*
X173231824Y-41538151D01*
X173060780Y-41125215D01*
X172812464Y-40753583D01*
X172496417Y-40437536D01*
X172124785Y-40189220D01*
X171711849Y-40018176D01*
X171273479Y-39930979D01*
X170826521Y-39930979D01*
X170388151Y-40018176D01*
X169975215Y-40189220D01*
X169603583Y-40437536D01*
X169287536Y-40753583D01*
X169039220Y-41125215D01*
X168868176Y-41538151D01*
X168780979Y-41976521D01*
X59719021Y-41976521D01*
X59631824Y-41538151D01*
X59460780Y-41125215D01*
X59212464Y-40753583D01*
X58896417Y-40437536D01*
X58524785Y-40189220D01*
X58111849Y-40018176D01*
X57673479Y-39930979D01*
X57226521Y-39930979D01*
X56788151Y-40018176D01*
X56375215Y-40189220D01*
X56003583Y-40437536D01*
X55687536Y-40753583D01*
X55439220Y-41125215D01*
X55268176Y-41538151D01*
X55180979Y-41976521D01*
X52660000Y-41976521D01*
X52660000Y-28600000D01*
X175870000Y-28600000D01*
X175870001Y-90962529D01*
G37*
X175870001Y-90962529D02*
X175335750Y-90965000D01*
X175177000Y-91123750D01*
X175177000Y-92623000D01*
X175197000Y-92623000D01*
X175197000Y-92877000D01*
X175177000Y-92877000D01*
X175177000Y-95223000D01*
X175197000Y-95223000D01*
X175197000Y-95477000D01*
X175177000Y-95477000D01*
X175177000Y-97523000D01*
X175197000Y-97523000D01*
X175197000Y-97777000D01*
X175177000Y-97777000D01*
X175177000Y-100123000D01*
X175197000Y-100123000D01*
X175197000Y-100377000D01*
X175177000Y-100377000D01*
X175177000Y-101876250D01*
X175335750Y-102035000D01*
X175870001Y-102037471D01*
X175870001Y-112369841D01*
X52660000Y-112340160D01*
X52660000Y-109576521D01*
X55180979Y-109576521D01*
X55180979Y-110023479D01*
X55268176Y-110461849D01*
X55439220Y-110874785D01*
X55687536Y-111246417D01*
X56003583Y-111562464D01*
X56375215Y-111810780D01*
X56788151Y-111981824D01*
X57226521Y-112069021D01*
X57673479Y-112069021D01*
X58111849Y-111981824D01*
X58524785Y-111810780D01*
X58896417Y-111562464D01*
X59212464Y-111246417D01*
X59460780Y-110874785D01*
X59631824Y-110461849D01*
X59719021Y-110023479D01*
X59719021Y-109576521D01*
X59631824Y-109138151D01*
X59460780Y-108725215D01*
X59212464Y-108353583D01*
X58896417Y-108037536D01*
X58524785Y-107789220D01*
X58111849Y-107618176D01*
X57673479Y-107530979D01*
X57226521Y-107530979D01*
X56788151Y-107618176D01*
X56375215Y-107789220D01*
X56003583Y-108037536D01*
X55687536Y-108353583D01*
X55439220Y-108725215D01*
X55268176Y-109138151D01*
X55180979Y-109576521D01*
X52660000Y-109576521D01*
X52660000Y-104445000D01*
X131440000Y-104445000D01*
X131440000Y-110515000D01*
X167010000Y-110515000D01*
X167010000Y-109576521D01*
X168780979Y-109576521D01*
X168780979Y-110023479D01*
X168868176Y-110461849D01*
X169039220Y-110874785D01*
X169287536Y-111246417D01*
X169603583Y-111562464D01*
X169975215Y-111810780D01*
X170388151Y-111981824D01*
X170826521Y-112069021D01*
X171273479Y-112069021D01*
X171711849Y-111981824D01*
X172124785Y-111810780D01*
X172496417Y-111562464D01*
X172812464Y-111246417D01*
X173060780Y-110874785D01*
X173231824Y-110461849D01*
X173319021Y-110023479D01*
X173319021Y-109576521D01*
X173231824Y-109138151D01*
X173060780Y-108725215D01*
X172812464Y-108353583D01*
X172496417Y-108037536D01*
X172124785Y-107789220D01*
X171711849Y-107618176D01*
X171273479Y-107530979D01*
X170826521Y-107530979D01*
X170388151Y-107618176D01*
X169975215Y-107789220D01*
X169603583Y-108037536D01*
X169287536Y-108353583D01*
X169039220Y-108725215D01*
X168868176Y-109138151D01*
X168780979Y-109576521D01*
X167010000Y-109576521D01*
X167010000Y-104445000D01*
X131440000Y-104445000D01*
X52660000Y-104445000D01*
X52660000Y-49417295D01*
X52686774Y-49551898D01*
X52764795Y-49740256D01*
X52797000Y-49788455D01*
X52797001Y-50388522D01*
X52792719Y-50432000D01*
X52809805Y-50605490D01*
X52860412Y-50772313D01*
X52942590Y-50926059D01*
X53025468Y-51027046D01*
X53025471Y-51027049D01*
X53053184Y-51060817D01*
X53086952Y-51088530D01*
X57615000Y-55616579D01*
X57615001Y-80456521D01*
X57610719Y-80500000D01*
X57627805Y-80673490D01*
X57678412Y-80840313D01*
X57760590Y-80994059D01*
X57843468Y-81095046D01*
X57843471Y-81095049D01*
X57871184Y-81128817D01*
X57904951Y-81156529D01*
X60593470Y-83845049D01*
X60621183Y-83878817D01*
X60654951Y-83906530D01*
X60654953Y-83906532D01*
X60726452Y-83965210D01*
X60755941Y-83989411D01*
X60909687Y-84071589D01*
X61076510Y-84122195D01*
X61206523Y-84135000D01*
X61206533Y-84135000D01*
X61249999Y-84139281D01*
X61293465Y-84135000D01*
X65456531Y-84135000D01*
X65500000Y-84139281D01*
X65543469Y-84135000D01*
X65543477Y-84135000D01*
X65673490Y-84122195D01*
X65840313Y-84071589D01*
X65994059Y-83989411D01*
X66128817Y-83878817D01*
X66156534Y-83845044D01*
X70616579Y-79385000D01*
X107215000Y-79385000D01*
X107215000Y-79451939D01*
X107254774Y-79651898D01*
X107332795Y-79840256D01*
X107389419Y-79925000D01*
X107332795Y-80009744D01*
X107254774Y-80198102D01*
X107215000Y-80398061D01*
X107215000Y-80601939D01*
X107254774Y-80801898D01*
X107332795Y-80990256D01*
X107446063Y-81159774D01*
X107590226Y-81303937D01*
X107759744Y-81417205D01*
X107948102Y-81495226D01*
X108148061Y-81535000D01*
X108351939Y-81535000D01*
X108551898Y-81495226D01*
X108740256Y-81417205D01*
X108788454Y-81385000D01*
X120633422Y-81385000D01*
X121365000Y-82116579D01*
X121365001Y-86456521D01*
X121360719Y-86500000D01*
X121377805Y-86673490D01*
X121428412Y-86840313D01*
X121510590Y-86994059D01*
X121593468Y-87095046D01*
X121593471Y-87095049D01*
X121621184Y-87128817D01*
X121654952Y-87156530D01*
X135343470Y-100845049D01*
X135371183Y-100878817D01*
X135404951Y-100906530D01*
X135404953Y-100906532D01*
X135433216Y-100929727D01*
X135505941Y-100989411D01*
X135659687Y-101071589D01*
X135826510Y-101122195D01*
X135956523Y-101135000D01*
X135956533Y-101135000D01*
X135999999Y-101139281D01*
X136043465Y-101135000D01*
X156535479Y-101135000D01*
X156555363Y-101164759D01*
X156755241Y-101364637D01*
X156990273Y-101521680D01*
X157251426Y-101629853D01*
X157528665Y-101685000D01*
X157811335Y-101685000D01*
X158088574Y-101629853D01*
X158349727Y-101521680D01*
X158584759Y-101364637D01*
X158784637Y-101164759D01*
X158941680Y-100929727D01*
X159049853Y-100668574D01*
X159105000Y-100391335D01*
X159105000Y-100108665D01*
X159049853Y-99831426D01*
X158941680Y-99570273D01*
X158784637Y-99335241D01*
X158584759Y-99135363D01*
X158349727Y-98978320D01*
X158088574Y-98870147D01*
X157811335Y-98815000D01*
X157528665Y-98815000D01*
X157251426Y-98870147D01*
X156990273Y-98978320D01*
X156755241Y-99135363D01*
X156555363Y-99335241D01*
X156535479Y-99365000D01*
X156056578Y-99365000D01*
X157493561Y-97928017D01*
X157528665Y-97935000D01*
X157811335Y-97935000D01*
X158088574Y-97879853D01*
X158349727Y-97771680D01*
X158584759Y-97614637D01*
X158784637Y-97414759D01*
X158941680Y-97179727D01*
X159049853Y-96918574D01*
X159105000Y-96641335D01*
X159105000Y-96358665D01*
X159049853Y-96081426D01*
X158941680Y-95820273D01*
X158784637Y-95585241D01*
X158584759Y-95385363D01*
X158349727Y-95228320D01*
X158088574Y-95120147D01*
X157811335Y-95065000D01*
X157528665Y-95065000D01*
X157413713Y-95087866D01*
X157616579Y-94885000D01*
X170873254Y-94885000D01*
X170861928Y-95000000D01*
X170861928Y-95090000D01*
X168664823Y-95090000D01*
X168627500Y-95086324D01*
X168590177Y-95090000D01*
X168590167Y-95090000D01*
X168478514Y-95100997D01*
X168335253Y-95144454D01*
X168203224Y-95215026D01*
X168087499Y-95309999D01*
X168063700Y-95338998D01*
X167662699Y-95740000D01*
X166508043Y-95740000D01*
X166404637Y-95585241D01*
X166204759Y-95385363D01*
X165969727Y-95228320D01*
X165708574Y-95120147D01*
X165431335Y-95065000D01*
X165148665Y-95065000D01*
X164871426Y-95120147D01*
X164610273Y-95228320D01*
X164375241Y-95385363D01*
X164175363Y-95585241D01*
X164018320Y-95820273D01*
X163910147Y-96081426D01*
X163855000Y-96358665D01*
X163855000Y-96641335D01*
X163910147Y-96918574D01*
X164018320Y-97179727D01*
X164175363Y-97414759D01*
X164375241Y-97614637D01*
X164610273Y-97771680D01*
X164871426Y-97879853D01*
X165148665Y-97935000D01*
X165431335Y-97935000D01*
X165708574Y-97879853D01*
X165969727Y-97771680D01*
X166204759Y-97614637D01*
X166404637Y-97414759D01*
X166508043Y-97260000D01*
X167940178Y-97260000D01*
X167977500Y-97263676D01*
X168014822Y-97260000D01*
X168014833Y-97260000D01*
X168023001Y-97259196D01*
X168023000Y-98110198D01*
X166643199Y-99490000D01*
X166508043Y-99490000D01*
X166404637Y-99335241D01*
X166204759Y-99135363D01*
X165969727Y-98978320D01*
X165708574Y-98870147D01*
X165431335Y-98815000D01*
X165148665Y-98815000D01*
X164871426Y-98870147D01*
X164610273Y-98978320D01*
X164375241Y-99135363D01*
X164175363Y-99335241D01*
X164018320Y-99570273D01*
X163910147Y-99831426D01*
X163855000Y-100108665D01*
X163855000Y-100391335D01*
X163910147Y-100668574D01*
X164018320Y-100929727D01*
X164175363Y-101164759D01*
X164375241Y-101364637D01*
X164610273Y-101521680D01*
X164871426Y-101629853D01*
X165148665Y-101685000D01*
X165431335Y-101685000D01*
X165708574Y-101629853D01*
X165969727Y-101521680D01*
X166151834Y-101400000D01*
X173461928Y-101400000D01*
X173474188Y-101524482D01*
X173510498Y-101644180D01*
X173569463Y-101754494D01*
X173648815Y-101851185D01*
X173745506Y-101930537D01*
X173855820Y-101989502D01*
X173975518Y-102025812D01*
X174100000Y-102038072D01*
X174764250Y-102035000D01*
X174923000Y-101876250D01*
X174923000Y-100377000D01*
X173623750Y-100377000D01*
X173465000Y-100535750D01*
X173461928Y-101400000D01*
X166151834Y-101400000D01*
X166204759Y-101364637D01*
X166404637Y-101164759D01*
X166508043Y-101010000D01*
X166920678Y-101010000D01*
X166958000Y-101013676D01*
X166995322Y-101010000D01*
X166995333Y-101010000D01*
X167106986Y-100999003D01*
X167250247Y-100955546D01*
X167382276Y-100884974D01*
X167498001Y-100790001D01*
X167521804Y-100760997D01*
X169294004Y-98988798D01*
X169323001Y-98965001D01*
X169417974Y-98849276D01*
X169488546Y-98717247D01*
X169532003Y-98573986D01*
X169543000Y-98462333D01*
X169543000Y-98462325D01*
X169546676Y-98425000D01*
X169543000Y-98387675D01*
X169543000Y-97469801D01*
X169752802Y-97260000D01*
X170861928Y-97260000D01*
X170861928Y-97350000D01*
X170874188Y-97474482D01*
X170874971Y-97477064D01*
X170865000Y-97568250D01*
X170932968Y-97636218D01*
X170969463Y-97704494D01*
X171048815Y-97801185D01*
X171136322Y-97873000D01*
X171023750Y-97873000D01*
X170865000Y-98031750D01*
X170876206Y-98134229D01*
X170914379Y-98253346D01*
X170975057Y-98362727D01*
X171055908Y-98458169D01*
X171153826Y-98536003D01*
X171265046Y-98593239D01*
X171385296Y-98627677D01*
X171509954Y-98637994D01*
X171914250Y-98635000D01*
X172073000Y-98476250D01*
X172073000Y-97988072D01*
X172327000Y-97988072D01*
X172327000Y-98476250D01*
X172485750Y-98635000D01*
X172890046Y-98637994D01*
X173014704Y-98627677D01*
X173134954Y-98593239D01*
X173246174Y-98536003D01*
X173344092Y-98458169D01*
X173424943Y-98362727D01*
X173463210Y-98293746D01*
X173461928Y-98550000D01*
X173474188Y-98674482D01*
X173510498Y-98794180D01*
X173526972Y-98825000D01*
X173510498Y-98855820D01*
X173474188Y-98975518D01*
X173461928Y-99100000D01*
X173465000Y-99964250D01*
X173623750Y-100123000D01*
X174923000Y-100123000D01*
X174923000Y-97777000D01*
X173623750Y-97777000D01*
X173465000Y-97935750D01*
X173464871Y-97961621D01*
X173376250Y-97873000D01*
X173263678Y-97873000D01*
X173351185Y-97801185D01*
X173430537Y-97704494D01*
X173467032Y-97636218D01*
X173535000Y-97568250D01*
X173525029Y-97477064D01*
X173525812Y-97474482D01*
X173530243Y-97429493D01*
X173623750Y-97523000D01*
X174923000Y-97523000D01*
X174923000Y-95477000D01*
X174903000Y-95477000D01*
X174903000Y-95223000D01*
X174923000Y-95223000D01*
X174923000Y-92877000D01*
X173623750Y-92877000D01*
X173465000Y-93035750D01*
X173461928Y-93900000D01*
X173474188Y-94024482D01*
X173510498Y-94144180D01*
X173526972Y-94175000D01*
X173510498Y-94205820D01*
X173474188Y-94325518D01*
X173461928Y-94450000D01*
X173463211Y-94706635D01*
X173430537Y-94645506D01*
X173351185Y-94548815D01*
X173254494Y-94469463D01*
X173144180Y-94410498D01*
X173026141Y-94374691D01*
X173021589Y-94359687D01*
X172939411Y-94205941D01*
X172828817Y-94071183D01*
X172795049Y-94043470D01*
X172156534Y-93404956D01*
X172128817Y-93371183D01*
X171994059Y-93260589D01*
X171840313Y-93178411D01*
X171673490Y-93127805D01*
X171543477Y-93115000D01*
X171543469Y-93115000D01*
X171500000Y-93110719D01*
X171456531Y-93115000D01*
X157293469Y-93115000D01*
X157250000Y-93110719D01*
X157206531Y-93115000D01*
X157206523Y-93115000D01*
X157076510Y-93127805D01*
X156909686Y-93178411D01*
X156755941Y-93260589D01*
X156654953Y-93343468D01*
X156654951Y-93343470D01*
X156621183Y-93371183D01*
X156593470Y-93404951D01*
X152633422Y-97365000D01*
X136616579Y-97365000D01*
X130851579Y-91600000D01*
X173461928Y-91600000D01*
X173465000Y-92464250D01*
X173623750Y-92623000D01*
X174923000Y-92623000D01*
X174923000Y-91123750D01*
X174764250Y-90965000D01*
X174100000Y-90961928D01*
X173975518Y-90974188D01*
X173855820Y-91010498D01*
X173745506Y-91069463D01*
X173648815Y-91148815D01*
X173569463Y-91245506D01*
X173510498Y-91355820D01*
X173474188Y-91475518D01*
X173461928Y-91600000D01*
X130851579Y-91600000D01*
X124737001Y-85485423D01*
X124737001Y-82943397D01*
X161076208Y-82943397D01*
X161153843Y-83192472D01*
X161417883Y-83318371D01*
X161701411Y-83390339D01*
X161993531Y-83405611D01*
X162283019Y-83363599D01*
X162558747Y-83265919D01*
X162696157Y-83192472D01*
X162773792Y-82943397D01*
X161925000Y-82094605D01*
X161076208Y-82943397D01*
X124737001Y-82943397D01*
X124737001Y-81983531D01*
X160434389Y-81983531D01*
X160476401Y-82273019D01*
X160574081Y-82548747D01*
X160647528Y-82686157D01*
X160896603Y-82763792D01*
X161745395Y-81915000D01*
X162104605Y-81915000D01*
X162953397Y-82763792D01*
X163202472Y-82686157D01*
X163328371Y-82422117D01*
X163400339Y-82138589D01*
X163415611Y-81846469D01*
X163404331Y-81768740D01*
X166940000Y-81768740D01*
X166940000Y-82061260D01*
X166997068Y-82348158D01*
X167109010Y-82618411D01*
X167271525Y-82861632D01*
X167478368Y-83068475D01*
X167721589Y-83230990D01*
X167991842Y-83342932D01*
X168278740Y-83400000D01*
X168571260Y-83400000D01*
X168858158Y-83342932D01*
X169128411Y-83230990D01*
X169371632Y-83068475D01*
X169578475Y-82861632D01*
X169740990Y-82618411D01*
X169852932Y-82348158D01*
X169910000Y-82061260D01*
X169910000Y-81768740D01*
X169852932Y-81481842D01*
X169740990Y-81211589D01*
X169578475Y-80968368D01*
X169371632Y-80761525D01*
X169128411Y-80599010D01*
X168858158Y-80487068D01*
X168571260Y-80430000D01*
X168278740Y-80430000D01*
X167991842Y-80487068D01*
X167721589Y-80599010D01*
X167478368Y-80761525D01*
X167271525Y-80968368D01*
X167109010Y-81211589D01*
X166997068Y-81481842D01*
X166940000Y-81768740D01*
X163404331Y-81768740D01*
X163373599Y-81556981D01*
X163275919Y-81281253D01*
X163202472Y-81143843D01*
X162953397Y-81066208D01*
X162104605Y-81915000D01*
X161745395Y-81915000D01*
X160896603Y-81066208D01*
X160647528Y-81143843D01*
X160521629Y-81407883D01*
X160449661Y-81691411D01*
X160434389Y-81983531D01*
X124737001Y-81983531D01*
X124737001Y-80886603D01*
X161076208Y-80886603D01*
X161925000Y-81735395D01*
X162773792Y-80886603D01*
X162696157Y-80637528D01*
X162432117Y-80511629D01*
X162148589Y-80439661D01*
X161856469Y-80424389D01*
X161566981Y-80466401D01*
X161291253Y-80564081D01*
X161153843Y-80637528D01*
X161076208Y-80886603D01*
X124737001Y-80886603D01*
X124737001Y-70481000D01*
X125865479Y-70481000D01*
X125885363Y-70510759D01*
X126085241Y-70710637D01*
X126320273Y-70867680D01*
X126581426Y-70975853D01*
X126858665Y-71031000D01*
X127141335Y-71031000D01*
X127418574Y-70975853D01*
X127679727Y-70867680D01*
X127914759Y-70710637D01*
X128114637Y-70510759D01*
X128271680Y-70275727D01*
X128379853Y-70014574D01*
X128435000Y-69737335D01*
X128435000Y-69454665D01*
X128379853Y-69177426D01*
X128271680Y-68916273D01*
X128114637Y-68681241D01*
X127914759Y-68481363D01*
X127679727Y-68324320D01*
X127418574Y-68216147D01*
X127141335Y-68161000D01*
X126858665Y-68161000D01*
X126581426Y-68216147D01*
X126320273Y-68324320D01*
X126085241Y-68481363D01*
X125885363Y-68681241D01*
X125865479Y-68711000D01*
X124737001Y-68711000D01*
X124737001Y-68015470D01*
X124741282Y-67972001D01*
X124737001Y-67928532D01*
X124737001Y-67928524D01*
X124724196Y-67798511D01*
X124673590Y-67631688D01*
X124591412Y-67477942D01*
X124573841Y-67456532D01*
X124508533Y-67376954D01*
X124508531Y-67376952D01*
X124480818Y-67343184D01*
X124447050Y-67315471D01*
X123336534Y-66204956D01*
X123308817Y-66171183D01*
X123174059Y-66060589D01*
X123020313Y-65978411D01*
X122860237Y-65929852D01*
X123070512Y-65940217D01*
X123350130Y-65898787D01*
X123616292Y-65803603D01*
X123741514Y-65736671D01*
X123784929Y-65588702D01*
X126186903Y-65588702D01*
X126258486Y-65832671D01*
X126513996Y-65953571D01*
X126788184Y-66022300D01*
X127070512Y-66036217D01*
X127350130Y-65994787D01*
X127616292Y-65899603D01*
X127741514Y-65832671D01*
X127813097Y-65588702D01*
X127000000Y-64775605D01*
X126186903Y-65588702D01*
X123784929Y-65588702D01*
X123813097Y-65492702D01*
X123000000Y-64679605D01*
X122186903Y-65492702D01*
X122258486Y-65736671D01*
X122513996Y-65857571D01*
X122755807Y-65918184D01*
X122723477Y-65915000D01*
X122723469Y-65915000D01*
X122680000Y-65910719D01*
X122636531Y-65915000D01*
X121085000Y-65915000D01*
X121085000Y-65872998D01*
X120926252Y-65872998D01*
X121085000Y-65714250D01*
X121075177Y-65597369D01*
X121038265Y-65477855D01*
X120978746Y-65367839D01*
X120898908Y-65271549D01*
X120801818Y-65192684D01*
X120691208Y-65134276D01*
X120571329Y-65098570D01*
X120446787Y-65086936D01*
X119985750Y-65090000D01*
X119827000Y-65248750D01*
X119827000Y-65873000D01*
X119847000Y-65873000D01*
X119847000Y-65886928D01*
X119553000Y-65886928D01*
X119553000Y-65873000D01*
X119573000Y-65873000D01*
X119573000Y-65248750D01*
X119414250Y-65090000D01*
X118953213Y-65086936D01*
X118909028Y-65091064D01*
X118913072Y-65050000D01*
X118913072Y-64570512D01*
X121559783Y-64570512D01*
X121601213Y-64850130D01*
X121696397Y-65116292D01*
X121763329Y-65241514D01*
X122007298Y-65313097D01*
X122820395Y-64500000D01*
X123179605Y-64500000D01*
X123992702Y-65313097D01*
X124236671Y-65241514D01*
X124357571Y-64986004D01*
X124426300Y-64711816D01*
X124428533Y-64666512D01*
X125559783Y-64666512D01*
X125601213Y-64946130D01*
X125696397Y-65212292D01*
X125763329Y-65337514D01*
X126007298Y-65409097D01*
X126820395Y-64596000D01*
X127179605Y-64596000D01*
X127992702Y-65409097D01*
X128236671Y-65337514D01*
X128357571Y-65082004D01*
X128426300Y-64807816D01*
X128440217Y-64525488D01*
X128398787Y-64245870D01*
X128303603Y-63979708D01*
X128236671Y-63854486D01*
X127992702Y-63782903D01*
X127179605Y-64596000D01*
X126820395Y-64596000D01*
X126007298Y-63782903D01*
X125763329Y-63854486D01*
X125642429Y-64109996D01*
X125573700Y-64384184D01*
X125559783Y-64666512D01*
X124428533Y-64666512D01*
X124440217Y-64429488D01*
X124398787Y-64149870D01*
X124303603Y-63883708D01*
X124236671Y-63758486D01*
X123992702Y-63686903D01*
X123179605Y-64500000D01*
X122820395Y-64500000D01*
X122007298Y-63686903D01*
X121763329Y-63758486D01*
X121642429Y-64013996D01*
X121573700Y-64288184D01*
X121559783Y-64570512D01*
X118913072Y-64570512D01*
X118913072Y-63550000D01*
X118900812Y-63425518D01*
X118885000Y-63373393D01*
X118885000Y-63341578D01*
X119111579Y-63115000D01*
X122611318Y-63115000D01*
X122383708Y-63196397D01*
X122258486Y-63263329D01*
X122186903Y-63507298D01*
X123000000Y-64320395D01*
X123717097Y-63603298D01*
X126186903Y-63603298D01*
X127000000Y-64416395D01*
X127813097Y-63603298D01*
X127741514Y-63359329D01*
X127486004Y-63238429D01*
X127211816Y-63169700D01*
X126929488Y-63155783D01*
X126649870Y-63197213D01*
X126383708Y-63292397D01*
X126258486Y-63359329D01*
X126186903Y-63603298D01*
X123717097Y-63603298D01*
X123813097Y-63507298D01*
X123741514Y-63263329D01*
X123486004Y-63142429D01*
X123376579Y-63115000D01*
X166961531Y-63115000D01*
X167005000Y-63119281D01*
X167048469Y-63115000D01*
X167048477Y-63115000D01*
X167178490Y-63102195D01*
X167345313Y-63051589D01*
X167499059Y-62969411D01*
X167633817Y-62858817D01*
X167661534Y-62825044D01*
X168235050Y-62251529D01*
X168268817Y-62223817D01*
X168379411Y-62089059D01*
X168438553Y-61978411D01*
X168461589Y-61935314D01*
X168512195Y-61768490D01*
X168513712Y-61753088D01*
X168525000Y-61638477D01*
X168525000Y-61638469D01*
X168529281Y-61595000D01*
X168525000Y-61551531D01*
X168525000Y-61228072D01*
X168540000Y-61228072D01*
X168664482Y-61215812D01*
X168784180Y-61179502D01*
X168894494Y-61120537D01*
X168991185Y-61041185D01*
X169070537Y-60944494D01*
X169129502Y-60834180D01*
X169165812Y-60714482D01*
X169178072Y-60590000D01*
X169178072Y-58790000D01*
X169165812Y-58665518D01*
X169129502Y-58545820D01*
X169070537Y-58435506D01*
X168991185Y-58338815D01*
X168894494Y-58259463D01*
X168784180Y-58200498D01*
X168664482Y-58164188D01*
X168540000Y-58151928D01*
X166740000Y-58151928D01*
X166615518Y-58164188D01*
X166495820Y-58200498D01*
X166385506Y-58259463D01*
X166288815Y-58338815D01*
X166209463Y-58435506D01*
X166150498Y-58545820D01*
X166144944Y-58564127D01*
X166078505Y-58497688D01*
X165827095Y-58329701D01*
X165547743Y-58213989D01*
X165251184Y-58155000D01*
X164948816Y-58155000D01*
X164652257Y-58213989D01*
X164372905Y-58329701D01*
X164121495Y-58497688D01*
X163907688Y-58711495D01*
X163739701Y-58962905D01*
X163623989Y-59242257D01*
X163565000Y-59538816D01*
X163565000Y-59841184D01*
X163623989Y-60137743D01*
X163739701Y-60417095D01*
X163907688Y-60668505D01*
X164121495Y-60882312D01*
X164372905Y-61050299D01*
X164652257Y-61166011D01*
X164948816Y-61225000D01*
X165251184Y-61225000D01*
X165547743Y-61166011D01*
X165827095Y-61050299D01*
X166078505Y-60882312D01*
X166144944Y-60815873D01*
X166150498Y-60834180D01*
X166209463Y-60944494D01*
X166288815Y-61041185D01*
X166385506Y-61120537D01*
X166495820Y-61179502D01*
X166615518Y-61215812D01*
X166740000Y-61228072D01*
X166755000Y-61228072D01*
X166755000Y-61228421D01*
X166638422Y-61345000D01*
X118788465Y-61345000D01*
X118744999Y-61340719D01*
X118701533Y-61345000D01*
X118701523Y-61345000D01*
X118571510Y-61357805D01*
X118404687Y-61408411D01*
X118250941Y-61490589D01*
X118250939Y-61490590D01*
X118250940Y-61490590D01*
X118149953Y-61573468D01*
X118149951Y-61573470D01*
X118116183Y-61601183D01*
X118088470Y-61634951D01*
X117404951Y-62318471D01*
X117371184Y-62346183D01*
X117343471Y-62379951D01*
X117343468Y-62379954D01*
X117260590Y-62480941D01*
X117178412Y-62634687D01*
X117127805Y-62801510D01*
X117116931Y-62911928D01*
X116925000Y-62911928D01*
X116800518Y-62924188D01*
X116800000Y-62924345D01*
X116799482Y-62924188D01*
X116675000Y-62911928D01*
X116125000Y-62911928D01*
X116000518Y-62924188D01*
X116000000Y-62924345D01*
X115999482Y-62924188D01*
X115875000Y-62911928D01*
X115325000Y-62911928D01*
X115200518Y-62924188D01*
X115200000Y-62924345D01*
X115199482Y-62924188D01*
X115075000Y-62911928D01*
X114885000Y-62911928D01*
X114885000Y-56366578D01*
X114994579Y-56257000D01*
X115258315Y-56257000D01*
X115449114Y-56447799D01*
X115675957Y-56599371D01*
X115928011Y-56703775D01*
X116195589Y-56757000D01*
X116468411Y-56757000D01*
X116735989Y-56703775D01*
X116988043Y-56599371D01*
X117214886Y-56447799D01*
X117405685Y-56257000D01*
X121505422Y-56257000D01*
X122115000Y-56866579D01*
X122115001Y-58365478D01*
X122085241Y-58385363D01*
X121885363Y-58585241D01*
X121728320Y-58820273D01*
X121620147Y-59081426D01*
X121565000Y-59358665D01*
X121565000Y-59641335D01*
X121620147Y-59918574D01*
X121728320Y-60179727D01*
X121885363Y-60414759D01*
X122085241Y-60614637D01*
X122320273Y-60771680D01*
X122581426Y-60879853D01*
X122858665Y-60935000D01*
X123141335Y-60935000D01*
X123418574Y-60879853D01*
X123679727Y-60771680D01*
X123914759Y-60614637D01*
X124114637Y-60414759D01*
X124271680Y-60179727D01*
X124379853Y-59918574D01*
X124435000Y-59641335D01*
X124435000Y-59548665D01*
X150965000Y-59548665D01*
X150965000Y-59831335D01*
X151020147Y-60108574D01*
X151128320Y-60369727D01*
X151285363Y-60604759D01*
X151485241Y-60804637D01*
X151720273Y-60961680D01*
X151981426Y-61069853D01*
X152258665Y-61125000D01*
X152541335Y-61125000D01*
X152818574Y-61069853D01*
X153079727Y-60961680D01*
X153314759Y-60804637D01*
X153514637Y-60604759D01*
X153671680Y-60369727D01*
X153779853Y-60108574D01*
X153835000Y-59831335D01*
X153835000Y-59548665D01*
X158585000Y-59548665D01*
X158585000Y-59831335D01*
X158640147Y-60108574D01*
X158748320Y-60369727D01*
X158905363Y-60604759D01*
X159105241Y-60804637D01*
X159340273Y-60961680D01*
X159601426Y-61069853D01*
X159878665Y-61125000D01*
X160161335Y-61125000D01*
X160438574Y-61069853D01*
X160699727Y-60961680D01*
X160934759Y-60804637D01*
X161134637Y-60604759D01*
X161291680Y-60369727D01*
X161399853Y-60108574D01*
X161455000Y-59831335D01*
X161455000Y-59548665D01*
X161399853Y-59271426D01*
X161291680Y-59010273D01*
X161134637Y-58775241D01*
X160934759Y-58575363D01*
X160699727Y-58418320D01*
X160438574Y-58310147D01*
X160161335Y-58255000D01*
X159878665Y-58255000D01*
X159601426Y-58310147D01*
X159340273Y-58418320D01*
X159105241Y-58575363D01*
X158905363Y-58775241D01*
X158748320Y-59010273D01*
X158640147Y-59271426D01*
X158585000Y-59548665D01*
X153835000Y-59548665D01*
X153779853Y-59271426D01*
X153671680Y-59010273D01*
X153514637Y-58775241D01*
X153314759Y-58575363D01*
X153079727Y-58418320D01*
X152818574Y-58310147D01*
X152541335Y-58255000D01*
X152258665Y-58255000D01*
X151981426Y-58310147D01*
X151720273Y-58418320D01*
X151485241Y-58575363D01*
X151285363Y-58775241D01*
X151128320Y-59010273D01*
X151020147Y-59271426D01*
X150965000Y-59548665D01*
X124435000Y-59548665D01*
X124435000Y-59358665D01*
X124379853Y-59081426D01*
X124271680Y-58820273D01*
X124114637Y-58585241D01*
X123914759Y-58385363D01*
X123885000Y-58365479D01*
X123885000Y-56543469D01*
X123889281Y-56500000D01*
X123885000Y-56456531D01*
X123885000Y-56456523D01*
X123872195Y-56326510D01*
X123821589Y-56159687D01*
X123739411Y-56005941D01*
X123707491Y-55967047D01*
X123656532Y-55904953D01*
X123656530Y-55904951D01*
X123628817Y-55871183D01*
X123595050Y-55843471D01*
X122528534Y-54776956D01*
X122500817Y-54743183D01*
X122366059Y-54632589D01*
X122212313Y-54550411D01*
X122045490Y-54499805D01*
X121915477Y-54487000D01*
X121915469Y-54487000D01*
X121872000Y-54482719D01*
X121828531Y-54487000D01*
X117405685Y-54487000D01*
X117214886Y-54296201D01*
X116988043Y-54144629D01*
X116735989Y-54040225D01*
X116468411Y-53987000D01*
X116195589Y-53987000D01*
X115928011Y-54040225D01*
X115675957Y-54144629D01*
X115449114Y-54296201D01*
X115258315Y-54487000D01*
X114671465Y-54487000D01*
X114627999Y-54482719D01*
X114584533Y-54487000D01*
X114584523Y-54487000D01*
X114454510Y-54499805D01*
X114287687Y-54550411D01*
X114133941Y-54632589D01*
X114133939Y-54632590D01*
X114133940Y-54632590D01*
X114032953Y-54715468D01*
X114032951Y-54715470D01*
X113999183Y-54743183D01*
X113971470Y-54776951D01*
X113750000Y-54998422D01*
X113528534Y-54776956D01*
X113500817Y-54743183D01*
X113366059Y-54632589D01*
X113212313Y-54550411D01*
X113045490Y-54499805D01*
X112915477Y-54487000D01*
X112915469Y-54487000D01*
X112872000Y-54482719D01*
X112828531Y-54487000D01*
X112525685Y-54487000D01*
X112334886Y-54296201D01*
X112108043Y-54144629D01*
X111855989Y-54040225D01*
X111588411Y-53987000D01*
X111315589Y-53987000D01*
X111048011Y-54040225D01*
X110795957Y-54144629D01*
X110569114Y-54296201D01*
X110378315Y-54487000D01*
X106921465Y-54487000D01*
X106877999Y-54482719D01*
X106834533Y-54487000D01*
X106834523Y-54487000D01*
X106704510Y-54499805D01*
X106537687Y-54550411D01*
X106383941Y-54632589D01*
X106383939Y-54632590D01*
X106383940Y-54632590D01*
X106282953Y-54715468D01*
X106282951Y-54715470D01*
X106249183Y-54743183D01*
X106221470Y-54776951D01*
X105883422Y-55115000D01*
X103884521Y-55115000D01*
X103864637Y-55085241D01*
X103664759Y-54885363D01*
X103429727Y-54728320D01*
X103168574Y-54620147D01*
X102891335Y-54565000D01*
X102608665Y-54565000D01*
X102331426Y-54620147D01*
X102070273Y-54728320D01*
X101835241Y-54885363D01*
X101635363Y-55085241D01*
X101478320Y-55320273D01*
X101370147Y-55581426D01*
X101315000Y-55858665D01*
X101315000Y-56141335D01*
X101370147Y-56418574D01*
X101478320Y-56679727D01*
X101635363Y-56914759D01*
X101835241Y-57114637D01*
X102070273Y-57271680D01*
X102331426Y-57379853D01*
X102608665Y-57435000D01*
X102891335Y-57435000D01*
X103168574Y-57379853D01*
X103429727Y-57271680D01*
X103664759Y-57114637D01*
X103864637Y-56914759D01*
X103884521Y-56885000D01*
X106206531Y-56885000D01*
X106250000Y-56889281D01*
X106293469Y-56885000D01*
X106293477Y-56885000D01*
X106423490Y-56872195D01*
X106590313Y-56821589D01*
X106744059Y-56739411D01*
X106878817Y-56628817D01*
X106906534Y-56595044D01*
X107244579Y-56257000D01*
X110378315Y-56257000D01*
X110569114Y-56447799D01*
X110795957Y-56599371D01*
X111048011Y-56703775D01*
X111315589Y-56757000D01*
X111588411Y-56757000D01*
X111855989Y-56703775D01*
X112108043Y-56599371D01*
X112334886Y-56447799D01*
X112365001Y-56417684D01*
X112365000Y-62915000D01*
X112272998Y-62915000D01*
X112272998Y-63055166D01*
X112229494Y-63019463D01*
X112206333Y-63007083D01*
X112114250Y-62915000D01*
X112000663Y-62924546D01*
X111999482Y-62924188D01*
X111875000Y-62911928D01*
X111685000Y-62911928D01*
X111685000Y-60678465D01*
X111689281Y-60634999D01*
X111685000Y-60591533D01*
X111685000Y-60591523D01*
X111672195Y-60461510D01*
X111621589Y-60294687D01*
X111539411Y-60140941D01*
X111428817Y-60006183D01*
X111395050Y-59978471D01*
X109876534Y-58459956D01*
X109848817Y-58426183D01*
X109714059Y-58315589D01*
X109560313Y-58233411D01*
X109393490Y-58182805D01*
X109263477Y-58170000D01*
X109263469Y-58170000D01*
X109220000Y-58165719D01*
X109176531Y-58170000D01*
X101966579Y-58170000D01*
X99945000Y-56148422D01*
X99945000Y-54653477D01*
X99949282Y-54610000D01*
X99945000Y-54566523D01*
X99945000Y-53833665D01*
X150965000Y-53833665D01*
X150965000Y-54116335D01*
X151020147Y-54393574D01*
X151128320Y-54654727D01*
X151285363Y-54889759D01*
X151485241Y-55089637D01*
X151720273Y-55246680D01*
X151981426Y-55354853D01*
X152258665Y-55410000D01*
X152541335Y-55410000D01*
X152818574Y-55354853D01*
X153079727Y-55246680D01*
X153314759Y-55089637D01*
X153514637Y-54889759D01*
X153671680Y-54654727D01*
X153779853Y-54393574D01*
X153835000Y-54116335D01*
X153835000Y-53833665D01*
X158585000Y-53833665D01*
X158585000Y-54116335D01*
X158640147Y-54393574D01*
X158748320Y-54654727D01*
X158905363Y-54889759D01*
X159105241Y-55089637D01*
X159340273Y-55246680D01*
X159601426Y-55354853D01*
X159878665Y-55410000D01*
X160161335Y-55410000D01*
X160438574Y-55354853D01*
X160699727Y-55246680D01*
X160934759Y-55089637D01*
X161134637Y-54889759D01*
X161291680Y-54654727D01*
X161399853Y-54393574D01*
X161455000Y-54116335D01*
X161455000Y-53833665D01*
X161453041Y-53823816D01*
X163565000Y-53823816D01*
X163565000Y-54126184D01*
X163623989Y-54422743D01*
X163739701Y-54702095D01*
X163907688Y-54953505D01*
X164121495Y-55167312D01*
X164372905Y-55335299D01*
X164652257Y-55451011D01*
X164948816Y-55510000D01*
X165251184Y-55510000D01*
X165547743Y-55451011D01*
X165827095Y-55335299D01*
X166078505Y-55167312D01*
X166144944Y-55100873D01*
X166150498Y-55119180D01*
X166209463Y-55229494D01*
X166288815Y-55326185D01*
X166385506Y-55405537D01*
X166495820Y-55464502D01*
X166615518Y-55500812D01*
X166740000Y-55513072D01*
X168540000Y-55513072D01*
X168664482Y-55500812D01*
X168784180Y-55464502D01*
X168894494Y-55405537D01*
X168991185Y-55326185D01*
X169070537Y-55229494D01*
X169129502Y-55119180D01*
X169165812Y-54999482D01*
X169178072Y-54875000D01*
X169178072Y-53075000D01*
X169165812Y-52950518D01*
X169129502Y-52830820D01*
X169070537Y-52720506D01*
X168991185Y-52623815D01*
X168894494Y-52544463D01*
X168784180Y-52485498D01*
X168664482Y-52449188D01*
X168540000Y-52436928D01*
X166740000Y-52436928D01*
X166615518Y-52449188D01*
X166495820Y-52485498D01*
X166385506Y-52544463D01*
X166288815Y-52623815D01*
X166209463Y-52720506D01*
X166150498Y-52830820D01*
X166144944Y-52849127D01*
X166078505Y-52782688D01*
X165827095Y-52614701D01*
X165547743Y-52498989D01*
X165251184Y-52440000D01*
X164948816Y-52440000D01*
X164652257Y-52498989D01*
X164372905Y-52614701D01*
X164121495Y-52782688D01*
X163907688Y-52996495D01*
X163739701Y-53247905D01*
X163623989Y-53527257D01*
X163565000Y-53823816D01*
X161453041Y-53823816D01*
X161399853Y-53556426D01*
X161291680Y-53295273D01*
X161134637Y-53060241D01*
X160934759Y-52860363D01*
X160699727Y-52703320D01*
X160438574Y-52595147D01*
X160161335Y-52540000D01*
X159878665Y-52540000D01*
X159601426Y-52595147D01*
X159340273Y-52703320D01*
X159105241Y-52860363D01*
X158905363Y-53060241D01*
X158748320Y-53295273D01*
X158640147Y-53556426D01*
X158585000Y-53833665D01*
X153835000Y-53833665D01*
X153779853Y-53556426D01*
X153671680Y-53295273D01*
X153514637Y-53060241D01*
X153314759Y-52860363D01*
X153079727Y-52703320D01*
X152818574Y-52595147D01*
X152541335Y-52540000D01*
X152258665Y-52540000D01*
X151981426Y-52595147D01*
X151720273Y-52703320D01*
X151485241Y-52860363D01*
X151285363Y-53060241D01*
X151128320Y-53295273D01*
X151020147Y-53556426D01*
X150965000Y-53833665D01*
X99945000Y-53833665D01*
X99945000Y-51992702D01*
X101936903Y-51992702D01*
X102008486Y-52236671D01*
X102263996Y-52357571D01*
X102538184Y-52426300D01*
X102820512Y-52440217D01*
X103100130Y-52398787D01*
X103366292Y-52303603D01*
X103491514Y-52236671D01*
X103563097Y-51992702D01*
X102750000Y-51179605D01*
X101936903Y-51992702D01*
X99945000Y-51992702D01*
X99945000Y-50971576D01*
X100281578Y-50634999D01*
X101362098Y-50634999D01*
X101323700Y-50788184D01*
X101309783Y-51070512D01*
X101351213Y-51350130D01*
X101446397Y-51616292D01*
X101513329Y-51741514D01*
X101757298Y-51813097D01*
X102570395Y-51000000D01*
X102556253Y-50985858D01*
X102735858Y-50806253D01*
X102750000Y-50820395D01*
X102764143Y-50806253D01*
X102943748Y-50985858D01*
X102929605Y-51000000D01*
X103742702Y-51813097D01*
X103986671Y-51741514D01*
X104107571Y-51486004D01*
X104176300Y-51211816D01*
X104190217Y-50929488D01*
X104148787Y-50649870D01*
X104143469Y-50634999D01*
X168128421Y-50634999D01*
X170565001Y-53071580D01*
X170565000Y-65038421D01*
X161329952Y-74273470D01*
X161296184Y-74301183D01*
X161268471Y-74334951D01*
X161268468Y-74334954D01*
X161185590Y-74435941D01*
X161103412Y-74589687D01*
X161052805Y-74756510D01*
X161035719Y-74930000D01*
X161040001Y-74973479D01*
X161040000Y-76220344D01*
X160978368Y-76261525D01*
X160771525Y-76468368D01*
X160609010Y-76711589D01*
X160497068Y-76981842D01*
X160440000Y-77268740D01*
X160440000Y-77561260D01*
X160497068Y-77848158D01*
X160609010Y-78118411D01*
X160771525Y-78361632D01*
X160978368Y-78568475D01*
X161221589Y-78730990D01*
X161491842Y-78842932D01*
X161778740Y-78900000D01*
X162071260Y-78900000D01*
X162358158Y-78842932D01*
X162628411Y-78730990D01*
X162871632Y-78568475D01*
X163078475Y-78361632D01*
X163240990Y-78118411D01*
X163352932Y-77848158D01*
X163410000Y-77561260D01*
X163410000Y-77268740D01*
X166940000Y-77268740D01*
X166940000Y-77561260D01*
X166997068Y-77848158D01*
X167109010Y-78118411D01*
X167271525Y-78361632D01*
X167478368Y-78568475D01*
X167721589Y-78730990D01*
X167991842Y-78842932D01*
X168278740Y-78900000D01*
X168571260Y-78900000D01*
X168858158Y-78842932D01*
X169128411Y-78730990D01*
X169371632Y-78568475D01*
X169578475Y-78361632D01*
X169740990Y-78118411D01*
X169852932Y-77848158D01*
X169910000Y-77561260D01*
X169910000Y-77268740D01*
X169852932Y-76981842D01*
X169740990Y-76711589D01*
X169578475Y-76468368D01*
X169371632Y-76261525D01*
X169128411Y-76099010D01*
X168858158Y-75987068D01*
X168571260Y-75930000D01*
X168278740Y-75930000D01*
X167991842Y-75987068D01*
X167721589Y-76099010D01*
X167478368Y-76261525D01*
X167271525Y-76468368D01*
X167109010Y-76711589D01*
X166997068Y-76981842D01*
X166940000Y-77268740D01*
X163410000Y-77268740D01*
X163352932Y-76981842D01*
X163240990Y-76711589D01*
X163078475Y-76468368D01*
X162871632Y-76261525D01*
X162810000Y-76220344D01*
X162810000Y-75296578D01*
X172045051Y-66061528D01*
X172078817Y-66033817D01*
X172106533Y-66000046D01*
X172183296Y-65906510D01*
X172189411Y-65899059D01*
X172271589Y-65745313D01*
X172322195Y-65578490D01*
X172335000Y-65448477D01*
X172335000Y-65448467D01*
X172339281Y-65405001D01*
X172335000Y-65361535D01*
X172335000Y-52748465D01*
X172339281Y-52704999D01*
X172335000Y-52661533D01*
X172335000Y-52661523D01*
X172322195Y-52531510D01*
X172271589Y-52364687D01*
X172189411Y-52210941D01*
X172078817Y-52076183D01*
X172045049Y-52048470D01*
X169151533Y-49154955D01*
X169123816Y-49121182D01*
X168989058Y-49010588D01*
X168835312Y-48928410D01*
X168668489Y-48877804D01*
X168538476Y-48864999D01*
X168538468Y-48864999D01*
X168494999Y-48860718D01*
X168451530Y-48864999D01*
X99958464Y-48864999D01*
X99914998Y-48860718D01*
X99871532Y-48864999D01*
X99871522Y-48864999D01*
X99741509Y-48877804D01*
X99574686Y-48928410D01*
X99420940Y-49010588D01*
X99420938Y-49010589D01*
X99420939Y-49010589D01*
X99319952Y-49093467D01*
X99319950Y-49093469D01*
X99286182Y-49121182D01*
X99258469Y-49154950D01*
X98464956Y-49948464D01*
X98431183Y-49976181D01*
X98320589Y-50110940D01*
X98238411Y-50264686D01*
X98203157Y-50380902D01*
X98202306Y-50383708D01*
X98187805Y-50431509D01*
X98175000Y-50561522D01*
X98175000Y-50561529D01*
X98170719Y-50604998D01*
X98175000Y-50648467D01*
X98175001Y-53725000D01*
X64875059Y-53725000D01*
X64808370Y-53625191D01*
X64854494Y-53600537D01*
X64951185Y-53521185D01*
X65030537Y-53424494D01*
X65089502Y-53314180D01*
X65125812Y-53194482D01*
X65138072Y-53070000D01*
X65138072Y-51070000D01*
X65125812Y-50945518D01*
X65089502Y-50825820D01*
X65030537Y-50715506D01*
X64951185Y-50618815D01*
X64854494Y-50539463D01*
X64744180Y-50480498D01*
X64624482Y-50444188D01*
X64500000Y-50431928D01*
X62500000Y-50431928D01*
X62375518Y-50444188D01*
X62255820Y-50480498D01*
X62145506Y-50539463D01*
X62048815Y-50618815D01*
X61969463Y-50715506D01*
X61910498Y-50825820D01*
X61874188Y-50945518D01*
X61861928Y-51070000D01*
X61861928Y-51185000D01*
X61765465Y-51185000D01*
X61721999Y-51180719D01*
X61678533Y-51185000D01*
X61678523Y-51185000D01*
X61548510Y-51197805D01*
X61381687Y-51248411D01*
X61227941Y-51330589D01*
X61227939Y-51330590D01*
X61227940Y-51330590D01*
X61126953Y-51413468D01*
X61126951Y-51413470D01*
X61093183Y-51441183D01*
X61065470Y-51474951D01*
X58840951Y-53699471D01*
X58807184Y-53727183D01*
X58779471Y-53760951D01*
X58779468Y-53760954D01*
X58696590Y-53861941D01*
X58614412Y-54015687D01*
X58591801Y-54090222D01*
X54567000Y-50065422D01*
X54567000Y-49788454D01*
X54599205Y-49740256D01*
X54677226Y-49551898D01*
X54717000Y-49351939D01*
X54717000Y-49148061D01*
X54677226Y-48948102D01*
X54599205Y-48759744D01*
X54485937Y-48590226D01*
X54341774Y-48446063D01*
X54172256Y-48332795D01*
X53983898Y-48254774D01*
X53783939Y-48215000D01*
X53580061Y-48215000D01*
X53380102Y-48254774D01*
X53191744Y-48332795D01*
X53022226Y-48446063D01*
X52878063Y-48590226D01*
X52764795Y-48759744D01*
X52686774Y-48948102D01*
X52660000Y-49082705D01*
X52660000Y-41976521D01*
X55180979Y-41976521D01*
X55180979Y-42423479D01*
X55268176Y-42861849D01*
X55439220Y-43274785D01*
X55687536Y-43646417D01*
X56003583Y-43962464D01*
X56375215Y-44210780D01*
X56788151Y-44381824D01*
X57226521Y-44469021D01*
X57673479Y-44469021D01*
X58111849Y-44381824D01*
X58524785Y-44210780D01*
X58896417Y-43962464D01*
X59212464Y-43646417D01*
X59460780Y-43274785D01*
X59631824Y-42861849D01*
X59719021Y-42423479D01*
X59719021Y-41976521D01*
X168780979Y-41976521D01*
X168780979Y-42423479D01*
X168868176Y-42861849D01*
X169039220Y-43274785D01*
X169287536Y-43646417D01*
X169603583Y-43962464D01*
X169975215Y-44210780D01*
X170388151Y-44381824D01*
X170826521Y-44469021D01*
X171273479Y-44469021D01*
X171711849Y-44381824D01*
X172124785Y-44210780D01*
X172496417Y-43962464D01*
X172812464Y-43646417D01*
X173060780Y-43274785D01*
X173231824Y-42861849D01*
X173319021Y-42423479D01*
X173319021Y-41976521D01*
X173231824Y-41538151D01*
X173060780Y-41125215D01*
X172812464Y-40753583D01*
X172496417Y-40437536D01*
X172124785Y-40189220D01*
X171711849Y-40018176D01*
X171273479Y-39930979D01*
X170826521Y-39930979D01*
X170388151Y-40018176D01*
X169975215Y-40189220D01*
X169603583Y-40437536D01*
X169287536Y-40753583D01*
X169039220Y-41125215D01*
X168868176Y-41538151D01*
X168780979Y-41976521D01*
X59719021Y-41976521D01*
X59631824Y-41538151D01*
X59460780Y-41125215D01*
X59212464Y-40753583D01*
X58896417Y-40437536D01*
X58524785Y-40189220D01*
X58111849Y-40018176D01*
X57673479Y-39930979D01*
X57226521Y-39930979D01*
X56788151Y-40018176D01*
X56375215Y-40189220D01*
X56003583Y-40437536D01*
X55687536Y-40753583D01*
X55439220Y-41125215D01*
X55268176Y-41538151D01*
X55180979Y-41976521D01*
X52660000Y-41976521D01*
X52660000Y-28600000D01*
X175870000Y-28600000D01*
X175870001Y-90962529D01*
G36*
X62230013Y-55652252D02*
G01*
X62457748Y-55879987D01*
X62457767Y-55880000D01*
X62457748Y-55880013D01*
X62230013Y-56107748D01*
X62051082Y-56375537D01*
X61927832Y-56673088D01*
X61865000Y-56988967D01*
X61865000Y-57311033D01*
X61927832Y-57626912D01*
X62051082Y-57924463D01*
X62230013Y-58192252D01*
X62457748Y-58419987D01*
X62457767Y-58420000D01*
X62457748Y-58420013D01*
X62230013Y-58647748D01*
X62051082Y-58915537D01*
X61927832Y-59213088D01*
X61865000Y-59528967D01*
X61865000Y-59851033D01*
X61927832Y-60166912D01*
X62051082Y-60464463D01*
X62230013Y-60732252D01*
X62457748Y-60959987D01*
X62457767Y-60960000D01*
X62457748Y-60960013D01*
X62230013Y-61187748D01*
X62051082Y-61455537D01*
X61927832Y-61753088D01*
X61865000Y-62068967D01*
X61865000Y-62391033D01*
X61927832Y-62706912D01*
X62051082Y-63004463D01*
X62230013Y-63272252D01*
X62457748Y-63499987D01*
X62470282Y-63508362D01*
X62300252Y-63659215D01*
X62106601Y-63914618D01*
X61966498Y-64202893D01*
X61909876Y-64389566D01*
X62029223Y-64643000D01*
X63373000Y-64643000D01*
X63373000Y-64623000D01*
X63627000Y-64623000D01*
X63627000Y-64643000D01*
X64970777Y-64643000D01*
X65090124Y-64389566D01*
X65033502Y-64202893D01*
X64893399Y-63914618D01*
X64699748Y-63659215D01*
X64529718Y-63508362D01*
X64542252Y-63499987D01*
X64769987Y-63272252D01*
X64875059Y-63115000D01*
X87103381Y-63115000D01*
X89183381Y-65195000D01*
X85249701Y-65195000D01*
X85245812Y-65155518D01*
X85209502Y-65035820D01*
X85150537Y-64925506D01*
X85071185Y-64828815D01*
X84974494Y-64749463D01*
X84864180Y-64690498D01*
X84744482Y-64654188D01*
X84620000Y-64641928D01*
X83020000Y-64641928D01*
X82895518Y-64654188D01*
X82775820Y-64690498D01*
X82665506Y-64749463D01*
X82568815Y-64828815D01*
X82489463Y-64925506D01*
X82430498Y-65035820D01*
X82394188Y-65155518D01*
X82381928Y-65280000D01*
X82381928Y-66880000D01*
X82394188Y-67004482D01*
X82430498Y-67124180D01*
X82489463Y-67234494D01*
X82568815Y-67331185D01*
X82665506Y-67410537D01*
X82775820Y-67469502D01*
X82895518Y-67505812D01*
X83020000Y-67518072D01*
X83027215Y-67518072D01*
X83006903Y-67587298D01*
X83820000Y-68400395D01*
X84633097Y-67587298D01*
X84612785Y-67518072D01*
X84620000Y-67518072D01*
X84744482Y-67505812D01*
X84864180Y-67469502D01*
X84974494Y-67410537D01*
X85071185Y-67331185D01*
X85150537Y-67234494D01*
X85209502Y-67124180D01*
X85245812Y-67004482D01*
X85249701Y-66965000D01*
X89963419Y-66965000D01*
X90311060Y-67312642D01*
X90188708Y-67356397D01*
X90063486Y-67423329D01*
X89991903Y-67667298D01*
X90805000Y-68480395D01*
X90819143Y-68466253D01*
X90998748Y-68645858D01*
X90984605Y-68660000D01*
X91797702Y-69473097D01*
X92041671Y-69401514D01*
X92162571Y-69146004D01*
X92173533Y-69102272D01*
X92209692Y-69121599D01*
X92316295Y-69153937D01*
X92376516Y-69172205D01*
X92506529Y-69185010D01*
X92506537Y-69185010D01*
X92550006Y-69189291D01*
X92593475Y-69185010D01*
X104763432Y-69185010D01*
X106173470Y-70595049D01*
X106201183Y-70628817D01*
X106234951Y-70656530D01*
X106234953Y-70656532D01*
X106300880Y-70710637D01*
X106306196Y-70715000D01*
X105943465Y-70715000D01*
X105899999Y-70710719D01*
X105856533Y-70715000D01*
X105856523Y-70715000D01*
X105726510Y-70727805D01*
X105559687Y-70778411D01*
X105405941Y-70860589D01*
X105405939Y-70860590D01*
X105405940Y-70860590D01*
X105304953Y-70943468D01*
X105304951Y-70943470D01*
X105271183Y-70971183D01*
X105243470Y-71004951D01*
X104754957Y-71493465D01*
X104698102Y-71504774D01*
X104509744Y-71582795D01*
X104340226Y-71696063D01*
X104196063Y-71840226D01*
X104082795Y-72009744D01*
X104004774Y-72198102D01*
X103965000Y-72398061D01*
X103965000Y-72601939D01*
X103999424Y-72775000D01*
X91939521Y-72775000D01*
X91919637Y-72745241D01*
X91719759Y-72545363D01*
X91484727Y-72388320D01*
X91223574Y-72280147D01*
X90946335Y-72225000D01*
X90663665Y-72225000D01*
X90386426Y-72280147D01*
X90125273Y-72388320D01*
X89890241Y-72545363D01*
X89690363Y-72745241D01*
X89670479Y-72775000D01*
X88634521Y-72775000D01*
X88614637Y-72745241D01*
X88414759Y-72545363D01*
X88179727Y-72388320D01*
X87918574Y-72280147D01*
X87641335Y-72225000D01*
X87358665Y-72225000D01*
X87081426Y-72280147D01*
X86820273Y-72388320D01*
X86585241Y-72545363D01*
X86385363Y-72745241D01*
X86228320Y-72980273D01*
X86120147Y-73241426D01*
X86065000Y-73518665D01*
X86065000Y-73801335D01*
X86071983Y-73836439D01*
X83453422Y-76455000D01*
X70023465Y-76455000D01*
X69979999Y-76450719D01*
X69936533Y-76455000D01*
X69936523Y-76455000D01*
X69806510Y-76467805D01*
X69639687Y-76518411D01*
X69485941Y-76600589D01*
X69485939Y-76600590D01*
X69485940Y-76600590D01*
X69384953Y-76683468D01*
X69384951Y-76683470D01*
X69351183Y-76711183D01*
X69323470Y-76744951D01*
X65673422Y-80395000D01*
X64375059Y-80395000D01*
X64269987Y-80237748D01*
X64042252Y-80010013D01*
X64042233Y-80010000D01*
X64042252Y-80009987D01*
X64269987Y-79782252D01*
X64448918Y-79514463D01*
X64572168Y-79216912D01*
X64635000Y-78901033D01*
X64635000Y-78578967D01*
X64572168Y-78263088D01*
X64448918Y-77965537D01*
X64269987Y-77697748D01*
X64042252Y-77470013D01*
X64042233Y-77470000D01*
X64042252Y-77469987D01*
X64269987Y-77242252D01*
X64448918Y-76974463D01*
X64572168Y-76676912D01*
X64635000Y-76361033D01*
X64635000Y-76038967D01*
X64572168Y-75723088D01*
X64448918Y-75425537D01*
X64308370Y-75215191D01*
X64354494Y-75190537D01*
X64451185Y-75111185D01*
X64530537Y-75014494D01*
X64589502Y-74904180D01*
X64625812Y-74784482D01*
X64638072Y-74660000D01*
X64635000Y-73945750D01*
X64476250Y-73787000D01*
X63127000Y-73787000D01*
X63127000Y-73807000D01*
X62873000Y-73807000D01*
X62873000Y-73787000D01*
X61523750Y-73787000D01*
X61365000Y-73945750D01*
X61361928Y-74660000D01*
X61374188Y-74784482D01*
X61410498Y-74904180D01*
X61469463Y-75014494D01*
X61548815Y-75111185D01*
X61645506Y-75190537D01*
X61691630Y-75215191D01*
X61551082Y-75425537D01*
X61427832Y-75723088D01*
X61365000Y-76038967D01*
X61365000Y-76361033D01*
X61427832Y-76676912D01*
X61551082Y-76974463D01*
X61730013Y-77242252D01*
X61957748Y-77469987D01*
X61957767Y-77470000D01*
X61957748Y-77470013D01*
X61730013Y-77697748D01*
X61551082Y-77965537D01*
X61427832Y-78263088D01*
X61365000Y-78578967D01*
X61365000Y-78901033D01*
X61427832Y-79216912D01*
X61551082Y-79514463D01*
X61730013Y-79782252D01*
X61957748Y-80009987D01*
X61957767Y-80010000D01*
X61957748Y-80010013D01*
X61730013Y-80237748D01*
X61624941Y-80395000D01*
X61326579Y-80395000D01*
X60321000Y-79389422D01*
X60321000Y-72660000D01*
X61361928Y-72660000D01*
X61365000Y-73374250D01*
X61523750Y-73533000D01*
X62873000Y-73533000D01*
X62873000Y-72183750D01*
X63127000Y-72183750D01*
X63127000Y-73533000D01*
X64476250Y-73533000D01*
X64635000Y-73374250D01*
X64638072Y-72660000D01*
X64625812Y-72535518D01*
X64589502Y-72415820D01*
X64530537Y-72305506D01*
X64451185Y-72208815D01*
X64354494Y-72129463D01*
X64244180Y-72070498D01*
X64124482Y-72034188D01*
X64000000Y-72021928D01*
X63285750Y-72025000D01*
X63127000Y-72183750D01*
X62873000Y-72183750D01*
X62714250Y-72025000D01*
X62000000Y-72021928D01*
X61875518Y-72034188D01*
X61755820Y-72070498D01*
X61645506Y-72129463D01*
X61548815Y-72208815D01*
X61469463Y-72305506D01*
X61410498Y-72415820D01*
X61374188Y-72535518D01*
X61361928Y-72660000D01*
X60321000Y-72660000D01*
X60321000Y-66021409D01*
X60331183Y-66033817D01*
X60364956Y-66061534D01*
X61573470Y-67270049D01*
X61601183Y-67303817D01*
X61634951Y-67331530D01*
X61634953Y-67331532D01*
X61665251Y-67356397D01*
X61735941Y-67414411D01*
X61889687Y-67496589D01*
X62056510Y-67547195D01*
X62186523Y-67560000D01*
X62186533Y-67560000D01*
X62229999Y-67564281D01*
X62273465Y-67560000D01*
X65673422Y-67560000D01*
X72368468Y-74255047D01*
X72396183Y-74288817D01*
X72429951Y-74316530D01*
X72429953Y-74316532D01*
X72458216Y-74339727D01*
X72530941Y-74399411D01*
X72684687Y-74481589D01*
X72851510Y-74532195D01*
X72981523Y-74545000D01*
X72981531Y-74545000D01*
X73025000Y-74549281D01*
X73068469Y-74545000D01*
X78745479Y-74545000D01*
X78765363Y-74574759D01*
X78965241Y-74774637D01*
X79200273Y-74931680D01*
X79461426Y-75039853D01*
X79738665Y-75095000D01*
X80021335Y-75095000D01*
X80298574Y-75039853D01*
X80559727Y-74931680D01*
X80794759Y-74774637D01*
X80994637Y-74574759D01*
X81151680Y-74339727D01*
X81259853Y-74078574D01*
X81315000Y-73801335D01*
X81315000Y-73518665D01*
X81259853Y-73241426D01*
X81151680Y-72980273D01*
X80994637Y-72745241D01*
X80794759Y-72545363D01*
X80559727Y-72388320D01*
X80298574Y-72280147D01*
X80021335Y-72225000D01*
X79738665Y-72225000D01*
X79461426Y-72280147D01*
X79200273Y-72388320D01*
X78965241Y-72545363D01*
X78765363Y-72745241D01*
X78745479Y-72775000D01*
X73391579Y-72775000D01*
X70189281Y-69572702D01*
X83006903Y-69572702D01*
X83078486Y-69816671D01*
X83333996Y-69937571D01*
X83608184Y-70006300D01*
X83890512Y-70020217D01*
X84170130Y-69978787D01*
X84436292Y-69883603D01*
X84561514Y-69816671D01*
X84609624Y-69652702D01*
X89991903Y-69652702D01*
X90063486Y-69896671D01*
X90318996Y-70017571D01*
X90593184Y-70086300D01*
X90875512Y-70100217D01*
X91155130Y-70058787D01*
X91421292Y-69963603D01*
X91546514Y-69896671D01*
X91618097Y-69652702D01*
X90805000Y-68839605D01*
X89991903Y-69652702D01*
X84609624Y-69652702D01*
X84633097Y-69572702D01*
X83820000Y-68759605D01*
X83006903Y-69572702D01*
X70189281Y-69572702D01*
X69267091Y-68650512D01*
X82379783Y-68650512D01*
X82421213Y-68930130D01*
X82516397Y-69196292D01*
X82583329Y-69321514D01*
X82827298Y-69393097D01*
X83640395Y-68580000D01*
X83999605Y-68580000D01*
X84812702Y-69393097D01*
X85056671Y-69321514D01*
X85177571Y-69066004D01*
X85246300Y-68791816D01*
X85249321Y-68730512D01*
X89364783Y-68730512D01*
X89406213Y-69010130D01*
X89501397Y-69276292D01*
X89568329Y-69401514D01*
X89812298Y-69473097D01*
X90625395Y-68660000D01*
X89812298Y-67846903D01*
X89568329Y-67918486D01*
X89447429Y-68173996D01*
X89378700Y-68448184D01*
X89364783Y-68730512D01*
X85249321Y-68730512D01*
X85260217Y-68509488D01*
X85218787Y-68229870D01*
X85123603Y-67963708D01*
X85056671Y-67838486D01*
X84812702Y-67766903D01*
X83999605Y-68580000D01*
X83640395Y-68580000D01*
X82827298Y-67766903D01*
X82583329Y-67838486D01*
X82462429Y-68093996D01*
X82393700Y-68368184D01*
X82379783Y-68650512D01*
X69267091Y-68650512D01*
X66696534Y-66079956D01*
X66668817Y-66046183D01*
X66534059Y-65935589D01*
X66380313Y-65853411D01*
X66213490Y-65802805D01*
X66083477Y-65790000D01*
X66083469Y-65790000D01*
X66040000Y-65785719D01*
X65996531Y-65790000D01*
X64768583Y-65790000D01*
X64893399Y-65625382D01*
X65033502Y-65337107D01*
X65090124Y-65150434D01*
X64970777Y-64897000D01*
X63627000Y-64897000D01*
X63627000Y-64917000D01*
X63373000Y-64917000D01*
X63373000Y-64897000D01*
X62029223Y-64897000D01*
X61924967Y-65118389D01*
X61845000Y-65038422D01*
X61845000Y-55611578D01*
X61961579Y-55495000D01*
X62124941Y-55495000D01*
X62230013Y-55652252D01*
G37*
X62230013Y-55652252D02*
X62457748Y-55879987D01*
X62457767Y-55880000D01*
X62457748Y-55880013D01*
X62230013Y-56107748D01*
X62051082Y-56375537D01*
X61927832Y-56673088D01*
X61865000Y-56988967D01*
X61865000Y-57311033D01*
X61927832Y-57626912D01*
X62051082Y-57924463D01*
X62230013Y-58192252D01*
X62457748Y-58419987D01*
X62457767Y-58420000D01*
X62457748Y-58420013D01*
X62230013Y-58647748D01*
X62051082Y-58915537D01*
X61927832Y-59213088D01*
X61865000Y-59528967D01*
X61865000Y-59851033D01*
X61927832Y-60166912D01*
X62051082Y-60464463D01*
X62230013Y-60732252D01*
X62457748Y-60959987D01*
X62457767Y-60960000D01*
X62457748Y-60960013D01*
X62230013Y-61187748D01*
X62051082Y-61455537D01*
X61927832Y-61753088D01*
X61865000Y-62068967D01*
X61865000Y-62391033D01*
X61927832Y-62706912D01*
X62051082Y-63004463D01*
X62230013Y-63272252D01*
X62457748Y-63499987D01*
X62470282Y-63508362D01*
X62300252Y-63659215D01*
X62106601Y-63914618D01*
X61966498Y-64202893D01*
X61909876Y-64389566D01*
X62029223Y-64643000D01*
X63373000Y-64643000D01*
X63373000Y-64623000D01*
X63627000Y-64623000D01*
X63627000Y-64643000D01*
X64970777Y-64643000D01*
X65090124Y-64389566D01*
X65033502Y-64202893D01*
X64893399Y-63914618D01*
X64699748Y-63659215D01*
X64529718Y-63508362D01*
X64542252Y-63499987D01*
X64769987Y-63272252D01*
X64875059Y-63115000D01*
X87103381Y-63115000D01*
X89183381Y-65195000D01*
X85249701Y-65195000D01*
X85245812Y-65155518D01*
X85209502Y-65035820D01*
X85150537Y-64925506D01*
X85071185Y-64828815D01*
X84974494Y-64749463D01*
X84864180Y-64690498D01*
X84744482Y-64654188D01*
X84620000Y-64641928D01*
X83020000Y-64641928D01*
X82895518Y-64654188D01*
X82775820Y-64690498D01*
X82665506Y-64749463D01*
X82568815Y-64828815D01*
X82489463Y-64925506D01*
X82430498Y-65035820D01*
X82394188Y-65155518D01*
X82381928Y-65280000D01*
X82381928Y-66880000D01*
X82394188Y-67004482D01*
X82430498Y-67124180D01*
X82489463Y-67234494D01*
X82568815Y-67331185D01*
X82665506Y-67410537D01*
X82775820Y-67469502D01*
X82895518Y-67505812D01*
X83020000Y-67518072D01*
X83027215Y-67518072D01*
X83006903Y-67587298D01*
X83820000Y-68400395D01*
X84633097Y-67587298D01*
X84612785Y-67518072D01*
X84620000Y-67518072D01*
X84744482Y-67505812D01*
X84864180Y-67469502D01*
X84974494Y-67410537D01*
X85071185Y-67331185D01*
X85150537Y-67234494D01*
X85209502Y-67124180D01*
X85245812Y-67004482D01*
X85249701Y-66965000D01*
X89963419Y-66965000D01*
X90311060Y-67312642D01*
X90188708Y-67356397D01*
X90063486Y-67423329D01*
X89991903Y-67667298D01*
X90805000Y-68480395D01*
X90819143Y-68466253D01*
X90998748Y-68645858D01*
X90984605Y-68660000D01*
X91797702Y-69473097D01*
X92041671Y-69401514D01*
X92162571Y-69146004D01*
X92173533Y-69102272D01*
X92209692Y-69121599D01*
X92316295Y-69153937D01*
X92376516Y-69172205D01*
X92506529Y-69185010D01*
X92506537Y-69185010D01*
X92550006Y-69189291D01*
X92593475Y-69185010D01*
X104763432Y-69185010D01*
X106173470Y-70595049D01*
X106201183Y-70628817D01*
X106234951Y-70656530D01*
X106234953Y-70656532D01*
X106300880Y-70710637D01*
X106306196Y-70715000D01*
X105943465Y-70715000D01*
X105899999Y-70710719D01*
X105856533Y-70715000D01*
X105856523Y-70715000D01*
X105726510Y-70727805D01*
X105559687Y-70778411D01*
X105405941Y-70860589D01*
X105405939Y-70860590D01*
X105405940Y-70860590D01*
X105304953Y-70943468D01*
X105304951Y-70943470D01*
X105271183Y-70971183D01*
X105243470Y-71004951D01*
X104754957Y-71493465D01*
X104698102Y-71504774D01*
X104509744Y-71582795D01*
X104340226Y-71696063D01*
X104196063Y-71840226D01*
X104082795Y-72009744D01*
X104004774Y-72198102D01*
X103965000Y-72398061D01*
X103965000Y-72601939D01*
X103999424Y-72775000D01*
X91939521Y-72775000D01*
X91919637Y-72745241D01*
X91719759Y-72545363D01*
X91484727Y-72388320D01*
X91223574Y-72280147D01*
X90946335Y-72225000D01*
X90663665Y-72225000D01*
X90386426Y-72280147D01*
X90125273Y-72388320D01*
X89890241Y-72545363D01*
X89690363Y-72745241D01*
X89670479Y-72775000D01*
X88634521Y-72775000D01*
X88614637Y-72745241D01*
X88414759Y-72545363D01*
X88179727Y-72388320D01*
X87918574Y-72280147D01*
X87641335Y-72225000D01*
X87358665Y-72225000D01*
X87081426Y-72280147D01*
X86820273Y-72388320D01*
X86585241Y-72545363D01*
X86385363Y-72745241D01*
X86228320Y-72980273D01*
X86120147Y-73241426D01*
X86065000Y-73518665D01*
X86065000Y-73801335D01*
X86071983Y-73836439D01*
X83453422Y-76455000D01*
X70023465Y-76455000D01*
X69979999Y-76450719D01*
X69936533Y-76455000D01*
X69936523Y-76455000D01*
X69806510Y-76467805D01*
X69639687Y-76518411D01*
X69485941Y-76600589D01*
X69485939Y-76600590D01*
X69485940Y-76600590D01*
X69384953Y-76683468D01*
X69384951Y-76683470D01*
X69351183Y-76711183D01*
X69323470Y-76744951D01*
X65673422Y-80395000D01*
X64375059Y-80395000D01*
X64269987Y-80237748D01*
X64042252Y-80010013D01*
X64042233Y-80010000D01*
X64042252Y-80009987D01*
X64269987Y-79782252D01*
X64448918Y-79514463D01*
X64572168Y-79216912D01*
X64635000Y-78901033D01*
X64635000Y-78578967D01*
X64572168Y-78263088D01*
X64448918Y-77965537D01*
X64269987Y-77697748D01*
X64042252Y-77470013D01*
X64042233Y-77470000D01*
X64042252Y-77469987D01*
X64269987Y-77242252D01*
X64448918Y-76974463D01*
X64572168Y-76676912D01*
X64635000Y-76361033D01*
X64635000Y-76038967D01*
X64572168Y-75723088D01*
X64448918Y-75425537D01*
X64308370Y-75215191D01*
X64354494Y-75190537D01*
X64451185Y-75111185D01*
X64530537Y-75014494D01*
X64589502Y-74904180D01*
X64625812Y-74784482D01*
X64638072Y-74660000D01*
X64635000Y-73945750D01*
X64476250Y-73787000D01*
X63127000Y-73787000D01*
X63127000Y-73807000D01*
X62873000Y-73807000D01*
X62873000Y-73787000D01*
X61523750Y-73787000D01*
X61365000Y-73945750D01*
X61361928Y-74660000D01*
X61374188Y-74784482D01*
X61410498Y-74904180D01*
X61469463Y-75014494D01*
X61548815Y-75111185D01*
X61645506Y-75190537D01*
X61691630Y-75215191D01*
X61551082Y-75425537D01*
X61427832Y-75723088D01*
X61365000Y-76038967D01*
X61365000Y-76361033D01*
X61427832Y-76676912D01*
X61551082Y-76974463D01*
X61730013Y-77242252D01*
X61957748Y-77469987D01*
X61957767Y-77470000D01*
X61957748Y-77470013D01*
X61730013Y-77697748D01*
X61551082Y-77965537D01*
X61427832Y-78263088D01*
X61365000Y-78578967D01*
X61365000Y-78901033D01*
X61427832Y-79216912D01*
X61551082Y-79514463D01*
X61730013Y-79782252D01*
X61957748Y-80009987D01*
X61957767Y-80010000D01*
X61957748Y-80010013D01*
X61730013Y-80237748D01*
X61624941Y-80395000D01*
X61326579Y-80395000D01*
X60321000Y-79389422D01*
X60321000Y-72660000D01*
X61361928Y-72660000D01*
X61365000Y-73374250D01*
X61523750Y-73533000D01*
X62873000Y-73533000D01*
X62873000Y-72183750D01*
X63127000Y-72183750D01*
X63127000Y-73533000D01*
X64476250Y-73533000D01*
X64635000Y-73374250D01*
X64638072Y-72660000D01*
X64625812Y-72535518D01*
X64589502Y-72415820D01*
X64530537Y-72305506D01*
X64451185Y-72208815D01*
X64354494Y-72129463D01*
X64244180Y-72070498D01*
X64124482Y-72034188D01*
X64000000Y-72021928D01*
X63285750Y-72025000D01*
X63127000Y-72183750D01*
X62873000Y-72183750D01*
X62714250Y-72025000D01*
X62000000Y-72021928D01*
X61875518Y-72034188D01*
X61755820Y-72070498D01*
X61645506Y-72129463D01*
X61548815Y-72208815D01*
X61469463Y-72305506D01*
X61410498Y-72415820D01*
X61374188Y-72535518D01*
X61361928Y-72660000D01*
X60321000Y-72660000D01*
X60321000Y-66021409D01*
X60331183Y-66033817D01*
X60364956Y-66061534D01*
X61573470Y-67270049D01*
X61601183Y-67303817D01*
X61634951Y-67331530D01*
X61634953Y-67331532D01*
X61665251Y-67356397D01*
X61735941Y-67414411D01*
X61889687Y-67496589D01*
X62056510Y-67547195D01*
X62186523Y-67560000D01*
X62186533Y-67560000D01*
X62229999Y-67564281D01*
X62273465Y-67560000D01*
X65673422Y-67560000D01*
X72368468Y-74255047D01*
X72396183Y-74288817D01*
X72429951Y-74316530D01*
X72429953Y-74316532D01*
X72458216Y-74339727D01*
X72530941Y-74399411D01*
X72684687Y-74481589D01*
X72851510Y-74532195D01*
X72981523Y-74545000D01*
X72981531Y-74545000D01*
X73025000Y-74549281D01*
X73068469Y-74545000D01*
X78745479Y-74545000D01*
X78765363Y-74574759D01*
X78965241Y-74774637D01*
X79200273Y-74931680D01*
X79461426Y-75039853D01*
X79738665Y-75095000D01*
X80021335Y-75095000D01*
X80298574Y-75039853D01*
X80559727Y-74931680D01*
X80794759Y-74774637D01*
X80994637Y-74574759D01*
X81151680Y-74339727D01*
X81259853Y-74078574D01*
X81315000Y-73801335D01*
X81315000Y-73518665D01*
X81259853Y-73241426D01*
X81151680Y-72980273D01*
X80994637Y-72745241D01*
X80794759Y-72545363D01*
X80559727Y-72388320D01*
X80298574Y-72280147D01*
X80021335Y-72225000D01*
X79738665Y-72225000D01*
X79461426Y-72280147D01*
X79200273Y-72388320D01*
X78965241Y-72545363D01*
X78765363Y-72745241D01*
X78745479Y-72775000D01*
X73391579Y-72775000D01*
X70189281Y-69572702D01*
X83006903Y-69572702D01*
X83078486Y-69816671D01*
X83333996Y-69937571D01*
X83608184Y-70006300D01*
X83890512Y-70020217D01*
X84170130Y-69978787D01*
X84436292Y-69883603D01*
X84561514Y-69816671D01*
X84609624Y-69652702D01*
X89991903Y-69652702D01*
X90063486Y-69896671D01*
X90318996Y-70017571D01*
X90593184Y-70086300D01*
X90875512Y-70100217D01*
X91155130Y-70058787D01*
X91421292Y-69963603D01*
X91546514Y-69896671D01*
X91618097Y-69652702D01*
X90805000Y-68839605D01*
X89991903Y-69652702D01*
X84609624Y-69652702D01*
X84633097Y-69572702D01*
X83820000Y-68759605D01*
X83006903Y-69572702D01*
X70189281Y-69572702D01*
X69267091Y-68650512D01*
X82379783Y-68650512D01*
X82421213Y-68930130D01*
X82516397Y-69196292D01*
X82583329Y-69321514D01*
X82827298Y-69393097D01*
X83640395Y-68580000D01*
X83999605Y-68580000D01*
X84812702Y-69393097D01*
X85056671Y-69321514D01*
X85177571Y-69066004D01*
X85246300Y-68791816D01*
X85249321Y-68730512D01*
X89364783Y-68730512D01*
X89406213Y-69010130D01*
X89501397Y-69276292D01*
X89568329Y-69401514D01*
X89812298Y-69473097D01*
X90625395Y-68660000D01*
X89812298Y-67846903D01*
X89568329Y-67918486D01*
X89447429Y-68173996D01*
X89378700Y-68448184D01*
X89364783Y-68730512D01*
X85249321Y-68730512D01*
X85260217Y-68509488D01*
X85218787Y-68229870D01*
X85123603Y-67963708D01*
X85056671Y-67838486D01*
X84812702Y-67766903D01*
X83999605Y-68580000D01*
X83640395Y-68580000D01*
X82827298Y-67766903D01*
X82583329Y-67838486D01*
X82462429Y-68093996D01*
X82393700Y-68368184D01*
X82379783Y-68650512D01*
X69267091Y-68650512D01*
X66696534Y-66079956D01*
X66668817Y-66046183D01*
X66534059Y-65935589D01*
X66380313Y-65853411D01*
X66213490Y-65802805D01*
X66083477Y-65790000D01*
X66083469Y-65790000D01*
X66040000Y-65785719D01*
X65996531Y-65790000D01*
X64768583Y-65790000D01*
X64893399Y-65625382D01*
X65033502Y-65337107D01*
X65090124Y-65150434D01*
X64970777Y-64897000D01*
X63627000Y-64897000D01*
X63627000Y-64917000D01*
X63373000Y-64917000D01*
X63373000Y-64897000D01*
X62029223Y-64897000D01*
X61924967Y-65118389D01*
X61845000Y-65038422D01*
X61845000Y-55611578D01*
X61961579Y-55495000D01*
X62124941Y-55495000D01*
X62230013Y-55652252D01*
G36*
X112570506Y-65580537D02*
G01*
X112593667Y-65592917D01*
X112685750Y-65685000D01*
X112799337Y-65675454D01*
X112800518Y-65675812D01*
X112925000Y-65688072D01*
X113475000Y-65688072D01*
X113599482Y-65675812D01*
X113600000Y-65675655D01*
X113600518Y-65675812D01*
X113725000Y-65688072D01*
X114275000Y-65688072D01*
X114399482Y-65675812D01*
X114400000Y-65675655D01*
X114400518Y-65675812D01*
X114525000Y-65688072D01*
X115075000Y-65688072D01*
X115199482Y-65675812D01*
X115200000Y-65675655D01*
X115200518Y-65675812D01*
X115325000Y-65688072D01*
X115380685Y-65688072D01*
X115332795Y-65759744D01*
X115254774Y-65948102D01*
X115215000Y-66148061D01*
X115215000Y-66351939D01*
X115254774Y-66551898D01*
X115332795Y-66740256D01*
X115446063Y-66909774D01*
X115590226Y-67053937D01*
X115759744Y-67167205D01*
X115948102Y-67245226D01*
X116148061Y-67285000D01*
X116351939Y-67285000D01*
X116551898Y-67245226D01*
X116740256Y-67167205D01*
X116750000Y-67160694D01*
X116759744Y-67167205D01*
X116948102Y-67245226D01*
X117115001Y-67278424D01*
X117115000Y-68786545D01*
X117082795Y-68834744D01*
X117004774Y-69023102D01*
X116965000Y-69223061D01*
X116965000Y-69426939D01*
X117004774Y-69626898D01*
X117082795Y-69815256D01*
X117115001Y-69863456D01*
X117115000Y-73043476D01*
X117115001Y-73043486D01*
X117115000Y-74315000D01*
X117072998Y-74315000D01*
X117072998Y-74455166D01*
X117029494Y-74419463D01*
X117006333Y-74407083D01*
X116914250Y-74315000D01*
X116800663Y-74324546D01*
X116799482Y-74324188D01*
X116675000Y-74311928D01*
X116125000Y-74311928D01*
X116000518Y-74324188D01*
X116000000Y-74324345D01*
X115999482Y-74324188D01*
X115875000Y-74311928D01*
X115325000Y-74311928D01*
X115200518Y-74324188D01*
X115200000Y-74324345D01*
X115199482Y-74324188D01*
X115075000Y-74311928D01*
X114525000Y-74311928D01*
X114400518Y-74324188D01*
X114400000Y-74324345D01*
X114399482Y-74324188D01*
X114275000Y-74311928D01*
X113725000Y-74311928D01*
X113600518Y-74324188D01*
X113600000Y-74324345D01*
X113599482Y-74324188D01*
X113475000Y-74311928D01*
X112925000Y-74311928D01*
X112800518Y-74324188D01*
X112800000Y-74324345D01*
X112799482Y-74324188D01*
X112675000Y-74311928D01*
X112125000Y-74311928D01*
X112000518Y-74324188D01*
X112000000Y-74324345D01*
X111999482Y-74324188D01*
X111875000Y-74311928D01*
X111325000Y-74311928D01*
X111200518Y-74324188D01*
X111199337Y-74324546D01*
X111085750Y-74315000D01*
X110993667Y-74407083D01*
X110970506Y-74419463D01*
X110927002Y-74455166D01*
X110927002Y-74315000D01*
X110885000Y-74315000D01*
X110885000Y-73543466D01*
X110889281Y-73499999D01*
X110885000Y-73456533D01*
X110885000Y-73456523D01*
X110872195Y-73326510D01*
X110821589Y-73159687D01*
X110739411Y-73005941D01*
X110628817Y-72871183D01*
X110595044Y-72843466D01*
X110356534Y-72604956D01*
X110328817Y-72571183D01*
X110194059Y-72460589D01*
X110040313Y-72378411D01*
X109873490Y-72327805D01*
X109743477Y-72315000D01*
X109743469Y-72315000D01*
X109700000Y-72310719D01*
X109688072Y-72311894D01*
X109688072Y-72125000D01*
X109675812Y-72000518D01*
X109675655Y-72000000D01*
X109675812Y-71999482D01*
X109688072Y-71875000D01*
X109688072Y-71325000D01*
X109675812Y-71200518D01*
X109675454Y-71199337D01*
X109685000Y-71085750D01*
X109592917Y-70993667D01*
X109580537Y-70970506D01*
X109501185Y-70873815D01*
X109411241Y-70800000D01*
X109501185Y-70726185D01*
X109580537Y-70629494D01*
X109592917Y-70606333D01*
X109685000Y-70514250D01*
X109675454Y-70400663D01*
X109675812Y-70399482D01*
X109688072Y-70275000D01*
X109688072Y-70085000D01*
X111011546Y-70085000D01*
X111059744Y-70117205D01*
X111248102Y-70195226D01*
X111448061Y-70235000D01*
X111651939Y-70235000D01*
X111851898Y-70195226D01*
X112040256Y-70117205D01*
X112209774Y-70003937D01*
X112353937Y-69859774D01*
X112467205Y-69690256D01*
X112545226Y-69501898D01*
X112585000Y-69301939D01*
X112585000Y-69098061D01*
X112545226Y-68898102D01*
X112533000Y-68868586D01*
X112533000Y-65549757D01*
X112570506Y-65580537D01*
G37*
X112570506Y-65580537D02*
X112593667Y-65592917D01*
X112685750Y-65685000D01*
X112799337Y-65675454D01*
X112800518Y-65675812D01*
X112925000Y-65688072D01*
X113475000Y-65688072D01*
X113599482Y-65675812D01*
X113600000Y-65675655D01*
X113600518Y-65675812D01*
X113725000Y-65688072D01*
X114275000Y-65688072D01*
X114399482Y-65675812D01*
X114400000Y-65675655D01*
X114400518Y-65675812D01*
X114525000Y-65688072D01*
X115075000Y-65688072D01*
X115199482Y-65675812D01*
X115200000Y-65675655D01*
X115200518Y-65675812D01*
X115325000Y-65688072D01*
X115380685Y-65688072D01*
X115332795Y-65759744D01*
X115254774Y-65948102D01*
X115215000Y-66148061D01*
X115215000Y-66351939D01*
X115254774Y-66551898D01*
X115332795Y-66740256D01*
X115446063Y-66909774D01*
X115590226Y-67053937D01*
X115759744Y-67167205D01*
X115948102Y-67245226D01*
X116148061Y-67285000D01*
X116351939Y-67285000D01*
X116551898Y-67245226D01*
X116740256Y-67167205D01*
X116750000Y-67160694D01*
X116759744Y-67167205D01*
X116948102Y-67245226D01*
X117115001Y-67278424D01*
X117115000Y-68786545D01*
X117082795Y-68834744D01*
X117004774Y-69023102D01*
X116965000Y-69223061D01*
X116965000Y-69426939D01*
X117004774Y-69626898D01*
X117082795Y-69815256D01*
X117115001Y-69863456D01*
X117115000Y-73043476D01*
X117115001Y-73043486D01*
X117115000Y-74315000D01*
X117072998Y-74315000D01*
X117072998Y-74455166D01*
X117029494Y-74419463D01*
X117006333Y-74407083D01*
X116914250Y-74315000D01*
X116800663Y-74324546D01*
X116799482Y-74324188D01*
X116675000Y-74311928D01*
X116125000Y-74311928D01*
X116000518Y-74324188D01*
X116000000Y-74324345D01*
X115999482Y-74324188D01*
X115875000Y-74311928D01*
X115325000Y-74311928D01*
X115200518Y-74324188D01*
X115200000Y-74324345D01*
X115199482Y-74324188D01*
X115075000Y-74311928D01*
X114525000Y-74311928D01*
X114400518Y-74324188D01*
X114400000Y-74324345D01*
X114399482Y-74324188D01*
X114275000Y-74311928D01*
X113725000Y-74311928D01*
X113600518Y-74324188D01*
X113600000Y-74324345D01*
X113599482Y-74324188D01*
X113475000Y-74311928D01*
X112925000Y-74311928D01*
X112800518Y-74324188D01*
X112800000Y-74324345D01*
X112799482Y-74324188D01*
X112675000Y-74311928D01*
X112125000Y-74311928D01*
X112000518Y-74324188D01*
X112000000Y-74324345D01*
X111999482Y-74324188D01*
X111875000Y-74311928D01*
X111325000Y-74311928D01*
X111200518Y-74324188D01*
X111199337Y-74324546D01*
X111085750Y-74315000D01*
X110993667Y-74407083D01*
X110970506Y-74419463D01*
X110927002Y-74455166D01*
X110927002Y-74315000D01*
X110885000Y-74315000D01*
X110885000Y-73543466D01*
X110889281Y-73499999D01*
X110885000Y-73456533D01*
X110885000Y-73456523D01*
X110872195Y-73326510D01*
X110821589Y-73159687D01*
X110739411Y-73005941D01*
X110628817Y-72871183D01*
X110595044Y-72843466D01*
X110356534Y-72604956D01*
X110328817Y-72571183D01*
X110194059Y-72460589D01*
X110040313Y-72378411D01*
X109873490Y-72327805D01*
X109743477Y-72315000D01*
X109743469Y-72315000D01*
X109700000Y-72310719D01*
X109688072Y-72311894D01*
X109688072Y-72125000D01*
X109675812Y-72000518D01*
X109675655Y-72000000D01*
X109675812Y-71999482D01*
X109688072Y-71875000D01*
X109688072Y-71325000D01*
X109675812Y-71200518D01*
X109675454Y-71199337D01*
X109685000Y-71085750D01*
X109592917Y-70993667D01*
X109580537Y-70970506D01*
X109501185Y-70873815D01*
X109411241Y-70800000D01*
X109501185Y-70726185D01*
X109580537Y-70629494D01*
X109592917Y-70606333D01*
X109685000Y-70514250D01*
X109675454Y-70400663D01*
X109675812Y-70399482D01*
X109688072Y-70275000D01*
X109688072Y-70085000D01*
X111011546Y-70085000D01*
X111059744Y-70117205D01*
X111248102Y-70195226D01*
X111448061Y-70235000D01*
X111651939Y-70235000D01*
X111851898Y-70195226D01*
X112040256Y-70117205D01*
X112209774Y-70003937D01*
X112353937Y-69859774D01*
X112467205Y-69690256D01*
X112545226Y-69501898D01*
X112585000Y-69301939D01*
X112585000Y-69098061D01*
X112545226Y-68898102D01*
X112533000Y-68868586D01*
X112533000Y-65549757D01*
X112570506Y-65580537D01*
%TD*%
M02*
