<?xml version="1.0" standalone="no"?>
 <!DOCTYPE svg PUBLIC "-//W3C//DTD SVG 1.1//EN" 
 "http://www.w3.org/Graphics/SVG/1.1/DTD/svg11.dtd"> 
<svg
  xmlns:svg="http://www.w3.org/2000/svg"
  xmlns="http://www.w3.org/2000/svg"
  xmlns:xlink="http://www.w3.org/1999/xlink"
  version="1.1"
  width="29.700220cm" height="21.000720cm" viewBox="0 0 116930 82680">
<title>SVG Picture created as sim-F_SilkS.svg date 2020/10/19 15:43:01 </title>
  <desc>Picture generated by PCBNEW </desc>
<g style="fill:#000000; fill-opacity:1;stroke:#000000; stroke-opacity:1;
stroke-linecap:round; stroke-linejoin:round;"
 transform="translate(0 0) scale(1 1)">
</g>
<g style="fill:#000000; fill-opacity:0.0; 
stroke:#000000; stroke-width:-0.000393701; stroke-opacity:1; 
stroke-linecap:round; stroke-linejoin:round;">
</g>
<g style="fill:#000000; fill-opacity:0.0; 
stroke:#000000; stroke-width:59.0551; stroke-opacity:1; 
stroke-linecap:round; stroke-linejoin:round;">
<text x="24750" y="33196.9"
textLength="2609.49" font-size="524.934" lengthAdjust="spacingAndGlyphs"
text-anchor="middle" opacity="0">NEXTION</text>
<path d="M23615 33178
L23615 32784
L23840 33178
L23840 32784
" />
<path d="M24028 32971
L24159 32971
" />
<path d="M24215 33178
L24028 33178
L24028 32784
L24215 32784
" />
<path d="M24346 32784
L24609 33178
" />
<path d="M24609 32784
L24346 33178
" />
<path d="M24703 32784
L24928 32784
" />
<path d="M24815 33178
L24815 32784
" />
<path d="M25059 33178
L25059 32784
" />
<path d="M25321 32784
L25396 32784
L25434 32803
L25471 32840
L25490 32915
L25490 33046
L25471 33121
L25434 33159
L25396 33178
L25321 33178
L25284 33159
L25246 33121
L25228 33046
L25228 32915
L25246 32840
L25284 32803
L25321 32784
" />
<path d="M25659 33178
L25659 32784
L25884 33178
L25884 32784
" />
<text x="26000" y="32196.9"
textLength="789.183" font-size="524.934" lengthAdjust="spacingAndGlyphs"
text-anchor="middle" opacity="0">5V</text>
<path d="M25925 31784
L25737 31784
L25718 31971
L25737 31953
L25775 31934
L25868 31934
L25906 31953
L25925 31971
L25943 32009
L25943 32103
L25925 32140
L25906 32159
L25868 32178
L25775 32178
L25737 32159
L25718 32140
" />
<path d="M26056 31784
L26187 32178
L26318 31784
" />
<text x="26000" y="31196.9"
textLength="845.426" font-size="524.934" lengthAdjust="spacingAndGlyphs"
text-anchor="middle" opacity="0">RX</text>
<path d="M25934 31178
L25803 30990
" />
<path d="M25709 31178
L25709 30784
L25859 30784
L25896 30803
L25915 30821
L25934 30859
L25934 30915
L25915 30953
L25896 30971
L25859 30990
L25709 30990
" />
<path d="M26065 30784
L26328 31178
" />
<path d="M26328 30784
L26065 31178
" />
<text x="26000" y="30196.9"
textLength="751.687" font-size="524.934" lengthAdjust="spacingAndGlyphs"
text-anchor="middle" opacity="0">TX</text>
<path d="M25700 29784
L25925 29784
" />
<path d="M25812 30178
L25812 29784
" />
<path d="M26018 29784
L26281 30178
" />
<path d="M26281 29784
L26018 30178
" />
<text x="26250" y="29196.9"
textLength="1276.62" font-size="524.934" lengthAdjust="spacingAndGlyphs"
text-anchor="middle" opacity="0">GND</text>
<path d="M25950 28803
L25912 28784
L25856 28784
L25800 28803
L25762 28840
L25743 28878
L25725 28953
L25725 29009
L25743 29084
L25762 29121
L25800 29159
L25856 29178
L25893 29178
L25950 29159
L25968 29140
L25968 29009
L25893 29009
" />
<path d="M26137 29178
L26137 28784
L26362 29178
L26362 28784
" />
<path d="M26549 29178
L26549 28784
L26643 28784
L26699 28803
L26737 28840
L26756 28878
L26774 28953
L26774 29009
L26756 29084
L26737 29121
L26699 29159
L26643 29178
L26549 29178
" />
</g>
<g style="fill:#000000; fill-opacity:0.0; 
stroke:#000000; stroke-width:47.2441; stroke-opacity:1; 
stroke-linecap:round; stroke-linejoin:round;">
<path d="M24437 14082
L24437 13629
" />
<path d="M21562 14082
L24437 14082
" />
<path d="M21562 11917
L24437 11917
" />
<path d="M53562 11917
L56437 11917
" />
<path d="M53562 14082
L56437 14082
" />
<path d="M56437 14082
L56437 13629
" />
<path d="M28437 14082
L28437 13629
" />
<path d="M25562 14082
L28437 14082
" />
<path d="M25562 11917
L28437 11917
" />
<path d="M60437 14082
L60437 13629
" />
<path d="M57562 14082
L60437 14082
" />
<path d="M57562 11917
L60437 11917
" />
<path d="M29562 11917
L32437 11917
" />
<path d="M29562 14082
L32437 14082
" />
<path d="M32437 14082
L32437 13629
" />
<path d="M61562 11917
L64437 11917
" />
<path d="M61562 14082
L64437 14082
" />
<path d="M64437 14082
L64437 13629
" />
<path d="M36437 14082
L36437 13629
" />
<path d="M33562 14082
L36437 14082
" />
<path d="M33562 11917
L36437 11917
" />
<path d="M37539 11917
L40413 11917
" />
<path d="M37539 14082
L40413 14082
" />
<path d="M40413 14082
L40413 13629
" />
<path d="M44437 14082
L44437 13629
" />
<path d="M41562 14082
L44437 14082
" />
<path d="M41562 11917
L44437 11917
" />
<path d="M45562 11917
L48437 11917
" />
<path d="M45562 14082
L48437 14082
" />
<path d="M48437 14082
L48437 13629
" />
<path d="M49562 11917
L52437 11917
" />
<path d="M49562 14082
L52437 14082
" />
<path d="M52437 14082
L52437 13629
" />
<path d="M65562 11917
L68437 11917
" />
<path d="M65562 14082
L68437 14082
" />
<path d="M68437 14082
L68437 13629
" />
<g >
</g>
<g >
</g>
<g >
</g>
<g >
</g>
<g >
</g>
<g >
</g>
<g >
</g>
<g >
</g>
<g >
</g>
<g >
</g>
<g >
</g>
<g >
</g>
<g >
</g>
<g >
</g>
<g >
</g>
<g >
</g>
<g >
</g>
<g >
</g>
<g >
</g>
<g >
</g>
<g >
</g>
<g >
</g>
<g >
</g>
<g >
</g>
<g >
</g>
<g >
</g>
<g >
</g>
<g >
</g>
<g >
</g>
<g >
</g>
</g>
<g style="fill:#000000; fill-opacity:0.0; 
stroke:#000000; stroke-width:47.2441; stroke-opacity:1; 
stroke-linecap:round; stroke-linejoin:round;">
</g>
<g style="fill:#000000; fill-opacity:0.0; 
stroke:#000000; stroke-width:59.0551; stroke-opacity:1; 
stroke-linecap:round; stroke-linejoin:round;">
<text x="21366.1" y="12566.9"
textLength="451.725" font-size="524.934" lengthAdjust="spacingAndGlyphs"
text-anchor="middle" opacity="0">1</text>
<path d="M21478 12548
L21253 12548
" />
<path d="M21366 12548
L21366 12154
L21328 12210
L21291 12248
L21253 12266
" />
<text x="53366.1" y="12566.9"
textLength="451.725" font-size="524.934" lengthAdjust="spacingAndGlyphs"
text-anchor="middle" opacity="0">1</text>
<path d="M53478 12548
L53253 12548
" />
<path d="M53366 12548
L53366 12154
L53328 12210
L53291 12248
L53253 12266
" />
<text x="25366.1" y="12566.9"
textLength="451.725" font-size="524.934" lengthAdjust="spacingAndGlyphs"
text-anchor="middle" opacity="0">1</text>
<path d="M25478 12548
L25253 12548
" />
<path d="M25366 12548
L25366 12154
L25328 12210
L25291 12248
L25253 12266
" />
<text x="57366.1" y="12566.9"
textLength="451.725" font-size="524.934" lengthAdjust="spacingAndGlyphs"
text-anchor="middle" opacity="0">1</text>
<path d="M57478 12548
L57253 12548
" />
<path d="M57366 12548
L57366 12154
L57328 12210
L57291 12248
L57253 12266
" />
<text x="29366.1" y="12566.9"
textLength="451.725" font-size="524.934" lengthAdjust="spacingAndGlyphs"
text-anchor="middle" opacity="0">1</text>
<path d="M29478 12548
L29253 12548
" />
<path d="M29366 12548
L29366 12154
L29328 12210
L29291 12248
L29253 12266
" />
<text x="61366.1" y="12566.9"
textLength="451.725" font-size="524.934" lengthAdjust="spacingAndGlyphs"
text-anchor="middle" opacity="0">1</text>
<path d="M61478 12548
L61253 12548
" />
<path d="M61366 12548
L61366 12154
L61328 12210
L61291 12248
L61253 12266
" />
<text x="33366.1" y="12566.9"
textLength="451.725" font-size="524.934" lengthAdjust="spacingAndGlyphs"
text-anchor="middle" opacity="0">1</text>
<path d="M33478 12548
L33253 12548
" />
<path d="M33366 12548
L33366 12154
L33328 12210
L33291 12248
L33253 12266
" />
<text x="37342.5" y="12566.9"
textLength="451.725" font-size="524.934" lengthAdjust="spacingAndGlyphs"
text-anchor="middle" opacity="0">1</text>
<path d="M37455 12548
L37230 12548
" />
<path d="M37342 12548
L37342 12154
L37305 12210
L37267 12248
L37230 12266
" />
<text x="41366.1" y="12566.9"
textLength="451.725" font-size="524.934" lengthAdjust="spacingAndGlyphs"
text-anchor="middle" opacity="0">1</text>
<path d="M41478 12548
L41253 12548
" />
<path d="M41366 12548
L41366 12154
L41328 12210
L41291 12248
L41253 12266
" />
<text x="45366.1" y="12566.9"
textLength="451.725" font-size="524.934" lengthAdjust="spacingAndGlyphs"
text-anchor="middle" opacity="0">1</text>
<path d="M45478 12548
L45253 12548
" />
<path d="M45366 12548
L45366 12154
L45328 12210
L45291 12248
L45253 12266
" />
<text x="49366.1" y="12566.9"
textLength="451.725" font-size="524.934" lengthAdjust="spacingAndGlyphs"
text-anchor="middle" opacity="0">1</text>
<path d="M49478 12548
L49253 12548
" />
<path d="M49366 12548
L49366 12154
L49328 12210
L49291 12248
L49253 12266
" />
<text x="65366.1" y="12566.9"
textLength="451.725" font-size="524.934" lengthAdjust="spacingAndGlyphs"
text-anchor="middle" opacity="0">1</text>
<path d="M65478 12548
L65253 12548
" />
<path d="M65366 12548
L65366 12154
L65328 12210
L65291 12248
L65253 12266
" />
<g >
</g>
</g> 
</svg>
