<?xml version="1.0" standalone="no"?>
 <!DOCTYPE svg PUBLIC "-//W3C//DTD SVG 1.1//EN" 
 "http://www.w3.org/Graphics/SVG/1.1/DTD/svg11.dtd"> 
<svg
  xmlns:svg="http://www.w3.org/2000/svg"
  xmlns="http://www.w3.org/2000/svg"
  xmlns:xlink="http://www.w3.org/1999/xlink"
  version="1.1"
  width="29.700220cm" height="21.000720cm" viewBox="0 0 116930 82680">
<title>SVG Picture created as sim-B_Fab.svg date 2020/10/19 15:43:01 </title>
  <desc>Picture generated by PCBNEW </desc>
<g style="fill:#000000; fill-opacity:1;stroke:#000000; stroke-opacity:1;
stroke-linecap:round; stroke-linejoin:round;"
 transform="translate(0 0) scale(1 1)">
</g>
<g style="fill:#000000; fill-opacity:0.0; 
stroke:#000000; stroke-width:-0.000393701; stroke-opacity:1; 
stroke-linecap:round; stroke-linejoin:round;">
</g>
<g style="fill:#000000; fill-opacity:0.0; 
stroke:#000000; stroke-width:39.3701; stroke-opacity:1; 
stroke-linecap:round; stroke-linejoin:round;">
<path d="M63848 30183
L66210 30183
" />
<path d="M63848 32545
L66210 32545
" />
<path d="M66210 32545
L66210 30183
" />
<path d="M63848 32545
L63848 30183
" />
<path d="M40826 21909
L40078 21909
" />
<path d="M40078 21909
L40078 20216
" />
<path d="M40078 20216
L40826 20216
" />
<path d="M40826 20216
L40826 21909
" />
</g>
<g style="fill:#000000; fill-opacity:0.0; 
stroke:#000000; stroke-width:59.0551; stroke-opacity:1; 
stroke-linecap:round; stroke-linejoin:round;">
<path d="M43307 29527
L46850 29527
" />
<path d="M46850 29527
L46850 25590
" />
<path d="M46850 25590
L42913 25590
" />
<path d="M42913 25590
L42913 29133
" />
<path d="M42913 29133
L43307 29527
" />
</g>
<g style="fill:#000000; fill-opacity:0.0; 
stroke:#000000; stroke-width:39.3701; stroke-opacity:1; 
stroke-linecap:round; stroke-linejoin:round;">
<path d="M46069 20884
L43609 20884
" />
<path d="M46069 22715
L43609 22715
" />
<path d="M46020 21012
L43658 21012
" />
<path d="M46020 22587
L43658 22587
" />
<path d="M46069.7 22715.4 A915.354 915.354 0.0 0 0 46069.7 20884.6" />
<path d="M43609.1 20884.6 A915.354 915.354 0.0 0 0 43609.1 22715.4" />
<path d="M46020.5 22587.4 A787.402 787.402 0.0 0 0 46020.5 21012.6" />
<path d="M43658.3 21012.6 A787.402 787.402 0.0 0 0 43658.3 22587.4" />
<path d="M67677 37480
L67519 37637
" />
<path d="M67519 37637
L67519 37322
" />
<path d="M67519 37322
L67677 37480
" />
<path d="M70000 36515
L67795 36515
" />
<path d="M70000 39468
L70000 36515
" />
<path d="M67795 39468
L70000 39468
" />
<path d="M67795 36515
L67795 39468
" />
<path d="M69488 36968
L69488 39015
" />
<path d="M25053 28500
L24303 28500
" />
<path d="M24303 28500
L24303 32500
" />
<path d="M24303 32500
L25303 32500
" />
<path d="M25303 32500
L25303 28750
" />
<path d="M25303 28750
L25053 28500
" />
<path d="M25250 20000
L24500 20000
" />
<path d="M24500 20000
L24500 26000
" />
<path d="M24500 26000
L25500 26000
" />
<path d="M25500 26000
L25500 20250
" />
<path d="M25500 20250
L25250 20000
" />
<path d="M48051 23562
L48799 23562
" />
<path d="M48799 23562
L48799 25255
" />
<path d="M48799 25255
L48051 25255
" />
<path d="M48051 25255
L48051 23562
" />
<circle cx="65500" cy="21250" r="590.551" /> 
<path d="M66090 20790
L66090 21709
" />
<path d="M66090.6 20790.9 A748.031 748.031 0.0 1 0 66090.8 21708.8" />
<path d="M66090 23040
L66090 23959
" />
<circle cx="65500" cy="23500" r="590.551" /> 
<path d="M66090.6 23040.9 A748.031 748.031 0.0 1 0 66090.8 23958.8" />
<path d="M32473 25766
L32670 25766
" />
<path d="M32571 25667
L32571 25864
" />
<circle cx="33000" cy="26507.9" r="984.252" /> 
<path d="M36124 28862
L35375 28862
" />
<path d="M35375 28862
L35375 27169
" />
<path d="M35375 27169
L36124 27169
" />
<path d="M36124 27169
L36124 28862
" />
<path d="M50374 25569
L50374 27262
" />
<path d="M49625 25569
L50374 25569
" />
<path d="M49625 27262
L49625 25569
" />
<path d="M50374 27262
L49625 27262
" />
<path d="M65074 39468
L64814 39468
" />
<path d="M62074 39468
L62334 39468
" />
<path d="M64814 39960
L62334 39960
" />
<path d="M64814 38976
L64814 39960
" />
<path d="M62334 38976
L64814 38976
" />
<path d="M62334 39960
L62334 38976
" />
<path d="M62334 38484
L62334 37500
" />
<path d="M62334 37500
L64814 37500
" />
<path d="M64814 37500
L64814 38484
" />
<path d="M64814 38484
L62334 38484
" />
<path d="M62074 37992
L62334 37992
" />
<path d="M65074 37992
L64814 37992
" />
<path d="M31448 29000
L31708 29000
" />
<path d="M34448 29000
L34188 29000
" />
<path d="M31708 28507
L34188 28507
" />
<path d="M31708 29492
L31708 28507
" />
<path d="M34188 29492
L31708 29492
" />
<path d="M34188 28507
L34188 29492
" />
<path d="M60259 21742
L60259 20757
" />
<path d="M60259 20757
L62740 20757
" />
<path d="M62740 20757
L62740 21742
" />
<path d="M62740 21742
L60259 21742
" />
<path d="M60000 21250
L60259 21250
" />
<path d="M63000 21250
L62740 21250
" />
<path d="M63000 23500
L62740 23500
" />
<path d="M60000 23500
L60259 23500
" />
<path d="M62740 23992
L60259 23992
" />
<path d="M62740 23007
L62740 23992
" />
<path d="M60259 23007
L62740 23007
" />
<path d="M60259 23992
L60259 23007
" />
<g >
</g>
<g >
</g>
<g >
</g>
<g >
</g>
<g >
</g>
<g >
</g>
<g >
</g>
<g >
</g>
<g >
</g>
<g >
</g>
<g >
</g>
<g >
</g>
<g >
</g>
<g >
</g>
<g >
</g>
<g >
</g>
<g >
</g>
<g >
</g>
<g >
</g>
<g >
</g>
<g >
</g>
<g >
</g>
<g >
</g>
<g >
</g>
<g >
</g>
<g >
</g>
<g >
</g>
<g >
</g>
<g >
</g>
<g >
</g>
<g >
</g>
</g> 
</svg>
