M48
; DRILL file {KiCad (5.1.6)-1} date 10/19/20 15:42:50
; FORMAT={-:-/ absolute / inch / decimal}
; #@! TF.CreationDate,2020-10-19T15:42:50+08:00
; #@! TF.GenerationSoftware,Kicad,Pcbnew,(5.1.6)-1
FMAT,2
INCH
T1C0.0157
T2C0.0315
T3C0.0354
T4C0.0394
T5C0.0472
T6C0.0512
%
G90
G05
T1
X2.1135Y-1.939
X4.1339Y-2.8543
X4.1929Y-2.8543
X4.2618Y-3.124
X4.2618Y-3.1693
X4.35Y-2.6909
X4.3917Y-2.7244
X4.5768Y-2.6083
X4.6161Y-2.6083
X4.6457Y-2.7293
T2
X6.2075Y-3.9469
X6.5075Y-3.9469
X4.3879Y-2.18
X4.58Y-2.18
X3.1449Y-2.9
X3.4449Y-2.9
X4.8425Y-2.3425
X4.8425Y-2.5394
X6.0Y-2.35
X6.3Y-2.35
X6.2075Y-3.7992
X6.5075Y-3.7992
X3.3Y-2.6016
X3.3Y-2.7
X4.0453Y-2.0079
X4.0453Y-2.2047
X6.0Y-2.125
X6.3Y-2.125
X5.0Y-2.5431
X5.0Y-2.74
X3.575Y-2.7031
X3.575Y-2.9
T3
X6.5Y-2.35
X6.6Y-2.35
X6.5Y-2.125
X6.6Y-2.125
T4
X6.375Y-3.0478
X6.375Y-3.225
X6.6309Y-3.0478
X6.6309Y-3.225
T5
X2.5Y-2.15
X2.5Y-2.25
X2.5Y-2.35
X2.5Y-2.45
X2.5Y-2.55
X2.4803Y-2.9
X2.4803Y-3.0
X2.4803Y-3.1
X2.4803Y-3.2
T6
X2.5Y-2.05
T0
M30
